<svg width="16" height="16" viewBox="0 0 16 16" fill="none" xmlns="http://www.w3.org/2000/svg">
<path d="M8 0C6.41775 0 4.87103 0.469192 3.55544 1.34824C2.23985 2.22729 1.21447 3.47672 0.608967 4.93853C0.00346628 6.40034 -0.15496 8.00887 0.153721 9.56072C0.462403 11.1126 1.22433 12.538 2.34315 13.6569C3.46197 14.7757 4.88743 15.5376 6.43928 15.8463C7.99113 16.155 9.59966 15.9965 11.0615 15.391C12.5233 14.7855 13.7727 13.7602 14.6518 12.4446C15.5308 11.129 16 9.58225 16 8C15.9978 5.87895 15.1542 3.84542 13.6544 2.34562C12.1546 0.845814 10.121 0.00223986 8 0ZM8.61539 14.7408V9.84615H10.4615C10.6247 9.84615 10.7813 9.78132 10.8967 9.66591C11.0121 9.5505 11.0769 9.39398 11.0769 9.23077C11.0769 9.06756 11.0121 8.91103 10.8967 8.79562C10.7813 8.68022 10.6247 8.61538 10.4615 8.61538H8.61539V6.76923C8.61539 6.44281 8.74506 6.12976 8.97587 5.89894C9.20668 5.66813 9.51973 5.53846 9.84616 5.53846H11.0769C11.2401 5.53846 11.3967 5.47363 11.5121 5.35822C11.6275 5.24281 11.6923 5.08629 11.6923 4.92308C11.6923 4.75987 11.6275 4.60334 11.5121 4.48793C11.3967 4.37253 11.2401 4.30769 11.0769 4.30769H9.84616C9.19331 4.30769 8.56721 4.56703 8.10559 5.02866C7.64396 5.49029 7.38462 6.11639 7.38462 6.76923V8.61538H5.53846C5.37525 8.61538 5.21873 8.68022 5.10332 8.79562C4.98791 8.91103 4.92308 9.06756 4.92308 9.23077C4.92308 9.39398 4.98791 9.5505 5.10332 9.66591C5.21873 9.78132 5.37525 9.84615 5.53846 9.84615H7.38462V14.7408C5.64984 14.5824 4.0429 13.7614 2.89803 12.4484C1.75317 11.1355 1.15852 9.43174 1.23778 7.69156C1.31705 5.95137 2.06412 4.30873 3.3236 3.10531C4.58308 1.90189 6.25802 1.23034 8 1.23034C9.74199 1.23034 11.4169 1.90189 12.6764 3.10531C13.9359 4.30873 14.683 5.95137 14.7622 7.69156C14.8415 9.43174 14.2468 11.1355 13.102 12.4484C11.9571 13.7614 10.3502 14.5824 8.61539 14.7408Z" fill="#F5F1D7"/>
</svg>
