<svg width="730" height="1100" viewBox="0 0 730 1100" fill="none" xmlns="http://www.w3.org/2000/svg">
<g clip-path="url(#clip0_579_20213)">
<path d="M-85.1275 1037.1L-96.8164 1023.62C-66.9976 997.62 15.0637 937.506 133.146 937.506C133.743 937.506 134.339 937.506 134.935 937.506C250.99 938.102 331.859 996.786 361.32 1021.95L349.631 1035.55C321.72 1011.58 244.907 955.874 134.816 955.397C134.22 955.397 133.743 955.397 133.146 955.397C21.0275 955.397 -56.74 1012.41 -85.1275 1037.1Z" fill="#2E5629"/>
<path d="M-84.4101 1040.32L-100.035 1022.31C-69.7393 995.952 14.1112 934.883 133.625 935.479C250.634 936.075 332.218 995.236 361.918 1020.76L346.412 1038.89C318.74 1015.15 242.642 959.93 133.506 959.453C132.909 959.453 132.432 959.453 131.836 959.453C20.7906 959.453 -56.3804 1015.99 -84.4101 1040.44V1040.32Z" fill="#2E5629"/>
<path d="M79.8312 959.334C76.0144 959.334 72.1975 957.545 69.9313 954.086L-11.2951 834.095C-14.9926 828.608 -13.5613 821.213 -8.07462 817.515C-2.58796 813.818 4.80709 815.249 8.50463 820.736L89.6117 940.727C93.3093 946.213 91.878 953.608 86.3913 957.306C84.3636 958.737 81.9781 959.334 79.7119 959.334H79.8312Z" fill="#2E5629"/>
<path d="M131 -15.145C448.63 -15.145 706.145 242.37 706.145 560C706.145 877.63 448.63 1135.15 131 1135.15C-186.63 1135.15 -444.145 877.63 -444.145 560C-444.145 242.37 -186.63 -15.145 131 -15.145ZM131 -39C-199.273 -39 -468 229.727 -468 560C-468 890.273 -199.273 1159 131 1159C461.273 1159 730 890.273 730 560C730 229.727 461.273 -39 131 -39Z" fill="#2E5629"/>
<path d="M130.999 1087.08C-161.702 1087.08 -399.775 849.003 -399.775 556.302C-399.775 263.601 -161.702 25.5273 130.999 25.5273C423.701 25.5273 661.774 263.601 661.774 556.302C661.774 849.003 423.701 1087.08 130.999 1087.08ZM130.999 37.4549C-155.023 37.4549 -387.848 270.161 -387.848 556.302C-387.848 842.443 -155.142 1075.15 130.999 1075.15C417.14 1075.15 649.846 842.443 649.846 556.302C649.846 270.161 417.14 37.4549 130.999 37.4549Z" fill="#2E5629"/>
<path d="M386.249 312.742C378.138 302.365 348.438 267.417 299.416 260.738C265.9 256.206 239.898 267.179 224.631 273.858C144.359 309.045 112.632 395.161 104.759 418.539C-72.3643 612.242 -249.607 805.826 -426.731 999.529C-439.732 1028.75 -436.631 1061.43 -418.501 1081.23C-393.095 1109.02 -339.064 1110.45 -303.52 1073.48C-238.872 994.042 -174.345 914.724 -109.697 835.287C-109.697 835.287 487.394 910.788 363.109 460.047C360.724 452.294 356.191 432.971 363.109 410.428C364.779 405.18 372.413 381.922 393.286 367.609C395.552 366.058 397.341 364.985 399.846 363.553C406.526 359.736 417.618 354.369 437.895 348.525C486.082 334.689 497.294 333.377 497.413 329.202C497.652 322.046 465.09 314.293 440.758 311.669C417.976 309.283 399.011 310.953 386.249 312.861V312.742Z" fill="#F5F1D7"/>
<path d="M-367.809 1113.56C-367.809 1113.56 -368.644 1113.56 -369.002 1113.56C-392.141 1113.32 -413.372 1104.37 -427.208 1089.22C-448.32 1066.08 -452.495 1028.16 -437.466 994.639L-436.631 992.85L94.5015 412.337C106.668 377.032 141.973 297.237 219.979 263.005C234.173 256.803 263.634 243.921 301.205 248.93C345.456 254.894 375.514 281.612 391.377 300.099C408.314 298.072 425.371 297.953 442.189 299.742C487.394 304.513 510.056 314.532 509.579 329.56C509.221 341.249 500.633 343.635 475.347 350.553C466.878 352.819 455.786 355.92 441.473 359.976C426.325 364.389 414.755 368.921 406.048 373.931C403.901 375.124 402.231 376.078 400.323 377.509C383.505 389.198 376.587 408.401 374.798 414.007C369.192 432.376 372.413 448.597 374.798 456.708C407.36 574.91 394.359 668.779 336.153 735.931C281.406 799.028 189.325 836.957 62.4165 848.527C-16.5437 855.683 -83.3378 850.077 -104.211 847.93L-293.978 1081.11C-314.135 1102.11 -340.734 1113.68 -367.69 1113.68L-367.809 1113.56ZM-416.473 1006.09C-426.731 1030.54 -424.107 1057.26 -409.555 1073.12C-400.133 1083.5 -385.223 1089.46 -368.644 1089.7C-347.89 1089.94 -327.136 1080.99 -311.988 1065.13L-114.588 822.525L-108.028 823.36C-105.046 823.718 196.84 859.977 318.023 720.067C370.623 659.237 381.955 572.882 351.778 463.029C347.961 450.267 344.741 429.871 351.778 406.731C354.76 397.189 363.944 373.215 386.487 357.59C388.992 355.801 391.139 354.608 393.882 353.058C404.259 347.094 417.618 341.846 434.555 336.956C447.914 333.139 458.529 330.157 466.759 328.01C458.887 326.221 449.464 324.551 439.445 323.477C422.389 321.688 405.094 322.046 387.918 324.551L381.12 325.505L376.826 320.018C367.045 307.614 339.731 278.153 297.746 272.428C266.854 268.253 242.403 278.868 229.282 284.713C158.075 315.844 126.348 391.226 115.971 422.237L115.136 424.623L-416.473 1006.09Z" fill="#2E5629"/>
<path d="M-115.064 793.78C-148.581 793.78 -182.216 790.202 -215.017 783.165C-221.458 781.733 -225.513 775.412 -224.201 768.971C-222.77 762.53 -216.448 758.475 -210.007 759.787C-177.564 766.705 -144.287 770.164 -111.128 769.806C81.8591 768.136 232.623 664.844 252.303 569.424C256.359 549.862 259.937 512.41 238.587 480.444C200.299 422.954 109.65 429.991 105.833 430.349C99.154 430.826 93.5481 426.055 92.9517 419.495C92.3553 412.934 97.2456 407.209 103.806 406.613C114.898 405.659 213.181 399.337 258.386 467.324C284.508 506.566 280.452 551.294 275.681 574.433C248.844 703.966 54.1873 792.468 -111.009 793.899C-112.44 793.899 -113.752 793.899 -115.183 793.899L-115.064 793.78Z" fill="#2E5629"/>
<path d="M-105.642 729.728C-127.35 729.728 -149.178 727.819 -170.409 724.122C-173.629 723.525 -175.776 720.424 -175.299 717.204C-174.703 713.983 -171.601 711.836 -168.381 712.313C-143.452 716.607 -117.808 718.396 -92.4027 717.442C26.0376 713.148 167.617 649.336 181.572 564.651C183.004 555.944 186.343 525.767 168.333 503.94C147.102 478.176 101.658 471.497 52.3974 487.122C49.2962 488.076 45.9565 486.406 44.883 483.186C43.9288 480.085 45.5987 476.745 48.8191 475.671C103.566 458.377 152.946 466.249 177.517 496.306C198.629 521.95 194.931 556.54 193.261 566.559C178.233 658.282 33.5519 724.837 -92.0449 729.37C-96.5773 729.489 -101.11 729.608 -105.642 729.608V729.728Z" fill="#2E5629"/>
<path d="M145.194 957.544C141.378 957.544 137.561 955.755 135.295 952.296L50.967 827.772C47.2695 822.286 57.0133 829.197 62.5 825.5C67.9867 821.802 77.8025 824.513 81.5 830L155.094 938.937C158.792 944.423 157.36 951.818 151.874 955.516C149.846 956.947 147.461 957.544 145.194 957.544Z" fill="#2E5629"/>
<path d="M299.058 364.389C314.077 364.389 326.253 352.214 326.253 337.195C326.253 322.176 314.077 310 299.058 310C284.039 310 271.863 322.176 271.863 337.195C271.863 352.214 284.039 364.389 299.058 364.389Z" fill="#2E5629"/>
<path d="M389.35 377.389C388.276 377.389 387.083 377.031 386.129 376.435C365.972 363.315 357.98 353.415 360.366 344.469C361.439 340.295 364.421 338.028 367.164 335.882C369.55 334.092 372.174 332.065 374.798 328.248C376.945 325.147 378.495 321.569 379.569 317.632C380.404 314.412 383.624 312.504 386.845 313.339C390.065 314.173 391.974 317.394 391.139 320.614C389.827 325.862 387.56 330.753 384.698 335.047C381 340.414 377.303 343.277 374.559 345.424C373.486 346.258 372.174 347.332 371.935 347.69C371.935 347.69 371.816 352.938 392.689 366.416C395.433 368.205 396.267 371.903 394.478 374.646C393.286 376.435 391.377 377.389 389.469 377.389H389.35Z" fill="#2E5629"/>
</g>
<defs>
<clipPath id="clip0_579_20213">
<rect width="1198" height="1100" fill="white" transform="translate(-468)"/>
</clipPath>
</defs>
</svg>
