<svg width="332" height="104" viewBox="0 0 332 104" fill="none" xmlns="http://www.w3.org/2000/svg">
<g clip-path="url(#clip0_579_19362)">
<path d="M92.8173 17.2076V35.1489H103.527C103.527 37.5533 101.603 39.501 99.2278 39.501H92.8173V63.7738H88.1426V12.8555H104.128C104.128 15.2599 102.204 17.2076 99.8294 17.2076H92.8173Z" fill="#F5F1D7"/>
<path d="M126.824 55.4502C126.824 60.9442 123.434 64.3066 118.076 64.3066C112.718 64.3066 109.328 60.9506 109.328 55.4502V29.6484H113.552V52.7793C113.552 56.2876 113.702 60.2591 118.226 60.2591C122.751 60.2591 122.6 55.6786 122.6 52.3225V33.9244C122.6 31.5644 124.493 29.6484 126.824 29.6484V55.4502Z" fill="#F5F1D7"/>
<path d="M151.785 67.5087C151.785 73.6943 149.448 77.5071 142.962 77.5071C137.084 77.5071 134.214 73.764 134.214 68.0416C134.214 67.5848 134.214 67.128 134.289 66.741H138.588C138.588 70.1732 138.964 73.4595 143.187 73.4595C147.411 73.4595 147.486 70.1035 147.486 66.8172V61.3231C145.976 63.0043 144.397 63.7656 142.135 63.7656C133.612 63.7656 133.537 52.1621 133.537 45.9766C133.537 40.2541 134.139 29.1074 141.909 29.1074C144.322 29.1074 145.982 30.0971 147.492 32.0067V29.6403H151.791V67.5023L151.785 67.5087ZM142.811 32.6221C138.287 32.6221 137.911 40.4825 137.911 47.5816C137.911 51.2486 137.986 60.251 143.187 60.251C146.96 60.251 147.486 55.7466 147.712 52.9234C147.937 50.1003 147.937 47.4294 147.937 44.6824C147.937 41.0916 147.937 32.6221 142.811 32.6221Z" fill="#F5F1D7"/>
<path d="M159.096 59.7631V12.5117C161.471 12.5117 163.394 14.3071 163.394 16.5212V63.7726C161.019 63.7726 159.096 61.9772 159.096 59.7631Z" fill="#F5F1D7"/>
<path d="M187.973 52.168C187.748 57.6621 186.087 64.3044 179.451 64.3044C170.778 64.3044 169.65 53.3861 169.65 46.8262C169.65 40.6406 170.935 29.1133 179.15 29.1133C187.365 29.1133 188.274 39.4162 188.274 45.4495C188.274 46.1347 188.199 46.9023 188.199 47.5875H173.949V48.3488C173.949 51.781 174.476 60.2568 179.301 60.2568C183.073 60.2568 183.599 55.0673 183.675 52.1617H187.973V52.168ZM184.057 43.9206C183.906 40.869 183.53 33.0784 179.232 33.0784C174.933 33.0784 174.181 40.7866 174.031 43.9206H184.057Z" fill="#F5F1D7"/>
<path d="M211.881 63.7726C209.549 63.7726 207.657 61.8567 207.657 59.4967V38.9606C207.657 36.2135 207.582 32.6227 203.885 32.6227C202.299 32.6227 200.72 33.4602 199.887 34.8369C198.759 36.5942 198.759 38.8083 198.759 40.794V63.7726H194.535V12.5117C196.866 12.5117 198.759 14.4277 198.759 16.7877V32.3944C200.419 30.4848 202.681 29.1144 205.32 29.1144C210.822 29.1144 211.881 33.0859 211.881 37.8948V63.7726Z" fill="#F5F1D7"/>
<path d="M221.753 22.0917C219.284 22.0917 217.423 19.148 219.447 16.788C220.036 16.1028 220.863 15.6777 221.753 15.6777C223.564 15.6777 224.918 17.1305 224.918 18.9577C224.918 20.6389 223.483 22.0853 221.753 22.0853V22.0917ZM219.566 77.5144V34.0758C219.566 31.6333 221.521 29.6476 223.94 29.6476V73.0798C223.94 75.5223 221.985 77.508 219.566 77.508V77.5144Z" fill="#F5F1D7"/>
<path d="M248.45 52.168C248.224 57.6621 246.564 64.3044 239.928 64.3044C231.255 64.3044 230.127 53.3861 230.127 46.8262C230.127 40.6406 231.412 29.1133 239.627 29.1133C247.842 29.1133 248.751 39.4162 248.751 45.4495C248.751 46.1347 248.675 46.9023 248.675 47.5875H234.426V48.3488C234.426 51.781 234.952 60.2568 239.777 60.2568C243.55 60.2568 244.076 55.0673 244.151 52.1617H248.45V52.168ZM244.527 43.9206C244.377 40.869 244.001 33.0784 239.702 33.0784C235.403 33.0784 234.651 40.7866 234.501 43.9206H244.527Z" fill="#F5F1D7"/>
<path d="M255.012 59.7631V12.5117C257.387 12.5117 259.31 14.3071 259.31 16.5212V63.7726C256.935 63.7726 255.012 61.9772 255.012 59.7631Z" fill="#F5F1D7"/>
<path d="M271.071 31.9364C272.506 30.0268 274.01 29.1133 276.423 29.1133C284.719 29.1133 284.795 39.8793 284.795 46.0586C284.795 53.3861 284.569 64.3044 276.88 64.3044C274.242 64.3044 272.657 63.0038 271.071 61.0245V77.513C268.74 77.513 266.848 75.597 266.848 73.237V29.6462H271.071V31.9364ZM275.445 32.5455C271.071 32.5455 270.695 39.7207 270.695 46.5153C270.695 49.4908 270.695 57.5098 272.807 59.6478C273.559 60.4852 274.392 60.7897 275.52 60.7897C279.443 60.7897 279.894 55.9047 280.195 52.9293C280.421 50.2584 280.421 47.5875 280.421 44.9166C280.421 41.4844 280.345 32.5518 275.445 32.5518V32.5455Z" fill="#F5F1D7"/>
<path d="M308.094 52.168C307.869 57.6621 306.208 64.3044 299.572 64.3044C290.899 64.3044 289.771 53.3861 289.771 46.8262C289.771 40.6406 291.056 29.1133 299.271 29.1133C307.487 29.1133 308.395 39.4162 308.395 45.4495C308.395 46.1347 308.32 46.9023 308.32 47.5875H294.07V48.3488C294.07 51.781 294.597 60.2568 299.422 60.2568C303.194 60.2568 303.72 55.0673 303.796 52.1617H308.094V52.168ZM304.172 43.9206C304.021 40.869 303.645 33.0784 299.347 33.0784C295.048 33.0784 294.296 40.7866 294.145 43.9206H304.172Z" fill="#F5F1D7"/>
<path d="M332 63.7715C329.669 63.7715 327.776 61.8555 327.776 59.4955V38.9594C327.776 36.2124 327.701 32.6216 324.004 32.6216C322.418 32.6216 320.839 33.459 320.006 34.8357C318.878 36.5169 318.878 38.8072 318.878 40.7929V63.7715H314.654V29.6462H318.878V32.3932C320.538 30.4836 322.801 29.1133 325.439 29.1133C331.091 29.1133 332 33.846 332 38.5027V63.7715Z" fill="#F5F1D7"/>
<path d="M75.6104 95.517H71.4746V94.4512H75.6104V95.517Z" fill="#F5F1D7"/>
<path d="M89.4672 99.5128H88.1387V86.2852H91.9737C92.6129 86.2852 93.2082 86.3486 93.7534 86.4691C94.2985 86.596 94.7748 86.799 95.1758 87.0782C95.5769 87.3573 95.8839 87.7253 96.1095 88.1694C96.3351 88.6135 96.4416 89.1654 96.4416 89.8125C96.4416 90.301 96.3539 90.7388 96.1847 91.1385C96.0093 91.5381 95.7774 91.8807 95.4829 92.1725C95.1884 92.4644 94.8375 92.6991 94.4301 92.8704C94.0228 93.048 93.5842 93.1559 93.1017 93.2066L96.9242 99.5001H95.3012L91.6855 93.3145H89.4734V99.5001L89.4672 99.5128ZM89.4672 92.1725H91.7732C92.8447 92.1725 93.6656 91.9759 94.2484 91.5825C94.8312 91.1892 95.1132 90.5992 95.1132 89.8189C95.1132 89.3811 95.0317 89.0132 94.8751 88.715C94.7121 88.4168 94.4928 88.1757 94.2108 87.9854C93.9288 87.7951 93.5842 87.6618 93.1769 87.573C92.7695 87.4842 92.3246 87.4398 91.8296 87.4398H89.4672V92.1662V92.1725Z" fill="#F5F1D7"/>
<path d="M106.753 94.8824V95.1615C106.753 95.263 106.746 95.3645 106.734 95.4787H99.5777C99.5902 95.9165 99.6779 96.3225 99.8346 96.7095C99.9913 97.0965 100.217 97.4327 100.499 97.7182C100.781 98.0037 101.113 98.2321 101.495 98.3971C101.877 98.562 102.291 98.6508 102.73 98.6508C103.381 98.6508 103.945 98.4986 104.415 98.194C104.892 97.8895 105.249 97.5342 105.493 97.1409L106.433 97.8895C105.919 98.5493 105.349 99.0251 104.729 99.3106C104.108 99.5961 103.438 99.742 102.723 99.742C102.084 99.742 101.489 99.6278 100.944 99.3994C100.399 99.171 99.9286 98.8475 99.5338 98.4351C99.139 98.0227 98.832 97.5406 98.6001 96.976C98.3745 96.4177 98.2617 95.8023 98.2617 95.1425C98.2617 94.4827 98.3745 93.8737 98.5938 93.309C98.8132 92.7507 99.1202 92.2622 99.515 91.8499C99.9098 91.4375 100.367 91.1203 100.9 90.8855C101.426 90.6572 102.003 90.543 102.617 90.543C103.294 90.543 103.889 90.6572 104.409 90.8855C104.923 91.1139 105.355 91.4248 105.7 91.8181C106.045 92.2115 106.308 92.6683 106.483 93.1885C106.659 93.7087 106.753 94.2733 106.753 94.8697V94.8824ZM105.481 94.47C105.443 93.6453 105.18 92.9664 104.697 92.4272C104.209 91.8879 103.519 91.6151 102.623 91.6151C102.203 91.6151 101.815 91.6913 101.464 91.8499C101.107 92.0085 100.793 92.2178 100.524 92.4843C100.254 92.7507 100.035 93.0553 99.8785 93.3978C99.7155 93.7404 99.6278 94.0957 99.6027 94.47H105.487H105.481Z" fill="#F5F1D7"/>
<path d="M110.777 92.2106C111.009 91.7031 111.397 91.297 111.942 90.9989C112.481 90.7007 113.064 90.5484 113.678 90.5484C114.775 90.5484 115.596 90.8783 116.141 91.5381C116.686 92.1979 116.962 93.0671 116.962 94.1519V99.5127H115.708V94.6721C115.708 94.209 115.671 93.7966 115.596 93.4223C115.52 93.048 115.395 92.7308 115.22 92.458C115.044 92.1916 114.8 91.9822 114.499 91.83C114.198 91.6777 113.822 91.6079 113.365 91.6079C113.033 91.6079 112.713 91.6777 112.394 91.8109C112.08 91.9505 111.798 92.1535 111.554 92.439C111.309 92.7181 111.109 93.0734 110.965 93.5048C110.821 93.9362 110.745 94.4437 110.745 95.0274V99.5127H109.492V85.3906H110.745V92.2106H110.783H110.777Z" fill="#F5F1D7"/>
<path d="M125.648 93.8541C125.648 93.0992 125.454 92.5409 125.059 92.1666C124.664 91.7986 124.094 91.6083 123.342 91.6083C122.828 91.6083 122.346 91.7035 121.901 91.8874C121.456 92.0714 121.08 92.3252 120.773 92.6361L120.071 91.7986C120.428 91.437 120.898 91.1388 121.481 90.9041C122.064 90.6694 122.728 90.5488 123.461 90.5488C123.931 90.5488 124.363 90.6123 124.771 90.7455C125.178 90.8787 125.535 91.0691 125.842 91.3355C126.149 91.5956 126.387 91.9255 126.563 92.3252C126.738 92.7249 126.82 93.188 126.82 93.7273V97.5591C126.82 97.8954 126.832 98.2443 126.857 98.6059C126.882 98.9675 126.92 99.2721 126.97 99.5195H125.842C125.805 99.3101 125.773 99.0754 125.748 98.828C125.723 98.5806 125.711 98.3331 125.711 98.0984H125.673C125.278 98.6821 124.833 99.1071 124.338 99.3609C123.843 99.6146 123.242 99.7415 122.54 99.7415C122.208 99.7415 121.869 99.6971 121.518 99.602C121.168 99.5068 120.848 99.3545 120.56 99.1452C120.271 98.9358 120.033 98.6567 119.839 98.3204C119.651 97.9842 119.551 97.5718 119.551 97.0833C119.551 96.4108 119.72 95.8716 120.058 95.4783C120.397 95.0849 120.848 94.7931 121.412 94.5964C121.976 94.3997 122.628 94.2792 123.361 94.2221C124.094 94.165 124.852 94.1396 125.642 94.1396V93.8605L125.648 93.8541ZM125.278 95.142C124.764 95.142 124.244 95.161 123.718 95.2055C123.198 95.2499 122.722 95.3387 122.295 95.4656C121.869 95.5924 121.525 95.7891 121.255 96.0365C120.986 96.284 120.848 96.6139 120.848 97.0262C120.848 97.3371 120.904 97.5972 121.023 97.8129C121.142 98.0223 121.299 98.1936 121.493 98.3268C121.688 98.46 121.907 98.5488 122.151 98.6059C122.396 98.663 122.634 98.6884 122.878 98.6884C123.323 98.6884 123.712 98.6123 124.056 98.4537C124.401 98.2951 124.689 98.0857 124.921 97.8193C125.153 97.5528 125.335 97.2419 125.454 96.893C125.579 96.5441 125.635 96.1761 125.635 95.7891V95.1357H125.266L125.278 95.142Z" fill="#F5F1D7"/>
<path d="M131.349 98.0404V99.5186H130.096V85.3965H131.349V92.2863H131.387C131.756 91.7153 132.233 91.2839 132.828 90.9857C133.417 90.6939 134.025 90.5479 134.658 90.5479C135.334 90.5479 135.949 90.6685 136.494 90.9032C137.039 91.138 137.509 91.4615 137.897 91.8739C138.286 92.2863 138.587 92.7684 138.8 93.333C139.013 93.8913 139.126 94.5004 139.126 95.1475C139.126 95.7946 139.019 96.3973 138.8 96.9619C138.587 97.5202 138.286 98.0087 137.897 98.4211C137.509 98.8334 137.039 99.157 136.494 99.3917C135.949 99.6265 135.334 99.747 134.658 99.747C134.031 99.747 133.423 99.6011 132.828 99.3156C132.233 99.0301 131.756 98.6051 131.387 98.0468H131.349V98.0404ZM137.791 95.1411C137.791 94.6526 137.716 94.1958 137.572 93.7708C137.427 93.3457 137.214 92.9651 136.932 92.6479C136.657 92.3307 136.312 92.0769 135.911 91.8929C135.51 91.7089 135.046 91.6138 134.526 91.6138C134.044 91.6138 133.605 91.7026 133.198 91.8866C132.79 92.0642 132.439 92.318 132.145 92.6352C131.85 92.9524 131.618 93.3267 131.456 93.7581C131.293 94.1895 131.205 94.6526 131.205 95.1475C131.205 95.6423 131.286 96.1118 131.456 96.5368C131.625 96.9619 131.85 97.3362 132.145 97.6471C132.439 97.9579 132.79 98.2054 133.198 98.383C133.605 98.5606 134.044 98.6558 134.526 98.6558C135.04 98.6558 135.504 98.567 135.911 98.383C136.318 98.2054 136.657 97.9516 136.932 97.6344C137.208 97.3172 137.421 96.9429 137.572 96.5115C137.722 96.0801 137.791 95.6233 137.791 95.1411Z" fill="#F5F1D7"/>
<path d="M143.343 87.4106C143.343 87.6707 143.249 87.8865 143.068 88.0577C142.886 88.229 142.679 88.3115 142.46 88.3115C142.24 88.3115 142.034 88.229 141.852 88.0577C141.67 87.8865 141.576 87.6771 141.576 87.4106C141.576 87.1442 141.67 86.9348 141.852 86.7635C142.034 86.5922 142.24 86.5098 142.46 86.5098C142.679 86.5098 142.886 86.5922 143.068 86.7635C143.249 86.9348 143.343 87.1442 143.343 87.4106ZM143.086 99.5153H141.833V90.773H143.086V99.5153Z" fill="#F5F1D7"/>
<path d="M147.718 99.5127H146.465V85.3906H147.718V99.5127Z" fill="#F5F1D7"/>
<path d="M152.605 87.4106C152.605 87.6707 152.511 87.8865 152.329 88.0577C152.148 88.229 151.941 88.3115 151.721 88.3115C151.502 88.3115 151.295 88.229 151.114 88.0577C150.932 87.8865 150.838 87.6771 150.838 87.4106C150.838 87.1442 150.932 86.9348 151.114 86.7635C151.295 86.5922 151.502 86.5098 151.721 86.5098C151.941 86.5098 152.148 86.5922 152.329 86.7635C152.511 86.9348 152.605 87.1442 152.605 87.4106ZM152.348 99.5153H151.095V90.773H152.348V99.5153Z" fill="#F5F1D7"/>
<path d="M159.579 91.8369H157.141V96.9376C157.141 97.2612 157.173 97.5277 157.235 97.7434C157.298 97.9527 157.386 98.1177 157.505 98.2382C157.624 98.3587 157.762 98.4349 157.918 98.4793C158.075 98.5237 158.25 98.5427 158.432 98.5427C158.601 98.5427 158.783 98.5173 158.977 98.4666C159.165 98.4158 159.347 98.346 159.522 98.2636L159.579 99.3675C159.359 99.4563 159.128 99.5197 158.889 99.5641C158.651 99.6085 158.388 99.6276 158.106 99.6276C157.874 99.6276 157.624 99.5958 157.367 99.5324C157.11 99.469 156.872 99.3548 156.646 99.1771C156.427 99.0058 156.245 98.7648 156.101 98.4666C155.957 98.1684 155.888 97.7751 155.888 97.2866V91.8306H154.096V90.7648H155.888V88.2969H157.141V90.7648H159.579V91.8306V91.8369Z" fill="#F5F1D7"/>
<path d="M169.393 94.8824V95.1615C169.393 95.263 169.387 95.3645 169.375 95.4787H162.218C162.231 95.9165 162.319 96.3225 162.475 96.7095C162.632 97.0965 162.857 97.4327 163.139 97.7182C163.421 98.0037 163.754 98.2321 164.136 98.3971C164.518 98.562 164.932 98.6508 165.37 98.6508C166.022 98.6508 166.586 98.4986 167.056 98.194C167.532 97.8895 167.889 97.5342 168.134 97.1409L169.074 97.8895C168.56 98.5493 167.99 99.0251 167.369 99.3106C166.749 99.5961 166.078 99.742 165.364 99.742C164.725 99.742 164.13 99.6278 163.584 99.3994C163.039 99.171 162.569 98.8475 162.174 98.4351C161.78 98.0227 161.473 97.5406 161.241 96.976C161.015 96.4177 160.902 95.8023 160.902 95.1425C160.902 94.4827 161.015 93.8737 161.234 93.309C161.454 92.7507 161.761 92.2622 162.156 91.8499C162.55 91.4375 163.008 91.1203 163.541 90.8855C164.067 90.6572 164.643 90.543 165.257 90.543C165.934 90.543 166.53 90.6572 167.05 90.8855C167.564 91.1139 167.996 91.4248 168.341 91.8181C168.685 92.2115 168.948 92.6683 169.124 93.1885C169.299 93.7087 169.393 94.2733 169.393 94.8697V94.8824ZM168.121 94.47C168.084 93.6453 167.82 92.9664 167.338 92.4272C166.849 91.8879 166.16 91.6151 165.264 91.6151C164.844 91.6151 164.455 91.6913 164.104 91.8499C163.747 92.0085 163.434 92.2178 163.165 92.4843C162.895 92.7507 162.676 93.0553 162.519 93.3978C162.356 93.7404 162.268 94.0957 162.243 94.47H168.127H168.121Z" fill="#F5F1D7"/>
<path d="M172.068 91.7796C172.056 91.4053 172.037 91.0691 172.012 90.7709H173.209C173.234 91.0056 173.252 91.2721 173.265 91.5576C173.278 91.843 173.284 92.0778 173.284 92.2681H173.321C173.566 91.7606 173.935 91.3418 174.431 91.0246C174.919 90.7074 175.477 90.5488 176.091 90.5488C176.254 90.5488 176.398 90.5552 176.524 90.5679C176.655 90.5805 176.787 90.6059 176.918 90.644L176.755 91.8557C176.68 91.8303 176.561 91.805 176.386 91.7796C176.21 91.7542 176.041 91.7415 175.872 91.7415C175.54 91.7415 175.22 91.805 174.913 91.9255C174.606 92.0524 174.337 92.2427 174.111 92.5092C173.885 92.7756 173.697 93.1182 173.56 93.5369C173.415 93.9557 173.346 94.4505 173.346 95.0342V99.5068H172.093V92.6868C172.093 92.4521 172.087 92.1476 172.074 91.7733L172.068 91.7796Z" fill="#F5F1D7"/>
<path d="M180.259 87.4106C180.259 87.6707 180.165 87.8865 179.984 88.0577C179.802 88.229 179.595 88.3115 179.376 88.3115C179.156 88.3115 178.95 88.229 178.768 88.0577C178.586 87.8865 178.492 87.6771 178.492 87.4106C178.492 87.1442 178.586 86.9348 178.768 86.7635C178.95 86.5922 179.156 86.5098 179.376 86.5098C179.595 86.5098 179.802 86.5922 179.984 86.7635C180.165 86.9348 180.259 87.1442 180.259 87.4106ZM180.002 99.5153H178.749V90.773H180.002V99.5153Z" fill="#F5F1D7"/>
<path d="M184.47 90.7709C184.495 91.0056 184.514 91.2721 184.527 91.5576C184.539 91.843 184.546 92.0778 184.546 92.2681H184.583C184.828 91.7606 185.229 91.3418 185.78 91.0246C186.331 90.7074 186.914 90.5488 187.535 90.5488C188.631 90.5488 189.452 90.8787 189.997 91.5385C190.542 92.1983 190.818 93.0675 190.818 94.1523V99.5131H189.565V94.6725C189.565 94.2094 189.527 93.797 189.452 93.4227C189.377 93.0484 189.252 92.7312 189.076 92.4584C188.901 92.192 188.656 91.9826 188.355 91.8304C188.055 91.6781 187.679 91.6083 187.221 91.6083C186.889 91.6083 186.57 91.6781 186.25 91.8113C185.937 91.9509 185.655 92.1539 185.41 92.4394C185.166 92.7185 184.965 93.0738 184.821 93.5052C184.677 93.9366 184.602 94.4441 184.602 95.0278V99.5131H183.349V92.6932C183.349 92.4584 183.342 92.1539 183.33 91.7796C183.317 91.4053 183.299 91.0691 183.273 90.7709H184.47Z" fill="#F5F1D7"/>
<path d="M194.522 101.27C194.867 101.721 195.337 102.095 195.932 102.412C196.528 102.723 197.161 102.882 197.825 102.882C198.439 102.882 198.965 102.793 199.391 102.609C199.824 102.431 200.168 102.184 200.432 101.873C200.695 101.562 200.889 101.194 201.014 100.782C201.14 100.363 201.196 99.9192 201.196 99.4434V97.8002H201.159C200.826 98.3458 200.356 98.7709 199.749 99.0691C199.141 99.3672 198.52 99.5195 197.894 99.5195C197.217 99.5195 196.603 99.4053 196.058 99.1832C195.512 98.9612 195.043 98.6503 194.654 98.257C194.265 97.8637 193.965 97.3942 193.752 96.8486C193.539 96.303 193.426 95.7066 193.426 95.0722C193.426 94.4378 193.532 93.8668 193.752 93.3149C193.965 92.7693 194.265 92.2871 194.654 91.8748C195.043 91.4624 195.506 91.1388 196.058 90.9041C196.603 90.6694 197.217 90.5488 197.894 90.5488C198.52 90.5488 199.134 90.7011 199.736 90.9993C200.338 91.2974 200.814 91.7288 201.159 92.2871H201.196V90.7709H202.449V99.437C202.449 99.9128 202.387 100.414 202.255 100.953C202.124 101.486 201.885 101.981 201.534 102.431C201.184 102.882 200.707 103.256 200.106 103.554C199.504 103.853 198.721 104.005 197.762 104.005C196.96 104.005 196.202 103.846 195.475 103.535C194.748 103.224 194.128 102.793 193.614 102.247L194.516 101.277L194.522 101.27ZM194.767 95.0278C194.767 95.4909 194.842 95.9223 194.986 96.3347C195.137 96.7471 195.343 97.1087 195.625 97.4196C195.901 97.7304 196.246 97.9779 196.647 98.1555C197.054 98.3331 197.511 98.4283 198.032 98.4283C198.514 98.4283 198.953 98.3458 199.36 98.1872C199.767 98.0286 200.118 97.7939 200.413 97.4957C200.707 97.1975 200.939 96.8359 201.102 96.4235C201.265 96.0048 201.353 95.5417 201.353 95.0342C201.353 94.571 201.271 94.1396 201.102 93.7273C200.939 93.3149 200.707 92.9533 200.413 92.6424C200.118 92.3315 199.767 92.0841 199.36 91.8938C198.953 91.7035 198.514 91.6147 198.032 91.6147C197.518 91.6147 197.054 91.7098 196.647 91.8938C196.239 92.0778 195.901 92.3315 195.625 92.6424C195.35 92.9533 195.137 93.3149 194.986 93.7273C194.836 94.1396 194.767 94.571 194.767 95.0342V95.0278Z" fill="#F5F1D7"/>
<path d="M218.916 95.1425C218.916 95.8023 218.803 96.4113 218.578 96.976C218.352 97.5342 218.033 98.0227 217.625 98.4351C217.218 98.8475 216.736 99.1647 216.165 99.3994C215.601 99.6278 214.981 99.742 214.304 99.742C213.627 99.742 213.026 99.6278 212.462 99.3994C211.898 99.171 211.409 98.8475 211.002 98.4351C210.594 98.0227 210.281 97.5406 210.049 96.976C209.824 96.4177 209.711 95.8023 209.711 95.1425C209.711 94.4827 209.824 93.8737 210.049 93.309C210.275 92.7507 210.594 92.2622 211.002 91.8499C211.409 91.4375 211.892 91.1203 212.462 90.8855C213.026 90.6572 213.64 90.543 214.304 90.543C214.968 90.543 215.601 90.6572 216.165 90.8855C216.729 91.1139 217.218 91.4375 217.625 91.8499C218.033 92.2622 218.346 92.7444 218.578 93.309C218.803 93.8673 218.916 94.4827 218.916 95.1425ZM217.588 95.1425C217.588 94.654 217.513 94.1972 217.356 93.7722C217.199 93.3407 216.986 92.9664 216.698 92.6492C216.416 92.332 216.071 92.0783 215.664 91.8943C215.257 91.7103 214.806 91.6151 214.298 91.6151C213.79 91.6151 213.339 91.7103 212.944 91.8943C212.55 92.0783 212.205 92.332 211.923 92.6492C211.641 92.9664 211.422 93.3407 211.271 93.7722C211.115 94.2036 211.039 94.6603 211.039 95.1425C211.039 95.6247 211.115 96.0878 211.271 96.5128C211.428 96.9442 211.641 97.3185 211.923 97.6357C212.205 97.953 212.55 98.2004 212.944 98.3844C213.345 98.562 213.797 98.6572 214.298 98.6572C214.799 98.6572 215.257 98.5683 215.664 98.3844C216.071 98.2067 216.416 97.953 216.698 97.6357C216.98 97.3185 217.199 96.9442 217.356 96.5128C217.513 96.0814 217.588 95.6247 217.588 95.1425Z" fill="#F5F1D7"/>
<path d="M222.067 101.27C222.412 101.721 222.882 102.095 223.477 102.412C224.073 102.723 224.705 102.882 225.37 102.882C225.984 102.882 226.51 102.793 226.936 102.609C227.369 102.431 227.713 102.184 227.977 101.873C228.24 101.562 228.434 101.194 228.559 100.782C228.685 100.363 228.741 99.9192 228.741 99.4434V97.8002H228.703C228.371 98.3458 227.901 98.7709 227.293 99.0691C226.686 99.3672 226.065 99.5195 225.439 99.5195C224.762 99.5195 224.148 99.4053 223.603 99.1832C223.057 98.9612 222.587 98.6503 222.199 98.257C221.81 97.8637 221.51 97.3942 221.297 96.8486C221.083 96.303 220.971 95.7066 220.971 95.0722C220.971 94.4378 221.077 93.8668 221.297 93.3149C221.51 92.7693 221.81 92.2871 222.199 91.8748C222.587 91.4624 223.051 91.1388 223.603 90.9041C224.148 90.6694 224.762 90.5488 225.439 90.5488C226.065 90.5488 226.679 90.7011 227.281 90.9993C227.883 91.2974 228.359 91.7288 228.703 92.2871H228.741V90.7709H229.994V99.437C229.994 99.9128 229.932 100.414 229.8 100.953C229.668 101.486 229.43 101.981 229.079 102.431C228.729 102.882 228.252 103.256 227.651 103.554C227.049 103.853 226.266 104.005 225.307 104.005C224.505 104.005 223.747 103.846 223.02 103.535C222.293 103.224 221.673 102.793 221.159 102.247L222.061 101.277L222.067 101.27ZM222.312 95.0278C222.312 95.4909 222.387 95.9223 222.531 96.3347C222.681 96.7471 222.888 97.1087 223.17 97.4196C223.446 97.7304 223.791 97.9779 224.192 98.1555C224.599 98.3331 225.056 98.4283 225.577 98.4283C226.059 98.4283 226.498 98.3458 226.905 98.1872C227.312 98.0286 227.663 97.7939 227.958 97.4957C228.252 97.1975 228.484 96.8359 228.647 96.4235C228.81 96.0048 228.898 95.5417 228.898 95.0342C228.898 94.571 228.816 94.1396 228.647 93.7273C228.484 93.3149 228.252 92.9533 227.958 92.6424C227.663 92.3315 227.312 92.0841 226.905 91.8938C226.498 91.7035 226.059 91.6147 225.577 91.6147C225.063 91.6147 224.599 91.7098 224.192 91.8938C223.784 92.0778 223.446 92.3315 223.17 92.6424C222.894 92.9533 222.681 93.3149 222.531 93.7273C222.381 94.1396 222.312 94.571 222.312 95.0342V95.0278Z" fill="#F5F1D7"/>
<path d="M241.426 99.5138H240.041L236.52 90.7715H237.923L240.731 98.1688H240.768L243.588 90.7715H244.935L241.432 99.5138H241.426Z" fill="#F5F1D7"/>
<path d="M254.747 94.8824V95.1615C254.747 95.263 254.741 95.3645 254.728 95.4787H247.572C247.584 95.9165 247.672 96.3225 247.829 96.7095C247.985 97.0965 248.211 97.4327 248.493 97.7182C248.775 98.0037 249.107 98.2321 249.489 98.3971C249.872 98.562 250.285 98.6508 250.724 98.6508C251.375 98.6508 251.939 98.4986 252.409 98.194C252.886 97.8895 253.243 97.5342 253.487 97.1409L254.427 97.8895C253.913 98.5493 253.343 99.0251 252.723 99.3106C252.102 99.5961 251.432 99.742 250.718 99.742C250.078 99.742 249.483 99.6278 248.938 99.3994C248.393 99.171 247.923 98.8475 247.528 98.4351C247.133 98.0227 246.826 97.5406 246.594 96.976C246.369 96.4177 246.256 95.8023 246.256 95.1425C246.256 94.4827 246.369 93.8737 246.588 93.309C246.807 92.7507 247.114 92.2622 247.509 91.8499C247.904 91.4375 248.361 91.1203 248.894 90.8855C249.42 90.6572 249.997 90.543 250.611 90.543C251.288 90.543 251.883 90.6572 252.403 90.8855C252.917 91.1139 253.349 91.4248 253.694 91.8181C254.039 92.2115 254.302 92.6683 254.477 93.1885C254.653 93.7087 254.747 94.2733 254.747 94.8697V94.8824ZM253.475 94.47C253.437 93.6453 253.174 92.9664 252.691 92.4272C252.203 91.8879 251.513 91.6151 250.617 91.6151C250.197 91.6151 249.809 91.6913 249.458 91.8499C249.101 92.0085 248.787 92.2178 248.518 92.4843C248.249 92.7507 248.029 93.0553 247.873 93.3978C247.71 93.7404 247.622 94.0957 247.597 94.47H253.481H253.475Z" fill="#F5F1D7"/>
<path d="M257.424 91.7796C257.411 91.4053 257.392 91.0691 257.367 90.7709H258.564C258.589 91.0056 258.608 91.2721 258.62 91.5576C258.633 91.843 258.639 92.0778 258.639 92.2681H258.677C258.921 91.7606 259.291 91.3418 259.786 91.0246C260.275 90.7074 260.833 90.5488 261.447 90.5488C261.61 90.5488 261.754 90.5552 261.879 90.5679C262.011 90.5805 262.142 90.6059 262.274 90.644L262.111 91.8557C262.036 91.8303 261.917 91.805 261.741 91.7796C261.566 91.7542 261.396 91.7415 261.227 91.7415C260.895 91.7415 260.576 91.805 260.269 91.9255C259.961 92.0524 259.692 92.2427 259.466 92.5092C259.241 92.7756 259.053 93.1182 258.915 93.5369C258.771 93.9557 258.702 94.4505 258.702 95.0342V99.5068H257.449V92.6868C257.449 92.4521 257.442 92.1476 257.43 91.7733L257.424 91.7796Z" fill="#F5F1D7"/>
<path d="M265.207 90.7709C265.232 91.0056 265.251 91.2721 265.263 91.5576C265.276 91.843 265.282 92.0778 265.282 92.2681H265.319C265.564 91.7606 265.965 91.3418 266.516 91.0246C267.068 90.7074 267.651 90.5488 268.271 90.5488C269.368 90.5488 270.188 90.8787 270.734 91.5385C271.279 92.1983 271.555 93.0675 271.555 94.1523V99.5131H270.301V94.6725C270.301 94.2094 270.264 93.797 270.188 93.4227C270.113 93.0484 269.988 92.7312 269.812 92.4584C269.637 92.192 269.393 91.9826 269.092 91.8304C268.791 91.6781 268.415 91.6083 267.958 91.6083C267.625 91.6083 267.306 91.6781 266.986 91.8113C266.673 91.9509 266.391 92.1539 266.147 92.4394C265.902 92.7185 265.702 93.0738 265.558 93.5052C265.413 93.9366 265.338 94.4441 265.338 95.0278V99.5131H264.085V92.6932C264.085 92.4584 264.079 92.1539 264.066 91.7796C264.054 91.4053 264.035 91.0691 264.01 90.7709H265.207Z" fill="#F5F1D7"/>
<path d="M284.857 93.8541C284.857 93.0992 284.663 92.5409 284.268 92.1666C283.873 91.7986 283.303 91.6083 282.551 91.6083C282.037 91.6083 281.555 91.7035 281.11 91.8874C280.665 92.0714 280.289 92.3252 279.982 92.6361L279.28 91.7986C279.637 91.437 280.107 91.1388 280.69 90.9041C281.273 90.6694 281.937 90.5488 282.67 90.5488C283.14 90.5488 283.572 90.6123 283.98 90.7455C284.387 90.8787 284.744 91.0691 285.051 91.3355C285.358 91.5956 285.596 91.9255 285.772 92.3252C285.947 92.7249 286.029 93.188 286.029 93.7273V97.5591C286.029 97.8954 286.041 98.2443 286.066 98.6059C286.091 98.9675 286.129 99.2721 286.179 99.5195H285.051C285.014 99.3101 284.982 99.0754 284.957 98.828C284.932 98.5806 284.92 98.3331 284.92 98.0984H284.882C284.487 98.6821 284.042 99.1071 283.547 99.3609C283.052 99.6146 282.451 99.7415 281.749 99.7415C281.417 99.7415 281.078 99.6971 280.727 99.602C280.376 99.5068 280.057 99.3545 279.769 99.1452C279.48 98.9358 279.242 98.6567 279.048 98.3204C278.86 97.9842 278.76 97.5718 278.76 97.0833C278.76 96.4108 278.929 95.8716 279.267 95.4783C279.606 95.0849 280.057 94.7931 280.621 94.5964C281.185 94.3997 281.837 94.2792 282.57 94.2221C283.303 94.165 284.061 94.1396 284.851 94.1396V93.8605L284.857 93.8541ZM284.487 95.142C283.973 95.142 283.453 95.161 282.927 95.2055C282.407 95.2499 281.931 95.3387 281.504 95.4656C281.078 95.5924 280.734 95.7891 280.464 96.0365C280.195 96.284 280.057 96.6139 280.057 97.0262C280.057 97.3371 280.113 97.5972 280.232 97.8129C280.351 98.0223 280.508 98.1936 280.702 98.3268C280.897 98.46 281.116 98.5488 281.36 98.6059C281.605 98.663 281.843 98.6884 282.087 98.6884C282.532 98.6884 282.921 98.6123 283.265 98.4537C283.61 98.2951 283.898 98.0857 284.13 97.8193C284.362 97.5528 284.544 97.2419 284.663 96.893C284.788 96.5441 284.844 96.1761 284.844 95.7891V95.1357H284.475L284.487 95.142Z" fill="#F5F1D7"/>
<path d="M292.809 99.5138H291.424L287.902 90.7715H289.306L292.113 98.1688H292.151L294.971 90.7715H296.318L292.815 99.5138H292.809Z" fill="#F5F1D7"/>
<path d="M306.534 91.8376H304.504V99.5141H303.25V91.8376H301.439V90.7718H303.25V88.3801C303.25 87.384 303.489 86.5974 303.971 86.0264C304.454 85.4554 305.187 85.1699 306.183 85.1699C306.34 85.1699 306.515 85.1763 306.697 85.1953C306.879 85.2143 307.054 85.2461 307.211 85.2968L306.991 86.4197C306.854 86.3817 306.722 86.3499 306.584 86.3246C306.446 86.2992 306.296 86.2865 306.12 86.2865C305.788 86.2865 305.513 86.3436 305.3 86.4514C305.086 86.5593 304.917 86.7242 304.805 86.9273C304.685 87.1303 304.61 87.3713 304.566 87.6441C304.523 87.9169 304.504 88.2088 304.504 88.5196V90.7591H306.534V91.825V91.8376Z" fill="#F5F1D7"/>
<path d="M314.598 99.5138C314.573 99.279 314.554 99.0189 314.541 98.7271C314.529 98.4416 314.523 98.2069 314.523 98.0165H314.485C314.241 98.5304 313.84 98.9428 313.288 99.26C312.737 99.5772 312.148 99.7358 311.534 99.7358C310.437 99.7358 309.616 99.4059 309.071 98.7461C308.526 98.0863 308.25 97.2172 308.25 96.1323V90.7715H309.503V95.6121C309.503 96.0752 309.541 96.4876 309.616 96.8619C309.691 97.2362 309.817 97.5534 309.992 97.8262C310.168 98.0927 310.412 98.302 310.713 98.4543C311.013 98.6065 311.389 98.6763 311.847 98.6763C312.179 98.6763 312.505 98.6065 312.818 98.4733C313.132 98.3337 313.414 98.1307 313.658 97.8452C313.902 97.5661 314.103 97.2108 314.247 96.7794C314.397 96.348 314.466 95.8405 314.466 95.2568V90.7715H315.72V97.5915C315.72 97.8262 315.72 98.1307 315.738 98.505C315.751 98.8793 315.77 99.2156 315.795 99.5138H314.598Z" fill="#F5F1D7"/>
<path d="M319.507 101.27C319.851 101.721 320.321 102.095 320.917 102.412C321.512 102.723 322.145 102.882 322.809 102.882C323.423 102.882 323.95 102.793 324.376 102.609C324.808 102.431 325.153 102.184 325.416 101.873C325.679 101.562 325.873 101.194 325.999 100.782C326.124 100.363 326.181 99.9192 326.181 99.4434V97.8002H326.143C325.811 98.3458 325.341 98.7709 324.733 99.0691C324.125 99.3672 323.505 99.5195 322.878 99.5195C322.201 99.5195 321.587 99.4053 321.042 99.1832C320.497 98.9612 320.027 98.6503 319.638 98.257C319.25 97.8637 318.949 97.3942 318.736 96.8486C318.523 96.303 318.41 95.7066 318.41 95.0722C318.41 94.4378 318.517 93.8668 318.736 93.3149C318.949 92.7693 319.25 92.2871 319.638 91.8748C320.027 91.4624 320.491 91.1388 321.042 90.9041C321.587 90.6694 322.201 90.5488 322.878 90.5488C323.505 90.5488 324.119 90.7011 324.72 90.9993C325.322 91.2974 325.798 91.7288 326.143 92.2871H326.181V90.7709H327.434V99.437C327.434 99.9128 327.371 100.414 327.24 100.953C327.108 101.486 326.87 101.981 326.519 102.431C326.168 102.882 325.692 103.256 325.09 103.554C324.489 103.853 323.705 104.005 322.746 104.005C321.944 104.005 321.186 103.846 320.459 103.535C319.732 103.224 319.112 102.793 318.598 102.247L319.501 101.277L319.507 101.27ZM319.751 95.0278C319.751 95.4909 319.826 95.9223 319.97 96.3347C320.121 96.7471 320.328 97.1087 320.61 97.4196C320.885 97.7304 321.23 97.9779 321.631 98.1555C322.038 98.3331 322.496 98.4283 323.016 98.4283C323.498 98.4283 323.937 98.3458 324.344 98.1872C324.752 98.0286 325.103 97.7939 325.397 97.4957C325.692 97.1975 325.924 96.8359 326.086 96.4235C326.249 96.0048 326.337 95.5417 326.337 95.0342C326.337 94.571 326.256 94.1396 326.086 93.7273C325.924 93.3149 325.692 92.9533 325.397 92.6424C325.103 92.3315 324.752 92.0841 324.344 91.8938C323.937 91.7035 323.498 91.6147 323.016 91.6147C322.502 91.6147 322.038 91.7098 321.631 91.8938C321.224 92.0778 320.885 92.3315 320.61 92.6424C320.334 92.9533 320.121 93.3149 319.97 93.7273C319.82 94.1396 319.751 94.571 319.751 95.0342V95.0278Z" fill="#F5F1D7"/>
<path d="M332.001 99.5127H330.748V85.3906H332.001V99.5127Z" fill="#F5F1D7"/>
<path d="M37.8052 75.7815C17.3767 75.7815 0.751953 58.9568 0.751953 38.2748C0.751953 17.5928 17.3767 0.761719 37.8052 0.761719C58.2336 0.761719 74.8584 17.5865 74.8584 38.2748C74.8584 58.9632 58.2399 75.7879 37.8052 75.7879V75.7815Z" fill="#2E5629"/>
<path d="M37.8052 1.5226C57.8514 1.5226 74.1064 17.973 74.1064 38.2744C74.1064 58.5757 57.8576 75.0262 37.8052 75.0262C17.7527 75.0262 1.50394 58.5694 1.50394 38.2744C1.50394 17.9794 17.759 1.5226 37.8052 1.5226ZM37.8052 0C16.9569 0 0 17.1673 0 38.2744C0 59.3814 16.9569 76.5488 37.8052 76.5488C58.6535 76.5488 75.6104 59.3814 75.6104 38.2744C75.6104 17.1673 58.6472 0 37.8052 0Z" fill="#F5F1D7"/>
<path d="M37.8054 71.5618C56.0959 71.5618 70.9233 56.5504 70.9233 38.0329C70.9233 19.5153 56.0959 4.50391 37.8054 4.50391C19.5149 4.50391 4.6875 19.5153 4.6875 38.0329C4.6875 56.5504 19.5149 71.5618 37.8054 71.5618Z" fill="#2E5629"/>
<path d="M37.8044 71.9486C19.3374 71.9486 4.31055 56.7353 4.31055 38.039C4.31055 19.3427 19.3311 4.12305 37.8044 4.12305C56.2778 4.12305 71.2983 19.3364 71.2983 38.0326C71.2983 56.7289 56.2715 71.9422 37.8044 71.9422V71.9486ZM37.8044 4.88435C19.751 4.88435 5.05625 19.7551 5.05625 38.0326C5.05625 56.3102 19.7447 71.1809 37.7982 71.1809C55.8517 71.1809 70.5401 56.3102 70.5401 38.0326C70.5401 19.7551 55.8579 4.88435 37.8044 4.88435Z" fill="#F5F1D7"/>
<path d="M53.9087 22.4733C53.3948 21.8135 51.5212 19.574 48.4319 19.1489C46.3138 18.8571 44.672 19.5613 43.7133 19.9863C38.65 22.2322 36.6448 27.7326 36.1497 29.2235C24.9705 41.5946 13.7912 53.9721 2.60569 66.3432C1.78479 68.2084 1.98532 70.2956 3.1258 71.5581C4.73 73.3345 8.13892 73.4233 10.3823 71.0633C14.4617 65.9879 18.5349 60.9189 22.6143 55.8436C22.6143 55.8436 60.2941 60.6715 52.4486 31.8626C52.3045 31.3678 52.01 30.137 52.4486 28.6969C52.5489 28.3607 53.0377 26.8761 54.3473 25.9562C54.4915 25.8547 54.6043 25.7849 54.7609 25.6961C55.1808 25.4487 55.8826 25.1124 57.1609 24.7381C60.2064 23.8499 60.9082 23.7675 60.9208 23.501C60.9396 23.0442 58.8842 22.5494 57.3427 22.3844C55.9077 22.2322 54.7045 22.34 53.9024 22.4606L53.9087 22.4733Z" fill="#F5F1D7"/>
<path d="M6.32229 73.372C6.32229 73.372 6.27215 73.372 6.25335 73.372C4.86848 73.353 3.5964 72.82 2.76924 71.9065C1.50343 70.5108 1.2653 68.1951 2.16766 66.1523L2.25539 66.0191L35.7242 28.9755C36.4637 26.7804 38.6506 21.6987 43.5196 19.5417C44.4596 19.123 46.2079 18.349 48.5014 18.6662C51.3025 19.0532 53.1699 20.7978 54.1161 21.9525C55.2127 21.8066 56.3156 21.7939 57.3997 21.9144C58.6216 22.0476 61.454 22.4664 61.4165 23.5449C61.3977 24.0968 61.0217 24.1983 59.4488 24.6361C58.9162 24.782 58.2143 24.9786 57.3057 25.2388C56.3281 25.5242 55.5824 25.8224 55.0122 26.1523C54.8681 26.2348 54.7615 26.2982 54.6299 26.3871C53.4957 27.1801 53.032 28.4806 52.9192 28.8613C52.5432 30.0984 52.7626 31.1959 52.9192 31.7415C54.9495 39.1959 54.1474 45.1087 50.5317 49.3339C42.8679 58.2919 25.322 56.6678 22.8217 56.3886L10.7589 71.3989C9.54948 72.6741 7.94528 73.3847 6.31602 73.3847L6.32229 73.372ZM3.02616 66.6218C2.31806 68.2903 2.49978 70.1365 3.48987 71.2277C4.13531 71.9382 5.1442 72.3569 6.25962 72.3759C7.63823 72.3696 9.01684 71.7923 10.032 70.7265L22.4081 55.3228L22.6776 55.3545C22.8718 55.3799 42.0533 57.7146 49.7985 48.6678C53.1824 44.7154 53.9156 39.1071 51.9793 32.0016C51.7474 31.215 51.5531 29.9715 51.9793 28.5568C52.1547 27.9731 52.7124 26.5076 54.0722 25.556C54.2289 25.4481 54.3542 25.372 54.5234 25.2768C55.1626 24.9089 55.9835 24.579 57.0362 24.2744C57.9511 24.008 58.653 23.8113 59.1919 23.6654C59.4864 23.5829 59.7559 23.5068 59.9814 23.4434C59.3987 23.2403 58.4086 23.0056 57.2994 22.8851C56.2028 22.7645 55.0874 22.7899 53.9845 22.9612L53.7025 23.0056L53.5271 22.7772C52.8879 21.9588 51.1145 20.0175 48.3698 19.6369C46.3458 19.3577 44.7604 20.0619 43.9081 20.4362C39.3211 22.4727 37.2783 27.3704 36.6141 29.3815L36.5827 29.483L3.02616 66.6218Z" fill="#2E5629"/>
<path d="M22.2714 53.0173C20.1659 53.0173 18.0604 52.7889 15.9988 52.3448C15.6917 52.2813 15.4975 51.9768 15.5664 51.6659C15.6291 51.3551 15.9298 51.1584 16.2369 51.2282C18.2985 51.6786 20.404 51.888 22.5221 51.8753C34.7917 51.7674 44.3855 45.087 45.6451 38.9205C45.9083 37.6453 46.1339 35.1901 44.749 33.0902C42.2738 29.3218 36.446 29.7849 36.2016 29.8039C35.8946 29.8293 35.6189 29.6009 35.5938 29.2837C35.5687 28.9665 35.7943 28.6937 36.1076 28.6683C36.7969 28.6112 42.8941 28.2115 45.6952 32.4558C47.3057 34.9046 47.0488 37.7024 46.7542 39.1552C45.0811 47.3392 32.8804 52.9348 22.5346 53.0236C22.4469 53.0236 22.3592 53.0236 22.2777 53.0236L22.2714 53.0173Z" fill="#2E5629"/>
<path d="M22.872 49.1155C21.4996 49.1155 20.1273 48.995 18.78 48.7602C18.5732 48.7222 18.4354 48.5255 18.473 48.3225C18.5106 48.1131 18.7048 47.9799 18.9054 48.0116C20.4845 48.2908 22.095 48.3986 23.6992 48.3415C31.1687 48.0687 40.1046 43.9894 40.9881 38.5778C41.0759 38.0196 41.2827 36.0909 40.1547 34.7016C38.82 33.0521 35.9437 32.6334 32.8356 33.623C32.6413 33.6865 32.4282 33.5723 32.3656 33.3756C32.3029 33.1726 32.4157 32.9632 32.61 32.8998C36.0628 31.7959 39.1772 32.3035 40.7375 34.2194C42.066 35.8562 41.8341 38.064 41.7338 38.7047C40.7814 44.5667 31.6575 48.8173 23.7305 49.1092C23.4422 49.1219 23.154 49.1219 22.872 49.1219V49.1155Z" fill="#2E5629"/>
<path d="M34.7596 63.8733C34.5779 63.8733 34.4025 63.7845 34.2897 63.6196L28.982 55.6766C28.8066 55.4165 28.8755 55.0613 29.1324 54.8836C29.3893 54.706 29.7403 54.7758 29.9157 55.0359L35.2234 62.9788C35.3988 63.2389 35.3299 63.5942 35.073 63.7718C34.979 63.8353 34.8662 63.867 34.7596 63.867V63.8733Z" fill="#F5F1D7"/>
<path d="M38.7019 63.4856C38.5201 63.4856 38.3447 63.3968 38.2319 63.2318L32.9117 55.2763C32.7363 55.0161 32.8052 54.6609 33.0621 54.4832C33.319 54.3056 33.67 54.3754 33.8454 54.6355L39.1656 62.5911C39.341 62.8512 39.2721 63.2065 39.0152 63.3841C38.9212 63.4476 38.8084 63.4793 38.7019 63.4793V63.4856Z" fill="#F5F1D7"/>
<path d="M48.4084 25.7696C49.3567 25.7696 50.1254 24.9913 50.1254 24.0313C50.1254 23.0712 49.3567 22.293 48.4084 22.293C47.4601 22.293 46.6914 23.0712 46.6914 24.0313C46.6914 24.9913 47.4601 25.7696 48.4084 25.7696Z" fill="#2E5629"/>
<path d="M24.1824 68.9731L23.4492 68.1039C25.3417 66.4544 30.5553 62.6289 38.0374 62.6289H38.0437C45.4067 62.6289 50.5765 66.3593 52.4564 67.9644L51.7295 68.8399C49.9435 67.3173 45.037 63.7772 38.0437 63.7772H38.0374C30.9313 63.7772 25.9808 67.4124 24.1824 68.9794V68.9731Z" fill="#F5F1D7"/>
<path d="M4.79302 68.8149C4.70529 68.8149 4.61756 68.7832 4.54236 68.7197C4.3857 68.5802 4.36691 68.3391 4.50477 68.1805L15.6088 55.3272C15.7467 55.1686 15.9848 55.1495 16.1415 55.2891C16.2981 55.4287 16.3169 55.6698 16.1791 55.8284L5.07501 68.6817C4.99981 68.7705 4.89328 68.8149 4.79302 68.8149Z" fill="#2E5629"/>
<path d="M7.13669 70.5738C7.05522 70.5738 6.97376 70.5484 6.89856 70.4913C6.73564 70.3581 6.71057 70.117 6.84217 69.9584L17.4073 56.6484C17.5389 56.4834 17.777 56.458 17.9337 56.5913C18.0966 56.7245 18.1217 56.9656 17.9901 57.1242L7.42494 70.4342C7.34974 70.5294 7.24321 70.5738 7.13042 70.5738H7.13669Z" fill="#2E5629"/>
<path d="M54.1059 26.5994C54.0369 26.5994 53.9617 26.5803 53.8991 26.5359C52.6207 25.6985 52.1257 25.0704 52.2761 24.4994C52.345 24.233 52.533 24.0934 52.7085 23.9538C52.8588 23.8397 53.0218 23.7064 53.1847 23.4653C53.3226 23.2623 53.4228 23.0339 53.4855 22.7865C53.5356 22.5835 53.7424 22.4566 53.9429 22.5137C54.1435 22.5645 54.2688 22.7738 54.2124 22.9768C54.1309 23.3131 53.9931 23.624 53.8051 23.9031C53.5732 24.2457 53.3351 24.4297 53.1659 24.5629C53.1032 24.6136 53.0155 24.6834 52.9967 24.7088C52.9967 24.7088 52.9904 25.0387 54.3064 25.9079C54.4818 26.022 54.532 26.2568 54.4192 26.4344C54.3502 26.5486 54.2249 26.6057 54.1059 26.6057V26.5994Z" fill="#2E5629"/>
</g>
<defs>
<clipPath id="clip0_579_19362">
<rect width="332" height="104" fill="white"/>
</clipPath>
</defs>
</svg>
