<svg width="16" height="30" viewBox="0 0 16 30" fill="none" xmlns="http://www.w3.org/2000/svg">
<path d="M15.0308 25.8846L12.8009 19.8291L12.7949 19.8123C12.6747 19.5023 12.4791 19.2271 12.2258 19.0117C11.9724 18.7963 11.6694 18.6475 11.3441 18.5787C11.306 18.5704 11.2674 18.5644 11.2285 18.5606L7.24692 18.1983C6.56891 16.1655 6.58997 13.3619 7.29584 11.3624L11.3203 11.0604C11.3601 11.0565 11.3991 11.0516 11.439 11.0441C11.7624 10.9803 12.0651 10.8376 12.3201 10.6286C12.5751 10.4196 12.7744 10.1507 12.9004 9.84607L12.9111 9.83558L15.2791 3.81966C15.4423 3.42019 15.4719 2.97867 15.3635 2.56101C15.2551 2.14335 15.0145 1.77194 14.6777 1.50223C13.3342 0.446898 11.6525 -0.0833043 9.9467 0.0106496C8.24088 0.104604 6.62759 0.816289 5.40814 2.01278C-1.68877 8.95118 -1.81774 20.3703 5.12064 27.4672C6.31275 28.6909 7.90956 29.4389 9.61282 29.5713C11.3161 29.7038 13.0093 29.2117 14.3763 28.187C14.7191 27.9251 14.968 27.5594 15.086 27.1445C15.2039 26.7296 15.1846 26.2876 15.0308 25.8846ZM6.55075 26.0691C3.58853 23.0325 1.95182 18.9449 1.99973 14.7031C2.04764 10.4613 3.77625 6.41174 6.8063 3.44289C7.67584 2.5862 8.82748 2.0753 10.0461 2.00562C11.2648 1.93593 12.4672 2.31222 13.4287 3.0642C13.4248 3.06734 13.4212 3.07085 13.418 3.07469L11.0521 9.05882L7.03456 9.37321C6.99465 9.37556 6.95498 9.38102 6.91593 9.38955C6.57803 9.45684 6.26324 9.61027 6.00207 9.83498C5.7409 10.0597 5.54221 10.348 5.42525 10.6721C4.56071 13.1012 4.53595 16.3892 5.36377 18.8541C5.47598 19.1814 5.67116 19.474 5.93025 19.7033C6.18935 19.9326 6.50349 20.0907 6.84199 20.1623C6.87988 20.1701 6.91818 20.1758 6.9567 20.1795L10.9348 20.54L13.1604 26.5804C13.1604 26.5804 13.1674 26.5875 13.17 26.5902C12.1919 27.3229 10.9804 27.6741 9.76209 27.5782C8.54377 27.4823 7.40213 26.9458 6.55075 26.0691Z" fill="#F5F1D7"/>
</svg>
