<svg width="915" height="317" viewBox="0 0 915 317" fill="none" xmlns="http://www.w3.org/2000/svg">
<g clip-path="url(#clip0_579_19465)">
<path d="M127.439 136.899C127.519 136.409 127.799 135.949 128.239 135.619C128.759 135.229 129.419 135.079 130.059 135.199C136.909 135.319 141.719 135.179 142.939 134.969C143.719 134.839 144.439 134.599 144.439 134.599C145.009 134.409 145.559 134.159 146.079 133.869L159.679 124.059C160.339 123.499 161.259 123.399 161.929 123.819C161.989 123.859 162.629 124.269 162.709 125.059C162.809 125.979 162.069 126.659 161.829 126.879C159.939 128.609 156.389 132.089 155.009 134.179C154.579 134.829 154.549 135.149 154.609 135.299C154.699 135.539 155.079 135.699 155.209 135.759C156.789 136.429 166.709 137.599 172.369 138.189C172.959 138.159 173.549 138.379 173.969 138.799C174.399 139.219 174.629 139.779 174.599 140.349C174.569 140.879 174.309 141.389 173.899 141.749C173.469 142.129 172.909 142.309 172.339 142.269L154.929 142.329C154.109 142.429 153.719 142.679 153.619 142.879C153.409 143.329 154.099 144.289 154.319 144.599C155.959 146.899 157.159 148.669 158.219 150.239C159.299 151.829 160.229 153.199 161.409 154.829C161.589 155.079 162.129 155.839 161.859 156.669C161.819 156.809 161.629 157.299 161.109 157.539C160.399 157.879 159.459 157.539 158.869 156.749C151.609 148.749 146.649 143.499 145.659 142.619C144.989 142.029 144.229 141.679 144.219 141.679C143.469 141.349 142.829 141.269 142.589 141.249C141.119 141.079 136.479 140.349 129.559 139.259C128.949 139.229 128.369 138.959 127.969 138.519C127.599 138.109 127.399 137.589 127.419 137.089C127.419 137.029 127.419 136.969 127.439 136.909V136.899ZM161.169 125.249V125.229C161.169 125.199 161.119 125.149 161.089 125.119C161.029 125.079 160.839 125.099 160.669 125.249L160.609 125.299L146.869 135.199C146.249 135.549 145.589 135.849 144.919 136.069C144.889 136.079 144.089 136.349 143.179 136.499C141.649 136.759 136.209 136.859 129.949 136.749H129.869L129.789 136.729C129.479 136.659 129.259 136.779 129.159 136.859C129.019 136.959 128.959 137.089 128.949 137.169C128.949 137.229 128.979 137.349 129.089 137.469C129.169 137.559 129.349 137.699 129.639 137.709H129.739C136.449 138.779 141.299 139.549 142.729 139.709C143.019 139.739 143.849 139.839 144.819 140.269C145.229 140.439 146.029 140.909 146.659 141.469C147.879 142.559 153.499 148.559 160.019 155.749L160.079 155.819C160.169 155.939 160.259 156.019 160.329 156.069C160.299 155.999 160.239 155.889 160.129 155.739C158.939 154.089 157.959 152.649 156.919 151.109C155.859 149.559 154.669 147.789 153.049 145.509C152.579 144.849 151.619 143.499 152.199 142.239C152.569 141.439 153.459 140.949 154.779 140.799H154.859L172.409 140.739C172.639 140.759 172.789 140.659 172.869 140.589C172.969 140.499 173.039 140.379 173.039 140.269C173.039 140.149 172.989 140.019 172.879 139.909C172.809 139.839 172.639 139.719 172.399 139.739H172.259C168.639 139.359 156.659 138.059 154.599 137.189C154.319 137.069 153.469 136.709 153.149 135.839C152.799 134.889 153.309 133.959 153.719 133.339C155.529 130.619 160.249 126.249 160.779 125.759C161.099 125.459 161.159 125.309 161.169 125.259V125.249Z" fill="#F5F1D7" fill-opacity="0.8"/>
<path d="M203.99 150.88C204.07 150.39 204.35 149.93 204.79 149.6C205.31 149.21 205.97 149.06 206.61 149.18C213.46 149.3 218.27 149.16 219.49 148.95C220.27 148.82 220.99 148.58 220.99 148.58C221.56 148.39 222.11 148.14 222.63 147.85L236.23 138.04C236.89 137.48 237.81 137.38 238.48 137.8C238.54 137.84 239.18 138.25 239.26 139.04C239.36 139.96 238.62 140.64 238.38 140.86C236.49 142.59 232.94 146.07 231.56 148.16C231.13 148.81 231.1 149.13 231.16 149.28C231.25 149.52 231.63 149.68 231.76 149.74C233.34 150.41 243.26 151.58 248.92 152.17C249.51 152.14 250.1 152.36 250.52 152.78C250.95 153.2 251.18 153.76 251.15 154.33C251.12 154.86 250.86 155.37 250.45 155.73C250.02 156.11 249.46 156.29 248.89 156.25L231.48 156.31C230.66 156.41 230.27 156.66 230.17 156.86C229.96 157.31 230.65 158.27 230.87 158.58C232.51 160.88 233.71 162.65 234.77 164.22C235.85 165.81 236.78 167.18 237.96 168.81C238.14 169.06 238.68 169.82 238.41 170.65C238.37 170.79 238.18 171.28 237.66 171.52C236.95 171.86 236.01 171.52 235.42 170.73C228.16 162.73 223.2 157.48 222.21 156.6C221.54 156.01 220.78 155.66 220.77 155.66C220.02 155.33 219.38 155.25 219.14 155.23C217.67 155.06 213.03 154.33 206.11 153.24C205.5 153.21 204.92 152.94 204.52 152.5C204.15 152.09 203.95 151.57 203.97 151.07C203.97 151.01 203.97 150.95 203.99 150.89V150.88ZM237.73 139.23V139.21C237.73 139.18 237.68 139.13 237.65 139.1C237.59 139.06 237.4 139.08 237.23 139.23L237.17 139.28L223.43 149.18C222.81 149.53 222.15 149.83 221.48 150.05C221.45 150.06 220.65 150.33 219.74 150.48C218.21 150.74 212.77 150.84 206.51 150.73H206.43L206.35 150.71C206.04 150.64 205.82 150.76 205.72 150.84C205.58 150.94 205.52 151.07 205.51 151.15C205.51 151.21 205.54 151.33 205.65 151.45C205.73 151.54 205.91 151.68 206.2 151.69H206.3C213.01 152.76 217.86 153.53 219.29 153.69C219.58 153.72 220.41 153.82 221.38 154.25C221.79 154.42 222.59 154.89 223.22 155.45C224.44 156.54 230.06 162.54 236.58 169.73L236.64 169.8C236.73 169.92 236.82 170 236.89 170.05C236.86 169.98 236.8 169.87 236.69 169.72C235.5 168.07 234.52 166.63 233.48 165.09C232.42 163.54 231.23 161.77 229.61 159.49C229.14 158.83 228.18 157.48 228.76 156.22C229.13 155.42 230.02 154.93 231.34 154.78H231.42L248.97 154.72C249.2 154.74 249.35 154.64 249.43 154.57C249.53 154.48 249.6 154.36 249.6 154.25C249.6 154.13 249.55 154 249.44 153.89C249.37 153.82 249.2 153.7 248.96 153.72H248.82C245.2 153.34 233.22 152.04 231.16 151.17C230.88 151.05 230.03 150.69 229.71 149.82C229.36 148.87 229.87 147.94 230.28 147.32C232.09 144.6 236.81 140.23 237.34 139.74C237.66 139.44 237.72 139.29 237.73 139.24V139.23Z" fill="#F5F1D7" fill-opacity="0.8"/>
<path d="M190.469 195.569C190.619 195.099 190.969 194.689 191.449 194.429C192.019 194.119 192.689 194.069 193.309 194.289C200.069 195.439 204.839 196.029 206.069 196.009C206.859 195.999 207.609 195.869 207.609 195.869C208.199 195.769 208.779 195.609 209.349 195.389L224.279 187.739C225.019 187.279 225.939 187.319 226.539 187.839C226.599 187.889 227.159 188.389 227.119 189.189C227.079 190.109 226.249 190.669 225.979 190.849C223.849 192.279 219.819 195.179 218.129 197.039C217.599 197.619 217.529 197.929 217.559 198.079C217.609 198.329 217.969 198.549 218.079 198.619C219.539 199.519 229.169 202.169 234.669 203.609C235.259 203.669 235.799 203.979 236.159 204.449C236.519 204.929 236.659 205.519 236.549 206.079C236.439 206.599 236.109 207.059 235.639 207.359C235.149 207.669 234.579 207.769 234.009 207.639L216.789 205.069C215.959 205.039 215.539 205.229 215.409 205.409C215.139 205.829 215.669 206.869 215.839 207.219C217.109 209.749 218.029 211.679 218.839 213.379C219.669 215.109 220.379 216.609 221.299 218.399C221.439 218.669 221.859 219.499 221.469 220.279C221.399 220.409 221.139 220.869 220.599 221.029C219.849 221.259 218.969 220.789 218.509 219.909C212.539 210.909 208.429 204.969 207.579 203.949C207.009 203.259 206.299 202.799 206.299 202.799C205.609 202.359 204.989 202.189 204.759 202.129C203.329 201.739 198.849 200.319 192.179 198.189C191.579 198.069 191.049 197.719 190.719 197.219C190.409 196.759 190.289 196.219 190.399 195.729C190.409 195.669 190.429 195.609 190.449 195.559L190.469 195.569ZM225.579 189.139V189.119C225.579 189.089 225.549 189.029 225.509 188.999C225.459 188.949 225.269 188.939 225.079 189.059L225.009 189.099L209.939 196.809C209.269 197.059 208.579 197.259 207.879 197.379C207.839 197.379 207.009 197.529 206.099 197.539C204.549 197.559 199.159 196.839 192.979 195.789H192.899L192.829 195.749C192.539 195.629 192.299 195.719 192.189 195.779C192.039 195.859 191.949 195.979 191.939 196.049C191.929 196.109 191.939 196.229 192.029 196.359C192.099 196.459 192.249 196.629 192.539 196.679L192.639 196.699C199.109 198.759 203.799 200.249 205.179 200.629C205.459 200.709 206.269 200.929 207.159 201.499C207.539 201.729 208.259 202.319 208.799 202.959C209.839 204.219 214.489 210.999 219.849 219.089L219.899 219.169C219.969 219.299 220.039 219.399 220.109 219.449C220.089 219.369 220.049 219.259 219.959 219.099C219.029 217.289 218.279 215.709 217.479 214.039C216.669 212.339 215.749 210.419 214.489 207.919C214.129 207.199 213.379 205.719 214.139 204.559C214.619 203.829 215.579 203.469 216.909 203.529H216.989L234.349 206.129C234.569 206.179 234.739 206.099 234.819 206.049C234.939 205.979 235.019 205.869 235.039 205.759C235.059 205.639 235.029 205.499 234.929 205.379C234.869 205.299 234.719 205.149 234.479 205.139L234.339 205.119C230.819 204.199 219.169 201.109 217.259 199.929C216.999 199.769 216.209 199.289 216.029 198.379C215.829 197.389 216.469 196.539 216.969 195.999C219.169 193.579 224.489 189.969 225.089 189.569C225.459 189.319 225.539 189.189 225.549 189.129L225.579 189.139Z" fill="#F5F1D7" fill-opacity="0.8"/>
<path d="M349.34 175.309C349.49 174.839 349.85 174.429 350.33 174.169C350.9 173.869 351.58 173.819 352.19 174.039C358.94 175.229 363.71 175.839 364.94 175.829C365.73 175.829 366.48 175.699 366.48 175.699C367.07 175.599 367.66 175.439 368.22 175.239L383.19 167.679C383.93 167.229 384.86 167.269 385.45 167.799C385.51 167.849 386.07 168.349 386.03 169.149C385.98 170.069 385.15 170.629 384.88 170.809C382.75 172.229 378.69 175.109 377 176.949C376.47 177.529 376.4 177.829 376.43 177.989C376.48 178.239 376.83 178.459 376.95 178.529C378.41 179.439 388.02 182.149 393.51 183.619C394.1 183.689 394.64 183.989 395 184.469C395.36 184.949 395.5 185.539 395.38 186.099C395.27 186.619 394.94 187.079 394.47 187.369C393.98 187.679 393.41 187.769 392.84 187.639L375.64 184.969C374.81 184.939 374.39 185.119 374.26 185.309C373.98 185.719 374.51 186.769 374.68 187.119C375.94 189.649 376.85 191.589 377.65 193.299C378.47 195.039 379.17 196.539 380.08 198.329C380.22 198.599 380.64 199.439 380.24 200.209C380.17 200.339 379.91 200.789 379.36 200.959C378.6 201.179 377.73 200.709 377.28 199.829C371.37 190.789 367.28 184.829 366.44 183.799C365.87 183.109 365.17 182.649 365.16 182.639C364.47 182.189 363.85 182.019 363.62 181.959C362.19 181.559 357.72 180.119 351.07 177.949C350.47 177.829 349.95 177.469 349.61 176.969C349.3 176.509 349.19 175.969 349.29 175.469C349.3 175.409 349.32 175.349 349.34 175.299V175.309ZM384.48 169.079V169.059C384.48 169.029 384.45 168.969 384.42 168.939C384.37 168.889 384.18 168.879 383.99 168.999L383.92 169.039L368.8 176.669C368.13 176.919 367.44 177.109 366.74 177.229C366.7 177.229 365.87 177.369 364.96 177.379C363.41 177.399 358.02 176.639 351.85 175.549H351.77L351.7 175.509C351.41 175.389 351.17 175.479 351.06 175.539C350.91 175.619 350.82 175.729 350.81 175.809C350.8 175.869 350.81 175.989 350.9 176.119C350.97 176.219 351.12 176.389 351.41 176.439L351.51 176.459C357.97 178.559 362.65 180.069 364.03 180.459C364.31 180.539 365.12 180.759 366.01 181.339C366.38 181.569 367.11 182.169 367.64 182.809C368.68 184.069 373.29 190.879 378.6 199.009L378.65 199.089C378.72 199.229 378.79 199.319 378.86 199.369C378.84 199.289 378.8 199.179 378.72 199.019C377.8 197.209 377.06 195.619 376.27 193.949C375.47 192.249 374.57 190.319 373.32 187.809C372.96 187.089 372.22 185.599 372.99 184.449C373.48 183.719 374.44 183.369 375.76 183.429H375.84L393.18 186.129C393.4 186.179 393.57 186.109 393.65 186.059C393.77 185.989 393.85 185.879 393.87 185.769C393.9 185.649 393.86 185.509 393.77 185.389C393.71 185.309 393.57 185.159 393.32 185.149L393.18 185.129C389.66 184.189 378.04 181.029 376.13 179.849C375.87 179.689 375.09 179.199 374.91 178.289C374.72 177.299 375.36 176.459 375.86 175.909C378.07 173.499 383.42 169.929 384.02 169.529C384.39 169.279 384.47 169.149 384.49 169.089L384.48 169.079Z" fill="#FFFDF3" fill-opacity="0.9"/>
<path d="M321.389 152.16C321.289 151.68 321.389 151.15 321.679 150.68C322.029 150.13 322.589 149.76 323.229 149.64C329.679 147.32 334.129 145.48 335.189 144.86C335.869 144.46 336.459 143.98 336.459 143.98C336.919 143.6 337.349 143.17 337.739 142.71L346.979 128.71C347.399 127.95 348.219 127.53 348.999 127.69C349.069 127.7 349.809 127.86 350.169 128.57C350.579 129.39 350.139 130.29 349.989 130.58C348.839 132.87 346.759 137.38 346.199 139.83C346.029 140.59 346.119 140.9 346.219 141.02C346.389 141.21 346.799 141.23 346.939 141.23C348.659 141.3 358.339 138.87 363.839 137.41C364.389 137.17 365.009 137.17 365.559 137.41C366.109 137.65 366.519 138.09 366.699 138.64C366.859 139.15 366.799 139.71 366.539 140.2C366.269 140.71 365.819 141.08 365.259 141.25L349.009 147.48C348.279 147.86 347.999 148.23 347.979 148.46C347.949 148.96 348.929 149.6 349.249 149.82C351.599 151.39 353.349 152.62 354.899 153.7C356.469 154.8 357.829 155.76 359.509 156.86C359.759 157.03 360.539 157.54 360.579 158.42C360.579 158.57 360.579 159.09 360.189 159.5C359.649 160.07 358.649 160.09 357.819 159.55C348.199 154.65 341.689 151.5 340.449 151.03C339.619 150.71 338.769 150.66 338.769 150.66C337.949 150.61 337.329 150.77 337.099 150.83C335.659 151.19 331.069 152.16 324.209 153.59C323.629 153.78 322.999 153.73 322.459 153.47C321.969 153.22 321.589 152.81 321.439 152.33C321.419 152.27 321.409 152.21 321.389 152.16ZM348.799 129.3V129.28C348.789 129.26 348.729 129.22 348.689 129.21C348.619 129.2 348.449 129.28 348.349 129.48L348.309 129.55L338.979 143.68C338.519 144.23 338.019 144.74 337.469 145.19C337.439 145.21 336.789 145.75 335.999 146.21C334.669 146.99 329.609 149.02 323.719 151.14L323.639 151.17H323.559C323.249 151.22 323.079 151.42 323.019 151.53C322.929 151.67 322.909 151.82 322.939 151.89C322.959 151.95 323.029 152.05 323.169 152.12C323.279 152.17 323.499 152.25 323.769 152.15L323.869 152.12C330.519 150.73 335.329 149.72 336.719 149.37C336.999 149.3 337.819 149.09 338.869 149.15C339.309 149.17 340.229 149.32 341.019 149.62C342.549 150.2 349.929 153.82 358.579 158.23L358.659 158.28C358.789 158.36 358.899 158.41 358.979 158.42C358.919 158.36 358.829 158.29 358.679 158.18C356.979 157.06 355.549 156.06 354.039 154.99C352.499 153.91 350.759 152.69 348.429 151.13C347.759 150.68 346.379 149.76 346.469 148.37C346.529 147.5 347.189 146.71 348.369 146.11L348.449 146.08L364.829 139.8C365.049 139.74 365.159 139.58 365.199 139.5C365.269 139.38 365.279 139.24 365.249 139.14C365.209 139.03 365.109 138.92 364.969 138.86C364.869 138.82 364.679 138.76 364.459 138.86L364.319 138.91C360.799 139.84 349.139 142.88 346.899 142.79C346.599 142.78 345.669 142.74 345.069 142.04C344.409 141.27 344.549 140.22 344.709 139.5C345.429 136.31 348.299 130.55 348.619 129.91C348.819 129.51 348.819 129.36 348.809 129.3H348.799Z" fill="#FFFDF3" fill-opacity="0.9"/>
<path d="M408.649 163.409C408.499 162.939 408.549 162.399 408.789 161.909C409.079 161.329 409.599 160.899 410.229 160.719C416.409 157.749 420.639 155.459 421.629 154.729C422.269 154.259 422.799 153.729 422.809 153.719C423.229 153.299 423.609 152.829 423.949 152.329L431.699 137.449C432.039 136.649 432.809 136.149 433.599 136.229C433.669 136.229 434.419 136.319 434.849 136.989C435.349 137.769 434.999 138.699 434.879 139.009C433.969 141.409 432.369 146.109 432.059 148.599C431.969 149.379 432.089 149.669 432.199 149.779C432.389 149.959 432.799 149.929 432.939 149.919C434.649 149.809 444.039 146.399 449.359 144.379C449.879 144.089 450.499 144.019 451.069 144.199C451.639 144.379 452.099 144.779 452.329 145.299C452.539 145.789 452.539 146.359 452.329 146.869C452.109 147.399 451.699 147.819 451.169 148.039L435.649 155.909C434.959 156.369 434.719 156.759 434.729 156.989C434.749 157.489 435.789 158.029 436.129 158.209C438.629 159.529 440.499 160.569 442.149 161.489C443.829 162.429 445.279 163.229 447.059 164.159C447.329 164.299 448.159 164.729 448.289 165.599C448.309 165.749 448.359 166.269 448.009 166.719C447.529 167.339 446.539 167.459 445.659 167.019C435.579 163.129 428.789 160.669 427.499 160.329C426.639 160.099 425.799 160.129 425.789 160.129C424.969 160.169 424.369 160.389 424.139 160.469C422.749 160.979 418.279 162.409 411.609 164.539C411.049 164.789 410.419 164.809 409.859 164.599C409.339 164.409 408.929 164.029 408.729 163.569C408.709 163.509 408.689 163.459 408.669 163.399L408.649 163.409ZM433.559 137.839V137.819C433.549 137.799 433.479 137.769 433.439 137.759C433.369 137.759 433.209 137.849 433.119 138.059L433.089 138.129L425.269 153.149C424.869 153.739 424.419 154.299 423.919 154.809C423.889 154.839 423.299 155.429 422.559 155.979C421.309 156.899 416.499 159.429 410.849 162.149L410.779 162.179L410.699 162.199C410.389 162.279 410.249 162.479 410.189 162.599C410.109 162.749 410.109 162.899 410.139 162.969C410.169 163.029 410.249 163.119 410.399 163.169C410.509 163.209 410.739 163.259 410.999 163.139L411.099 163.099C417.569 161.039 422.249 159.539 423.599 159.039C423.869 158.939 424.659 158.649 425.719 158.599C426.159 158.569 427.089 158.629 427.899 158.849C429.479 159.269 437.199 162.109 446.249 165.599L446.329 165.639C446.459 165.709 446.579 165.739 446.659 165.749C446.599 165.699 446.499 165.629 446.339 165.549C444.539 164.609 443.009 163.759 441.389 162.859C439.749 161.949 437.889 160.909 435.409 159.599C434.699 159.219 433.229 158.449 433.179 157.059C433.149 156.179 433.719 155.339 434.839 154.609L434.909 154.569L450.559 146.629C450.769 146.549 450.869 146.379 450.899 146.289C450.949 146.159 450.949 146.029 450.909 145.929C450.859 145.819 450.749 145.729 450.609 145.679C450.509 145.649 450.309 145.609 450.099 145.739L449.969 145.799C446.559 147.089 435.279 151.309 433.049 151.459C432.749 151.479 431.819 151.539 431.149 150.899C430.409 150.199 430.449 149.149 430.529 148.409C430.919 145.159 433.179 139.139 433.429 138.469C433.589 138.059 433.569 137.899 433.549 137.839H433.559Z" fill="#FFFDF3" fill-opacity="0.9"/>
<path d="M389.37 126.85C389.09 126.44 388.98 125.91 389.07 125.37C389.18 124.73 389.55 124.17 390.1 123.82C395.16 119.2 398.56 115.79 399.3 114.81C399.78 114.18 400.13 113.51 400.14 113.51C400.42 112.98 400.65 112.42 400.83 111.85L403.97 95.38C404.06 94.52 404.66 93.81 405.44 93.66C405.51 93.64 406.26 93.51 406.86 94.03C407.56 94.63 407.49 95.63 407.47 95.95C407.29 98.5 407.1 103.47 407.53 105.94C407.66 106.71 407.86 106.96 408.01 107.03C408.24 107.14 408.63 107 408.76 106.95C410.37 106.35 418.37 100.39 422.89 96.92C423.3 96.49 423.88 96.25 424.47 96.26C425.07 96.26 425.62 96.52 425.99 96.95C426.33 97.36 426.5 97.9 426.44 98.45C426.38 99.02 426.11 99.54 425.66 99.91L413.06 111.92C412.53 112.56 412.42 113.01 412.49 113.22C412.65 113.69 413.8 113.91 414.18 113.99C416.95 114.54 419.04 115 420.89 115.4C422.77 115.81 424.39 116.17 426.36 116.55C426.66 116.61 427.58 116.78 427.95 117.57C428.01 117.7 428.21 118.19 428.01 118.72C427.73 119.46 426.82 119.85 425.84 119.68C415.07 118.85 407.85 118.45 406.53 118.5C405.64 118.53 404.84 118.8 404.83 118.81C404.06 119.08 403.54 119.47 403.35 119.61C402.16 120.5 398.29 123.16 392.52 127.11C392.06 127.51 391.46 127.71 390.86 127.67C390.31 127.63 389.81 127.39 389.48 127.01C389.44 126.96 389.4 126.92 389.37 126.87V126.85ZM405.87 95.2C405.87 95.2 405.86 95.19 405.86 95.18C405.84 95.16 405.77 95.15 405.73 95.16C405.66 95.17 405.53 95.32 405.51 95.54V95.62L402.32 112.25C402.11 112.93 401.84 113.6 401.5 114.23C401.48 114.26 401.09 115.01 400.53 115.74C399.6 116.98 395.72 120.79 391.09 125.01L391.03 125.06L390.96 125.1C390.69 125.26 390.61 125.5 390.59 125.63C390.56 125.8 390.59 125.94 390.65 125.99C390.69 126.04 390.8 126.1 390.95 126.11C391.07 126.11 391.3 126.11 391.52 125.91L391.6 125.85C397.2 122.01 401.26 119.23 402.41 118.37C402.64 118.2 403.31 117.69 404.31 117.34C404.72 117.19 405.63 116.97 406.47 116.95C408.1 116.9 416.31 117.4 425.99 118.14H426.08C426.23 118.18 426.35 118.18 426.43 118.16C426.36 118.13 426.24 118.09 426.06 118.06C424.07 117.68 422.36 117.3 420.55 116.91C418.71 116.51 416.63 116.05 413.89 115.5C413.1 115.34 411.47 115.02 411.02 113.71C410.74 112.88 411.05 111.9 411.9 110.89L411.96 110.83L424.67 98.73C424.85 98.59 424.89 98.4 424.9 98.31C424.91 98.17 424.88 98.04 424.81 97.96C424.73 97.87 424.6 97.81 424.45 97.81C424.35 97.81 424.15 97.83 423.98 98.01L423.87 98.11C420.98 100.33 411.39 107.61 409.29 108.4C409.01 108.51 408.14 108.83 407.31 108.41C406.4 107.96 406.13 106.93 406.01 106.21C405.45 102.99 405.88 96.57 405.93 95.85C405.96 95.41 405.9 95.26 405.87 95.22V95.2Z" fill="#FFFDF3" fill-opacity="0.9"/>
<path d="M470.701 119.9C470.541 119.43 470.591 118.89 470.821 118.4C471.101 117.82 471.621 117.38 472.241 117.19C478.391 114.15 482.591 111.82 483.581 111.08C484.211 110.61 484.741 110.06 484.751 110.06C485.171 109.63 485.551 109.16 485.881 108.66L493.471 93.6996C493.801 92.8896 494.571 92.3896 495.361 92.4596C495.431 92.4596 496.191 92.5396 496.621 93.2096C497.121 93.9796 496.791 94.9196 496.671 95.2296C495.791 97.6296 494.231 102.36 493.961 104.85C493.871 105.63 494.001 105.92 494.121 106.03C494.311 106.2 494.721 106.17 494.861 106.16C496.571 106.03 505.921 102.52 511.221 100.45C511.741 100.15 512.351 100.08 512.921 100.25C513.491 100.42 513.961 100.82 514.191 101.34C514.411 101.82 514.411 102.39 514.211 102.91C514.001 103.45 513.591 103.86 513.061 104.09L497.621 112.13C496.931 112.59 496.701 112.99 496.711 113.22C496.731 113.72 497.781 114.25 498.121 114.43C500.631 115.73 502.511 116.75 504.171 117.65C505.861 118.57 507.321 119.36 509.111 120.27C509.381 120.41 510.211 120.83 510.351 121.69C510.371 121.84 510.431 122.36 510.091 122.81C509.611 123.44 508.631 123.57 507.741 123.13C497.621 119.35 490.801 116.96 489.521 116.64C488.651 116.42 487.811 116.46 487.811 116.46C486.991 116.51 486.391 116.74 486.171 116.82C484.781 117.34 480.331 118.83 473.681 121.02C473.131 121.27 472.491 121.3 471.931 121.1C471.411 120.91 471.001 120.54 470.791 120.08C470.771 120.03 470.741 119.97 470.731 119.91L470.701 119.9ZM495.331 94.0696V94.0496C495.321 94.0296 495.251 93.9996 495.211 93.9896C495.141 93.9896 494.981 94.0796 494.901 94.2896L494.871 94.3596L487.211 109.46C486.821 110.06 486.371 110.62 485.881 111.13C485.851 111.16 485.271 111.76 484.531 112.31C483.291 113.24 478.501 115.82 472.881 118.6L472.811 118.64L472.731 118.66C472.421 118.74 472.281 118.95 472.231 119.06C472.161 119.21 472.151 119.36 472.191 119.43C472.221 119.49 472.301 119.57 472.451 119.63C472.561 119.67 472.791 119.72 473.051 119.59L473.141 119.55C479.591 117.42 484.251 115.87 485.601 115.36C485.871 115.26 486.661 114.96 487.711 114.9C488.151 114.87 489.081 114.92 489.891 115.12C491.471 115.52 499.221 118.28 508.311 121.68L508.391 121.72C508.521 121.79 508.641 121.82 508.721 121.83C508.661 121.78 508.561 121.71 508.391 121.63C506.581 120.71 505.041 119.88 503.411 118.99C501.761 118.09 499.891 117.08 497.401 115.79C496.681 115.42 495.211 114.66 495.141 113.27C495.101 112.39 495.671 111.54 496.771 110.81L496.841 110.77L512.411 102.67C512.621 102.58 512.711 102.42 512.751 102.33C512.801 102.2 512.801 102.07 512.751 101.97C512.701 101.86 512.591 101.77 512.441 101.73C512.341 101.7 512.141 101.67 511.941 101.8L511.811 101.87C508.421 103.2 497.181 107.54 494.951 107.71C494.651 107.73 493.731 107.8 493.041 107.17C492.301 106.48 492.321 105.43 492.401 104.69C492.761 101.44 494.951 95.3896 495.201 94.7196C495.351 94.2996 495.331 94.1496 495.321 94.0896L495.331 94.0696Z" fill="#FFFDF3" fill-opacity="0.9"/>
<path d="M464.52 73.0608C464.27 72.6308 464.2 72.1008 464.33 71.5708C464.48 70.9408 464.9 70.4108 465.47 70.0908C470.85 65.8508 474.49 62.6908 475.3 61.7708C475.82 61.1708 476.22 60.5408 476.23 60.5308C476.55 60.0208 476.82 59.4808 477.04 58.9208L481.36 42.7208C481.52 41.8608 482.16 41.2108 482.95 41.1108C483.02 41.1108 483.77 41.0208 484.34 41.5808C484.99 42.2308 484.86 43.2208 484.81 43.5408C484.45 46.0708 483.9 51.0208 484.15 53.5108C484.23 54.2908 484.41 54.5508 484.55 54.6308C484.77 54.7608 485.17 54.6408 485.3 54.6008C486.95 54.1208 495.36 48.7508 500.12 45.6208C500.56 45.2208 501.15 45.0208 501.75 45.0808C502.35 45.1308 502.88 45.4208 503.22 45.8808C503.53 46.3108 503.66 46.8608 503.56 47.4108C503.46 47.9808 503.15 48.4708 502.68 48.8108L489.24 59.8708C488.67 60.4708 488.52 60.9108 488.57 61.1208C488.7 61.6008 489.83 61.9108 490.2 62.0108C492.93 62.7608 494.98 63.3708 496.79 63.9108C498.63 64.4608 500.22 64.9308 502.16 65.4508C502.46 65.5308 503.36 65.7708 503.67 66.5908C503.72 66.7308 503.89 67.2308 503.64 67.7408C503.3 68.4508 502.37 68.7908 501.41 68.5408C490.73 66.9408 483.56 66.0208 482.24 65.9608C481.35 65.9208 480.53 66.1408 480.53 66.1408C479.74 66.3608 479.2 66.7008 479 66.8308C477.75 67.6308 473.7 70.0008 467.65 73.5308C467.16 73.8908 466.55 74.0508 465.95 73.9708C465.4 73.8908 464.92 73.6208 464.62 73.2108C464.58 73.1608 464.55 73.1108 464.52 73.0608ZM483.27 42.6908C483.27 42.6908 483.26 42.6808 483.26 42.6708C483.24 42.6508 483.17 42.6408 483.13 42.6408C483.06 42.6408 482.92 42.7808 482.89 43.0008L482.87 43.0808L478.5 59.4408C478.24 60.1108 477.92 60.7508 477.54 61.3508C477.52 61.3808 477.07 62.0908 476.47 62.7808C475.45 63.9408 471.3 67.4708 466.38 71.3508L466.32 71.4008L466.25 71.4408C465.97 71.5808 465.87 71.8108 465.84 71.9408C465.8 72.1108 465.83 72.2508 465.87 72.3108C465.91 72.3608 466.01 72.4308 466.16 72.4508C466.28 72.4708 466.51 72.4708 466.74 72.2908L466.82 72.2308C472.68 68.8108 476.93 66.3308 478.14 65.5508C478.38 65.3908 479.09 64.9408 480.11 64.6608C480.53 64.5408 481.45 64.3908 482.29 64.4308C483.92 64.5008 492.08 65.5908 501.67 67.0308L501.76 67.0508C501.91 67.0908 502.02 67.0908 502.11 67.0908C502.04 67.0508 501.93 67.0108 501.75 66.9608C499.79 66.4408 498.11 65.9408 496.34 65.4108C494.54 64.8708 492.5 64.2708 489.8 63.5308C489.02 63.3208 487.42 62.8808 487.07 61.5408C486.85 60.6908 487.23 59.7408 488.16 58.7908L488.22 58.7308L501.77 47.5808C501.96 47.4508 502.01 47.2708 502.03 47.1808C502.05 47.0408 502.03 46.9108 501.96 46.8208C501.89 46.7208 501.76 46.6608 501.61 46.6508C501.51 46.6508 501.31 46.6508 501.13 46.8208L501.02 46.9108C497.98 48.9108 487.88 55.4808 485.73 56.1108C485.44 56.2008 484.55 56.4608 483.75 55.9808C482.88 55.4608 482.68 54.4208 482.61 53.6908C482.29 50.4408 483.18 44.0708 483.28 43.3508C483.34 42.9108 483.29 42.7608 483.27 42.7108V42.6908Z" fill="#FFFDF3" fill-opacity="0.9"/>
<path d="M541.929 87.3206C541.709 86.8706 541.679 86.3406 541.849 85.8206C542.049 85.2006 542.499 84.7006 543.099 84.4306C548.779 80.6006 552.639 77.7206 553.509 76.8606C554.069 76.3006 554.519 75.7006 554.529 75.6906C554.889 75.2106 555.199 74.6906 555.459 74.1506L560.969 58.3106C561.189 57.4706 561.879 56.8606 562.669 56.8206C562.739 56.8206 563.499 56.7906 564.019 57.3906C564.619 58.0906 564.409 59.0606 564.339 59.3806C563.789 61.8806 562.879 66.7706 562.939 69.2806C562.959 70.0606 563.119 70.3406 563.249 70.4306C563.459 70.5806 563.869 70.4906 563.999 70.4606C565.679 70.1006 574.469 65.3706 579.439 62.6106C579.909 62.2506 580.509 62.0906 581.099 62.1906C581.689 62.2806 582.199 62.6206 582.499 63.1006C582.779 63.5506 582.859 64.1106 582.729 64.6506C582.589 65.2106 582.239 65.6806 581.749 65.9806L567.529 76.0206C566.909 76.5706 566.729 77.0006 566.769 77.2206C566.859 77.7106 567.969 78.1006 568.329 78.2306C570.989 79.1806 572.989 79.9406 574.759 80.6106C576.559 81.2906 578.109 81.8806 579.999 82.5406C580.289 82.6406 581.169 82.9506 581.419 83.7806C581.459 83.9206 581.589 84.4306 581.309 84.9306C580.919 85.6206 579.969 85.8806 579.019 85.5606C568.489 83.1706 561.409 81.7206 560.089 81.5706C559.199 81.4706 558.379 81.6206 558.369 81.6206C557.559 81.7806 556.999 82.0806 556.789 82.2006C555.489 82.9106 551.269 84.9706 544.979 88.0406C544.469 88.3606 543.839 88.4806 543.249 88.3506C542.709 88.2306 542.249 87.9206 541.979 87.4906C541.949 87.4406 541.919 87.3906 541.889 87.3306L541.929 87.3206ZM562.869 58.4206C562.869 58.4206 562.869 58.4006 562.859 58.4006C562.839 58.3806 562.769 58.3606 562.729 58.3606C562.659 58.3606 562.509 58.4806 562.459 58.7006L562.439 58.7706L556.869 74.7606C556.559 75.4006 556.189 76.0206 555.769 76.5906C555.749 76.6206 555.249 77.3006 554.589 77.9406C553.489 79.0306 549.089 82.2306 543.889 85.7406L543.819 85.7806L543.749 85.8106C543.459 85.9306 543.349 86.1506 543.309 86.2806C543.259 86.4406 543.269 86.5806 543.309 86.6506C543.339 86.7006 543.439 86.7806 543.589 86.8106C543.709 86.8406 543.939 86.8506 544.179 86.6906L544.269 86.6406C550.369 83.6606 554.789 81.5006 556.049 80.8106C556.299 80.6706 557.039 80.2706 558.079 80.0706C558.509 79.9806 559.439 79.9006 560.269 80.0006C561.889 80.1906 569.939 81.8806 579.409 84.0306L579.499 84.0606C579.639 84.1106 579.759 84.1206 579.849 84.1206C579.779 84.0806 579.669 84.0306 579.499 83.9706C577.579 83.3006 575.949 82.6806 574.219 82.0206C572.459 81.3506 570.469 80.6006 567.829 79.6606C567.069 79.3906 565.499 78.8306 565.259 77.4706C565.099 76.6106 565.549 75.6906 566.549 74.8106L566.609 74.7606L580.949 64.6406C581.149 64.5306 581.219 64.3506 581.239 64.2606C581.269 64.1306 581.259 63.9906 581.199 63.9006C581.139 63.8006 581.009 63.7206 580.859 63.7006C580.759 63.6806 580.559 63.6806 580.369 63.8306L580.249 63.9106C577.069 65.6806 566.509 71.4906 564.319 71.9606C564.019 72.0206 563.119 72.2206 562.359 71.6806C561.529 71.1006 561.409 70.0506 561.389 69.3106C561.309 66.0406 562.669 59.7606 562.819 59.0506C562.909 58.6206 562.879 58.4606 562.849 58.4106L562.869 58.4206Z" fill="#FFFDF3" fill-opacity="0.9"/>
<path d="M545.299 45.0991C545.089 44.6491 545.059 44.1191 545.229 43.5991C545.439 42.9891 545.889 42.4891 546.489 42.2191C552.209 38.4391 556.089 35.5891 556.969 34.7391C557.539 34.1891 557.989 33.5891 557.999 33.5791C558.359 33.0991 558.679 32.5891 558.939 32.0491L564.589 16.2591C564.819 15.4191 565.519 14.8191 566.309 14.7891C566.379 14.7891 567.139 14.7691 567.659 15.3691C568.259 16.0691 568.039 17.0491 567.969 17.3591C567.399 19.8591 566.439 24.7391 566.479 27.2391C566.489 28.0191 566.649 28.2991 566.779 28.3891C566.989 28.5391 567.399 28.4491 567.529 28.4291C569.209 28.0891 578.039 23.4291 583.039 20.7091C583.509 20.3491 584.119 20.1991 584.709 20.2991C585.299 20.3991 585.809 20.7391 586.109 21.2191C586.389 21.6691 586.459 22.2391 586.319 22.7691C586.179 23.3291 585.819 23.7891 585.329 24.0891L571.019 33.9991C570.399 34.5491 570.219 34.9691 570.249 35.1891C570.339 35.6791 571.439 36.0791 571.799 36.2091C574.459 37.1791 576.449 37.9591 578.209 38.6391C579.999 39.3391 581.539 39.9391 583.439 40.6191C583.729 40.7191 584.599 41.0391 584.849 41.8791C584.889 42.0191 585.009 42.5291 584.729 43.0291C584.339 43.7091 583.379 43.9691 582.439 43.6391C571.929 41.1591 564.859 39.6491 563.539 39.4791C562.649 39.3691 561.819 39.5191 561.819 39.5191C561.009 39.6691 560.449 39.9691 560.239 40.0791C558.929 40.7691 554.689 42.7991 548.379 45.8191C547.859 46.1391 547.239 46.2491 546.649 46.1191C546.109 45.9991 545.649 45.6791 545.389 45.2491C545.359 45.1991 545.329 45.1491 545.299 45.0891V45.0991ZM566.489 16.3791C566.489 16.3791 566.489 16.3591 566.479 16.3591C566.459 16.3391 566.399 16.3191 566.349 16.3191C566.279 16.3191 566.129 16.4391 566.079 16.6591L566.059 16.7291L560.349 32.6691C560.039 33.3091 559.659 33.9291 559.239 34.4991C559.219 34.5291 558.709 35.1991 558.049 35.8391C556.939 36.9191 552.509 40.0791 547.289 43.5391L547.219 43.5791L547.149 43.6091C546.859 43.7291 546.739 43.9491 546.699 44.0691C546.649 44.2291 546.659 44.3691 546.699 44.4391C546.729 44.4891 546.829 44.5691 546.979 44.5991C547.099 44.6291 547.329 44.6491 547.569 44.4891L547.659 44.4391C553.789 41.5091 558.219 39.3891 559.489 38.7191C559.739 38.5791 560.489 38.1891 561.529 37.9991C561.959 37.9091 562.889 37.8391 563.729 37.9491C565.349 38.1491 573.389 39.9191 582.829 42.1491L582.919 42.1791C583.059 42.2291 583.179 42.2491 583.269 42.2391C583.199 42.1991 583.099 42.1391 582.919 42.0791C581.009 41.3991 579.379 40.7591 577.649 40.0891C575.899 39.4091 573.919 38.6291 571.279 37.6691C570.519 37.3891 568.959 36.8191 568.729 35.4591C568.579 34.5991 569.029 33.6791 570.039 32.8091L570.109 32.7591L584.539 22.7691C584.739 22.6591 584.809 22.4791 584.829 22.3891C584.859 22.2591 584.849 22.1191 584.789 22.0291C584.729 21.9291 584.599 21.8491 584.449 21.8291C584.349 21.8091 584.149 21.8091 583.959 21.9591L583.839 22.0391C580.639 23.7791 570.039 29.4991 567.839 29.9491C567.539 30.0091 566.639 30.1991 565.879 29.6591C565.059 29.0691 564.939 28.0191 564.929 27.2791C564.879 24.0091 566.289 17.7391 566.449 17.0291C566.549 16.5991 566.509 16.4391 566.489 16.3891V16.3791Z" fill="#FFFDF3" fill-opacity="0.9"/>
<path d="M612.51 30.32C612.3 29.87 612.27 29.34 612.44 28.82C612.65 28.21 613.1 27.71 613.7 27.44C619.42 23.66 623.3 20.81 624.18 19.96C624.75 19.41 625.2 18.81 625.21 18.8C625.57 18.32 625.89 17.81 626.15 17.27L631.8 1.48003C632.03 0.640027 632.73 0.0400269 633.52 0.0100269C633.59 0.0100269 634.35 -0.00997317 634.87 0.590027C635.47 1.29003 635.25 2.27003 635.18 2.58003C634.61 5.08003 633.65 9.96003 633.69 12.46C633.7 13.24 633.86 13.52 633.99 13.61C634.2 13.76 634.61 13.67 634.74 13.65C636.42 13.31 645.25 8.65003 650.25 5.93003C650.72 5.57003 651.33 5.42003 651.92 5.52003C652.51 5.62003 653.02 5.96003 653.32 6.44003C653.6 6.89003 653.67 7.46003 653.53 7.99003C653.39 8.55003 653.03 9.01003 652.54 9.31003L638.23 19.22C637.61 19.77 637.43 20.19 637.46 20.41C637.55 20.9 638.65 21.3 639.01 21.43C641.67 22.4 643.66 23.18 645.42 23.86C647.21 24.56 648.75 25.16 650.65 25.84C650.94 25.94 651.81 26.26 652.06 27.1C652.1 27.24 652.22 27.75 651.94 28.25C651.55 28.93 650.59 29.19 649.65 28.86C639.14 26.38 632.07 24.87 630.75 24.7C629.86 24.59 629.03 24.74 629.03 24.74C628.22 24.89 627.66 25.19 627.45 25.3C626.14 25.99 621.9 28.02 615.59 31.04C615.07 31.36 614.45 31.47 613.86 31.34C613.32 31.22 612.86 30.9 612.6 30.47C612.57 30.42 612.54 30.37 612.51 30.31V30.32ZM633.71 1.60003C633.71 1.60003 633.71 1.58003 633.7 1.58003C633.68 1.56003 633.62 1.54003 633.57 1.54003C633.5 1.54003 633.35 1.66003 633.3 1.88003L633.28 1.95003L627.57 17.89C627.26 18.53 626.88 19.15 626.46 19.72C626.44 19.75 625.93 20.42 625.27 21.06C624.16 22.14 619.73 25.3 614.51 28.76L614.44 28.8L614.37 28.83C614.08 28.95 613.96 29.17 613.92 29.29C613.87 29.45 613.88 29.59 613.92 29.66C613.95 29.71 614.05 29.79 614.2 29.82C614.32 29.85 614.55 29.87 614.79 29.71L614.88 29.66C621.01 26.73 625.44 24.61 626.71 23.94C626.96 23.8 627.71 23.41 628.75 23.22C629.18 23.13 630.11 23.06 630.95 23.17C632.57 23.37 640.61 25.14 650.05 27.37L650.14 27.4C650.28 27.45 650.4 27.47 650.49 27.46C650.42 27.42 650.32 27.36 650.14 27.3C648.23 26.62 646.6 25.98 644.87 25.31C643.12 24.63 641.14 23.85 638.5 22.89C637.74 22.61 636.18 22.04 635.95 20.68C635.8 19.82 636.25 18.9 637.26 18.03L637.33 17.98L651.76 7.99003C651.96 7.88003 652.03 7.70003 652.05 7.61003C652.08 7.48003 652.07 7.34003 652.01 7.25003C651.95 7.15003 651.82 7.07003 651.67 7.05003C651.57 7.03003 651.37 7.03003 651.18 7.18003L651.06 7.26003C647.86 9.00003 637.26 14.72 635.06 15.17C634.76 15.23 633.86 15.42 633.1 14.88C632.28 14.29 632.16 13.24 632.15 12.5C632.1 9.23003 633.51 2.96003 633.67 2.25003C633.77 1.82003 633.73 1.66003 633.71 1.61003V1.60003Z" fill="#FFFDF3" fill-opacity="0.9"/>
<path d="M593.92 66.1804C593.88 65.6904 594.05 65.1704 594.39 64.7504C594.8 64.2504 595.4 63.9504 596.06 63.9104C602.75 62.4004 607.39 61.1204 608.52 60.6404C609.25 60.3304 609.89 59.9304 609.89 59.9204C610.4 59.6004 610.88 59.2304 611.31 58.8204L622.2 46.0704C622.71 45.3604 623.58 45.0504 624.33 45.3004C624.4 45.3204 625.11 45.5704 625.38 46.3204C625.69 47.1904 625.14 48.0204 624.96 48.2904C623.54 50.4204 620.91 54.6404 620.06 57.0004C619.79 57.7404 619.84 58.0504 619.93 58.1804C620.07 58.3904 620.48 58.4604 620.62 58.4804C622.32 58.7604 632.22 57.5404 637.86 56.7704C638.43 56.6004 639.05 56.6804 639.56 56.9804C640.08 57.2804 640.43 57.7804 640.54 58.3404C640.64 58.8604 640.51 59.4204 640.19 59.8704C639.86 60.3404 639.36 60.6504 638.8 60.7504L621.9 64.9304C621.12 65.2204 620.8 65.5504 620.76 65.7704C620.67 66.2604 621.56 67.0204 621.85 67.2804C623.99 69.1304 625.57 70.5704 626.97 71.8304C628.39 73.1204 629.63 74.2304 631.15 75.5404C631.38 75.7404 632.09 76.3504 632.02 77.2204C632.01 77.3704 631.94 77.8904 631.5 78.2504C630.89 78.7504 629.9 78.6504 629.14 78.0104C620.19 71.9604 614.12 68.0304 612.95 67.4104C612.16 66.9904 611.33 66.8404 611.33 66.8304C610.52 66.6804 609.89 66.7604 609.65 66.7904C608.18 66.9704 603.5 67.3704 596.52 67.9404C595.92 68.0604 595.3 67.9404 594.8 67.6004C594.34 67.3004 594.02 66.8404 593.93 66.3404C593.92 66.2804 593.91 66.2204 593.91 66.1604L593.92 66.1804ZM623.93 46.8604V46.8404C623.93 46.8104 623.86 46.7704 623.83 46.7604C623.76 46.7404 623.58 46.8004 623.45 46.9804L623.4 47.0404L612.4 59.9104C611.88 60.4004 611.31 60.8404 610.71 61.2204C610.68 61.2404 609.97 61.6904 609.12 62.0504C607.7 62.6604 602.44 64.0504 596.32 65.4304L596.24 65.4504H596.16C595.84 65.4504 595.66 65.6304 595.58 65.7304C595.47 65.8604 595.44 66.0004 595.45 66.0804C595.46 66.1404 595.52 66.2504 595.65 66.3304C595.75 66.4004 595.96 66.5004 596.24 66.4304L596.34 66.4104C603.11 65.8504 608.01 65.4404 609.43 65.2604C609.72 65.2204 610.55 65.1204 611.59 65.3104C612.02 65.3804 612.92 65.6504 613.66 66.0404C615.11 66.8104 621.99 71.3104 630.02 76.7504L630.09 76.8104C630.2 76.9104 630.31 76.9604 630.39 76.9904C630.34 76.9304 630.26 76.8404 630.12 76.7204C628.58 75.4004 627.28 74.2304 625.9 72.9904C624.51 71.7304 622.93 70.3004 620.81 68.4704C620.2 67.9404 618.94 66.8504 619.21 65.4904C619.38 64.6304 620.13 63.9304 621.37 63.4804L621.45 63.4604L638.48 59.2504C638.71 59.2104 638.83 59.0804 638.89 59.0004C638.97 58.8904 639 58.7604 638.98 58.6504C638.96 58.5304 638.87 58.4204 638.74 58.3404C638.65 58.2904 638.46 58.2104 638.23 58.2904L638.09 58.3204C634.48 58.8104 622.54 60.3904 620.33 60.0304C620.03 59.9804 619.12 59.8304 618.6 59.0604C618.04 58.2204 618.31 57.1904 618.56 56.5004C619.67 53.4204 623.22 48.0604 623.62 47.4604C623.86 47.0904 623.89 46.9304 623.88 46.8804L623.93 46.8604Z" fill="#FFFDF3" fill-opacity="0.9"/>
<path d="M666.36 28.3308C666.32 27.8408 666.49 27.3208 666.83 26.9008C667.24 26.4008 667.84 26.1008 668.5 26.0608C675.19 24.5508 679.83 23.2708 680.96 22.7908C681.69 22.4808 682.33 22.0808 682.33 22.0708C682.84 21.7508 683.32 21.3808 683.75 20.9708L694.64 8.22081C695.15 7.51081 696.02 7.20081 696.77 7.45081C696.84 7.47081 697.55 7.72081 697.82 8.47081C698.13 9.34081 697.58 10.1708 697.4 10.4408C695.98 12.5708 693.35 16.7908 692.5 19.1508C692.23 19.8908 692.28 20.2008 692.37 20.3308C692.51 20.5408 692.92 20.6108 693.06 20.6308C694.76 20.9108 704.66 19.6908 710.3 18.9208C710.87 18.7508 711.49 18.8308 712 19.1308C712.52 19.4308 712.87 19.9308 712.98 20.4908C713.08 21.0108 712.95 21.5708 712.63 22.0208C712.3 22.4908 711.8 22.8008 711.24 22.9008L694.34 27.0808C693.56 27.3708 693.24 27.7008 693.2 27.9208C693.11 28.4108 694 29.1708 694.29 29.4308C696.43 31.2808 698.01 32.7208 699.41 33.9808C700.83 35.2708 702.07 36.3808 703.59 37.6908C703.82 37.8908 704.53 38.5008 704.46 39.3708C704.45 39.5208 704.38 40.0408 703.94 40.4008C703.33 40.9008 702.34 40.8008 701.58 40.1608C692.63 34.1108 686.56 30.1808 685.39 29.5608C684.6 29.1408 683.77 28.9908 683.77 28.9808C682.96 28.8308 682.33 28.9108 682.09 28.9408C680.62 29.1208 675.94 29.5208 668.96 30.0908C668.36 30.2108 667.74 30.0908 667.24 29.7508C666.78 29.4508 666.46 28.9908 666.37 28.4908C666.36 28.4308 666.35 28.3708 666.35 28.3108L666.36 28.3308ZM696.37 9.02081V9.00081C696.37 8.97081 696.3 8.93081 696.27 8.92081C696.2 8.90081 696.02 8.96081 695.89 9.14081L695.84 9.20081L684.84 22.0708C684.32 22.5608 683.75 23.0008 683.15 23.3808C683.12 23.4008 682.41 23.8508 681.56 24.2108C680.14 24.8208 674.88 26.2108 668.76 27.5908L668.68 27.6108H668.6C668.28 27.6108 668.1 27.7908 668.02 27.8908C667.91 28.0208 667.88 28.1608 667.89 28.2408C667.9 28.3008 667.96 28.4108 668.09 28.4908C668.19 28.5608 668.4 28.6608 668.68 28.5908L668.78 28.5708C675.55 28.0108 680.45 27.6008 681.87 27.4208C682.16 27.3808 682.99 27.2808 684.03 27.4708C684.46 27.5408 685.36 27.8108 686.1 28.2008C687.55 28.9708 694.43 33.4708 702.46 38.9108L702.53 38.9708C702.64 39.0708 702.75 39.1208 702.83 39.1508C702.78 39.0908 702.7 39.0008 702.56 38.8808C701.02 37.5608 699.72 36.3908 698.34 35.1508C696.95 33.8908 695.37 32.4608 693.25 30.6308C692.64 30.1008 691.38 29.0108 691.65 27.6508C691.82 26.7908 692.57 26.0908 693.81 25.6408L693.89 25.6208L710.92 21.4108C711.15 21.3708 711.27 21.2408 711.33 21.1608C711.41 21.0508 711.44 20.9208 711.42 20.8108C711.4 20.6908 711.31 20.5808 711.18 20.5008C711.09 20.4508 710.9 20.3708 710.67 20.4508L710.53 20.4808C706.92 20.9708 694.98 22.5508 692.77 22.1908C692.47 22.1408 691.56 21.9908 691.04 21.2208C690.48 20.3808 690.75 19.3508 691 18.6608C692.11 15.5808 695.66 10.2208 696.06 9.62081C696.3 9.25081 696.33 9.09081 696.32 9.04081L696.37 9.02081Z" fill="#FFFDF3" fill-opacity="0.9"/>
<path d="M725.831 43.9899C725.951 43.5099 726.281 43.0798 726.751 42.7998C727.301 42.4598 727.971 42.3799 728.601 42.5599C735.411 43.3499 740.211 43.6699 741.441 43.5899C742.231 43.5299 742.971 43.3698 742.971 43.3698C743.551 43.2398 744.131 43.0398 744.681 42.7998L759.171 34.3599C759.881 33.8599 760.811 33.8499 761.431 34.3399C761.491 34.3799 762.081 34.8599 762.081 35.6499C762.081 36.5699 761.291 37.1798 761.031 37.3698C758.981 38.9098 755.111 42.0299 753.531 43.9699C753.041 44.5799 752.981 44.8899 753.021 45.0399C753.081 45.2899 753.451 45.4898 753.571 45.5498C755.081 46.3698 764.831 48.4998 770.411 49.6398C771.001 49.6698 771.561 49.9399 771.951 50.3999C772.341 50.8599 772.511 51.4399 772.421 51.9999C772.341 52.5199 772.041 53.0099 771.581 53.3299C771.111 53.6599 770.541 53.7899 769.971 53.6999L752.641 52.0699C751.811 52.0899 751.401 52.2999 751.291 52.4899C751.041 52.9199 751.631 53.9399 751.821 54.2699C753.231 56.7199 754.251 58.5998 755.151 60.2598C756.071 61.9499 756.861 63.3999 757.871 65.1399C758.021 65.3999 758.491 66.2099 758.141 67.0099C758.081 67.1499 757.851 67.6098 757.311 67.8098C756.571 68.0798 755.671 67.6599 755.161 66.7999C748.721 58.1299 744.281 52.4199 743.381 51.4499C742.771 50.7999 742.041 50.3699 742.041 50.3699C741.331 49.9599 740.701 49.8298 740.461 49.7798C739.011 49.4698 734.461 48.2898 727.691 46.5298C727.091 46.4398 726.541 46.1198 726.181 45.6398C725.851 45.1999 725.701 44.6598 725.781 44.1698C725.781 44.1098 725.801 44.0499 725.821 43.9899H725.831ZM760.541 35.6799V35.6599C760.541 35.6299 760.501 35.5798 760.471 35.5498C760.411 35.5098 760.221 35.4998 760.041 35.6398L759.971 35.6799L745.341 44.1999C744.691 44.4899 744.011 44.7199 743.311 44.8799C743.271 44.8799 742.451 45.0798 741.541 45.1398C740.001 45.2498 734.571 44.8198 728.351 44.0998H728.271L728.191 44.0698C727.891 43.9698 727.661 44.0698 727.551 44.1398C727.401 44.2298 727.321 44.3498 727.321 44.4198C727.321 44.4798 727.331 44.5998 727.431 44.7298C727.501 44.8198 727.661 44.9899 727.951 45.0199L728.051 45.0399C734.621 46.7499 739.381 47.9799 740.791 48.2899C741.071 48.3499 741.901 48.5299 742.821 49.0498C743.211 49.2598 743.971 49.8098 744.541 50.4198C745.651 51.6199 750.661 58.1399 756.451 65.9299L756.501 66.0099C756.581 66.1399 756.661 66.2299 756.721 66.2799C756.701 66.2099 756.651 66.0899 756.561 65.9399C755.541 64.1899 754.701 62.6499 753.811 61.0199C752.911 59.3699 751.891 57.4999 750.501 55.0699C750.101 54.3699 749.271 52.9299 749.971 51.7299C750.411 50.9699 751.351 50.5699 752.681 50.5499H752.761L770.231 52.1999C770.451 52.2399 770.621 52.1498 770.701 52.0998C770.811 52.0198 770.891 51.9099 770.901 51.7999C770.921 51.6798 770.871 51.5399 770.771 51.4299C770.701 51.3499 770.551 51.2199 770.311 51.2099L770.171 51.1898C766.601 50.4599 754.811 47.9999 752.841 46.9299C752.571 46.7899 751.761 46.3398 751.531 45.4398C751.281 44.4598 751.871 43.5798 752.341 43.0098C754.411 40.4698 759.531 36.5899 760.101 36.1499C760.451 35.8799 760.521 35.7398 760.541 35.6898V35.6799Z" fill="#FFFDF3" fill-opacity="0.9"/>
<path d="M723.359 101.061C723.609 100.631 724.039 100.311 724.569 100.171C725.189 100.001 725.859 100.101 726.419 100.451C732.749 103.081 737.269 104.721 738.479 104.981C739.249 105.141 740.009 105.191 740.019 105.191C740.619 105.221 741.219 105.191 741.819 105.111L758.079 100.991C758.899 100.711 759.789 100.951 760.259 101.591C760.299 101.651 760.739 102.271 760.529 103.031C760.279 103.921 759.349 104.281 759.049 104.401C756.659 105.321 752.079 107.251 750.019 108.681C749.379 109.131 749.239 109.411 749.229 109.571C749.229 109.821 749.519 110.121 749.619 110.211C750.839 111.411 759.629 116.151 764.679 118.781C765.239 118.971 765.699 119.391 765.949 119.941C766.199 120.491 766.199 121.101 765.959 121.611C765.739 122.091 765.309 122.471 764.789 122.651C764.249 122.841 763.659 122.811 763.139 122.561L746.929 116.211C746.129 116.001 745.669 116.081 745.509 116.241C745.149 116.581 745.439 117.721 745.529 118.101C746.209 120.851 746.669 122.931 747.079 124.771C747.499 126.641 747.859 128.261 748.349 130.211C748.419 130.511 748.649 131.411 748.089 132.081C747.999 132.191 747.639 132.581 747.069 132.621C746.279 132.671 745.539 132.021 745.279 131.061C741.479 120.951 738.789 114.241 738.189 113.061C737.789 112.261 737.199 111.661 737.199 111.651C736.629 111.061 736.059 110.761 735.849 110.651C734.539 109.951 730.499 107.571 724.469 104.001C723.919 103.751 723.479 103.291 723.259 102.731C723.059 102.221 723.069 101.661 723.279 101.201C723.309 101.151 723.329 101.091 723.359 101.041V101.061ZM759.009 102.641V102.621C759.009 102.591 758.999 102.531 758.969 102.491C758.929 102.431 758.749 102.381 758.539 102.451L758.469 102.471L742.049 106.621C741.339 106.721 740.619 106.751 739.909 106.711C739.869 106.711 739.029 106.661 738.139 106.471C736.629 106.151 731.529 104.241 725.739 101.831L725.669 101.801L725.599 101.761C725.339 101.581 725.089 101.611 724.969 101.651C724.809 101.701 724.699 101.791 724.669 101.861C724.639 101.921 724.629 102.041 724.689 102.191C724.729 102.301 724.839 102.501 725.109 102.621L725.199 102.671C731.049 106.121 735.279 108.621 736.549 109.301C736.799 109.441 737.549 109.831 738.289 110.591C738.609 110.901 739.179 111.631 739.559 112.381C740.299 113.841 743.309 121.491 746.729 130.571L746.759 130.661C746.799 130.811 746.849 130.911 746.899 130.981C746.899 130.901 746.879 130.781 746.839 130.601C746.339 128.631 745.959 126.921 745.559 125.121C745.149 123.291 744.689 121.211 744.019 118.491C743.829 117.711 743.429 116.091 744.429 115.141C745.059 114.541 746.079 114.401 747.359 114.751L747.439 114.781L763.779 121.181C763.979 121.281 764.169 121.241 764.259 121.211C764.389 121.161 764.489 121.081 764.539 120.981C764.589 120.871 764.579 120.721 764.519 120.591C764.479 120.491 764.369 120.321 764.139 120.251L764.009 120.201C760.779 118.521 750.119 112.901 748.519 111.331C748.299 111.121 747.639 110.471 747.669 109.541C747.699 108.531 748.509 107.851 749.119 107.431C751.799 105.561 757.799 103.241 758.469 102.981C758.879 102.821 758.989 102.701 759.019 102.661L759.009 102.641Z" fill="#FFFDF3" fill-opacity="0.9"/>
<path d="M772.689 77.1506C772.939 76.7206 773.369 76.4006 773.899 76.2606C774.519 76.0906 775.189 76.1906 775.749 76.5406C782.079 79.1706 786.599 80.8106 787.809 81.0706C788.579 81.2306 789.339 81.2806 789.349 81.2806C789.949 81.3106 790.549 81.2806 791.149 81.2006L807.409 77.0806C808.229 76.8006 809.119 77.0406 809.589 77.6806C809.629 77.7406 810.069 78.3606 809.859 79.1206C809.609 80.0106 808.679 80.3706 808.379 80.4906C805.989 81.4106 801.409 83.3406 799.349 84.7706C798.709 85.2206 798.569 85.5006 798.559 85.6606C798.559 85.9106 798.849 86.2106 798.949 86.3006C800.169 87.5006 808.959 92.2406 814.009 94.8706C814.569 95.0606 815.029 95.4806 815.279 96.0306C815.529 96.5806 815.529 97.1906 815.289 97.7006C815.069 98.1806 814.639 98.5606 814.119 98.7406C813.579 98.9306 812.989 98.9006 812.469 98.6506L796.259 92.3006C795.459 92.0906 794.999 92.1706 794.839 92.3306C794.479 92.6706 794.769 93.8106 794.859 94.1906C795.539 96.9406 795.999 99.0206 796.409 100.861C796.829 102.731 797.189 104.351 797.679 106.301C797.749 106.601 797.979 107.501 797.419 108.171C797.329 108.281 796.969 108.671 796.399 108.711C795.609 108.761 794.869 108.111 794.609 107.151C790.809 97.0406 788.119 90.3306 787.519 89.1506C787.119 88.3506 786.529 87.7506 786.529 87.7406C785.959 87.1506 785.389 86.8506 785.179 86.7406C783.869 86.0406 779.829 83.6606 773.799 80.0906C773.249 79.8406 772.809 79.3806 772.589 78.8206C772.389 78.3106 772.399 77.7506 772.609 77.2906C772.639 77.2406 772.659 77.1806 772.689 77.1306V77.1506ZM808.349 78.7306V78.7106C808.349 78.6806 808.339 78.6206 808.309 78.5806C808.269 78.5206 808.089 78.4706 807.879 78.5406L807.809 78.5606L791.389 82.7106C790.679 82.8106 789.959 82.8406 789.249 82.8006C789.209 82.8006 788.369 82.7506 787.479 82.5606C785.969 82.2406 780.869 80.3306 775.079 77.9206L775.009 77.8906L774.939 77.8506C774.679 77.6706 774.429 77.7006 774.309 77.7406C774.149 77.7906 774.039 77.8806 774.009 77.9506C773.979 78.0106 773.969 78.1306 774.029 78.2806C774.069 78.3906 774.179 78.5906 774.449 78.7106L774.539 78.7606C780.389 82.2106 784.619 84.7106 785.889 85.3906C786.139 85.5306 786.889 85.9206 787.629 86.6806C787.949 86.9906 788.519 87.7206 788.899 88.4706C789.639 89.9306 792.649 97.5806 796.069 106.661L796.099 106.751C796.139 106.901 796.189 107.001 796.239 107.071C796.239 106.991 796.219 106.871 796.179 106.691C795.679 104.721 795.299 103.011 794.899 101.211C794.489 99.3806 794.029 97.3006 793.359 94.5806C793.169 93.8006 792.769 92.1806 793.769 91.2306C794.399 90.6306 795.419 90.4906 796.699 90.8406L796.779 90.8706L813.119 97.2706C813.319 97.3706 813.509 97.3306 813.599 97.3006C813.729 97.2506 813.829 97.1706 813.879 97.0706C813.929 96.9606 813.919 96.8106 813.859 96.6806C813.819 96.5806 813.709 96.4106 813.479 96.3406L813.349 96.2906C810.119 94.6106 799.459 88.9906 797.859 87.4206C797.639 87.2106 796.979 86.5606 797.009 85.6306C797.039 84.6206 797.849 83.9406 798.459 83.5206C801.139 81.6506 807.139 79.3306 807.809 79.0706C808.219 78.9106 808.329 78.7906 808.359 78.7506L808.349 78.7306Z" fill="#FFFDF3" fill-opacity="0.9"/>
<path d="M657.88 69.1693C658.09 68.7193 658.5 68.3693 659.01 68.1793C659.62 67.9493 660.29 67.9993 660.87 68.2993C667.4 70.3793 672.05 71.6293 673.27 71.7793C674.06 71.8793 674.81 71.8593 674.82 71.8593C675.42 71.8393 676.02 71.7593 676.61 71.6293L692.46 66.1393C693.26 65.7893 694.16 65.9593 694.68 66.5593C694.73 66.6093 695.22 67.1893 695.07 67.9693C694.9 68.8693 694 69.3193 693.71 69.4593C691.41 70.5793 687.01 72.8893 685.08 74.4993C684.48 74.9993 684.36 75.2993 684.37 75.4493C684.38 75.6993 684.71 75.9693 684.81 76.0593C686.13 77.1593 695.29 81.1193 700.55 83.3093C701.13 83.4493 701.62 83.8293 701.91 84.3493C702.2 84.8693 702.26 85.4793 702.07 86.0093C701.89 86.5093 701.5 86.9193 700.99 87.1493C700.47 87.3893 699.88 87.4093 699.34 87.1993L682.65 82.2593C681.83 82.1193 681.39 82.2393 681.24 82.4093C680.91 82.7793 681.29 83.8893 681.42 84.2593C682.33 86.9393 682.97 88.9793 683.54 90.7793C684.12 92.6093 684.62 94.1893 685.27 96.0893C685.37 96.3793 685.67 97.2593 685.18 97.9793C685.1 98.0993 684.77 98.5193 684.21 98.5993C683.43 98.7193 682.63 98.1293 682.3 97.1993C677.65 87.4493 674.39 80.9993 673.7 79.8693C673.23 79.1093 672.6 78.5593 672.59 78.5493C671.97 78.0093 671.38 77.7593 671.16 77.6693C669.8 77.0893 665.56 75.0493 659.25 72.0193C658.68 71.8193 658.2 71.3993 657.94 70.8593C657.7 70.3593 657.66 69.8093 657.83 69.3393C657.85 69.2793 657.87 69.2293 657.9 69.1693H657.88ZM693.55 67.6893V67.6693C693.55 67.6393 693.53 67.5793 693.5 67.5493C693.45 67.4993 693.27 67.4593 693.06 67.5493L692.99 67.5793L676.99 73.1193C676.29 73.2793 675.58 73.3693 674.87 73.3993C674.83 73.3993 673.99 73.4293 673.08 73.3093C671.54 73.1193 666.3 71.6493 660.33 69.7493L660.25 69.7293L660.18 69.6893C659.91 69.5293 659.66 69.5893 659.54 69.6293C659.38 69.6893 659.28 69.7893 659.26 69.8593C659.24 69.9193 659.24 70.0393 659.31 70.1793C659.36 70.2893 659.49 70.4793 659.77 70.5693L659.87 70.6093C665.99 73.5493 670.42 75.6793 671.74 76.2493C672 76.3593 672.78 76.6893 673.58 77.3793C673.92 77.6593 674.56 78.3393 675 79.0593C675.86 80.4493 679.52 87.8193 683.7 96.5693L683.73 96.6593C683.78 96.7993 683.84 96.8993 683.9 96.9693C683.9 96.8893 683.87 96.7693 683.81 96.5993C683.14 94.6793 682.62 93.0093 682.06 91.2493C681.5 89.4593 680.85 87.4293 679.96 84.7693C679.7 84.0093 679.17 82.4293 680.08 81.3893C680.66 80.7293 681.66 80.5093 682.96 80.7493L683.04 80.7693L699.87 85.7493C700.08 85.8293 700.26 85.7793 700.35 85.7393C700.48 85.6793 700.57 85.5893 700.61 85.4793C700.65 85.3693 700.63 85.2193 700.56 85.0893C700.51 84.9993 700.39 84.8393 700.15 84.7893L700.01 84.7493C696.65 83.3493 685.55 78.6693 683.82 77.2393C683.59 77.0493 682.87 76.4593 682.82 75.5293C682.76 74.5193 683.51 73.7693 684.08 73.2993C686.6 71.2093 692.37 68.3793 693.02 68.0693C693.42 67.8793 693.52 67.7493 693.54 67.6993L693.55 67.6893Z" fill="#FFFDF3" fill-opacity="0.9"/>
<path d="M815.06 131.84C815.34 131.43 815.79 131.14 816.33 131.03C816.96 130.9 817.62 131.04 818.15 131.43C824.3 134.47 828.7 136.39 829.89 136.73C830.65 136.94 831.4 137.04 831.41 137.04C832 137.11 832.61 137.12 833.21 137.08L849.7 134.03C850.54 133.8 851.41 134.11 851.84 134.77C851.88 134.83 852.28 135.47 852.01 136.23C851.7 137.1 850.75 137.4 850.44 137.5C847.99 138.26 843.3 139.89 841.15 141.19C840.48 141.59 840.32 141.87 840.31 142.03C840.29 142.28 840.56 142.6 840.66 142.7C841.8 143.98 850.27 149.28 855.13 152.23C855.68 152.46 856.11 152.91 856.32 153.47C856.53 154.03 856.5 154.64 856.22 155.14C855.97 155.61 855.52 155.96 854.99 156.11C854.44 156.27 853.85 156.2 853.35 155.92L837.59 148.53C836.81 148.27 836.34 148.32 836.17 148.47C835.79 148.79 836 149.94 836.07 150.33C836.57 153.11 836.9 155.23 837.19 157.09C837.49 158.99 837.74 160.63 838.11 162.6C838.17 162.9 838.33 163.82 837.73 164.45C837.63 164.56 837.25 164.92 836.68 164.92C835.89 164.92 835.19 164.22 835 163.25C831.86 152.92 829.61 146.05 829.09 144.83C828.74 144.01 828.19 143.37 828.19 143.36C827.65 142.74 827.11 142.4 826.91 142.27C825.65 141.49 821.77 138.85 815.99 134.9C815.45 134.61 815.04 134.13 814.87 133.56C814.7 133.03 814.75 132.48 814.99 132.04C815.02 131.99 815.05 131.94 815.08 131.89L815.06 131.84ZM850.54 135.73C850.54 135.73 850.54 135.71 850.55 135.71C850.55 135.68 850.55 135.62 850.52 135.58C850.48 135.52 850.3 135.45 850.09 135.52L850.01 135.54L833.36 138.62C832.65 138.67 831.93 138.66 831.22 138.58C831.18 138.58 830.35 138.48 829.46 138.23C827.97 137.81 823.01 135.58 817.39 132.8L817.32 132.76L817.26 132.71C817.01 132.51 816.76 132.53 816.63 132.56C816.46 132.59 816.35 132.68 816.31 132.75C816.28 132.81 816.26 132.92 816.31 133.08C816.35 133.19 816.44 133.4 816.7 133.53L816.79 133.58C822.4 137.41 826.46 140.17 827.69 140.93C827.93 141.08 828.65 141.53 829.34 142.33C829.64 142.66 830.17 143.43 830.49 144.2C831.13 145.7 833.65 153.53 836.47 162.82L836.49 162.91C836.52 163.06 836.56 163.17 836.61 163.24C836.61 163.16 836.61 163.04 836.57 162.86C836.2 160.86 835.93 159.13 835.64 157.3C835.35 155.44 835.02 153.34 834.53 150.58C834.39 149.79 834.1 148.15 835.16 147.26C835.83 146.7 836.85 146.63 838.11 147.06L838.19 147.09L854.08 154.54C854.28 154.65 854.46 154.63 854.56 154.6C854.69 154.56 854.8 154.48 854.85 154.39C854.91 154.28 854.91 154.14 854.85 154C854.81 153.9 854.72 153.73 854.49 153.64L854.36 153.58C851.25 151.69 840.97 145.4 839.48 143.73C839.28 143.5 838.66 142.81 838.75 141.89C838.84 140.88 839.7 140.26 840.33 139.87C843.13 138.18 849.26 136.25 849.95 136.03C850.37 135.9 850.49 135.79 850.52 135.74L850.54 135.73Z" fill="#FFFDF3" fill-opacity="0.9"/>
<path d="M811.529 191.81C812.019 191.78 812.529 191.96 812.949 192.32C813.439 192.74 813.729 193.35 813.749 194.01C815.089 200.73 816.249 205.4 816.699 206.54C816.989 207.27 817.379 207.92 817.379 207.93C817.689 208.44 818.039 208.93 818.439 209.38L830.909 220.59C831.599 221.12 831.889 221.99 831.619 222.74C831.599 222.81 831.329 223.52 830.569 223.77C829.699 224.06 828.879 223.49 828.609 223.3C826.519 221.82 822.359 219.09 820.029 218.18C819.299 217.9 818.989 217.94 818.849 218.02C818.629 218.16 818.559 218.57 818.529 218.7C818.209 220.39 819.169 230.32 819.799 235.98C819.949 236.56 819.859 237.17 819.549 237.68C819.229 238.19 818.729 238.53 818.169 238.62C817.649 238.7 817.099 238.56 816.649 238.23C816.189 237.89 815.889 237.38 815.809 236.81L812.059 219.81C811.789 219.03 811.459 218.7 811.249 218.65C810.759 218.54 809.979 219.41 809.719 219.7C807.819 221.79 806.339 223.34 805.039 224.71C803.719 226.1 802.569 227.3 801.229 228.8C801.029 229.03 800.399 229.72 799.529 229.63C799.379 229.62 798.869 229.53 798.519 229.08C798.039 228.46 798.169 227.47 798.819 226.73C805.099 217.94 809.179 211.97 809.829 210.82C810.269 210.04 810.439 209.22 810.449 209.21C810.619 208.41 810.549 207.77 810.529 207.53C810.379 206.06 810.109 201.37 809.709 194.38C809.609 193.78 809.749 193.16 810.089 192.67C810.409 192.22 810.869 191.91 811.369 191.83C811.429 191.83 811.489 191.81 811.549 191.81H811.529ZM830.069 222.31H830.089C830.119 222.31 830.159 222.25 830.179 222.21C830.199 222.14 830.149 221.96 829.969 221.83L829.909 221.78L817.319 210.46C816.839 209.93 816.419 209.35 816.049 208.74C816.029 208.71 815.599 207.98 815.259 207.13C814.679 205.69 813.429 200.4 812.209 194.25L812.189 194.17V194.09C812.189 193.77 812.029 193.58 811.929 193.5C811.799 193.39 811.659 193.35 811.589 193.36C811.529 193.37 811.419 193.43 811.329 193.56C811.259 193.66 811.159 193.86 811.209 194.15V194.25C811.609 201.03 811.889 205.94 812.029 207.37C812.059 207.66 812.139 208.49 811.929 209.53C811.849 209.96 811.559 210.85 811.149 211.58C810.349 213.01 805.669 219.77 800.029 227.67L799.969 227.74C799.869 227.85 799.809 227.95 799.779 228.04C799.839 227.99 799.939 227.91 800.059 227.78C801.419 226.27 802.619 225 803.899 223.66C805.199 222.3 806.659 220.76 808.549 218.68C809.089 218.08 810.209 216.86 811.569 217.16C812.429 217.35 813.099 218.12 813.519 219.38L813.539 219.46L817.319 236.6C817.349 236.83 817.479 236.96 817.559 237.02C817.669 237.1 817.799 237.14 817.909 237.12C818.029 237.1 818.149 237.01 818.229 236.89C818.289 236.8 818.369 236.62 818.299 236.39L818.269 236.25C817.869 232.63 816.599 220.65 817.009 218.45C817.069 218.15 817.239 217.24 818.019 216.75C818.879 216.21 819.889 216.51 820.579 216.77C823.629 217.96 828.889 221.64 829.489 222.06C829.849 222.31 830.009 222.34 830.059 222.34L830.069 222.31Z" fill="#FFFDF3" fill-opacity="0.9"/>
<path d="M845.999 179.929C846.399 179.639 846.92 179.509 847.46 179.579C848.1 179.659 848.679 180.019 849.049 180.549C853.859 185.429 857.399 188.699 858.409 189.399C859.059 189.849 859.739 190.179 859.739 190.189C860.279 190.449 860.849 190.659 861.429 190.819L878.01 193.329C878.88 193.389 879.6 193.959 879.78 194.729C879.8 194.799 879.959 195.539 879.469 196.159C878.899 196.879 877.9 196.849 877.57 196.839C875.01 196.759 870.04 196.759 867.58 197.279C866.82 197.439 866.58 197.649 866.51 197.799C866.4 198.029 866.569 198.419 866.619 198.539C867.279 200.129 873.539 207.899 877.169 212.279C877.609 212.679 877.88 213.239 877.89 213.839C877.91 214.439 877.669 214.999 877.249 215.389C876.859 215.749 876.32 215.929 875.77 215.899C875.19 215.869 874.669 215.609 874.289 215.179L861.82 203.039C861.16 202.529 860.709 202.439 860.499 202.519C860.039 202.699 859.859 203.859 859.799 204.239C859.359 207.029 858.98 209.139 858.64 210.989C858.3 212.879 858 214.509 857.7 216.499C857.65 216.799 857.509 217.719 856.739 218.129C856.609 218.199 856.13 218.419 855.59 218.229C854.84 217.969 854.409 217.079 854.549 216.099C854.969 205.309 855.089 198.079 854.999 196.759C854.939 195.869 854.63 195.079 854.63 195.079C854.33 194.319 853.92 193.819 853.77 193.629C852.84 192.479 850.029 188.709 845.859 183.089C845.449 182.639 845.219 182.049 845.239 181.449C845.259 180.899 845.479 180.389 845.849 180.049C845.889 180.009 845.939 179.969 845.989 179.939L845.999 179.929ZM878.249 195.219C878.249 195.219 878.26 195.209 878.27 195.199C878.29 195.179 878.29 195.109 878.28 195.069C878.26 194.999 878.12 194.879 877.89 194.869H877.809L861.07 192.319C860.38 192.139 859.709 191.889 859.059 191.579C859.029 191.559 858.27 191.189 857.52 190.669C856.25 189.789 852.29 186.049 847.9 181.579L847.84 181.519L847.799 181.449C847.629 181.179 847.39 181.119 847.26 181.099C847.09 181.079 846.95 181.119 846.9 181.169C846.85 181.209 846.799 181.319 846.789 181.479C846.789 181.599 846.81 181.829 847.01 182.039L847.08 182.119C851.13 187.569 854.059 191.519 854.969 192.629C855.149 192.849 855.68 193.509 856.07 194.489C856.24 194.889 856.489 195.799 856.549 196.629C856.659 198.259 856.469 206.479 856.099 216.179V216.269C856.069 216.419 856.079 216.539 856.099 216.619C856.129 216.549 856.159 216.429 856.189 216.249C856.489 214.239 856.8 212.519 857.13 210.699C857.46 208.849 857.84 206.749 858.28 203.989C858.41 203.189 858.67 201.549 859.96 201.059C860.78 200.749 861.769 201.019 862.809 201.839L862.869 201.889L875.439 214.129C875.589 214.299 875.769 214.339 875.869 214.339C876.009 214.339 876.139 214.309 876.219 214.229C876.309 214.149 876.359 214.009 876.359 213.859C876.359 213.759 876.33 213.559 876.14 213.399L876.039 213.299C873.719 210.499 866.07 201.189 865.21 199.119C865.09 198.839 864.739 197.989 865.119 197.139C865.539 196.219 866.55 195.909 867.27 195.749C870.47 195.069 876.899 195.249 877.619 195.279C878.059 195.289 878.209 195.229 878.249 195.189V195.219Z" fill="#FFFDF3" fill-opacity="0.9"/>
<path d="M831.949 265.36C832.419 265.22 832.959 265.27 833.449 265.52C834.029 265.81 834.449 266.34 834.629 266.97C837.529 273.18 839.769 277.44 840.489 278.44C840.949 279.08 841.479 279.62 841.479 279.63C841.899 280.06 842.359 280.44 842.859 280.79L857.649 288.7C858.449 289.05 858.939 289.83 858.849 290.62C858.849 290.69 858.749 291.44 858.079 291.87C857.299 292.36 856.369 292 856.059 291.87C853.679 290.94 848.989 289.27 846.499 288.95C845.729 288.85 845.429 288.96 845.319 289.08C845.139 289.26 845.169 289.68 845.169 289.82C845.259 291.53 848.569 300.96 850.519 306.3C850.809 306.82 850.859 307.44 850.679 308.01C850.489 308.58 850.089 309.03 849.559 309.25C849.069 309.46 848.499 309.45 847.989 309.23C847.459 309.01 847.049 308.59 846.829 308.06L839.129 292.45C838.679 291.75 838.289 291.51 838.059 291.52C837.559 291.53 837.009 292.57 836.819 292.91C835.469 295.39 834.409 297.25 833.469 298.89C832.519 300.56 831.689 302 830.739 303.77C830.599 304.04 830.149 304.86 829.289 304.98C829.139 305 828.619 305.05 828.179 304.69C827.559 304.2 827.449 303.21 827.909 302.33C831.909 292.3 834.449 285.53 834.799 284.25C835.039 283.39 835.019 282.55 835.009 282.54C834.979 281.72 834.769 281.12 834.689 280.89C834.199 279.49 832.809 275 830.759 268.31C830.519 267.75 830.499 267.12 830.719 266.56C830.919 266.05 831.299 265.64 831.759 265.44C831.819 265.42 831.869 265.4 831.929 265.38L831.949 265.36ZM857.239 290.56H857.259C857.279 290.55 857.309 290.48 857.319 290.44C857.319 290.37 857.229 290.21 857.019 290.12L856.949 290.09L842.019 282.1C841.429 281.7 840.879 281.24 840.379 280.73C840.349 280.7 839.759 280.1 839.229 279.36C838.329 278.1 835.849 273.26 833.199 267.58L833.169 267.51L833.149 267.43C833.079 267.12 832.869 266.98 832.759 266.92C832.609 266.84 832.459 266.84 832.389 266.87C832.329 266.89 832.239 266.98 832.189 267.12C832.149 267.23 832.089 267.46 832.219 267.72L832.259 267.82C834.249 274.31 835.699 279.01 836.179 280.37C836.279 280.64 836.559 281.44 836.599 282.49C836.629 282.93 836.559 283.86 836.329 284.67C835.889 286.25 832.959 293.93 829.369 302.94L829.329 303.02C829.259 303.15 829.229 303.27 829.219 303.35C829.269 303.29 829.339 303.19 829.429 303.03C830.389 301.24 831.259 299.72 832.179 298.11C833.109 296.48 834.169 294.63 835.509 292.17C835.899 291.46 836.689 290 838.079 289.97C838.959 289.95 839.799 290.53 840.509 291.66L840.549 291.73L848.309 307.47C848.389 307.68 848.549 307.78 848.639 307.82C848.769 307.87 848.899 307.88 848.999 307.84C849.109 307.79 849.199 307.68 849.249 307.54C849.279 307.44 849.319 307.24 849.189 307.03L849.129 306.9C847.879 303.48 843.789 292.15 843.659 289.91C843.639 289.61 843.589 288.68 844.239 288.02C844.939 287.29 845.999 287.34 846.729 287.43C849.969 287.86 855.969 290.18 856.639 290.44C857.049 290.6 857.209 290.59 857.259 290.57L857.239 290.56Z" fill="#2E5629" fill-opacity="0.8"/>
<path d="M884.8 268.07C885.25 267.85 885.78 267.82 886.3 267.99C886.92 268.19 887.42 268.64 887.69 269.24C891.53 274.92 894.4 278.78 895.27 279.65C895.83 280.21 896.43 280.66 896.44 280.67C896.92 281.03 897.44 281.34 897.98 281.6L913.82 287.11C914.66 287.33 915.27 288.02 915.31 288.81C915.31 288.88 915.34 289.64 914.74 290.16C914.04 290.76 913.07 290.55 912.75 290.48C910.25 289.93 905.36 289.02 902.85 289.08C902.07 289.1 901.79 289.26 901.7 289.39C901.55 289.6 901.64 290.01 901.67 290.14C902.03 291.82 906.76 300.61 909.53 305.58C909.89 306.05 910.05 306.65 909.95 307.24C909.86 307.83 909.52 308.34 909.04 308.64C908.59 308.92 908.03 309 907.49 308.87C906.93 308.73 906.46 308.38 906.16 307.89L896.12 293.67C895.57 293.05 895.14 292.87 894.92 292.91C894.43 293 894.04 294.11 893.91 294.47C892.96 297.13 892.2 299.13 891.53 300.9C890.85 302.7 890.26 304.25 889.6 306.14C889.5 306.43 889.19 307.31 888.36 307.56C888.22 307.6 887.71 307.73 887.21 307.45C886.52 307.06 886.26 306.11 886.58 305.16C888.97 294.63 890.41 287.54 890.56 286.23C890.66 285.34 890.51 284.52 890.5 284.51C890.34 283.7 890.04 283.14 889.92 282.93C889.21 281.63 887.15 277.41 884.07 271.12C883.74 270.61 883.63 269.98 883.76 269.39C883.88 268.85 884.19 268.39 884.62 268.12C884.67 268.09 884.72 268.06 884.78 268.03L884.8 268.07ZM913.71 289C913.71 289 913.73 289 913.73 288.99C913.75 288.97 913.77 288.9 913.77 288.86C913.77 288.79 913.65 288.64 913.43 288.59L913.36 288.57L897.37 283.01C896.73 282.7 896.11 282.34 895.53 281.91C895.5 281.89 894.82 281.39 894.18 280.73C893.09 279.63 889.89 275.23 886.38 270.04L886.34 269.97L886.31 269.9C886.19 269.61 885.97 269.5 885.84 269.46C885.68 269.41 885.54 269.42 885.47 269.46C885.42 269.49 885.34 269.59 885.31 269.74C885.28 269.86 885.27 270.09 885.43 270.33L885.48 270.42C888.46 276.52 890.62 280.94 891.31 282.2C891.45 282.45 891.85 283.19 892.05 284.23C892.15 284.66 892.22 285.59 892.13 286.43C891.94 288.05 890.25 296.1 888.11 305.57L888.08 305.66C888.03 305.8 888.02 305.92 888.02 306.01C888.06 305.94 888.11 305.83 888.17 305.66C888.84 303.74 889.46 302.11 890.11 300.37C890.78 298.61 891.53 296.62 892.47 293.98C892.74 293.22 893.3 291.65 894.66 291.41C895.52 291.25 896.44 291.7 897.32 292.7L897.37 292.76L907.49 307.09C907.6 307.29 907.78 307.36 907.87 307.38C908 307.41 908.14 307.4 908.23 307.34C908.33 307.28 908.41 307.15 908.43 307C908.45 306.9 908.45 306.7 908.3 306.51L908.22 306.39C906.45 303.21 900.64 292.66 900.17 290.46C900.11 290.16 899.91 289.26 900.45 288.5C901.03 287.67 902.08 287.55 902.82 287.53C906.09 287.45 912.37 288.8 913.08 288.96C913.51 289.05 913.67 289.02 913.72 288.99L913.71 289Z" fill="#2E5629" fill-opacity="0.8"/>
<path d="M772.239 136.53C772.639 136.24 773.169 136.12 773.709 136.2C774.349 136.29 774.919 136.66 775.289 137.2C780.009 142.17 783.489 145.49 784.489 146.21C785.129 146.67 785.799 147.02 785.809 147.02C786.339 147.29 786.909 147.51 787.489 147.68L804.029 150.49C804.899 150.57 805.609 151.15 805.779 151.92C805.799 151.99 805.949 152.73 805.439 153.35C804.849 154.06 803.859 154.02 803.529 154C800.969 153.87 795.999 153.79 793.539 154.26C792.769 154.41 792.529 154.61 792.459 154.76C792.349 154.99 792.499 155.38 792.549 155.51C793.179 157.11 799.309 164.99 802.859 169.44C803.299 169.84 803.549 170.41 803.549 171.01C803.549 171.61 803.309 172.17 802.889 172.54C802.489 172.89 801.949 173.07 801.399 173.02C800.829 172.98 800.299 172.71 799.929 172.27L787.669 159.91C787.019 159.39 786.569 159.29 786.359 159.36C785.889 159.53 785.689 160.69 785.629 161.07C785.139 163.85 784.719 165.95 784.349 167.8C783.979 169.68 783.649 171.31 783.319 173.29C783.269 173.59 783.109 174.51 782.329 174.9C782.199 174.97 781.719 175.17 781.179 174.98C780.439 174.71 780.019 173.81 780.179 172.83C780.789 162.05 781.039 154.82 780.969 153.5C780.919 152.61 780.629 151.82 780.629 151.81C780.339 151.04 779.949 150.54 779.799 150.35C778.889 149.18 776.149 145.37 772.079 139.67C771.669 139.22 771.459 138.62 771.489 138.02C771.519 137.47 771.749 136.96 772.119 136.63C772.169 136.59 772.209 136.55 772.259 136.52L772.239 136.53ZM804.219 152.38C804.219 152.38 804.229 152.37 804.239 152.37C804.259 152.35 804.259 152.28 804.259 152.24C804.239 152.17 804.099 152.05 803.879 152.03H803.799L787.109 149.18C786.419 148.99 785.749 148.72 785.119 148.4C785.089 148.38 784.339 148 783.589 147.46C782.339 146.55 778.439 142.75 774.129 138.21L774.069 138.15L774.029 138.08C773.859 137.81 773.619 137.74 773.489 137.72C773.319 137.7 773.179 137.73 773.129 137.79C773.079 137.83 773.019 137.94 773.019 138.1C773.019 138.22 773.029 138.45 773.229 138.66L773.299 138.74C777.249 144.26 780.119 148.26 780.999 149.39C781.179 149.62 781.699 150.28 782.069 151.27C782.239 151.68 782.469 152.59 782.509 153.42C782.589 155.05 782.259 163.27 781.719 172.96V173.05C781.679 173.2 781.689 173.32 781.709 173.4C781.739 173.33 781.769 173.21 781.799 173.03C782.139 171.03 782.479 169.31 782.839 167.5C783.209 165.66 783.619 163.57 784.109 160.81C784.249 160.01 784.539 158.38 785.839 157.91C786.659 157.61 787.649 157.9 788.679 158.74L788.739 158.8L801.099 171.26C801.249 171.44 801.429 171.47 801.529 171.48C801.669 171.49 801.799 171.45 801.879 171.38C801.969 171.3 802.019 171.16 802.019 171.01C802.019 170.91 801.989 170.71 801.809 170.55L801.709 170.45C799.439 167.61 791.959 158.16 791.129 156.08C791.019 155.8 790.679 154.94 791.079 154.1C791.519 153.19 792.529 152.89 793.259 152.75C796.469 152.13 802.889 152.42 803.609 152.46C804.049 152.48 804.199 152.42 804.239 152.39L804.219 152.38Z" fill="#FFFDF3" fill-opacity="0.9"/>
<path d="M120.401 177.05C120.701 176.65 121.161 176.38 121.701 176.29C122.341 176.19 122.991 176.36 123.511 176.77C129.521 180.07 133.841 182.18 135.011 182.56C135.761 182.81 136.511 182.93 136.511 182.93C137.101 183.03 137.711 183.06 138.311 183.05L154.921 180.7C155.771 180.51 156.631 180.85 157.021 181.54C157.061 181.6 157.431 182.26 157.131 183C156.791 183.85 155.821 184.12 155.511 184.2C153.031 184.86 148.271 186.28 146.071 187.49C145.381 187.87 145.211 188.13 145.191 188.29C145.161 188.54 145.421 188.87 145.511 188.97C146.601 190.3 154.831 195.95 159.561 199.11C160.101 199.36 160.511 199.83 160.701 200.39C160.891 200.96 160.831 201.57 160.531 202.05C160.261 202.51 159.791 202.84 159.261 202.96C158.701 203.09 158.121 203 157.631 202.7L142.201 194.65C141.431 194.35 140.961 194.39 140.791 194.53C140.401 194.83 140.561 196 140.611 196.38C140.991 199.18 141.231 201.31 141.441 203.18C141.661 205.09 141.841 206.74 142.121 208.73C142.161 209.03 142.291 209.96 141.661 210.56C141.551 210.66 141.161 211.01 140.591 210.99C139.801 210.96 139.131 210.23 138.981 209.25C136.281 198.79 134.331 191.83 133.861 190.59C133.541 189.75 133.031 189.09 133.021 189.08C132.511 188.44 131.981 188.08 131.781 187.94C130.561 187.11 126.791 184.3 121.181 180.11C120.661 179.8 120.271 179.3 120.111 178.72C119.971 178.19 120.031 177.63 120.291 177.2C120.321 177.15 120.351 177.1 120.391 177.05H120.401ZM155.681 182.44C155.681 182.44 155.681 182.42 155.691 182.42C155.701 182.39 155.691 182.33 155.671 182.29C155.631 182.23 155.461 182.15 155.241 182.21H155.161L138.391 184.59C137.681 184.61 136.961 184.57 136.261 184.45C136.221 184.45 135.391 184.31 134.521 184.02C133.051 183.54 128.191 181.09 122.691 178.08L122.621 178.04L122.561 177.99C122.321 177.78 122.071 177.79 121.941 177.81C121.771 177.84 121.651 177.92 121.621 177.98C121.591 178.03 121.561 178.15 121.601 178.31C121.631 178.42 121.721 178.64 121.981 178.78L122.071 178.84C127.511 182.9 131.461 185.84 132.641 186.65C132.881 186.81 133.571 187.29 134.231 188.12C134.511 188.46 135.011 189.25 135.301 190.04C135.881 191.57 138.051 199.5 140.481 208.9L140.501 208.99C140.521 209.14 140.561 209.25 140.601 209.33C140.601 209.25 140.601 209.13 140.581 208.95C140.301 206.94 140.101 205.2 139.891 203.36C139.681 201.49 139.441 199.38 139.071 196.6C138.961 195.8 138.741 194.15 139.841 193.31C140.541 192.78 141.561 192.75 142.791 193.24L142.871 193.27L158.431 201.39C158.621 201.51 158.811 201.49 158.901 201.47C159.031 201.44 159.151 201.36 159.201 201.27C159.261 201.17 159.271 201.02 159.221 200.88C159.191 200.78 159.101 200.6 158.881 200.5L158.751 200.43C155.721 198.41 145.721 191.69 144.301 189.95C144.111 189.72 143.521 189 143.651 188.08C143.791 187.08 144.671 186.49 145.321 186.13C148.191 184.56 154.401 182.89 155.101 182.71C155.531 182.6 155.651 182.49 155.681 182.45V182.44Z" fill="#F5F1D7" fill-opacity="0.8"/>
<path d="M65.1791 153.61C65.5391 153.27 66.0491 153.08 66.5891 153.09C67.2391 153.09 67.8491 153.38 68.2791 153.87C73.6191 158.17 77.4991 161.01 78.5891 161.59C79.2891 161.96 79.9991 162.22 80.0091 162.22C80.5691 162.42 81.1591 162.56 81.7591 162.65L98.5191 163.25C99.3891 163.21 100.179 163.7 100.439 164.44C100.469 164.51 100.709 165.22 100.289 165.9C99.7991 166.68 98.8091 166.77 98.4791 166.8C95.9291 167.01 90.9891 167.58 88.6091 168.38C87.8691 168.63 87.6491 168.86 87.6091 169.02C87.5291 169.26 87.7391 169.63 87.7991 169.75C88.6391 171.25 95.7491 178.25 99.8591 182.19C100.349 182.53 100.669 183.06 100.749 183.65C100.829 184.24 100.669 184.83 100.289 185.26C99.9391 185.66 99.4291 185.9 98.8791 185.94C98.2991 185.97 97.7491 185.78 97.3191 185.4L83.5391 174.77C82.8291 174.34 82.3691 174.3 82.1691 174.4C81.7291 174.63 81.6791 175.8 81.6691 176.19C81.5491 179.02 81.4091 181.15 81.2891 183.03C81.1691 184.95 81.0591 186.6 80.9891 188.61C80.9791 188.92 80.9391 189.85 80.2191 190.34C80.0991 190.42 79.6491 190.69 79.0891 190.57C78.3191 190.4 77.7891 189.57 77.8091 188.57C76.9891 177.8 76.2891 170.61 76.0391 169.3C75.8791 168.42 75.4791 167.68 75.4791 167.67C75.0891 166.95 74.6291 166.5 74.4591 166.33C73.3991 165.29 70.1791 161.87 65.3991 156.77C64.9391 156.37 64.6391 155.81 64.5891 155.21C64.5391 154.66 64.6991 154.13 65.0291 153.75C65.0691 153.7 65.1091 153.66 65.1491 153.62L65.1791 153.61ZM98.9691 165.1C98.9691 165.1 98.9791 165.09 98.9791 165.08C98.9891 165.06 98.9891 164.99 98.9791 164.95C98.9591 164.88 98.7991 164.78 98.5691 164.79H98.4891L81.5691 164.18C80.8591 164.08 80.1591 163.91 79.4891 163.67C79.4591 163.66 78.6591 163.38 77.8491 162.94C76.4891 162.21 72.1291 158.95 67.2491 155.02L67.1891 154.97L67.1391 154.91C66.9391 154.67 66.6891 154.63 66.5591 154.62C66.3891 154.62 66.2591 154.68 66.2091 154.74C66.1691 154.79 66.1191 154.9 66.1391 155.06C66.1491 155.18 66.1991 155.4 66.4291 155.59L66.5091 155.66C71.1591 160.61 74.5191 164.2 75.5491 165.2C75.7591 165.4 76.3591 165.99 76.8591 166.92C77.0791 167.3 77.4291 168.17 77.5791 169C77.8791 170.61 78.6291 178.8 79.3691 188.47V188.56C79.3691 188.71 79.3891 188.83 79.4091 188.91C79.4291 188.83 79.4491 188.71 79.4591 188.53C79.5291 186.5 79.6391 184.75 79.7591 182.91C79.8791 181.03 80.0191 178.91 80.1391 176.11C80.1691 175.3 80.2391 173.64 81.4791 173.01C82.2591 172.61 83.2691 172.76 84.3991 173.46L84.4691 173.51L98.3591 184.23C98.5291 184.38 98.7191 184.4 98.8091 184.39C98.9491 184.39 99.0691 184.33 99.1391 184.24C99.2191 184.15 99.2491 184.01 99.2291 183.86C99.2191 183.76 99.1591 183.56 98.9591 183.43L98.8491 183.34C96.2191 180.82 87.5591 172.45 86.4691 170.49C86.3191 170.23 85.8691 169.42 86.1591 168.53C86.4691 167.57 87.4391 167.14 88.1391 166.91C91.2391 165.87 97.6491 165.31 98.3691 165.25C98.8091 165.21 98.9491 165.13 98.9891 165.09L98.9691 165.1Z" fill="#F5F1D7" fill-opacity="0.8"/>
<path d="M65.0293 108.979C65.3493 108.599 65.8193 108.349 66.3693 108.289C67.0093 108.219 67.6593 108.419 68.1493 108.849C73.9893 112.439 78.1993 114.759 79.3493 115.209C80.0893 115.489 80.8293 115.649 80.8293 115.649C81.4193 115.769 82.0193 115.839 82.6193 115.859L99.3193 114.339C100.179 114.189 101.019 114.569 101.379 115.279C101.409 115.339 101.749 116.019 101.419 116.749C101.039 117.589 100.059 117.799 99.7393 117.869C97.2393 118.399 92.4093 119.589 90.1493 120.679C89.4493 121.019 89.2593 121.279 89.2393 121.439C89.1893 121.689 89.4393 122.029 89.5193 122.139C90.5393 123.519 98.4793 129.569 103.049 132.959C103.579 133.239 103.959 133.719 104.119 134.299C104.279 134.879 104.189 135.479 103.869 135.949C103.569 136.389 103.099 136.699 102.549 136.799C101.979 136.899 101.409 136.779 100.939 136.459L85.9193 127.659C85.1593 127.329 84.6993 127.339 84.5193 127.469C84.1093 127.749 84.2193 128.919 84.2493 129.309C84.4893 132.129 84.6193 134.259 84.7393 136.149C84.8593 138.069 84.9593 139.719 85.1493 141.719C85.1793 142.019 85.2593 142.949 84.5993 143.529C84.4893 143.629 84.0793 143.949 83.5093 143.899C82.7193 143.829 82.0893 143.069 81.9893 142.079C79.8093 131.499 78.2093 124.449 77.7993 123.189C77.5293 122.339 77.0393 121.649 77.0393 121.639C76.5593 120.969 76.0493 120.589 75.8593 120.439C74.6793 119.549 71.0593 116.559 65.6593 112.099C65.1493 111.769 64.7893 111.239 64.6593 110.659C64.5393 110.119 64.6393 109.569 64.9193 109.149C64.9493 109.099 64.9893 109.049 65.0293 109.009V108.979ZM99.9993 116.109C99.9993 116.109 100.009 116.099 100.009 116.089C100.019 116.069 100.009 115.999 99.9893 115.959C99.9593 115.899 99.7893 115.809 99.5693 115.859H99.4893L82.6293 117.399C81.9193 117.389 81.1993 117.309 80.5093 117.159C80.4693 117.159 79.6493 116.979 78.7893 116.649C77.3493 116.099 72.6093 113.409 67.2693 110.129L67.1993 110.089L67.1393 110.039C66.9093 109.819 66.6593 109.809 66.5293 109.829C66.3593 109.849 66.2393 109.919 66.1993 109.989C66.1593 110.039 66.1393 110.159 66.1693 110.309C66.1893 110.429 66.2693 110.639 66.5193 110.799L66.5993 110.859C71.8293 115.189 75.6293 118.319 76.7693 119.179C76.9993 119.349 77.6693 119.859 78.2893 120.719C78.5493 121.069 79.0093 121.889 79.2693 122.689C79.7693 124.249 81.5493 132.279 83.5093 141.779V141.869C83.5393 142.019 83.5693 142.129 83.6093 142.209C83.6093 142.129 83.6193 142.009 83.6093 141.829C83.4293 139.809 83.3193 138.059 83.1993 136.209C83.0793 134.329 82.9493 132.209 82.7093 129.419C82.6393 128.619 82.4993 126.959 83.6393 126.169C84.3593 125.669 85.3793 125.699 86.5893 126.239L86.6593 126.279L101.799 135.159C101.989 135.289 102.169 135.279 102.269 135.259C102.409 135.239 102.519 135.159 102.579 135.069C102.649 134.969 102.659 134.819 102.619 134.679C102.589 134.579 102.509 134.389 102.299 134.289L102.179 134.219C99.2493 132.049 89.5993 124.839 88.2693 123.039C88.0893 122.799 87.5393 122.049 87.7093 121.139C87.8993 120.139 88.7993 119.599 89.4693 119.279C92.4093 117.849 98.6993 116.499 99.3993 116.349C99.8293 116.259 99.9593 116.159 99.9893 116.119L99.9993 116.109Z" fill="#F5F1D7" fill-opacity="0.8"/>
<path d="M1.07005 130.419C1.38005 130.029 1.85005 129.779 2.40005 129.709C3.04005 129.629 3.69005 129.819 4.19005 130.249C10.0801 133.759 14.3301 136.019 15.4801 136.439C16.2201 136.709 16.9601 136.859 16.9701 136.859C17.5601 136.979 18.1601 137.039 18.7601 137.039L35.4401 135.269C36.2901 135.109 37.1401 135.479 37.5101 136.179C37.5501 136.239 37.8901 136.919 37.5701 137.639C37.2001 138.479 36.2301 138.709 35.9101 138.779C33.4101 139.349 28.6001 140.609 26.3601 141.729C25.6601 142.079 25.4801 142.339 25.4601 142.499C25.4201 142.749 25.6701 143.079 25.7501 143.189C26.7901 144.559 34.8201 150.489 39.4401 153.809C39.9701 154.079 40.3701 154.559 40.5301 155.129C40.7001 155.709 40.6101 156.309 40.3101 156.789C40.0201 157.239 39.5501 157.549 39.0001 157.659C38.4401 157.769 37.8601 157.659 37.3801 157.339L22.2401 148.749C21.4801 148.429 21.0101 148.449 20.8301 148.579C20.4301 148.869 20.5501 150.039 20.5801 150.419C20.8601 153.229 21.0201 155.369 21.1701 157.249C21.3201 159.169 21.4501 160.819 21.6601 162.819C21.6901 163.119 21.7901 164.049 21.1401 164.639C21.0301 164.739 20.6201 165.069 20.0601 165.029C19.2701 164.969 18.6301 164.219 18.5101 163.229C16.1801 152.679 14.4701 145.659 14.0501 144.399C13.7601 143.549 13.2701 142.869 13.2701 142.859C12.7801 142.199 12.2701 141.819 12.0701 141.679C10.8801 140.799 7.21005 137.869 1.75005 133.489C1.24005 133.159 0.870054 132.649 0.730054 132.059C0.610054 131.519 0.690054 130.969 0.960054 130.549C0.990054 130.499 1.03005 130.449 1.07005 130.399V130.419ZM36.1401 137.049L36.1501 137.029C36.1601 137.009 36.1501 136.939 36.1301 136.899C36.1001 136.839 35.9201 136.759 35.7101 136.799H35.6301L18.7901 138.589C18.0801 138.589 17.3601 138.519 16.6601 138.379C16.6201 138.379 15.8001 138.209 14.9401 137.889C13.4901 137.359 8.71005 134.739 3.33005 131.539L3.26005 131.499L3.20005 131.449C2.97005 131.239 2.72005 131.229 2.59005 131.249C2.42005 131.269 2.30005 131.349 2.26005 131.409C2.23005 131.459 2.20005 131.579 2.23005 131.739C2.26005 131.859 2.34005 132.069 2.59005 132.219L2.67005 132.279C7.97005 136.529 11.8001 139.599 12.9601 140.459C13.1901 140.629 13.8701 141.129 14.5001 141.979C14.7701 142.329 15.2401 143.139 15.5101 143.939C16.0301 145.489 17.9301 153.489 20.0201 162.969V163.059C20.0501 163.209 20.0901 163.319 20.1301 163.399C20.1301 163.319 20.1401 163.199 20.1301 163.019C19.9201 160.999 19.7801 159.259 19.6401 157.409C19.4901 155.539 19.3301 153.409 19.0601 150.619C18.9801 149.819 18.8201 148.159 19.9501 147.359C20.6601 146.849 21.6901 146.859 22.9001 147.389L22.9701 147.429L38.2301 156.089C38.4201 156.219 38.6101 156.209 38.7001 156.189C38.8401 156.159 38.9501 156.089 39.0101 155.999C39.0801 155.899 39.0901 155.749 39.0501 155.609C39.0201 155.509 38.9401 155.329 38.7201 155.219L38.5901 155.149C35.6301 153.019 25.8801 145.949 24.5201 144.169C24.3401 143.929 23.7801 143.189 23.9301 142.279C24.1001 141.279 25.0001 140.719 25.6601 140.389C28.5801 138.919 34.8501 137.469 35.5501 137.309C35.9801 137.209 36.1001 137.109 36.1401 137.069V137.049Z" fill="#F5F1D7" fill-opacity="0.8"/>
<path d="M0.330725 80.9795C0.620725 80.5795 1.08072 80.2895 1.61072 80.1895C2.25072 80.0695 2.90072 80.2295 3.43072 80.6195C9.51073 83.7795 13.8907 85.7895 15.0607 86.1395C15.8207 86.3695 16.5607 86.4695 16.5707 86.4795C17.1607 86.5595 17.7707 86.5895 18.3707 86.5595L34.9207 83.8295C35.7607 83.6195 36.6307 83.9395 37.0407 84.6195C37.0807 84.6795 37.4607 85.3295 37.1907 86.0795C36.8707 86.9395 35.9107 87.2295 35.6007 87.3195C33.1407 88.0295 28.4107 89.5695 26.2407 90.8195C25.5607 91.2095 25.4007 91.4795 25.3807 91.6395C25.3507 91.8895 25.6207 92.2095 25.7107 92.3095C26.8307 93.6095 35.1907 99.0695 39.9907 102.119C40.5307 102.359 40.9607 102.809 41.1607 103.379C41.3607 103.939 41.3107 104.549 41.0307 105.049C40.7707 105.509 40.3107 105.849 39.7807 105.989C39.2207 106.139 38.6407 106.059 38.1507 105.759L22.5307 98.0695C21.7507 97.7895 21.2907 97.8395 21.1107 97.9795C20.7207 98.2895 20.9107 99.4495 20.9707 99.8295C21.4107 102.619 21.7007 104.739 21.9607 106.609C22.2207 108.509 22.4407 110.159 22.7707 112.139C22.8207 112.439 22.9707 113.359 22.3607 113.979C22.2607 114.089 21.8707 114.439 21.3007 114.429C20.5107 114.419 19.8207 113.699 19.6507 112.719C16.7107 102.329 14.6007 95.4095 14.1007 94.1795C13.7707 93.3495 13.2307 92.6995 13.2307 92.6895C12.7107 92.0595 12.1707 91.7095 11.9707 91.5795C10.7307 90.7695 6.90072 88.0595 1.19072 83.9995C0.660725 83.6995 0.260725 83.2095 0.0907248 82.6295C-0.0692751 82.0995 -0.00927515 81.5495 0.240725 81.1095C0.270725 81.0595 0.300725 81.0095 0.340725 80.9595L0.330725 80.9795ZM35.7307 85.5495C35.7307 85.5495 35.7307 85.5295 35.7407 85.5295C35.7407 85.4995 35.7407 85.4395 35.7107 85.3995C35.6707 85.3395 35.5007 85.2695 35.2807 85.3295L35.2007 85.3495L18.4907 88.1095C17.7807 88.1495 17.0607 88.1195 16.3507 88.0195C16.3107 88.0195 15.4807 87.8995 14.6007 87.6295C13.1207 87.1795 8.20072 84.8495 2.64072 81.9595L2.57072 81.9195L2.51072 81.8695C2.27072 81.6695 2.01072 81.6795 1.89072 81.6995C1.72072 81.7295 1.61072 81.8095 1.57072 81.8795C1.54072 81.9395 1.52072 82.0495 1.57072 82.2095C1.60072 82.3195 1.70072 82.5295 1.96072 82.6695L2.05072 82.7195C7.58072 86.6495 11.5907 89.4995 12.8007 90.2795C13.0407 90.4395 13.7507 90.8895 14.4207 91.7095C14.7107 92.0395 15.2207 92.8295 15.5407 93.5995C16.1507 95.1195 18.5107 102.989 21.1507 112.329L21.1707 112.419C21.1907 112.569 21.2407 112.679 21.2807 112.749C21.2807 112.669 21.2807 112.549 21.2507 112.369C20.9207 110.369 20.6807 108.629 20.4307 106.799C20.1807 104.939 19.8907 102.829 19.4507 100.059C19.3207 99.2595 19.0607 97.6195 20.1407 96.7495C20.8207 96.1995 21.8407 96.1495 23.0907 96.6095L23.1707 96.6395L38.9107 104.389C39.1107 104.509 39.2907 104.489 39.3907 104.459C39.5207 104.429 39.6307 104.349 39.6907 104.249C39.7507 104.149 39.7507 103.999 39.7007 103.859C39.6707 103.759 39.5707 103.579 39.3507 103.489L39.2207 103.419C36.1407 101.469 25.9907 94.9795 24.5407 93.2795C24.3407 93.0495 23.7407 92.3495 23.8407 91.4295C23.9507 90.4195 24.8207 89.8095 25.4607 89.4495C28.2907 87.8095 34.4607 85.9995 35.1507 85.7995C35.5707 85.6795 35.6907 85.5695 35.7207 85.5195L35.7307 85.5495Z" fill="#F5F1D7" fill-opacity="0.8"/>
</g>
<defs>
<clipPath id="clip0_579_19465">
<rect width="915" height="317" fill="white"/>
</clipPath>
</defs>
</svg>
