<svg width="1000" height="353" viewBox="0 0 1000 353" fill="none" xmlns="http://www.w3.org/2000/svg">
<g clip-path="url(#clip0_579_20245)">
<path d="M109.49 232.26C109.57 231.75 109.86 231.28 110.32 230.94C110.86 230.54 111.54 230.38 112.2 230.51C119.29 230.64 124.26 230.49 125.51 230.28C126.32 230.14 127.06 229.9 127.06 229.9C127.65 229.7 128.22 229.45 128.76 229.14L142.83 219C143.51 218.42 144.46 218.31 145.16 218.75C145.22 218.79 145.88 219.22 145.97 220.03C146.07 220.98 145.31 221.68 145.06 221.91C143.11 223.7 139.44 227.3 138 229.46C137.55 230.13 137.53 230.46 137.58 230.62C137.67 230.87 138.07 231.04 138.2 231.09C139.83 231.78 150.09 232.99 155.94 233.6C156.55 233.57 157.16 233.8 157.6 234.23C158.04 234.66 158.28 235.25 158.25 235.83C158.22 236.38 157.95 236.9 157.52 237.28C157.07 237.67 156.5 237.86 155.9 237.82L137.9 237.88C137.05 237.98 136.64 238.24 136.55 238.45C136.34 238.92 137.04 239.9 137.28 240.23C138.97 242.61 140.22 244.44 141.31 246.06C142.43 247.7 143.39 249.12 144.6 250.81C144.78 251.07 145.35 251.85 145.07 252.71C145.02 252.86 144.83 253.36 144.3 253.61C143.56 253.96 142.6 253.61 141.99 252.79C134.49 244.52 129.35 239.09 128.33 238.18C127.64 237.57 126.85 237.21 126.84 237.2C126.06 236.85 125.41 236.78 125.16 236.75C123.64 236.58 118.84 235.82 111.69 234.69C111.06 234.66 110.46 234.38 110.04 233.93C109.65 233.51 109.45 232.97 109.47 232.45C109.47 232.39 109.48 232.33 109.49 232.27V232.26ZM144.37 220.21V220.19C144.37 220.16 144.32 220.11 144.28 220.08C144.22 220.04 144.02 220.06 143.85 220.21L143.79 220.26L129.59 230.5C128.95 230.86 128.27 231.17 127.57 231.4C127.53 231.41 126.71 231.69 125.77 231.85C124.19 232.12 118.57 232.22 112.09 232.1H112.01L111.93 232.08C111.61 232.01 111.38 232.13 111.28 232.21C111.14 232.32 111.07 232.45 111.07 232.53C111.07 232.6 111.1 232.72 111.21 232.84C111.29 232.93 111.48 233.08 111.78 233.09H111.89C118.82 234.2 123.85 234.99 125.32 235.16C125.62 235.19 126.48 235.29 127.48 235.74C127.9 235.92 128.74 236.41 129.38 236.98C130.64 238.1 136.45 244.31 143.19 251.74L143.25 251.81C143.34 251.94 143.43 252.02 143.51 252.07C143.48 252 143.42 251.89 143.31 251.73C142.08 250.03 141.07 248.53 139.99 246.95C138.9 245.34 137.66 243.52 135.98 241.16C135.5 240.48 134.5 239.08 135.1 237.78C135.48 236.96 136.4 236.44 137.77 236.29H137.86L156 236.23C156.24 236.25 156.4 236.14 156.47 236.08C156.58 235.99 156.64 235.86 156.65 235.75C156.65 235.63 156.59 235.49 156.48 235.38C156.4 235.3 156.24 235.18 155.98 235.2H155.83C152.09 234.81 139.7 233.47 137.57 232.56C137.28 232.44 136.4 232.07 136.07 231.16C135.71 230.18 136.23 229.21 136.66 228.58C138.53 225.76 143.41 221.25 143.96 220.74C144.3 220.43 144.36 220.28 144.37 220.22V220.21Z" fill="#2E5629" fill-opacity="0.5"/>
<path d="M180.269 249.891C180.349 249.381 180.639 248.911 181.099 248.571C181.639 248.171 182.319 248.011 182.979 248.141C190.069 248.271 195.039 248.121 196.289 247.911C197.099 247.771 197.839 247.531 197.839 247.531C198.429 247.331 198.999 247.081 199.539 246.771L213.609 236.631C214.289 236.051 215.239 235.941 215.939 236.381C215.999 236.421 216.659 236.851 216.749 237.661C216.849 238.611 216.089 239.311 215.839 239.541C213.889 241.331 210.219 244.931 208.779 247.091C208.329 247.761 208.309 248.091 208.359 248.251C208.449 248.501 208.849 248.671 208.979 248.721C210.609 249.411 220.869 250.621 226.719 251.231C227.329 251.201 227.939 251.431 228.379 251.861C228.819 252.291 229.059 252.881 229.029 253.461C228.999 254.011 228.729 254.531 228.299 254.911C227.849 255.301 227.279 255.491 226.679 255.451L208.679 255.511C207.829 255.611 207.419 255.871 207.329 256.081C207.119 256.551 207.819 257.531 208.059 257.861C209.749 260.241 210.999 262.071 212.089 263.691C213.209 265.331 214.169 266.751 215.379 268.441C215.559 268.701 216.129 269.481 215.849 270.341C215.799 270.491 215.609 270.991 215.079 271.241C214.339 271.591 213.379 271.241 212.769 270.421C205.269 262.151 200.129 256.721 199.109 255.811C198.419 255.201 197.629 254.841 197.619 254.831C196.839 254.481 196.189 254.411 195.939 254.381C194.419 254.211 189.619 253.451 182.469 252.321C181.839 252.291 181.239 252.011 180.819 251.561C180.429 251.141 180.229 250.601 180.249 250.081C180.249 250.021 180.259 249.961 180.269 249.901V249.891ZM215.149 237.851V237.831C215.149 237.801 215.099 237.751 215.059 237.721C214.999 237.681 214.799 237.701 214.629 237.851L214.569 237.901L200.369 248.141C199.729 248.501 199.049 248.811 198.349 249.041C198.309 249.051 197.489 249.331 196.549 249.491C194.969 249.761 189.349 249.861 182.869 249.741H182.789L182.709 249.721C182.389 249.651 182.159 249.771 182.059 249.851C181.919 249.961 181.849 250.091 181.849 250.171C181.849 250.241 181.879 250.361 181.989 250.481C182.069 250.571 182.259 250.721 182.559 250.731H182.669C189.599 251.841 194.629 252.631 196.099 252.801C196.399 252.831 197.259 252.931 198.259 253.381C198.679 253.561 199.519 254.051 200.159 254.621C201.419 255.741 207.229 261.951 213.969 269.381L214.029 269.451C214.119 269.581 214.209 269.661 214.289 269.711C214.259 269.641 214.199 269.531 214.089 269.371C212.859 267.671 211.849 266.171 210.769 264.591C209.679 262.981 208.439 261.161 206.759 258.801C206.279 258.121 205.279 256.721 205.879 255.421C206.259 254.601 207.179 254.081 208.549 253.931H208.639L226.779 253.871C227.019 253.891 227.179 253.781 227.249 253.721C227.359 253.631 227.419 253.501 227.429 253.391C227.429 253.271 227.369 253.131 227.259 253.021C227.179 252.941 227.019 252.821 226.759 252.841H226.609C222.869 252.451 210.479 251.111 208.349 250.201C208.059 250.081 207.179 249.711 206.849 248.801C206.489 247.821 207.009 246.851 207.439 246.221C209.309 243.401 214.189 238.891 214.739 238.381C215.079 238.071 215.139 237.921 215.149 237.861V237.851Z" fill="#2E5629" fill-opacity="0.5"/>
<path d="M164.689 292.9C164.849 292.41 165.209 291.99 165.709 291.72C166.299 291.4 166.999 291.35 167.629 291.57C174.619 292.76 179.549 293.37 180.829 293.35C181.649 293.34 182.419 293.21 182.419 293.2C183.029 293.09 183.629 292.93 184.209 292.71L199.639 284.81C200.399 284.34 201.359 284.38 201.979 284.92C202.039 284.97 202.619 285.49 202.579 286.31C202.529 287.26 201.679 287.84 201.399 288.03C199.199 289.51 195.029 292.51 193.289 294.43C192.749 295.03 192.669 295.35 192.699 295.51C192.749 295.77 193.119 295.99 193.239 296.07C194.749 297 204.699 299.74 210.399 301.23C211.009 301.29 211.569 301.61 211.949 302.1C212.319 302.59 212.469 303.21 212.349 303.78C212.239 304.32 211.899 304.8 211.409 305.1C210.909 305.42 210.309 305.52 209.729 305.39L191.929 302.74C191.069 302.71 190.629 302.9 190.509 303.1C190.229 303.53 190.779 304.61 190.959 304.97C192.269 307.58 193.229 309.58 194.069 311.34C194.919 313.13 195.659 314.68 196.609 316.53C196.749 316.81 197.189 317.67 196.789 318.48C196.719 318.62 196.449 319.09 195.889 319.26C195.109 319.5 194.209 319.01 193.729 318.1C187.559 308.79 183.299 302.65 182.429 301.59C181.839 300.88 181.109 300.4 181.099 300.4C180.389 299.94 179.749 299.77 179.509 299.7C178.029 299.3 173.399 297.83 166.509 295.63C165.889 295.51 165.339 295.14 164.999 294.63C164.679 294.16 164.559 293.59 164.659 293.09C164.669 293.03 164.689 292.97 164.709 292.91L164.689 292.9ZM200.989 286.25V286.23C200.989 286.2 200.949 286.14 200.919 286.11C200.859 286.06 200.669 286.05 200.469 286.17L200.399 286.21L184.819 294.19C184.129 294.45 183.409 294.65 182.689 294.78C182.649 294.78 181.789 294.93 180.849 294.95C179.249 294.98 173.669 294.23 167.289 293.14H167.209L167.129 293.1C166.829 292.98 166.579 293.07 166.459 293.13C166.299 293.21 166.219 293.33 166.199 293.41C166.189 293.47 166.199 293.6 166.299 293.73C166.369 293.83 166.529 294.01 166.829 294.06L166.929 294.09C173.619 296.22 178.469 297.76 179.899 298.15C180.189 298.23 181.029 298.46 181.949 299.05C182.339 299.29 183.089 299.9 183.649 300.56C184.729 301.86 189.539 308.87 195.079 317.24L195.129 317.32C195.199 317.46 195.279 317.55 195.339 317.61C195.319 317.53 195.279 317.41 195.189 317.24C194.229 315.37 193.449 313.74 192.629 312.01C191.789 310.26 190.849 308.27 189.539 305.68C189.159 304.93 188.389 303.4 189.179 302.2C189.679 301.44 190.669 301.07 192.039 301.13H192.129L210.069 303.82C210.299 303.88 210.479 303.79 210.559 303.74C210.679 303.66 210.759 303.55 210.789 303.44C210.819 303.32 210.769 303.17 210.679 303.05C210.619 302.96 210.469 302.82 210.219 302.8L210.069 302.78C206.429 301.83 194.389 298.63 192.419 297.42C192.149 297.26 191.339 296.75 191.149 295.81C190.949 294.78 191.609 293.91 192.119 293.35C194.389 290.85 199.899 287.12 200.519 286.7C200.899 286.44 200.979 286.3 200.999 286.25H200.989Z" fill="#2E5629" fill-opacity="0.5"/>
<path d="M248.921 247.851C248.821 247.351 248.931 246.801 249.241 246.331C249.601 245.771 250.191 245.381 250.851 245.271C257.541 242.931 262.151 241.061 263.251 240.431C263.961 240.021 264.571 239.531 264.571 239.531C265.051 239.141 265.501 238.701 265.901 238.231L275.571 223.841C276.011 223.061 276.861 222.631 277.671 222.801C277.741 222.811 278.511 222.991 278.871 223.721C279.291 224.571 278.821 225.501 278.671 225.801C277.461 228.161 275.271 232.811 274.671 235.331C274.481 236.121 274.571 236.431 274.681 236.561C274.851 236.761 275.281 236.781 275.421 236.791C277.191 236.871 287.231 234.451 292.931 232.991C293.501 232.751 294.141 232.751 294.701 233.001C295.271 233.251 295.691 233.721 295.861 234.281C296.021 234.801 295.961 235.391 295.681 235.891C295.391 236.411 294.921 236.791 294.351 236.961L277.491 243.261C276.731 243.651 276.441 244.031 276.421 244.261C276.381 244.771 277.391 245.451 277.721 245.681C280.141 247.331 281.941 248.611 283.521 249.751C285.141 250.901 286.531 251.901 288.261 253.061C288.521 253.241 289.321 253.781 289.361 254.681C289.361 254.831 289.361 255.371 288.951 255.801C288.381 256.391 287.361 256.401 286.501 255.831C276.591 250.681 269.891 247.371 268.621 246.871C267.761 246.531 266.891 246.471 266.881 246.471C266.031 246.421 265.391 246.571 265.151 246.631C263.661 246.991 258.901 247.951 251.801 249.371C251.201 249.561 250.541 249.511 249.991 249.231C249.481 248.971 249.101 248.541 248.951 248.041C248.931 247.981 248.921 247.921 248.901 247.861L248.921 247.851ZM277.451 224.441V224.421C277.441 224.391 277.381 224.361 277.331 224.351C277.261 224.331 277.081 224.421 276.971 224.621L276.931 224.691L267.161 239.221C266.681 239.781 266.151 240.301 265.581 240.771C265.551 240.791 264.871 241.341 264.051 241.811C262.661 242.611 257.421 244.661 251.311 246.801L251.231 246.831H251.151C250.831 246.881 250.661 247.081 250.581 247.191C250.481 247.341 250.461 247.491 250.491 247.561C250.511 247.621 250.581 247.721 250.731 247.801C250.841 247.861 251.061 247.931 251.351 247.841L251.451 247.811C258.331 246.431 263.321 245.431 264.761 245.081C265.051 245.011 265.891 244.801 266.991 244.871C267.441 244.891 268.401 245.061 269.201 245.371C270.781 245.981 278.381 249.791 287.281 254.421L287.361 254.471C287.491 254.561 287.601 254.601 287.691 254.621C287.631 254.561 287.541 254.481 287.381 254.371C285.641 253.201 284.161 252.151 282.611 251.041C281.031 249.911 279.241 248.631 276.841 247.001C276.151 246.531 274.731 245.561 274.841 244.131C274.911 243.231 275.601 242.421 276.821 241.811L276.901 241.781L293.891 235.431C294.121 235.371 294.231 235.211 294.281 235.121C294.351 234.991 294.371 234.861 294.331 234.751C294.291 234.631 294.191 234.521 294.051 234.461C293.951 234.421 293.751 234.361 293.521 234.461L293.381 234.511C289.731 235.441 277.651 238.481 275.341 238.371C275.031 238.361 274.071 238.311 273.451 237.581C272.771 236.781 272.931 235.701 273.101 234.951C273.881 231.661 276.891 225.731 277.231 225.071C277.441 224.661 277.441 224.501 277.431 224.441H277.451Z" fill="#2E5629" fill-opacity="0.5"/>
<path d="M227.601 290.38C227.731 289.89 228.081 289.45 228.561 289.16C229.131 288.82 229.831 288.73 230.481 288.93C237.511 289.81 242.471 290.19 243.741 290.11C244.561 290.06 245.321 289.89 245.331 289.89C245.931 289.76 246.531 289.56 247.101 289.32L262.161 280.73C262.901 280.22 263.861 280.22 264.501 280.73C264.561 280.78 265.171 281.27 265.171 282.09C265.171 283.04 264.341 283.66 264.071 283.86C261.941 285.43 257.911 288.62 256.251 290.62C255.731 291.24 255.671 291.57 255.711 291.72C255.771 291.98 256.151 292.19 256.271 292.25C257.821 293.11 267.891 295.4 273.641 296.63C274.251 296.67 274.831 296.96 275.221 297.43C275.621 297.91 275.791 298.51 275.701 299.09C275.611 299.63 275.291 300.13 274.821 300.45C274.331 300.79 273.741 300.92 273.151 300.82L255.251 298.97C254.391 298.98 253.961 299.19 253.851 299.39C253.591 299.83 254.191 300.89 254.381 301.24C255.811 303.79 256.851 305.74 257.771 307.46C258.701 309.21 259.511 310.73 260.541 312.53C260.701 312.8 261.171 313.64 260.801 314.47C260.741 314.61 260.491 315.09 259.931 315.29C259.161 315.56 258.241 315.12 257.721 314.23C251.141 305.21 246.611 299.27 245.681 298.25C245.061 297.57 244.311 297.13 244.301 297.12C243.571 296.69 242.921 296.55 242.681 296.5C241.191 296.16 236.491 294.91 229.511 293.02C228.891 292.92 228.321 292.59 227.951 292.09C227.611 291.63 227.461 291.08 227.541 290.56C227.551 290.5 227.561 290.44 227.581 290.38H227.601ZM263.561 282.09V282.07C263.561 282.04 263.521 281.98 263.491 281.95C263.431 281.9 263.241 281.9 263.051 282.03L262.981 282.07L247.771 290.74C247.091 291.03 246.391 291.26 245.671 291.42C245.631 291.42 244.781 291.61 243.841 291.67C242.241 291.77 236.641 291.28 230.211 290.47H230.131L230.051 290.43C229.741 290.32 229.501 290.43 229.391 290.49C229.241 290.58 229.151 290.7 229.151 290.78C229.141 290.84 229.161 290.97 229.261 291.1C229.331 291.2 229.501 291.37 229.801 291.41L229.901 291.43C236.681 293.26 241.591 294.58 243.041 294.9C243.331 294.97 244.181 295.15 245.131 295.7C245.531 295.92 246.311 296.49 246.891 297.14C248.031 298.39 253.151 305.18 259.061 313.29L259.111 313.37C259.191 313.51 259.271 313.6 259.341 313.65C259.321 313.57 259.271 313.46 259.171 313.29C258.131 311.47 257.281 309.87 256.381 308.18C255.471 306.47 254.431 304.52 253.011 302C252.601 301.27 251.761 299.78 252.491 298.54C252.961 297.76 253.931 297.35 255.301 297.34H255.391L273.441 299.21C273.671 299.25 273.841 299.17 273.931 299.11C274.051 299.03 274.121 298.91 274.141 298.8C274.161 298.68 274.111 298.53 274.011 298.41C273.941 298.33 273.791 298.19 273.541 298.18L273.391 298.16C269.711 297.38 257.541 294.73 255.511 293.6C255.241 293.45 254.401 292.98 254.171 292.05C253.921 291.03 254.541 290.13 255.031 289.54C257.191 286.94 262.521 282.97 263.121 282.52C263.491 282.25 263.561 282.1 263.581 282.05L263.561 282.09Z" fill="#2E5629" fill-opacity="0.5"/>
<path d="M275.79 272.861C275.92 272.371 276.27 271.931 276.75 271.641C277.32 271.301 278.02 271.211 278.67 271.411C285.7 272.291 290.66 272.671 291.93 272.591C292.75 272.541 293.51 272.371 293.52 272.371C294.12 272.241 294.72 272.041 295.29 271.801L310.35 263.211C311.09 262.701 312.05 262.701 312.69 263.211C312.75 263.261 313.36 263.751 313.36 264.571C313.36 265.521 312.53 266.141 312.26 266.341C310.13 267.911 306.1 271.101 304.44 273.101C303.92 273.721 303.86 274.051 303.9 274.201C303.96 274.461 304.34 274.671 304.46 274.731C306.01 275.591 316.08 277.881 321.83 279.111C322.44 279.151 323.02 279.441 323.41 279.911C323.81 280.391 323.98 280.991 323.89 281.571C323.8 282.111 323.48 282.611 323.01 282.931C322.52 283.271 321.93 283.401 321.34 283.301L303.44 281.451C302.58 281.461 302.15 281.671 302.04 281.871C301.78 282.311 302.38 283.371 302.57 283.721C304 286.271 305.04 288.221 305.96 289.941C306.89 291.691 307.7 293.211 308.73 295.011C308.89 295.281 309.36 296.121 308.99 296.951C308.93 297.091 308.68 297.571 308.12 297.771C307.35 298.041 306.43 297.601 305.91 296.711C299.33 287.691 294.8 281.751 293.87 280.731C293.25 280.051 292.5 279.611 292.49 279.601C291.76 279.171 291.11 279.031 290.87 278.981C289.38 278.641 284.68 277.391 277.7 275.501C277.08 275.401 276.51 275.071 276.14 274.571C275.8 274.111 275.65 273.561 275.73 273.041C275.74 272.981 275.75 272.921 275.77 272.861H275.79ZM311.75 264.581V264.561C311.75 264.531 311.71 264.471 311.68 264.441C311.62 264.391 311.43 264.391 311.24 264.521L311.17 264.561L295.96 273.231C295.28 273.521 294.58 273.751 293.86 273.911C293.82 273.911 292.97 274.101 292.03 274.161C290.43 274.261 284.83 273.771 278.4 272.961H278.32L278.24 272.921C277.93 272.811 277.69 272.921 277.58 272.981C277.43 273.071 277.34 273.191 277.34 273.271C277.33 273.331 277.35 273.461 277.45 273.591C277.52 273.691 277.69 273.861 277.99 273.901L278.09 273.921C284.87 275.751 289.78 277.071 291.23 277.391C291.52 277.461 292.37 277.641 293.32 278.191C293.72 278.411 294.5 278.981 295.08 279.631C296.22 280.881 301.34 287.671 307.25 295.781L307.3 295.861C307.38 296.001 307.46 296.091 307.53 296.141C307.51 296.061 307.46 295.951 307.36 295.781C306.32 293.961 305.47 292.361 304.57 290.671C303.66 288.961 302.62 287.011 301.2 284.491C300.79 283.761 299.95 282.271 300.68 281.031C301.15 280.251 302.12 279.841 303.49 279.831H303.58L321.63 281.701C321.86 281.741 322.03 281.661 322.12 281.601C322.24 281.521 322.31 281.401 322.33 281.291C322.35 281.171 322.3 281.021 322.2 280.901C322.13 280.821 321.98 280.681 321.73 280.671L321.58 280.651C317.9 279.871 305.73 277.221 303.7 276.091C303.43 275.941 302.59 275.471 302.36 274.541C302.11 273.521 302.73 272.621 303.22 272.031C305.38 269.431 310.71 265.461 311.31 265.011C311.68 264.741 311.75 264.591 311.77 264.541L311.75 264.581Z" fill="#2E5629" fill-opacity="0.5"/>
<path d="M335.401 258.87C335.241 258.38 335.291 257.83 335.541 257.32C335.841 256.72 336.371 256.27 337.031 256.09C343.421 253.02 347.791 250.65 348.821 249.9C349.481 249.42 350.031 248.86 350.041 248.86C350.481 248.42 350.871 247.94 351.221 247.42L359.231 232.04C359.581 231.21 360.381 230.69 361.201 230.77C361.281 230.77 362.051 230.86 362.501 231.55C363.011 232.35 362.651 233.32 362.531 233.64C361.591 236.12 359.931 240.98 359.621 243.56C359.521 244.36 359.651 244.67 359.771 244.78C359.961 244.96 360.391 244.93 360.531 244.92C362.301 244.8 372.001 241.28 377.501 239.19C378.041 238.89 378.671 238.82 379.261 239.01C379.851 239.2 380.321 239.61 380.561 240.15C380.781 240.65 380.781 241.24 380.561 241.77C380.331 242.32 379.911 242.75 379.361 242.98L363.311 251.12C362.601 251.59 362.351 252 362.361 252.23C362.381 252.74 363.451 253.31 363.811 253.49C366.391 254.86 368.331 255.93 370.031 256.88C371.761 257.85 373.261 258.68 375.111 259.64C375.391 259.79 376.241 260.23 376.381 261.13C376.401 261.28 376.461 261.82 376.091 262.29C375.591 262.93 374.571 263.06 373.661 262.6C363.241 258.58 356.211 256.04 354.891 255.69C354.001 255.45 353.131 255.49 353.121 255.49C352.271 255.53 351.651 255.76 351.421 255.84C349.981 256.37 345.361 257.85 338.461 260.05C337.881 260.31 337.231 260.33 336.651 260.11C336.121 259.91 335.691 259.52 335.481 259.05C335.461 258.99 335.431 258.93 335.411 258.88L335.401 258.87ZM361.151 232.43V232.41C361.141 232.39 361.071 232.36 361.031 232.35C360.961 232.35 360.791 232.45 360.701 232.66L360.671 232.73L352.581 248.26C352.171 248.87 351.701 249.45 351.181 249.97C351.151 250 350.541 250.61 349.781 251.18C348.491 252.13 343.511 254.75 337.671 257.56L337.601 257.6L337.521 257.62C337.201 257.7 337.061 257.91 337.001 258.03C336.921 258.19 336.921 258.34 336.951 258.41C336.981 258.47 337.061 258.56 337.221 258.62C337.331 258.66 337.571 258.72 337.841 258.59L337.941 258.55C344.631 256.42 349.471 254.86 350.871 254.35C351.151 254.25 351.971 253.95 353.061 253.89C353.511 253.86 354.481 253.92 355.321 254.14C356.951 254.57 364.931 257.51 374.301 261.12L374.391 261.16C374.531 261.23 374.651 261.26 374.731 261.27C374.671 261.22 374.561 261.15 374.401 261.06C372.541 260.09 370.961 259.21 369.281 258.28C367.581 257.33 365.661 256.26 363.101 254.91C362.361 254.52 360.841 253.72 360.801 252.28C360.771 251.37 361.361 250.5 362.511 249.75L362.581 249.71L378.761 241.5C378.981 241.41 379.081 241.24 379.111 241.15C379.161 241.02 379.171 240.88 379.121 240.77C379.071 240.66 378.951 240.56 378.811 240.51C378.711 240.48 378.501 240.44 378.291 240.57L378.161 240.64C374.641 241.97 362.971 246.34 360.661 246.49C360.351 246.51 359.391 246.57 358.691 245.91C357.931 245.19 357.961 244.1 358.051 243.34C358.461 239.98 360.791 233.76 361.051 233.06C361.211 232.63 361.201 232.47 361.181 232.41L361.151 232.43Z" fill="#2E5629" fill-opacity="0.5"/>
<path d="M315.49 222.32C315.23 221.88 315.16 221.33 315.29 220.78C315.45 220.13 315.87 219.58 316.47 219.25C322.02 214.84 325.76 211.57 326.6 210.61C327.14 209.99 327.55 209.33 327.56 209.32C327.89 208.8 328.17 208.23 328.39 207.66L332.8 190.89C332.96 190 333.63 189.32 334.44 189.22C334.52 189.21 335.29 189.12 335.88 189.7C336.56 190.37 336.42 191.39 336.37 191.73C336 194.35 335.46 199.46 335.72 202.04C335.8 202.84 335.99 203.11 336.13 203.2C336.36 203.33 336.77 203.21 336.91 203.17C338.61 202.67 347.29 197.08 352.2 193.83C352.66 193.42 353.26 193.21 353.88 193.26C354.5 193.31 355.05 193.61 355.4 194.08C355.72 194.52 355.85 195.1 355.76 195.66C355.66 196.25 355.34 196.76 354.86 197.11L341.01 208.6C340.42 209.22 340.27 209.67 340.33 209.9C340.46 210.4 341.63 210.71 342.02 210.81C344.84 211.57 346.96 212.2 348.84 212.75C350.75 213.31 352.39 213.79 354.4 214.32C354.71 214.4 355.64 214.65 355.97 215.49C356.03 215.63 356.2 216.15 355.95 216.68C355.61 217.42 354.64 217.77 353.64 217.52C342.59 215.9 335.18 214.98 333.81 214.92C332.89 214.89 332.05 215.11 332.04 215.11C331.22 215.34 330.67 215.7 330.46 215.83C329.17 216.66 324.99 219.13 318.75 222.8C318.25 223.18 317.61 223.34 317 223.26C316.43 223.18 315.93 222.9 315.63 222.48C315.59 222.43 315.56 222.38 315.53 222.32H315.49ZM334.76 190.85L334.75 190.83C334.73 190.81 334.66 190.8 334.62 190.8C334.55 190.8 334.41 190.95 334.37 191.18L334.35 191.26L329.89 208.19C329.63 208.88 329.3 209.55 328.91 210.17C328.89 210.2 328.43 210.94 327.81 211.66C326.76 212.87 322.49 216.53 317.41 220.55L317.35 220.6L317.28 220.64C316.99 220.79 316.89 221.03 316.86 221.16C316.82 221.33 316.85 221.48 316.9 221.54C316.94 221.59 317.04 221.66 317.2 221.68C317.32 221.7 317.56 221.7 317.8 221.51L317.89 221.45C323.94 217.89 328.32 215.31 329.57 214.5C329.82 214.34 330.55 213.86 331.61 213.57C332.04 213.44 333 213.29 333.87 213.32C335.56 213.38 343.99 214.48 353.92 215.94L354.01 215.96C354.16 216 354.28 216 354.37 216C354.3 215.96 354.18 215.92 354 215.87C351.97 215.34 350.23 214.83 348.4 214.29C346.54 213.74 344.42 213.12 341.63 212.37C340.82 212.15 339.17 211.7 338.8 210.32C338.57 209.44 338.96 208.46 339.91 207.48L339.97 207.42L353.94 195.84C354.13 195.71 354.19 195.52 354.21 195.42C354.23 195.28 354.21 195.14 354.14 195.05C354.07 194.95 353.93 194.88 353.78 194.87C353.67 194.87 353.46 194.87 353.28 195.05L353.16 195.14C350.02 197.22 339.61 204.05 337.39 204.71C337.09 204.8 336.17 205.07 335.35 204.58C334.45 204.05 334.24 202.97 334.16 202.21C333.81 198.85 334.71 192.26 334.81 191.52C334.87 191.07 334.82 190.91 334.79 190.86L334.76 190.85Z" fill="#2E5629" fill-opacity="0.5"/>
<path d="M397.08 217.319C396.92 216.829 396.97 216.279 397.22 215.769C397.52 215.169 398.05 214.719 398.71 214.539C405.1 211.469 409.47 209.099 410.5 208.349C411.16 207.869 411.71 207.309 411.72 207.309C412.16 206.869 412.55 206.389 412.9 205.869L420.91 190.489C421.26 189.659 422.06 189.139 422.88 189.219C422.96 189.219 423.73 189.309 424.18 189.999C424.69 190.799 424.33 191.769 424.21 192.089C423.27 194.569 421.61 199.429 421.3 202.009C421.2 202.809 421.33 203.119 421.45 203.229C421.64 203.409 422.07 203.379 422.21 203.369C423.98 203.249 433.68 199.729 439.18 197.639C439.72 197.339 440.35 197.269 440.94 197.459C441.53 197.649 442 198.059 442.24 198.599C442.46 199.099 442.46 199.689 442.24 200.219C442.01 200.769 441.59 201.199 441.04 201.429L424.99 209.569C424.28 210.039 424.03 210.449 424.04 210.679C424.06 211.189 425.13 211.759 425.49 211.939C428.07 213.309 430.01 214.379 431.71 215.329C433.44 216.299 434.94 217.129 436.79 218.089C437.07 218.239 437.92 218.679 438.06 219.579C438.08 219.729 438.14 220.269 437.77 220.739C437.27 221.379 436.25 221.509 435.34 221.049C424.92 217.029 417.89 214.489 416.57 214.139C415.68 213.899 414.81 213.939 414.8 213.939C413.95 213.979 413.33 214.209 413.1 214.289C411.66 214.819 407.04 216.299 400.14 218.499C399.56 218.759 398.91 218.779 398.33 218.559C397.8 218.359 397.37 217.969 397.16 217.499C397.14 217.439 397.11 217.379 397.09 217.329L397.08 217.319ZM422.83 190.879V190.859C422.82 190.839 422.75 190.809 422.71 190.799C422.64 190.799 422.47 190.899 422.38 191.109L422.35 191.179L414.26 206.709C413.85 207.319 413.38 207.899 412.86 208.419C412.83 208.449 412.22 209.059 411.46 209.629C410.17 210.579 405.19 213.199 399.35 216.009L399.28 216.049L399.2 216.069C398.88 216.149 398.74 216.359 398.68 216.479C398.6 216.639 398.6 216.789 398.63 216.859C398.66 216.919 398.74 217.009 398.9 217.069C399.01 217.109 399.25 217.169 399.52 217.039L399.62 216.999C406.31 214.869 411.15 213.309 412.55 212.799C412.83 212.699 413.65 212.399 414.74 212.339C415.19 212.309 416.16 212.369 417 212.589C418.63 213.019 426.61 215.959 435.98 219.569L436.07 219.609C436.21 219.679 436.33 219.709 436.41 219.719C436.35 219.669 436.24 219.599 436.08 219.509C434.22 218.539 432.64 217.659 430.96 216.729C429.26 215.779 427.34 214.709 424.78 213.359C424.04 212.969 422.52 212.169 422.48 210.729C422.45 209.819 423.04 208.949 424.19 208.199L424.26 208.159L440.44 199.949C440.66 199.859 440.76 199.689 440.79 199.599C440.84 199.469 440.85 199.329 440.8 199.219C440.75 199.109 440.63 199.009 440.49 198.959C440.39 198.929 440.18 198.889 439.97 199.019L439.84 199.089C436.32 200.419 424.65 204.789 422.34 204.939C422.03 204.959 421.07 205.019 420.37 204.359C419.61 203.639 419.64 202.549 419.73 201.789C420.14 198.429 422.47 192.209 422.73 191.509C422.89 191.079 422.88 190.919 422.86 190.859L422.83 190.879Z" fill="#2E5629" fill-opacity="0.5"/>
<path d="M534.881 131.28C534.661 130.82 534.621 130.26 534.801 129.73C535.011 129.09 535.471 128.57 536.091 128.3C541.971 124.34 545.951 121.36 546.861 120.47C547.441 119.9 547.911 119.27 547.911 119.26C548.281 118.76 548.601 118.23 548.871 117.66L554.571 101.28C554.801 100.41 555.511 99.7805 556.331 99.7405C556.411 99.7405 557.191 99.7105 557.731 100.33C558.351 101.05 558.141 102.06 558.061 102.39C557.491 104.98 556.551 110.03 556.611 112.62C556.631 113.43 556.801 113.71 556.931 113.8C557.151 113.95 557.571 113.86 557.711 113.83C559.451 113.46 568.541 108.57 573.681 105.71C574.171 105.33 574.791 105.17 575.401 105.27C576.011 105.37 576.541 105.71 576.851 106.21C577.141 106.68 577.221 107.26 577.091 107.81C576.951 108.39 576.591 108.87 576.081 109.18L561.381 119.56C560.741 120.13 560.561 120.57 560.601 120.8C560.691 121.31 561.841 121.71 562.211 121.84C564.961 122.82 567.031 123.61 568.861 124.3C570.721 125.01 572.321 125.62 574.281 126.3C574.581 126.4 575.491 126.72 575.751 127.59C575.801 127.74 575.921 128.26 575.631 128.78C575.231 129.49 574.241 129.76 573.271 129.43C562.381 126.96 555.061 125.46 553.701 125.3C552.781 125.19 551.931 125.35 551.921 125.36C551.091 125.52 550.511 125.84 550.291 125.96C548.941 126.69 544.581 128.83 538.081 132C537.551 132.34 536.901 132.45 536.301 132.32C535.741 132.2 535.261 131.88 534.991 131.44C534.961 131.39 534.931 131.33 534.901 131.28H534.881ZM556.531 101.4C556.531 101.4 556.531 101.38 556.521 101.38C556.501 101.36 556.431 101.34 556.391 101.34C556.321 101.34 556.171 101.47 556.111 101.69L556.091 101.77L550.331 118.3C550.011 118.97 549.631 119.6 549.201 120.2C549.181 120.23 548.661 120.93 547.981 121.6C546.841 122.72 542.291 126.04 536.921 129.66L536.851 129.71L536.771 129.74C536.471 129.86 536.351 130.1 536.311 130.22C536.261 130.39 536.271 130.53 536.311 130.6C536.341 130.66 536.441 130.73 536.601 130.77C536.721 130.8 536.961 130.81 537.211 130.65L537.301 130.6C543.611 127.52 548.181 125.29 549.481 124.58C549.741 124.44 550.511 124.02 551.581 123.81C552.021 123.72 552.991 123.64 553.851 123.74C555.531 123.93 563.851 125.69 573.641 127.9L573.731 127.93C573.881 127.98 574.001 128 574.091 127.99C574.021 127.95 573.911 127.89 573.731 127.83C571.751 127.14 570.061 126.5 568.271 125.82C566.451 125.13 564.401 124.35 561.671 123.38C560.881 123.1 559.271 122.53 559.011 121.11C558.851 120.22 559.311 119.27 560.341 118.36L560.411 118.31L575.231 107.85C575.431 107.73 575.511 107.55 575.531 107.45C575.561 107.31 575.551 107.17 575.491 107.08C575.421 106.97 575.291 106.9 575.141 106.87C575.031 106.85 574.831 106.85 574.631 107.01L574.511 107.1C571.221 108.93 560.311 114.94 558.041 115.42C557.731 115.49 556.801 115.69 556.011 115.13C555.151 114.53 555.031 113.44 555.011 112.68C554.931 109.3 556.331 102.8 556.491 102.07C556.591 101.62 556.551 101.46 556.521 101.41L556.531 101.4Z" fill="#2E5629" fill-opacity="0.5"/>
<path d="M538.359 87.6296C538.139 87.1696 538.109 86.6096 538.289 86.0696C538.499 85.4296 538.969 84.9196 539.589 84.6496C545.499 80.7396 549.509 77.7996 550.429 76.9096C551.019 76.3396 551.489 75.7196 551.489 75.7096C551.859 75.2196 552.189 74.6796 552.459 74.1196L558.299 57.7896C558.529 56.9196 559.259 56.2996 560.079 56.2696C560.159 56.2696 560.939 56.2496 561.469 56.8696C562.089 57.5896 561.859 58.5996 561.789 58.9296C561.199 61.5096 560.209 66.5596 560.249 69.1496C560.259 69.9596 560.429 70.2396 560.559 70.3396C560.769 70.4896 561.199 70.4096 561.339 70.3796C563.079 70.0196 572.209 65.2096 577.379 62.3996C577.869 62.0296 578.489 61.8696 579.099 61.9796C579.709 62.0796 580.239 62.4296 580.539 62.9296C580.829 63.3996 580.909 63.9796 580.759 64.5396C580.609 65.1196 580.249 65.5996 579.739 65.8996L564.949 76.1496C564.309 76.7096 564.119 77.1596 564.159 77.3796C564.249 77.8896 565.389 78.2996 565.769 78.4396C568.519 79.4396 570.579 80.2496 572.389 80.9596C574.239 81.6796 575.839 82.3096 577.789 82.9996C578.089 83.1096 578.989 83.4296 579.249 84.2996C579.289 84.4496 579.419 84.9696 579.119 85.4796C578.709 86.1896 577.719 86.4496 576.749 86.1096C565.879 83.5396 558.569 81.9796 557.209 81.8096C556.289 81.6996 555.439 81.8496 555.429 81.8496C554.599 81.9996 554.009 82.3196 553.789 82.4296C552.439 83.1496 548.059 85.2496 541.529 88.3596C540.989 88.6896 540.349 88.7996 539.739 88.6696C539.179 88.5396 538.709 88.2196 538.439 87.7696C538.409 87.7196 538.379 87.6596 538.349 87.6096L538.359 87.6296ZM560.279 57.9396C560.279 57.9396 560.279 57.9196 560.269 57.9196C560.249 57.8996 560.179 57.8796 560.139 57.8796C560.069 57.8796 559.909 58.0096 559.859 58.2296L559.839 58.3096L553.939 74.7896C553.619 75.4496 553.229 76.0896 552.789 76.6796C552.769 76.7096 552.239 77.4096 551.559 78.0696C550.409 79.1796 545.839 82.4596 540.429 86.0296L540.359 86.0796L540.279 86.1096C539.979 86.2296 539.859 86.4596 539.819 86.5896C539.759 86.7596 539.779 86.8996 539.819 86.9696C539.849 87.0296 539.949 87.0996 540.109 87.1396C540.229 87.1696 540.469 87.1896 540.719 87.0196L540.809 86.9696C547.149 83.9496 551.729 81.7496 553.039 81.0496C553.299 80.9096 554.069 80.4996 555.149 80.2996C555.589 80.2096 556.559 80.1396 557.419 80.2496C559.099 80.4596 567.399 82.2796 577.169 84.5896L577.259 84.6196C577.409 84.6696 577.529 84.6896 577.619 84.6896C577.549 84.6496 577.439 84.5896 577.259 84.5296C575.279 83.8196 573.599 83.1696 571.809 82.4696C569.999 81.7596 567.949 80.9596 565.229 79.9696C564.449 79.6796 562.829 79.0896 562.589 77.6796C562.439 76.7896 562.909 75.8396 563.939 74.9396L564.009 74.8896L578.929 64.5596C579.139 64.4396 579.209 64.2596 579.229 64.1696C579.269 64.0296 579.249 63.8896 579.189 63.7996C579.129 63.6896 578.999 63.6196 578.839 63.5896C578.729 63.5696 578.529 63.5696 578.329 63.7196L578.209 63.7996C574.899 65.5996 563.939 71.5096 561.669 71.9696C561.359 72.0296 560.429 72.2296 559.639 71.6696C558.789 71.0596 558.669 69.9696 558.659 69.2096C558.609 65.8296 560.069 59.3396 560.229 58.6196C560.329 58.1696 560.289 58.0096 560.269 57.9596L560.279 57.9396Z" fill="#2E5629" fill-opacity="0.5"/>
<path d="M606.859 74.3503C606.639 73.8903 606.609 73.3303 606.789 72.7903C606.999 72.1503 607.469 71.6403 608.089 71.3703C613.999 67.4603 618.009 64.5203 618.929 63.6303C619.519 63.0603 619.989 62.4403 619.989 62.4303C620.359 61.9403 620.689 61.4003 620.959 60.8403L626.799 44.5103C627.029 43.6403 627.759 43.0203 628.579 42.9903C628.659 42.9903 629.439 42.9703 629.969 43.5903C630.589 44.3103 630.359 45.3203 630.289 45.6503C629.699 48.2303 628.709 53.2803 628.749 55.8703C628.759 56.6803 628.929 56.9603 629.059 57.0603C629.269 57.2103 629.699 57.1303 629.839 57.1003C631.579 56.7403 640.709 51.9303 645.879 49.1203C646.369 48.7503 646.989 48.5903 647.599 48.7003C648.209 48.8003 648.739 49.1503 649.039 49.6503C649.329 50.1203 649.409 50.7003 649.259 51.2603C649.109 51.8403 648.749 52.3203 648.239 52.6203L633.449 62.8703C632.809 63.4303 632.619 63.8803 632.659 64.1003C632.749 64.6103 633.889 65.0203 634.269 65.1603C637.019 66.1603 639.079 66.9703 640.889 67.6803C642.739 68.4003 644.339 69.0303 646.289 69.7203C646.589 69.8303 647.489 70.1503 647.749 71.0203C647.789 71.1703 647.919 71.6903 647.619 72.2003C647.209 72.9103 646.219 73.1703 645.249 72.8303C634.379 70.2603 627.069 68.7003 625.709 68.5303C624.789 68.4203 623.939 68.5703 623.929 68.5703C623.099 68.7203 622.509 69.0403 622.289 69.1503C620.939 69.8703 616.559 71.9703 610.029 75.0803C609.489 75.4103 608.849 75.5203 608.239 75.3903C607.679 75.2603 607.209 74.9403 606.939 74.4903C606.909 74.4403 606.879 74.3803 606.849 74.3303L606.859 74.3503ZM628.769 44.6603C628.769 44.6603 628.769 44.6403 628.759 44.6403C628.739 44.6203 628.669 44.6003 628.629 44.6003C628.559 44.6003 628.399 44.7303 628.349 44.9503L628.329 45.0303L622.429 61.5103C622.109 62.1703 621.719 62.8103 621.279 63.4003C621.259 63.4303 620.729 64.1303 620.049 64.7903C618.899 65.9003 614.329 69.1803 608.919 72.7503L608.849 72.8003L608.769 72.8303C608.469 72.9503 608.349 73.1803 608.309 73.3103C608.249 73.4803 608.269 73.6203 608.309 73.6903C608.339 73.7503 608.439 73.8203 608.599 73.8603C608.719 73.8903 608.959 73.9103 609.209 73.7403L609.299 73.6903C615.639 70.6703 620.219 68.4703 621.529 67.7703C621.789 67.6303 622.559 67.2203 623.639 67.0203C624.079 66.9303 625.049 66.8603 625.909 66.9703C627.589 67.1803 635.889 69.0003 645.659 71.3103L645.749 71.3403C645.899 71.3903 646.019 71.4103 646.109 71.4103C646.039 71.3703 645.929 71.3103 645.749 71.2503C643.769 70.5403 642.089 69.8903 640.299 69.1903C638.489 68.4803 636.439 67.6803 633.719 66.6903C632.939 66.4003 631.319 65.8103 631.079 64.4003C630.929 63.5103 631.399 62.5603 632.429 61.6603L632.499 61.6103L647.419 51.2803C647.629 51.1603 647.699 50.9803 647.719 50.8903C647.759 50.7503 647.739 50.6103 647.679 50.5203C647.619 50.4103 647.489 50.3403 647.329 50.3103C647.219 50.2903 647.019 50.2903 646.819 50.4403L646.699 50.5203C643.389 52.3203 632.429 58.2303 630.159 58.6903C629.849 58.7503 628.919 58.9503 628.129 58.3903C627.279 57.7803 627.159 56.6903 627.149 55.9303C627.099 52.5503 628.559 46.0603 628.719 45.3403C628.819 44.8903 628.779 44.7303 628.759 44.6803L628.769 44.6603Z" fill="#2E5629" fill-opacity="0.5"/>
<path d="M587.041 110.42C587.001 109.91 587.171 109.38 587.531 108.94C587.951 108.42 588.581 108.11 589.251 108.07C596.161 106.51 600.961 105.19 602.131 104.69C602.881 104.37 603.541 103.95 603.551 103.95C604.071 103.62 604.571 103.24 605.021 102.81L616.281 89.6197C616.811 88.8897 617.711 88.5697 618.481 88.8297C618.551 88.8497 619.291 89.1097 619.571 89.8897C619.891 90.7897 619.321 91.6497 619.131 91.9297C617.661 94.1297 614.951 98.4997 614.061 100.94C613.791 101.7 613.841 102.02 613.931 102.16C614.081 102.38 614.501 102.45 614.641 102.47C616.391 102.76 626.641 101.5 632.471 100.71C633.061 100.54 633.701 100.61 634.231 100.93C634.761 101.24 635.131 101.76 635.241 102.33C635.341 102.87 635.211 103.44 634.881 103.91C634.541 104.4 634.021 104.72 633.441 104.82L615.971 109.14C615.171 109.44 614.831 109.78 614.791 110.01C614.691 110.51 615.611 111.3 615.921 111.57C618.131 113.48 619.771 114.97 621.221 116.28C622.691 117.61 623.971 118.76 625.551 120.11C625.791 120.32 626.521 120.94 626.451 121.84C626.441 121.99 626.371 122.53 625.911 122.9C625.281 123.42 624.261 123.31 623.471 122.65C614.221 116.39 607.951 112.33 606.731 111.69C605.911 111.26 605.061 111.1 605.051 111.1C604.211 110.95 603.561 111.03 603.311 111.06C601.791 111.25 596.951 111.65 589.741 112.25C589.121 112.37 588.481 112.25 587.961 111.9C587.481 111.58 587.161 111.11 587.061 110.6C587.051 110.54 587.041 110.48 587.041 110.42ZM618.071 90.4497V90.4297C618.071 90.3997 618.001 90.3597 617.961 90.3397C617.891 90.3197 617.701 90.3797 617.571 90.5697L617.521 90.6297L606.151 103.94C605.611 104.45 605.031 104.9 604.401 105.3C604.371 105.32 603.631 105.78 602.761 106.16C601.291 106.79 595.851 108.23 589.531 109.65L589.451 109.67H589.371C589.041 109.67 588.851 109.85 588.771 109.96C588.661 110.1 588.621 110.24 588.641 110.32C588.651 110.38 588.711 110.49 588.851 110.58C588.951 110.65 589.171 110.75 589.461 110.69L589.561 110.67C596.561 110.09 601.621 109.67 603.101 109.49C603.401 109.45 604.261 109.34 605.341 109.54C605.791 109.61 606.721 109.89 607.481 110.3C608.971 111.09 616.091 115.75 624.401 121.37L624.481 121.43C624.601 121.53 624.711 121.59 624.791 121.62C624.741 121.56 624.661 121.46 624.511 121.34C622.911 119.98 621.571 118.76 620.151 117.48C618.711 116.18 617.081 114.7 614.891 112.8C614.261 112.25 612.961 111.13 613.231 109.72C613.401 108.83 614.181 108.11 615.471 107.64L615.551 107.62L633.161 103.26C633.391 103.22 633.531 103.08 633.581 103C633.661 102.88 633.701 102.75 633.681 102.64C633.661 102.52 633.561 102.4 633.431 102.32C633.341 102.27 633.151 102.19 632.911 102.26L632.761 102.29C629.031 102.8 616.681 104.43 614.391 104.06C614.081 104.01 613.141 103.86 612.601 103.06C612.021 102.19 612.301 101.13 612.561 100.41C613.711 97.2297 617.381 91.6897 617.791 91.0697C618.041 90.6897 618.061 90.5297 618.061 90.4697L618.071 90.4497Z" fill="#2E5629" fill-opacity="0.5"/>
<path d="M659.06 71.3103C659.02 70.8003 659.19 70.2703 659.55 69.8303C659.97 69.3103 660.6 69.0003 661.27 68.9603C668.18 67.4003 672.98 66.0803 674.15 65.5803C674.9 65.2603 675.56 64.8403 675.57 64.8403C676.09 64.5103 676.59 64.1303 677.04 63.7003L688.3 50.5103C688.83 49.7803 689.73 49.4603 690.5 49.7203C690.57 49.7403 691.31 50.0003 691.59 50.7803C691.91 51.6803 691.34 52.5403 691.15 52.8203C689.68 55.0203 686.97 59.3903 686.08 61.8303C685.81 62.5903 685.86 62.9103 685.95 63.0503C686.1 63.2703 686.52 63.3403 686.66 63.3603C688.41 63.6503 698.66 62.3903 704.49 61.6003C705.08 61.4303 705.72 61.5003 706.25 61.8203C706.78 62.1303 707.15 62.6503 707.26 63.2203C707.36 63.7603 707.23 64.3303 706.9 64.8003C706.56 65.2903 706.04 65.6103 705.46 65.7103L687.99 70.0303C687.19 70.3303 686.85 70.6703 686.81 70.9003C686.71 71.4003 687.63 72.1903 687.94 72.4603C690.15 74.3703 691.79 75.8603 693.24 77.1703C694.71 78.5003 695.99 79.6503 697.57 81.0003C697.81 81.2103 698.54 81.8303 698.47 82.7303C698.46 82.8803 698.39 83.4203 697.93 83.7903C697.3 84.3103 696.28 84.2003 695.49 83.5403C686.24 77.2803 679.97 73.2203 678.75 72.5803C677.93 72.1503 677.08 71.9903 677.07 71.9903C676.23 71.8403 675.58 71.9203 675.33 71.9503C673.81 72.1403 668.97 72.5403 661.76 73.1403C661.14 73.2603 660.5 73.1403 659.98 72.7903C659.5 72.4703 659.18 72.0003 659.08 71.4903C659.07 71.4303 659.06 71.3703 659.06 71.3103ZM690.09 51.3403V51.3203C690.09 51.2903 690.02 51.2503 689.98 51.2303C689.91 51.2103 689.72 51.2703 689.59 51.4603L689.54 51.5203L678.17 64.8303C677.63 65.3403 677.05 65.7903 676.42 66.1903C676.39 66.2103 675.65 66.6703 674.78 67.0503C673.31 67.6803 667.87 69.1203 661.55 70.5403L661.47 70.5603H661.39C661.06 70.5603 660.87 70.7403 660.79 70.8503C660.68 70.9903 660.64 71.1303 660.66 71.2103C660.67 71.2703 660.73 71.3803 660.87 71.4703C660.97 71.5403 661.19 71.6403 661.48 71.5803L661.58 71.5603C668.58 70.9803 673.64 70.5603 675.12 70.3803C675.42 70.3403 676.28 70.2303 677.36 70.4303C677.81 70.5003 678.74 70.7803 679.5 71.1903C680.99 71.9803 688.11 76.6403 696.42 82.2603L696.5 82.3203C696.62 82.4203 696.73 82.4803 696.81 82.5103C696.76 82.4503 696.68 82.3503 696.53 82.2303C694.93 80.8703 693.59 79.6503 692.17 78.3703C690.73 77.0703 689.1 75.5903 686.91 73.6903C686.28 73.1403 684.98 72.0203 685.25 70.6103C685.42 69.7203 686.2 69.0003 687.49 68.5303L687.57 68.5103L705.18 64.1503C705.41 64.1103 705.55 63.9703 705.6 63.8903C705.68 63.7703 705.72 63.6403 705.7 63.5303C705.68 63.4103 705.58 63.2903 705.45 63.2103C705.36 63.1603 705.17 63.0803 704.93 63.1503L704.78 63.1803C701.05 63.6903 688.7 65.3203 686.41 64.9503C686.1 64.9003 685.16 64.7503 684.62 63.9503C684.04 63.0803 684.32 62.0203 684.58 61.3003C685.73 58.1203 689.4 52.5803 689.81 51.9603C690.06 51.5803 690.08 51.4203 690.08 51.3603L690.09 51.3403Z" fill="#2E5629" fill-opacity="0.5"/>
<path d="M649.519 111.921C649.739 111.461 650.159 111.091 650.689 110.891C651.319 110.661 652.019 110.701 652.619 111.011C659.369 113.161 664.179 114.451 665.439 114.611C666.249 114.711 667.029 114.691 667.039 114.691C667.659 114.671 668.279 114.591 668.889 114.451L685.269 108.771C686.089 108.411 687.029 108.581 687.569 109.201C687.619 109.261 688.129 109.851 687.969 110.661C687.789 111.601 686.869 112.051 686.559 112.201C684.179 113.361 679.629 115.751 677.629 117.411C677.009 117.931 676.889 118.231 676.899 118.401C676.909 118.661 677.249 118.941 677.359 119.031C678.729 120.161 688.199 124.261 693.629 126.531C694.229 126.681 694.739 127.071 695.039 127.611C695.339 128.151 695.399 128.781 695.199 129.331C695.009 129.851 694.609 130.271 694.089 130.511C693.549 130.761 692.939 130.771 692.389 130.571L675.129 125.461C674.289 125.311 673.819 125.441 673.669 125.611C673.329 126.001 673.729 127.141 673.849 127.521C674.789 130.291 675.449 132.401 676.039 134.261C676.639 136.151 677.149 137.791 677.829 139.751C677.929 140.051 678.249 140.961 677.729 141.701C677.639 141.831 677.309 142.251 676.729 142.341C675.919 142.471 675.099 141.861 674.749 140.891C669.939 130.811 666.579 124.141 665.859 122.971C665.369 122.181 664.719 121.611 664.709 121.611C664.069 121.061 663.459 120.801 663.229 120.701C661.819 120.101 657.439 118.001 650.919 114.861C650.329 114.651 649.829 114.221 649.559 113.661C649.309 113.151 649.269 112.571 649.439 112.081C649.459 112.021 649.489 111.961 649.509 111.911L649.519 111.921ZM686.389 110.391V110.371C686.389 110.341 686.369 110.281 686.339 110.241C686.289 110.181 686.099 110.141 685.889 110.241L685.819 110.271L669.279 116.001C668.559 116.161 667.819 116.261 667.089 116.291C667.049 116.291 666.179 116.321 665.239 116.201C663.649 116.001 658.229 114.491 652.059 112.521L651.979 112.491L651.909 112.451C651.629 112.291 651.369 112.341 651.249 112.391C651.079 112.451 650.979 112.561 650.959 112.631C650.939 112.691 650.939 112.821 651.009 112.961C651.059 113.071 651.199 113.271 651.479 113.361L651.579 113.401C657.909 116.441 662.489 118.641 663.859 119.231C664.129 119.351 664.929 119.691 665.769 120.401C666.119 120.691 666.779 121.401 667.239 122.131C668.129 123.571 671.909 131.181 676.239 140.241L676.279 140.331C676.329 140.481 676.389 140.581 676.449 140.651C676.449 140.571 676.409 140.451 676.349 140.271C675.659 138.291 675.119 136.561 674.539 134.731C673.959 132.881 673.289 130.781 672.359 128.031C672.089 127.241 671.539 125.611 672.489 124.541C673.089 123.861 674.119 123.631 675.469 123.881L675.549 123.901L692.949 129.051C693.169 129.141 693.359 129.081 693.449 129.041C693.579 128.981 693.679 128.881 693.719 128.771C693.759 128.651 693.739 128.501 693.669 128.371C693.619 128.281 693.489 128.111 693.249 128.061L693.109 128.021C689.629 126.571 678.159 121.731 676.369 120.251C676.129 120.051 675.389 119.441 675.339 118.481C675.279 117.431 676.059 116.661 676.639 116.171C679.239 114.011 685.209 111.081 685.879 110.761C686.289 110.561 686.389 110.431 686.419 110.381L686.389 110.391Z" fill="#2E5629" fill-opacity="0.5"/>
<path d="M848.72 154.09C848.98 153.65 849.43 153.32 849.98 153.18C850.63 153.01 851.32 153.12 851.89 153.48C858.42 156.25 863.08 157.97 864.32 158.24C865.12 158.42 865.9 158.46 865.91 158.47C866.53 158.51 867.15 158.48 867.77 158.4L884.61 154.26C885.46 153.98 886.38 154.24 886.86 154.9C886.91 154.96 887.35 155.6 887.13 156.39C886.87 157.3 885.9 157.67 885.59 157.79C883.11 158.72 878.36 160.68 876.22 162.15C875.55 162.61 875.41 162.9 875.4 163.07C875.4 163.33 875.7 163.64 875.8 163.74C877.06 164.99 886.11 169.95 891.31 172.71C891.89 172.91 892.36 173.35 892.61 173.91C892.86 174.48 892.86 175.11 892.61 175.64C892.38 176.14 891.93 176.52 891.39 176.71C890.83 176.9 890.22 176.87 889.69 176.61L872.98 169.93C872.15 169.71 871.68 169.79 871.51 169.95C871.14 170.3 871.42 171.48 871.51 171.87C872.19 174.71 872.66 176.88 873.07 178.78C873.49 180.72 873.85 182.4 874.35 184.41C874.43 184.72 874.65 185.65 874.07 186.34C873.97 186.46 873.6 186.85 873.01 186.89C872.2 186.94 871.43 186.26 871.17 185.26C867.31 174.78 864.58 167.83 863.97 166.6C863.56 165.77 862.96 165.14 862.95 165.14C862.36 164.53 861.78 164.21 861.56 164.1C860.21 163.37 856.05 160.87 849.84 157.15C849.27 156.89 848.82 156.41 848.6 155.83C848.4 155.3 848.41 154.72 848.63 154.25C848.66 154.19 848.69 154.14 848.72 154.09ZM885.58 155.97V155.95C885.58 155.92 885.57 155.85 885.54 155.82C885.5 155.76 885.31 155.7 885.09 155.78L885.01 155.8L868.01 159.98C867.28 160.08 866.54 160.11 865.8 160.06C865.76 160.06 864.89 160 863.97 159.8C862.41 159.46 857.15 157.45 851.19 154.92L851.11 154.89L851.04 154.84C850.77 154.65 850.51 154.68 850.38 154.72C850.21 154.77 850.1 154.86 850.06 154.93C850.03 154.99 850.02 155.11 850.08 155.27C850.12 155.38 850.24 155.59 850.51 155.71L850.6 155.76C856.62 159.37 860.98 161.99 862.29 162.7C862.55 162.84 863.32 163.26 864.08 164.04C864.4 164.36 865 165.13 865.38 165.9C866.13 167.41 869.2 175.35 872.67 184.76L872.7 184.85C872.74 185 872.79 185.11 872.84 185.18C872.84 185.1 872.82 184.97 872.78 184.79C872.28 182.75 871.9 180.98 871.49 179.11C871.08 177.21 870.61 175.06 869.94 172.24C869.75 171.43 869.35 169.76 870.39 168.78C871.05 168.16 872.1 168.03 873.42 168.4L873.5 168.43L890.35 175.16C890.56 175.27 890.75 175.23 890.85 175.19C890.99 175.14 891.09 175.05 891.14 174.95C891.19 174.84 891.19 174.69 891.12 174.54C891.08 174.44 890.97 174.26 890.73 174.19L890.59 174.13C887.26 172.37 876.28 166.49 874.64 164.85C874.42 164.63 873.74 163.95 873.77 162.99C873.81 161.94 874.65 161.25 875.28 160.81C878.07 158.9 884.28 156.54 884.98 156.27C885.41 156.11 885.52 155.99 885.55 155.94L885.58 155.97Z" fill="#2E5629" fill-opacity="0.5"/>
<path d="M844.009 209.19C844.429 208.89 844.969 208.77 845.529 208.85C846.189 208.95 846.779 209.32 847.159 209.88C852.069 214.99 855.679 218.42 856.709 219.16C857.379 219.64 858.069 219.99 858.079 219.99C858.629 220.27 859.219 220.49 859.819 220.66L876.929 223.48C877.829 223.55 878.569 224.16 878.749 224.95C878.769 225.02 878.929 225.79 878.409 226.43C877.809 227.17 876.779 227.13 876.439 227.11C873.789 226.99 868.649 226.92 866.109 227.43C865.319 227.59 865.069 227.8 864.999 227.95C864.889 228.19 865.049 228.59 865.099 228.72C865.759 230.37 872.129 238.49 875.819 243.07C876.269 243.49 876.539 244.07 876.539 244.69C876.539 245.31 876.299 245.89 875.859 246.28C875.449 246.64 874.889 246.83 874.319 246.79C873.729 246.75 873.189 246.48 872.799 246.03L860.069 233.31C859.399 232.78 858.929 232.67 858.709 232.75C858.229 232.93 858.029 234.12 857.959 234.52C857.459 237.4 857.039 239.57 856.669 241.49C856.289 243.44 855.959 245.12 855.629 247.17C855.579 247.48 855.419 248.43 854.609 248.84C854.469 248.91 853.979 249.13 853.419 248.93C852.649 248.66 852.219 247.73 852.369 246.71C852.949 235.56 853.179 228.09 853.099 226.72C853.049 225.8 852.739 224.98 852.739 224.97C852.439 224.18 852.029 223.66 851.869 223.46C850.919 222.26 848.069 218.32 843.839 212.46C843.419 211.99 843.189 211.38 843.219 210.76C843.239 210.19 843.479 209.66 843.869 209.32C843.919 209.28 843.959 209.24 844.019 209.2L844.009 209.19ZM877.139 225.44C877.139 225.44 877.149 225.43 877.159 225.42C877.179 225.4 877.179 225.33 877.179 225.28C877.159 225.21 877.009 225.08 876.779 225.07H876.699L859.429 222.21C858.719 222.01 858.029 221.74 857.369 221.42C857.339 221.4 856.559 221.01 855.789 220.46C854.489 219.53 850.449 215.61 845.959 210.94L845.899 210.88L845.859 210.81C845.689 210.53 845.439 210.46 845.309 210.44C845.129 210.42 844.989 210.46 844.939 210.51C844.889 210.55 844.829 210.66 844.819 210.83C844.819 210.95 844.839 211.19 845.039 211.41L845.109 211.49C849.219 217.18 852.199 221.3 853.119 222.47C853.299 222.7 853.849 223.39 854.229 224.41C854.399 224.83 854.649 225.77 854.699 226.63C854.799 228.32 854.489 236.82 853.969 246.84V246.93C853.929 247.08 853.939 247.21 853.959 247.29C853.989 247.21 854.029 247.09 854.059 246.91C854.399 244.84 854.749 243.06 855.109 241.18C855.479 239.27 855.899 237.11 856.389 234.26C856.529 233.44 856.819 231.74 858.169 231.25C859.019 230.94 860.039 231.23 861.109 232.09L861.169 232.15L873.999 244.97C874.149 245.15 874.339 245.19 874.439 245.2C874.579 245.21 874.719 245.17 874.799 245.09C874.889 245.01 874.949 244.87 874.939 244.71C874.939 244.6 874.909 244.4 874.719 244.23L874.619 244.12C872.259 241.19 864.479 231.46 863.609 229.31C863.489 229.02 863.139 228.13 863.549 227.26C863.999 226.31 865.049 226 865.799 225.86C869.119 225.2 875.759 225.48 876.499 225.51C876.959 225.53 877.109 225.46 877.149 225.43L877.139 225.44Z" fill="#2E5629" fill-opacity="0.5"/>
<path d="M886.881 205.13C887.181 204.72 887.661 204.43 888.221 204.33C888.881 204.22 889.561 204.39 890.091 204.8C896.341 208.15 900.831 210.29 902.041 210.67C902.821 210.92 903.591 211.04 903.601 211.04C904.211 211.13 904.841 211.17 905.461 211.14L922.611 208.54C923.491 208.33 924.381 208.68 924.791 209.38C924.831 209.44 925.221 210.12 924.921 210.89C924.571 211.78 923.581 212.06 923.251 212.15C920.701 212.85 915.791 214.38 913.521 215.64C912.811 216.03 912.641 216.31 912.621 216.48C912.591 216.74 912.861 217.07 912.951 217.18C914.091 218.54 922.651 224.3 927.581 227.52C928.141 227.78 928.571 228.25 928.771 228.84C928.971 229.43 928.911 230.05 928.611 230.56C928.331 231.03 927.861 231.38 927.301 231.52C926.721 231.66 926.121 231.57 925.611 231.26L909.571 223.09C908.771 222.79 908.291 222.83 908.111 222.98C907.711 223.3 907.881 224.5 907.941 224.89C908.361 227.78 908.631 229.98 908.861 231.91C909.101 233.88 909.311 235.58 909.621 237.64C909.671 237.95 909.811 238.91 909.171 239.54C909.061 239.65 908.661 240.01 908.071 239.99C907.251 239.97 906.551 239.22 906.391 238.2C903.501 227.41 901.411 220.24 900.911 218.96C900.581 218.1 900.031 217.42 900.031 217.41C899.501 216.75 898.951 216.38 898.741 216.24C897.471 215.39 893.541 212.53 887.701 208.25C887.151 207.94 886.751 207.42 886.581 206.82C886.431 206.27 886.491 205.7 886.751 205.25C886.781 205.2 886.821 205.14 886.851 205.09L886.881 205.13ZM923.411 210.36C923.411 210.36 923.411 210.34 923.421 210.34C923.431 210.31 923.421 210.24 923.391 210.2C923.351 210.14 923.171 210.06 922.951 210.12L922.871 210.14L905.561 212.76C904.821 212.79 904.081 212.76 903.351 212.64C903.311 212.64 902.451 212.5 901.551 212.22C900.031 211.74 894.971 209.26 889.261 206.2L889.191 206.16L889.131 206.11C888.881 205.9 888.621 205.91 888.491 205.93C888.321 205.96 888.191 206.04 888.161 206.11C888.131 206.17 888.101 206.29 888.151 206.45C888.181 206.57 888.281 206.79 888.541 206.93L888.631 206.99C894.301 211.14 898.401 214.13 899.641 214.96C899.891 215.13 900.611 215.61 901.301 216.46C901.591 216.81 902.121 217.62 902.431 218.43C903.041 220.01 905.371 228.18 907.971 237.88L907.991 237.97C908.011 238.12 908.061 238.24 908.101 238.32C908.101 238.24 908.101 238.11 908.071 237.93C907.761 235.85 907.541 234.06 907.301 232.16C907.061 230.23 906.801 228.05 906.381 225.18C906.261 224.35 906.011 222.65 907.141 221.77C907.851 221.21 908.911 221.18 910.191 221.66L910.271 221.69L926.441 229.93C926.641 230.06 926.831 230.03 926.931 230.01C927.071 229.98 927.181 229.9 927.241 229.8C927.301 229.69 927.311 229.54 927.261 229.4C927.231 229.3 927.131 229.11 926.901 229.02L926.771 228.95C923.621 226.89 913.211 220.04 911.731 218.26C911.531 218.02 910.921 217.29 911.041 216.33C911.171 215.29 912.071 214.67 912.741 214.3C915.691 212.65 922.091 210.86 922.811 210.66C923.251 210.54 923.371 210.43 923.411 210.38V210.36Z" fill="#2E5629" fill-opacity="0.5"/>
<path d="M881.37 260.799C881.88 260.769 882.41 260.949 882.84 261.319C883.35 261.759 883.65 262.389 883.67 263.059C885.07 270.009 886.29 274.829 886.76 276.009C887.07 276.769 887.47 277.439 887.47 277.449C887.79 277.979 888.16 278.479 888.57 278.949L901.5 290.499C902.22 291.039 902.52 291.949 902.24 292.719C902.22 292.789 901.94 293.519 901.16 293.779C900.26 294.079 899.41 293.489 899.13 293.299C896.96 291.779 892.66 288.969 890.24 288.029C889.49 287.739 889.16 287.779 889.02 287.869C888.8 288.009 888.72 288.439 888.69 288.579C888.37 290.329 889.39 300.599 890.06 306.439C890.22 307.029 890.13 307.669 889.8 308.199C889.47 308.729 888.95 309.079 888.37 309.179C887.83 309.269 887.26 309.119 886.8 308.779C886.32 308.429 886.01 307.909 885.92 307.319L881.99 289.759C881.71 288.949 881.37 288.609 881.15 288.559C880.65 288.449 879.84 289.349 879.57 289.649C877.61 291.819 876.09 293.419 874.75 294.839C873.39 296.279 872.21 297.529 870.82 299.079C870.61 299.319 869.96 300.029 869.07 299.939C868.92 299.929 868.38 299.839 868.02 299.379C867.52 298.739 867.65 297.719 868.32 296.949C874.78 287.839 878.98 281.659 879.65 280.459C880.1 279.649 880.28 278.799 880.28 278.789C880.45 277.959 880.38 277.299 880.36 277.049C880.2 275.529 879.91 270.679 879.47 263.449C879.36 262.829 879.5 262.189 879.86 261.679C880.19 261.209 880.67 260.889 881.18 260.809C881.24 260.809 881.3 260.789 881.36 260.789L881.37 260.799ZM900.64 292.269H900.66C900.69 292.269 900.73 292.199 900.75 292.159C900.78 292.089 900.72 291.899 900.53 291.769L900.47 291.719L887.42 280.049C886.93 279.499 886.48 278.899 886.1 278.269C886.08 278.239 885.63 277.489 885.28 276.609C884.68 275.129 883.37 269.659 882.09 263.299L882.07 263.219V263.139C882.07 262.809 881.9 262.619 881.8 262.529C881.67 262.419 881.52 262.369 881.45 262.389C881.39 262.399 881.28 262.459 881.18 262.599C881.11 262.699 881 262.909 881.06 263.209V263.319C881.49 270.329 881.8 275.399 881.96 276.879C881.99 277.179 882.08 278.039 881.86 279.119C881.78 279.569 881.49 280.489 881.06 281.239C880.24 282.719 875.42 289.729 869.62 297.909L869.56 297.979C869.46 298.099 869.4 298.199 869.36 298.289C869.43 298.239 869.52 298.159 869.65 298.019C871.05 296.449 872.29 295.139 873.61 293.749C874.94 292.339 876.46 290.739 878.4 288.589C878.96 287.969 880.11 286.699 881.51 286.999C882.39 287.189 883.1 287.979 883.54 289.279L883.56 289.359L887.52 307.059C887.55 307.289 887.69 307.429 887.77 307.489C887.88 307.579 888.02 307.609 888.13 307.589C888.25 307.569 888.37 307.479 888.46 307.349C888.52 307.259 888.6 307.069 888.53 306.829L888.5 306.679C888.07 302.939 886.72 290.559 887.14 288.279C887.2 287.969 887.37 287.029 888.18 286.519C889.06 285.959 890.12 286.259 890.83 286.539C893.98 287.759 899.44 291.549 900.05 291.979C900.42 292.239 900.59 292.269 900.64 292.259V292.269Z" fill="#2E5629" fill-opacity="0.5"/>
<path d="M918.929 249.33C919.359 249.04 919.899 248.94 920.459 249.04C921.119 249.16 921.699 249.55 922.059 250.12C926.789 255.4 930.289 258.94 931.299 259.71C931.949 260.21 932.629 260.58 932.639 260.59C933.179 260.89 933.759 261.13 934.349 261.32L951.349 264.72C952.239 264.82 952.969 265.45 953.109 266.25C953.119 266.32 953.259 267.09 952.719 267.71C952.089 268.43 951.059 268.35 950.729 268.32C948.089 268.11 942.959 267.87 940.399 268.29C939.599 268.42 939.339 268.62 939.269 268.77C939.149 269 939.299 269.41 939.349 269.54C939.959 271.21 946.049 279.54 949.589 284.24C950.029 284.67 950.269 285.26 950.259 285.88C950.249 286.5 949.979 287.07 949.529 287.45C949.109 287.8 948.539 287.96 947.969 287.9C947.379 287.84 946.849 287.55 946.469 287.09L934.169 273.95C933.519 273.4 933.049 273.27 932.829 273.35C932.339 273.51 932.099 274.7 932.019 275.09C931.429 277.95 930.929 280.11 930.499 282.01C930.059 283.95 929.669 285.62 929.269 287.65C929.209 287.96 929.019 288.9 928.199 289.28C928.059 289.35 927.559 289.55 927.009 289.33C926.249 289.03 925.849 288.09 926.039 287.08C926.989 275.95 927.469 268.5 927.439 267.13C927.419 266.21 927.139 265.38 927.139 265.37C926.859 264.57 926.469 264.03 926.319 263.83C925.409 262.6 922.699 258.57 918.659 252.56C918.249 252.08 918.049 251.45 918.099 250.84C918.139 250.27 918.399 249.75 918.799 249.42C918.849 249.38 918.899 249.34 918.949 249.31L918.929 249.33ZM951.499 266.68C951.499 266.68 951.509 266.67 951.519 266.67C951.539 266.65 951.549 266.58 951.539 266.53C951.529 266.46 951.379 266.33 951.149 266.3H951.069L933.899 262.85C933.199 262.63 932.509 262.34 931.869 261.99C931.839 261.97 931.069 261.55 930.319 260.98C929.049 260.01 925.139 255.96 920.819 251.13L920.759 251.07L920.719 251C920.559 250.72 920.309 250.64 920.179 250.61C920.009 250.58 919.859 250.61 919.799 250.67C919.749 250.71 919.689 250.82 919.669 250.98C919.669 251.1 919.669 251.34 919.879 251.57L919.949 251.65C923.869 257.48 926.709 261.69 927.589 262.89C927.769 263.13 928.279 263.83 928.639 264.87C928.799 265.3 929.009 266.24 929.029 267.11C929.069 268.8 928.479 277.28 927.619 287.28V287.37C927.569 287.52 927.579 287.64 927.589 287.73C927.619 287.66 927.659 287.54 927.699 287.35C928.109 285.29 928.519 283.53 928.939 281.66C929.369 279.77 929.869 277.62 930.449 274.78C930.619 273.96 930.969 272.28 932.329 271.83C933.189 271.55 934.199 271.87 935.239 272.77L935.299 272.83L947.689 286.08C947.839 286.27 948.019 286.31 948.119 286.32C948.259 286.34 948.399 286.3 948.489 286.23C948.589 286.15 948.639 286.01 948.649 285.86C948.649 285.75 948.629 285.55 948.439 285.38L948.339 285.27C946.079 282.26 938.629 272.28 937.839 270.1C937.729 269.81 937.409 268.91 937.839 268.05C938.319 267.12 939.379 266.85 940.129 266.72C943.469 266.17 950.089 266.67 950.839 266.73C951.299 266.77 951.449 266.7 951.499 266.67V266.68Z" fill="#2E5629" fill-opacity="0.5"/>
<path d="M947.371 309.62C947.771 309.31 948.311 309.16 948.871 309.22C949.541 309.29 950.141 309.64 950.541 310.19C955.631 315.12 959.371 318.4 960.431 319.1C961.111 319.55 961.821 319.88 961.831 319.88C962.391 320.14 962.991 320.34 963.591 320.49L980.791 322.68C981.691 322.72 982.451 323.29 982.661 324.09C982.681 324.16 982.871 324.92 982.371 325.58C981.801 326.34 980.761 326.34 980.421 326.33C977.771 326.31 972.631 326.43 970.111 327.03C969.321 327.22 969.081 327.44 969.021 327.59C968.921 327.83 969.091 328.23 969.151 328.36C969.871 329.98 976.541 337.86 980.401 342.3C980.871 342.7 981.151 343.27 981.181 343.89C981.211 344.51 980.981 345.1 980.561 345.5C980.161 345.88 979.611 346.08 979.041 346.06C978.441 346.04 977.891 345.79 977.491 345.35L964.291 333.11C963.601 332.6 963.131 332.51 962.921 332.6C962.441 332.8 962.291 334 962.241 334.4C961.851 337.3 961.511 339.48 961.211 341.41C960.901 343.37 960.641 345.07 960.381 347.13C960.341 347.44 960.221 348.4 959.431 348.84C959.301 348.91 958.811 349.15 958.251 348.97C957.471 348.72 957.001 347.81 957.121 346.79C957.281 335.62 957.231 328.15 957.111 326.79C957.021 325.87 956.691 325.07 956.691 325.06C956.361 324.28 955.931 323.77 955.771 323.59C954.781 322.42 951.791 318.6 947.331 312.89C946.891 312.44 946.641 311.83 946.651 311.21C946.651 310.64 946.871 310.11 947.241 309.75C947.281 309.71 947.331 309.67 947.381 309.63L947.371 309.62ZM981.091 324.62C981.091 324.62 981.101 324.61 981.111 324.6C981.131 324.58 981.131 324.51 981.121 324.46C981.101 324.39 980.951 324.27 980.721 324.26H980.641L963.271 322.04C962.551 321.87 961.851 321.63 961.181 321.32C961.151 321.3 960.351 320.94 959.561 320.42C958.231 319.54 954.041 315.77 949.391 311.27L949.331 311.21L949.281 311.14C949.101 310.87 948.851 310.81 948.711 310.79C948.531 310.77 948.391 310.82 948.341 310.88C948.291 310.93 948.241 311.04 948.241 311.2C948.241 311.32 948.271 311.56 948.491 311.77L948.561 311.85C952.881 317.39 956.011 321.39 956.971 322.52C957.161 322.75 957.731 323.41 958.161 324.42C958.351 324.83 958.631 325.76 958.711 326.63C958.871 328.31 958.881 336.82 958.731 346.85V346.94C958.701 347.09 958.711 347.22 958.731 347.3C958.761 347.22 958.791 347.1 958.811 346.91C959.071 344.83 959.351 343.04 959.651 341.15C959.951 339.23 960.291 337.05 960.671 334.18C960.781 333.35 961.011 331.65 962.341 331.11C963.181 330.77 964.201 331.02 965.311 331.84L965.381 331.89L978.681 344.23C978.841 344.41 979.031 344.44 979.131 344.44C979.271 344.44 979.401 344.4 979.491 344.32C979.581 344.23 979.631 344.09 979.621 343.94C979.621 343.83 979.581 343.63 979.381 343.47L979.271 343.37C976.801 340.53 968.661 331.1 967.721 328.98C967.591 328.69 967.201 327.82 967.581 326.94C967.991 325.98 969.031 325.63 969.771 325.45C973.061 324.67 979.711 324.7 980.451 324.7C980.911 324.7 981.061 324.63 981.101 324.6L981.091 324.62Z" fill="#2E5629" fill-opacity="0.5"/>
<path d="M967.073 353.124C967.534 352.914 968.094 352.892 968.625 353.078C969.261 353.3 969.765 353.778 970.028 354.405C973.852 360.371 976.74 364.421 977.612 365.346C978.17 365.94 978.786 366.424 978.795 366.426C979.281 366.808 979.819 367.14 980.369 367.423L996.608 373.499C997.475 373.744 998.084 374.473 998.105 375.3C998.108 375.373 998.119 376.156 997.481 376.684C996.752 377.293 995.74 377.055 995.411 376.967C992.836 376.34 987.806 375.278 985.215 375.284C984.403 375.288 984.119 375.447 984.026 375.579C983.873 375.79 983.947 376.218 983.976 376.359C984.305 378.101 988.991 387.3 991.73 392.507C992.095 393.004 992.237 393.623 992.124 394.233C992.011 394.844 991.652 395.365 991.152 395.658C990.675 395.936 990.094 396.005 989.544 395.855C988.964 395.698 988.486 395.328 988.198 394.808L978.156 379.868C977.601 379.213 977.165 379.018 976.94 379.057C976.427 379.142 976.005 380.275 975.865 380.653C974.82 383.387 973.99 385.43 973.255 387.24C972.504 389.077 971.861 390.672 971.136 392.618C971.026 392.91 970.689 393.817 969.819 394.064C969.676 394.103 969.144 394.224 968.64 393.92C967.939 393.498 967.69 392.504 968.04 391.539C970.757 380.703 972.422 373.421 972.617 372.07C972.74 371.154 972.602 370.299 972.604 370.29C972.462 369.455 972.161 368.86 972.046 368.648C971.351 367.282 969.316 362.878 966.284 356.298C965.959 355.759 965.856 355.108 966.008 354.506C966.138 353.952 966.474 353.486 966.917 353.221C966.965 353.191 967.023 353.163 967.081 353.136L967.073 353.124ZM996.443 375.464C996.443 375.464 996.455 375.456 996.467 375.449C996.491 375.434 996.507 375.366 996.509 375.315C996.506 375.242 996.387 375.091 996.166 375.028L996.088 375.01L979.69 368.866C979.028 368.536 978.402 368.142 977.82 367.686C977.796 367.66 977.1 367.126 976.45 366.439C975.357 365.277 972.143 360.647 968.649 355.2L968.604 355.128L968.572 355.049C968.458 354.745 968.229 354.629 968.097 354.577C967.927 354.517 967.779 354.533 967.716 354.58C967.656 354.617 967.582 354.713 967.546 354.869C967.518 354.985 967.492 355.226 967.658 355.481L967.708 355.575C970.643 361.958 972.772 366.569 973.447 367.889C973.58 368.156 973.983 368.929 974.17 370.011C974.261 370.454 974.32 371.423 974.199 372.288C973.969 373.96 972.028 382.246 969.582 391.974L969.561 392.062C969.497 392.201 969.477 392.33 969.479 392.412C969.526 392.341 969.583 392.231 969.646 392.051C970.376 390.086 971.059 388.408 971.784 386.637C972.516 384.837 973.347 382.793 974.375 380.087C974.673 379.304 975.286 377.702 976.705 377.481C977.6 377.343 978.536 377.82 979.428 378.873L979.485 378.938L989.601 393.998C989.715 394.21 989.893 394.283 989.991 394.306C990.127 394.338 990.263 394.329 990.369 394.272C990.477 394.205 990.558 394.08 990.582 393.932C990.608 393.825 990.615 393.621 990.457 393.419L990.372 393.297C988.619 389.966 982.859 378.921 982.43 376.642C982.37 376.33 982.19 375.393 982.761 374.624C983.38 373.783 984.473 373.681 985.235 373.676C988.616 373.671 995.082 375.225 995.802 375.395C996.25 375.5 996.412 375.466 996.458 375.446L996.443 375.464Z" fill="#2E5629" fill-opacity="0.5"/>
<path d="M799.059 177.551C799.319 177.111 799.769 176.781 800.309 176.621C800.959 176.441 801.649 176.541 802.219 176.901C808.769 179.601 813.449 181.281 814.699 181.541C815.499 181.711 816.279 181.751 816.289 181.751C816.909 181.781 817.529 181.751 818.149 181.671L834.949 177.361C835.799 177.071 836.719 177.321 837.209 177.981C837.259 178.041 837.709 178.681 837.489 179.471C837.239 180.391 836.269 180.761 835.959 180.891C833.489 181.851 828.759 183.861 826.629 185.341C825.969 185.801 825.819 186.101 825.819 186.261C825.819 186.521 826.119 186.831 826.219 186.921C827.489 188.161 836.589 193.031 841.819 195.731C842.399 195.931 842.879 196.361 843.129 196.921C843.389 197.481 843.389 198.111 843.149 198.651C842.919 199.151 842.479 199.541 841.939 199.731C841.379 199.931 840.779 199.901 840.239 199.641L823.459 193.131C822.629 192.911 822.159 193.001 821.989 193.161C821.619 193.521 821.919 194.691 822.019 195.081C822.729 197.921 823.219 200.071 823.649 201.981C824.089 203.921 824.469 205.591 824.979 207.601C825.059 207.911 825.289 208.841 824.719 209.541C824.619 209.661 824.259 210.061 823.669 210.101C822.859 210.161 822.079 209.481 821.819 208.491C817.859 198.051 815.059 191.121 814.429 189.901C814.009 189.081 813.399 188.451 813.399 188.451C812.799 187.851 812.219 187.541 811.999 187.421C810.649 186.701 806.459 184.251 800.209 180.581C799.639 180.321 799.179 179.851 798.959 179.271C798.749 178.741 798.759 178.161 798.969 177.691C798.999 177.631 799.019 177.581 799.059 177.531V177.551ZM835.929 179.071V179.051C835.929 179.021 835.909 178.951 835.889 178.921C835.849 178.861 835.659 178.801 835.439 178.881L835.359 178.901L818.399 183.241C817.669 183.351 816.929 183.381 816.189 183.341C816.149 183.341 815.279 183.291 814.349 183.101C812.779 182.771 807.509 180.821 801.519 178.341L801.439 178.311L801.369 178.261C801.099 178.081 800.839 178.111 800.709 178.151C800.539 178.201 800.429 178.291 800.399 178.371C800.369 178.431 800.359 178.551 800.419 178.711C800.459 178.821 800.579 179.031 800.859 179.151L800.949 179.201C806.999 182.751 811.389 185.321 812.699 186.021C812.959 186.161 813.729 186.571 814.499 187.351C814.829 187.671 815.429 188.431 815.819 189.201C816.589 190.711 819.729 198.611 823.289 207.991L823.319 208.081C823.359 208.231 823.409 208.341 823.459 208.411C823.459 208.331 823.439 208.201 823.389 208.021C822.869 205.991 822.469 204.221 822.049 202.351C821.619 200.461 821.129 198.311 820.429 195.501C820.229 194.691 819.809 193.021 820.849 192.031C821.499 191.401 822.549 191.261 823.879 191.621L823.959 191.651L840.869 198.221C841.079 198.321 841.269 198.281 841.369 198.251C841.499 198.201 841.609 198.111 841.659 198.011C841.709 197.901 841.699 197.751 841.639 197.611C841.599 197.511 841.479 197.341 841.239 197.261L841.099 197.201C837.759 195.471 826.719 189.701 825.059 188.081C824.839 187.861 824.149 187.191 824.179 186.231C824.209 185.181 825.039 184.481 825.669 184.041C828.439 182.101 834.629 179.681 835.329 179.411C835.759 179.241 835.869 179.121 835.899 179.071H835.929Z" fill="#2E5629" fill-opacity="0.5"/>
<path d="M100.59 271.89C100.9 271.48 101.38 271.2 101.94 271.11C102.6 271 103.28 271.18 103.81 271.6C110.02 275.01 114.49 277.19 115.7 277.59C116.48 277.85 117.25 277.97 117.26 277.97C117.87 278.07 118.5 278.11 119.12 278.09L136.29 275.66C137.17 275.46 138.06 275.81 138.46 276.52C138.5 276.59 138.88 277.27 138.58 278.03C138.23 278.91 137.23 279.18 136.9 279.27C134.34 279.95 129.42 281.42 127.14 282.67C126.43 283.06 126.26 283.34 126.23 283.5C126.19 283.76 126.47 284.1 126.56 284.21C127.68 285.58 136.19 291.43 141.09 294.69C141.65 294.95 142.07 295.43 142.27 296.02C142.46 296.61 142.4 297.24 142.1 297.74C141.82 298.21 141.34 298.55 140.78 298.68C140.2 298.82 139.6 298.72 139.1 298.41L123.14 290.09C122.34 289.78 121.86 289.82 121.68 289.96C121.27 290.27 121.44 291.48 121.49 291.87C121.88 294.77 122.13 296.96 122.35 298.9C122.57 300.87 122.76 302.58 123.06 304.63C123.1 304.94 123.24 305.9 122.59 306.53C122.48 306.64 122.07 306.99 121.48 306.97C120.67 306.94 119.97 306.18 119.82 305.17C117.03 294.36 115.01 287.16 114.53 285.88C114.2 285.02 113.67 284.33 113.66 284.32C113.13 283.65 112.59 283.28 112.38 283.14C111.11 282.28 107.22 279.38 101.42 275.05C100.88 274.73 100.48 274.21 100.32 273.61C100.17 273.06 100.24 272.49 100.51 272.04C100.54 271.99 100.58 271.94 100.61 271.89H100.59ZM137.07 277.47C137.07 277.47 137.07 277.45 137.08 277.45C137.09 277.42 137.08 277.35 137.06 277.31C137.02 277.25 136.84 277.17 136.62 277.23H136.54L119.21 279.69C118.47 279.71 117.73 279.67 117 279.55C116.96 279.55 116.1 279.4 115.2 279.11C113.68 278.61 108.65 276.09 102.97 272.97L102.9 272.93L102.84 272.88C102.59 272.67 102.33 272.67 102.2 272.69C102.03 272.72 101.9 272.8 101.86 272.87C101.83 272.93 101.8 273.05 101.84 273.21C101.87 273.33 101.96 273.55 102.23 273.7L102.32 273.76C107.95 277.96 112.02 281 113.25 281.83C113.5 282 114.22 282.49 114.89 283.35C115.18 283.7 115.69 284.52 116 285.33C116.6 286.91 118.85 295.11 121.35 304.83L121.37 304.92C121.39 305.07 121.43 305.19 121.48 305.27C121.48 305.19 121.48 305.06 121.46 304.88C121.17 302.8 120.96 301 120.75 299.1C120.53 297.17 120.29 294.98 119.9 292.11C119.79 291.28 119.56 289.58 120.7 288.71C121.42 288.16 122.48 288.13 123.75 288.63L123.83 288.67L139.92 297.06C140.12 297.19 140.31 297.17 140.41 297.14C140.55 297.11 140.66 297.03 140.72 296.93C140.78 296.82 140.79 296.67 140.74 296.53C140.71 296.43 140.62 296.24 140.38 296.14L140.25 296.07C137.12 293.98 126.78 287.03 125.31 285.24C125.11 285 124.51 284.26 124.64 283.31C124.78 282.27 125.69 281.66 126.36 281.3C129.33 279.68 135.75 277.95 136.47 277.76C136.91 277.64 137.04 277.53 137.07 277.49V277.47Z" fill="#2E5629" fill-opacity="0.5"/>
<path d="M54.6093 243.829C55.0493 243.579 55.6093 243.509 56.1593 243.649C56.8093 243.819 57.3593 244.249 57.6693 244.849C61.9993 250.459 65.2293 254.249 66.1793 255.089C66.7893 255.629 67.4493 256.059 67.4493 256.059C67.9693 256.389 68.5293 256.679 69.0993 256.909L85.8093 261.539C86.6893 261.709 87.3693 262.389 87.4593 263.199C87.4593 263.279 87.5493 264.049 86.9593 264.629C86.2793 265.299 85.2593 265.149 84.9293 265.099C82.3093 264.699 77.2093 264.079 74.6293 264.319C73.8293 264.389 73.5493 264.579 73.4693 264.719C73.3293 264.949 73.4493 265.359 73.4893 265.499C73.9693 267.209 79.4393 275.959 82.6193 280.909C83.0293 281.369 83.2293 281.979 83.1693 282.599C83.1093 283.219 82.7993 283.769 82.3293 284.109C81.8793 284.429 81.3093 284.549 80.7393 284.449C80.1493 284.339 79.6493 284.019 79.3093 283.529L68.0093 269.529C67.3993 268.929 66.9493 268.769 66.7193 268.829C66.2193 268.949 65.8893 270.119 65.7793 270.509C64.9793 273.319 64.3293 275.439 63.7493 277.299C63.1693 279.199 62.6593 280.839 62.1093 282.839C62.0293 283.139 61.7593 284.069 60.9193 284.389C60.7793 284.449 60.2593 284.609 59.7293 284.349C58.9993 283.999 58.6593 283.029 58.9193 282.029C60.6793 270.999 61.7093 263.599 61.7793 262.229C61.8293 261.309 61.6093 260.459 61.6093 260.459C61.3893 259.639 61.0393 259.079 60.9093 258.869C60.0893 257.569 57.6793 253.359 54.0993 247.069C53.7293 246.559 53.5693 245.919 53.6593 245.309C53.7393 244.749 54.0393 244.249 54.4593 243.949C54.5093 243.909 54.5593 243.879 54.6193 243.849L54.6093 243.829ZM85.8193 263.519L85.8393 263.509C85.8593 263.489 85.8693 263.419 85.8693 263.379C85.8693 263.309 85.7293 263.159 85.4993 263.129L85.4193 263.109L68.5493 258.429C67.8593 258.159 67.1993 257.819 66.5793 257.419C66.5493 257.399 65.8193 256.929 65.1093 256.299C63.9193 255.239 60.3193 250.909 56.3493 245.779L56.2993 245.709L56.2593 245.639C56.1193 245.349 55.8793 245.249 55.7493 245.209C55.5793 245.169 55.4293 245.189 55.3693 245.239C55.3193 245.279 55.2493 245.379 55.2193 245.539C55.1993 245.659 55.1993 245.899 55.3793 246.139L55.4393 246.229C58.9193 252.329 61.4393 256.739 62.2393 257.999C62.3993 258.249 62.8593 258.989 63.1393 260.049C63.2693 260.489 63.4093 261.439 63.3693 262.309C63.2793 263.999 62.0693 272.419 60.4893 282.319L60.4693 282.409C60.4293 282.559 60.4193 282.679 60.4293 282.769C60.4693 282.699 60.5193 282.579 60.5693 282.399C61.1293 280.379 61.6593 278.649 62.2293 276.819C62.7993 274.959 63.4493 272.859 64.2393 270.069C64.4693 269.269 64.9393 267.619 66.3293 267.269C67.2093 267.049 68.1893 267.449 69.1593 268.419L69.2193 268.479L80.6093 282.599C80.7393 282.799 80.9293 282.859 81.0293 282.869C81.1693 282.899 81.3093 282.869 81.3993 282.799C81.4993 282.729 81.5693 282.589 81.5793 282.439C81.5893 282.329 81.5793 282.119 81.4093 281.939L81.3193 281.819C79.2793 278.649 72.5893 268.149 71.9593 265.919C71.8693 265.619 71.6093 264.699 72.1093 263.879C72.6593 262.989 73.7293 262.789 74.4893 262.719C77.8593 262.419 84.4293 263.399 85.1693 263.509C85.6193 263.579 85.7793 263.529 85.8293 263.509L85.8193 263.519Z" fill="#2E5629" fill-opacity="0.5"/>
<path d="M53.5102 203.41C53.8402 203.02 54.3302 202.76 54.8902 202.69C55.5602 202.61 56.2202 202.83 56.7302 203.27C62.7702 206.98 67.1202 209.39 68.3102 209.84C69.0702 210.13 69.8402 210.3 69.8402 210.3C70.4402 210.43 71.0702 210.5 71.6903 210.51L88.9602 208.93C89.8502 208.78 90.7202 209.17 91.0902 209.9C91.1302 209.97 91.4702 210.67 91.1302 211.42C90.7302 212.29 89.7202 212.5 89.3902 212.58C86.8002 213.13 81.8102 214.36 79.4702 215.49C78.7402 215.84 78.5502 216.11 78.5202 216.27C78.4702 216.53 78.7302 216.88 78.8102 216.99C79.8602 218.42 88.0802 224.67 92.8003 228.18C93.3403 228.47 93.7503 228.97 93.9103 229.56C94.0703 230.16 93.9803 230.78 93.6502 231.27C93.3402 231.73 92.8503 232.04 92.2902 232.15C91.7002 232.26 91.1103 232.13 90.6203 231.79L75.1002 222.69C74.3202 222.34 73.8403 222.36 73.6502 222.49C73.2302 222.78 73.3403 223.99 73.3703 224.39C73.6203 227.3 73.7502 229.51 73.8802 231.46C74.0002 233.44 74.1103 235.15 74.3003 237.22C74.3303 237.53 74.4102 238.5 73.7402 239.09C73.6302 239.19 73.2002 239.53 72.6102 239.47C71.8002 239.4 71.1402 238.61 71.0402 237.59C68.7902 226.65 67.1302 219.37 66.7102 218.06C66.4302 217.18 65.9302 216.47 65.9202 216.46C65.4302 215.77 64.9002 215.37 64.7002 215.22C63.4802 214.3 59.7302 211.2 54.1502 206.59C53.6202 206.24 53.2502 205.7 53.1202 205.1C53.0002 204.54 53.1002 203.97 53.3802 203.54C53.4102 203.49 53.4502 203.44 53.4902 203.39L53.5102 203.41ZM89.6702 210.78L89.6802 210.76C89.6902 210.73 89.6803 210.66 89.6603 210.62C89.6303 210.55 89.4502 210.47 89.2202 210.51H89.1402L71.7102 212.11C70.9702 212.1 70.2302 212.01 69.5103 211.86C69.4702 211.86 68.6202 211.67 67.7402 211.33C66.2502 210.76 61.3502 207.98 55.8302 204.59L55.7602 204.55L55.7002 204.49C55.4602 204.27 55.2002 204.26 55.0702 204.27C54.8902 204.29 54.7702 204.37 54.7302 204.43C54.6902 204.48 54.6602 204.61 54.7002 204.77C54.7302 204.89 54.8102 205.11 55.0602 205.27L55.1502 205.33C60.5602 209.8 64.4802 213.04 65.6702 213.94C65.9102 214.12 66.6002 214.64 67.2402 215.54C67.5102 215.9 67.9902 216.75 68.2502 217.58C68.7702 219.19 70.6102 227.49 72.6302 237.32V237.41C72.6602 237.57 72.6903 237.68 72.7303 237.76C72.7303 237.68 72.7403 237.55 72.7303 237.37C72.5403 235.28 72.4302 233.47 72.3102 231.56C72.1902 229.62 72.0502 227.42 71.8102 224.54C71.7402 223.71 71.6002 222 72.7702 221.18C73.5202 220.67 74.5702 220.69 75.8202 221.26L75.9002 221.3L91.5503 230.48C91.7402 230.62 91.9403 230.61 92.0402 230.59C92.1802 230.56 92.3002 230.49 92.3602 230.4C92.4302 230.3 92.4502 230.15 92.4002 230C92.3703 229.9 92.2902 229.7 92.0602 229.6L91.9302 229.52C88.9002 227.28 78.9303 219.82 77.5503 217.96C77.3603 217.71 76.7902 216.94 76.9702 216C77.1602 214.97 78.1002 214.41 78.7902 214.07C81.8302 212.6 88.3302 211.19 89.0602 211.04C89.5102 210.94 89.6402 210.84 89.6702 210.8V210.78Z" fill="#2E5629" fill-opacity="0.5"/>
<path d="M1.16005 200.98C1.63005 200.77 2.18005 200.76 2.72005 200.95C3.35005 201.18 3.86005 201.66 4.11005 202.28C7.89005 208.27 10.7501 212.35 11.6101 213.28C12.1701 213.88 12.7801 214.36 12.7801 214.37C13.2701 214.75 13.7901 215.09 14.3501 215.38L30.5501 221.57C31.4101 221.82 32.0201 222.56 32.03 223.38C32.03 223.46 32.0301 224.24 31.4001 224.76C30.6601 225.36 29.6601 225.11 29.3301 225.03C26.7601 224.38 21.7401 223.29 19.1501 223.28C18.3401 223.28 18.0501 223.43 17.9601 223.57C17.8001 223.78 17.8801 224.21 17.9101 224.35C18.2301 226.1 22.84 235.33 25.5501 240.56C25.9101 241.06 26.0501 241.68 25.9401 242.29C25.8201 242.9 25.4601 243.42 24.9601 243.71C24.4801 243.98 23.9001 244.05 23.3501 243.9C22.7801 243.74 22.3001 243.37 22.0101 242.85L12.0801 227.84C11.5301 227.18 11.0901 226.99 10.8601 227.02C10.3501 227.1 9.92005 228.23 9.77005 228.6C8.71005 231.32 7.86005 233.37 7.11005 235.17C6.35005 237 5.69005 238.59 4.95005 240.53C4.84005 240.82 4.49005 241.72 3.62005 241.96C3.47005 242 2.94005 242.11 2.44005 241.81C1.74005 241.39 1.50005 240.39 1.86005 239.43C4.66005 228.62 6.38005 221.35 6.57005 219.99C6.70005 219.08 6.57005 218.22 6.57005 218.21C6.43005 217.37 6.13005 216.78 6.02005 216.56C5.33005 215.19 3.33005 210.77 0.350051 204.17C0.0300514 203.63 -0.0699486 202.98 0.0800514 202.38C0.220051 201.83 0.550051 201.36 1.00005 201.1C1.05005 201.07 1.11005 201.04 1.17005 201.02L1.16005 200.98ZM30.3701 223.52C30.3701 223.52 30.3901 223.52 30.3901 223.51C30.4101 223.49 30.4301 223.42 30.4301 223.38C30.4301 223.31 30.3101 223.15 30.0801 223.09L30.0001 223.06L13.6501 216.81C12.9901 216.47 12.3701 216.07 11.7901 215.62C11.7601 215.6 11.0801 215.06 10.4301 214.36C9.34005 213.19 6.17005 208.54 2.71005 203.06L2.67005 202.99L2.64005 202.91C2.53005 202.6 2.30005 202.48 2.17005 202.44C2.00005 202.38 1.86005 202.39 1.79005 202.44C1.73005 202.47 1.65005 202.57 1.61005 202.73C1.58005 202.85 1.55005 203.09 1.71005 203.34L1.76005 203.43C4.65005 209.83 6.74005 214.46 7.41005 215.79C7.54005 216.06 7.94005 216.83 8.11005 217.91C8.20005 218.36 8.25005 219.32 8.12005 220.18C7.88005 221.85 5.87005 230.12 3.36005 239.83L3.33005 239.92C3.27005 240.07 3.26005 240.19 3.26005 240.28C3.30005 240.21 3.36005 240.1 3.43005 239.92C4.18005 237.96 4.87005 236.29 5.61005 234.52C6.35005 232.73 7.20005 230.69 8.25005 227.99C8.55005 227.21 9.18005 225.61 10.5901 225.4C11.4901 225.27 12.4201 225.75 13.3001 226.81L13.3501 226.88L23.3601 242.01C23.4701 242.22 23.6501 242.29 23.7501 242.32C23.8901 242.36 24.0301 242.34 24.1301 242.29C24.2401 242.23 24.3201 242.1 24.3501 241.95C24.3701 241.84 24.3801 241.64 24.2301 241.44L24.1501 241.31C22.4201 237.97 16.7501 226.88 16.3301 224.6C16.2701 224.29 16.1001 223.35 16.6801 222.58C17.3101 221.74 18.4001 221.65 19.1601 221.65C22.5401 221.67 28.9901 223.27 29.7201 223.45C30.1601 223.56 30.3201 223.53 30.3801 223.5L30.3701 223.52Z" fill="#2E5629" fill-opacity="0.5"/>
<path d="M17.1105 160.23C17.5705 160 18.1305 159.97 18.6605 160.14C19.3005 160.34 19.8205 160.81 20.1005 161.43C24.0905 167.29 27.0805 171.26 27.9805 172.17C28.5605 172.75 29.1905 173.21 29.1905 173.22C29.6905 173.59 30.2305 173.91 30.7905 174.17L47.1905 179.8C48.0605 180.02 48.6905 180.74 48.7305 181.56C48.7305 181.64 48.7705 182.42 48.1505 182.96C47.4305 183.59 46.4205 183.37 46.0905 183.3C43.5005 182.74 38.4405 181.82 35.8505 181.9C35.0405 181.92 34.7605 182.09 34.6705 182.23C34.5205 182.45 34.6105 182.87 34.6405 183.01C35.0205 184.75 39.9505 193.81 42.8305 198.94C43.2105 199.43 43.3705 200.05 43.2705 200.66C43.1705 201.27 42.8305 201.8 42.3405 202.11C41.8705 202.4 41.2905 202.49 40.7405 202.35C40.1605 202.21 39.6705 201.85 39.3605 201.34L28.9205 186.68C28.3505 186.04 27.9005 185.86 27.6805 185.9C27.1705 185.99 26.7805 187.14 26.6505 187.52C25.6805 190.28 24.9005 192.35 24.2205 194.18C23.5205 196.04 22.9205 197.65 22.2405 199.61C22.1405 199.91 21.8205 200.82 20.9605 201.09C20.8105 201.14 20.2905 201.27 19.7705 200.98C19.0605 200.58 18.7805 199.59 19.1105 198.62C21.5405 187.72 23.0005 180.39 23.1605 179.03C23.2605 178.11 23.1005 177.26 23.1005 177.25C22.9305 176.42 22.6205 175.84 22.5005 175.62C21.7605 174.28 19.6105 169.92 16.4105 163.43C16.0705 162.9 15.9505 162.25 16.0805 161.65C16.2005 161.09 16.5205 160.61 16.9605 160.34C17.0105 160.31 17.0705 160.28 17.1205 160.25L17.1105 160.23ZM47.0805 181.76C47.0805 181.76 47.1005 181.76 47.1005 181.75C47.1205 181.73 47.1405 181.66 47.1405 181.62C47.1405 181.55 47.0105 181.4 46.7805 181.34L46.7005 181.32L30.1405 175.63C29.4705 175.32 28.8305 174.94 28.2405 174.5C28.2105 174.48 27.5105 173.96 26.8405 173.29C25.7105 172.16 22.3805 167.62 18.7305 162.26L18.6805 162.19L18.6505 162.11C18.5305 161.81 18.2905 161.69 18.1605 161.65C17.9905 161.6 17.8405 161.61 17.7805 161.65C17.7205 161.69 17.6505 161.78 17.6105 161.94C17.5805 162.06 17.5705 162.3 17.7405 162.55L17.7905 162.64C20.9005 168.94 23.1505 173.49 23.8605 174.8C24.0005 175.06 24.4205 175.82 24.6405 176.9C24.7405 177.34 24.8305 178.31 24.7305 179.17C24.5405 180.85 22.8305 189.18 20.6505 198.97L20.6205 199.06C20.5705 199.21 20.5605 199.33 20.5605 199.42C20.6005 199.35 20.6605 199.24 20.7205 199.06C21.4005 197.07 22.0405 195.38 22.7105 193.59C23.3905 191.77 24.1705 189.71 25.1305 186.98C25.4105 186.19 25.9705 184.57 27.3805 184.31C28.2705 184.15 29.2205 184.6 30.1305 185.63L30.1805 185.7L40.7005 200.48C40.8205 200.68 41.0005 200.75 41.1005 200.78C41.2405 200.81 41.3805 200.8 41.4705 200.74C41.5705 200.67 41.6505 200.54 41.6805 200.39C41.7005 200.28 41.7005 200.08 41.5405 199.88L41.4505 199.76C39.6105 196.48 33.5605 185.59 33.0605 183.33C32.9905 183.02 32.7905 182.09 33.3405 181.3C33.9405 180.44 35.0205 180.31 35.7905 180.29C39.1705 180.19 45.6705 181.57 46.4005 181.73C46.8505 181.83 47.0105 181.79 47.0605 181.76H47.0805Z" fill="#2E5629" fill-opacity="0.5"/>
</g>
<defs>
<clipPath id="clip0_579_20245">
<rect width="1000" height="353" fill="white"/>
</clipPath>
</defs>
</svg>
