<svg width="249" height="297" viewBox="0 0 249 297" fill="none" xmlns="http://www.w3.org/2000/svg">
<g clip-path="url(#clip0_1247_5154)">
<path d="M-11.4563 -8.64293C-11.19 -8.76388 -10.8666 -8.76865 -10.5614 -8.66102C-10.2028 -8.52972 -9.91042 -8.25064 -9.76456 -7.89497C-7.60353 -4.45415 -5.97487 -2.11448 -5.48135 -1.57769C-5.1672 -1.23037 -4.8118 -0.952333 -4.8118 -0.952333C-4.53321 -0.732709 -4.22826 -0.536945 -3.91764 -0.370277L5.35906 3.20487C5.85117 3.35126 6.20341 3.77605 6.20502 4.2462C6.20689 4.29246 6.20976 4.73748 5.84214 5.03802C5.41778 5.38189 4.84153 5.23968 4.65502 5.19255C3.18371 4.82079 0.303029 4.1811 -1.17796 4.16979C-1.64372 4.16743 -1.80345 4.25595 -1.86187 4.33276C-1.95189 4.45416 -1.90942 4.69553 -1.89248 4.77612C-1.71197 5.77987 0.918116 11.0825 2.455 14.0807C2.65884 14.3679 2.74168 14.7247 2.67381 15.0738C2.60594 15.4229 2.40222 15.7191 2.1083 15.8891C1.83594 16.0475 1.50248 16.0853 1.18808 15.994C0.856939 15.9019 0.5907 15.687 0.421187 15.3848L-5.24472 6.76113C-5.56159 6.38429 -5.80775 6.27122 -5.94298 6.28962C-6.23457 6.32956 -6.48545 6.98011 -6.57172 7.19403C-7.18297 8.75406 -7.67401 9.9256 -8.10767 10.9573C-8.54657 12.0098 -8.92767 12.914 -9.35277 14.0259C-9.4158 14.1948 -9.61808 14.7135 -10.1157 14.8438C-10.2007 14.8648 -10.5019 14.9294 -10.7953 14.7552C-11.1943 14.5085 -11.3336 13.9392 -11.1257 13.3914C-9.50147 7.19823 -8.50763 3.03003 -8.38883 2.25113C-8.31214 1.72615 -8.38826 1.23547 -8.38784 1.2271C-8.46439 0.7448 -8.63621 0.404618 -8.70129 0.279639C-9.09409 -0.508116 -10.2385 -3.04595 -11.929 -6.83251C-12.1148 -7.14402 -12.1633 -7.5158 -12.0787 -7.86411C-11.9997 -8.18332 -11.8061 -8.44641 -11.5465 -8.60128C-11.5161 -8.62074 -11.4818 -8.63581 -11.4519 -8.6469L-11.4563 -8.64293ZM5.25654 4.32875L5.26534 4.32079C5.27853 4.30886 5.29297 4.27182 5.29423 4.2467C5.29633 4.20483 5.22517 4.11731 5.09685 4.0815L5.05144 4.06664L-4.31569 0.453363C-4.69203 0.258217 -5.04995 0.0304178 -5.38107 -0.229613C-5.39697 -0.2472 -5.78859 -0.556428 -6.15485 -0.952527C-6.78002 -1.62602 -8.58928 -4.29792 -10.5636 -7.44397L-10.5955 -7.47915L-10.6057 -7.52583C-10.6683 -7.70104 -10.8033 -7.77078 -10.8734 -7.79528C-10.9682 -7.82941 -11.0524 -7.82523 -11.0915 -7.79782C-11.1219 -7.77836 -11.1706 -7.72624 -11.192 -7.63498C-11.2081 -7.56444 -11.2232 -7.43088 -11.1299 -7.2835L-11.0989 -7.23158C-9.45328 -3.55639 -8.25609 -0.898393 -7.87878 -0.136597C-7.80261 0.018317 -7.57722 0.461915 -7.47829 1.08384C-7.43227 1.33797 -7.40577 1.89751 -7.47638 2.38503C-7.61676 3.34331 -8.77752 8.07813 -10.2403 13.6456L-10.2555 13.6994C-10.2893 13.7859 -10.301 13.8524 -10.2951 13.9031C-10.2679 13.8625 -10.2355 13.8012 -10.1969 13.7024C-9.76703 12.5781 -9.36226 11.6205 -8.94221 10.6091C-8.51294 9.58135 -8.02232 8.41819 -7.41589 6.87051C-7.2425 6.42592 -6.88171 5.50806 -6.06992 5.38927C-5.55412 5.31441 -5.01848 5.59729 -4.51995 6.20148L-4.48814 6.23665L1.22025 14.9338C1.28575 15.0504 1.38414 15.0973 1.43793 15.1126C1.51642 15.1375 1.5966 15.1289 1.65291 15.094C1.7176 15.0594 1.76324 14.9862 1.78021 14.8989C1.79152 14.8407 1.8018 14.7195 1.70678 14.6056L1.65989 14.5361C0.673394 12.6148 -2.55815 6.24949 -2.7989 4.94053C-2.83195 4.76259 -2.92669 4.22481 -2.59819 3.7838C-2.2385 3.30659 -1.61471 3.25392 -1.17408 3.25503C0.764297 3.26828 4.46132 4.20073 4.87577 4.30545C5.13282 4.3687 5.22178 4.35218 5.25612 4.33711L5.25654 4.32875Z" fill="#FFFDF3" fill-opacity="0.9"/>
<path d="M17.3606 12.7001C17.5076 12.4473 17.7649 12.2545 18.0757 12.1652C18.446 12.062 18.8419 12.1196 19.1715 12.325C22.9348 13.861 25.6237 14.81 26.3383 14.955C26.7995 15.0495 27.2432 15.0717 27.2516 15.0721C27.6033 15.0898 27.961 15.0699 28.3161 15.0206L37.9398 12.5106C38.4268 12.342 38.9528 12.4817 39.2318 12.8608C39.2596 12.8916 39.5183 13.2571 39.3947 13.7126C39.2506 14.2426 38.7026 14.4585 38.5186 14.529C37.1015 15.0833 34.3989 16.2489 33.181 17.1028C32.8022 17.3734 32.7225 17.5415 32.7179 17.6336C32.7143 17.7887 32.8905 17.957 32.9506 18.0146C33.6789 18.7227 38.9121 21.4949 41.9158 23.0305C42.2501 23.1438 42.5274 23.3886 42.6749 23.7107C42.8225 24.0329 42.8295 24.3942 42.6924 24.7021C42.5604 24.9893 42.3099 25.216 42.0021 25.3264C41.6816 25.4405 41.3339 25.4272 41.0265 25.2817L31.3948 21.588C30.9181 21.4676 30.6512 21.5172 30.5541 21.613C30.3422 21.8207 30.5184 22.4926 30.5745 22.7137C30.9883 24.3377 31.2747 25.5734 31.5263 26.6647C31.7811 27.7771 32.006 28.7327 32.305 29.8851C32.3508 30.0595 32.4918 30.5954 32.161 30.9985C32.1031 31.0669 31.8943 31.2957 31.5573 31.3208C31.0938 31.3563 30.6474 30.9687 30.4909 30.4069C28.1927 24.4284 26.5741 20.4649 26.2106 19.7626C25.9697 19.293 25.6225 18.9357 25.6185 18.9313C25.2749 18.5867 24.9395 18.4104 24.8129 18.3411C24.0359 17.9328 21.6297 16.5362 18.0409 14.4508C17.7083 14.304 17.4489 14.035 17.3186 13.7053C17.1953 13.4011 17.1994 13.0698 17.3221 12.7989C17.3405 12.7663 17.3545 12.7376 17.3729 12.7049L17.3606 12.7001ZM38.508 13.4834L38.5168 13.4755C38.5216 13.4631 38.507 13.4204 38.4955 13.3989C38.4676 13.3681 38.3644 13.3335 38.2363 13.3775L38.1936 13.3921L28.4805 15.927C28.062 15.9857 27.6369 16.0106 27.2138 15.9936C27.1887 15.9923 26.6947 15.9675 26.1586 15.8609C25.2571 15.6772 22.232 14.5686 18.7894 13.1663L18.7484 13.1474L18.7078 13.1202C18.5493 13.0157 18.4057 13.0337 18.3291 13.055C18.2313 13.0795 18.1654 13.1392 18.1465 13.1802C18.1321 13.2173 18.1243 13.2882 18.162 13.374C18.1882 13.4383 18.2576 13.5593 18.4138 13.6259L18.4711 13.654C21.9497 15.6793 24.4702 17.1403 25.2269 17.535C25.3782 17.6139 25.8198 17.8459 26.2633 18.2921C26.4515 18.4736 26.7949 18.9063 27.0203 19.3499C27.464 20.2116 29.2853 24.735 31.3498 30.1016L31.364 30.1527C31.385 30.2377 31.4195 30.3024 31.4469 30.3415C31.445 30.2952 31.436 30.2234 31.4076 30.1213C31.1051 28.9561 30.8703 27.9455 30.6218 26.8753C30.3697 25.7925 30.0873 24.5611 29.677 22.9499C29.5618 22.4866 29.3157 21.5341 29.9069 20.9594C30.2819 20.5963 30.8779 20.5129 31.6442 20.715L31.6896 20.7298L41.4038 24.4528C41.5225 24.5133 41.637 24.4897 41.6885 24.4671C41.7655 24.4374 41.8227 24.3857 41.8507 24.3283C41.8792 24.2626 41.875 24.1785 41.8413 24.097C41.8148 24.0411 41.7528 23.9373 41.6121 23.8967L41.5341 23.8634C39.6109 22.8772 33.27 19.5961 32.3173 18.6754C32.1892 18.5514 31.793 18.1664 31.8079 17.6173C31.8214 17.0136 32.2989 16.6137 32.6561 16.3546C34.24 15.2337 37.7854 13.8333 38.1793 13.6768C38.4232 13.5841 38.4856 13.5117 38.504 13.479L38.508 13.4834Z" fill="#FFFDF3" fill-opacity="0.9"/>
<path d="M25.767 -10.3141C25.8359 -10.6003 26.0252 -10.8594 26.2984 -11.0345C26.6235 -11.2407 27.0168 -11.3007 27.3894 -11.1981C31.4327 -10.8107 34.284 -10.6719 35.0091 -10.7363C35.4769 -10.7758 35.9107 -10.8883 35.9147 -10.8839C36.259 -10.9716 36.5967 -11.0932 36.9189 -11.2407L45.4085 -16.4097C45.8223 -16.7121 46.3731 -16.7307 46.7492 -16.4474C46.7858 -16.4246 47.1412 -16.1465 47.1512 -15.676C47.1658 -15.1296 46.6983 -14.7627 46.5497 -14.6443C45.357 -13.7094 43.0964 -11.8165 42.1815 -10.6453C41.8947 -10.2819 41.8643 -10.0946 41.8932 -10.0008C41.9363 -9.85592 42.1529 -9.74013 42.2266 -9.70286C43.1306 -9.23363 48.9322 -8.08653 52.2552 -7.47923C52.6072 -7.46997 52.9434 -7.31042 53.1736 -7.04705C53.4122 -6.78326 53.5166 -6.43807 53.4747 -6.10441C53.4297 -5.79189 53.2599 -5.50241 52.9942 -5.31007C52.7197 -5.10979 52.3838 -5.0217 52.0421 -5.07241L41.7515 -5.83602C41.2593 -5.81453 41.0178 -5.68394 40.9533 -5.56966C40.8103 -5.31242 41.1709 -4.71934 41.2868 -4.52046C42.1465 -3.08394 42.7754 -1.98214 43.3352 -1.00974C43.9026 -0.0201666 44.3885 0.835203 45.0048 1.85241C45.0977 2.00817 45.3889 2.48025 45.1887 2.95707C45.1554 3.03515 45.0195 3.31793 44.7069 3.44076C44.2703 3.61193 43.7369 3.36693 43.4219 2.86848C39.504 -2.19655 36.8088 -5.52984 36.2619 -6.09029C35.8948 -6.46964 35.458 -6.71399 35.4496 -6.71441C35.0247 -6.94557 34.6464 -7.01909 34.5093 -7.04695C33.6448 -7.21621 30.9364 -7.85986 26.9053 -8.82584C26.5465 -8.86902 26.22 -9.05327 25.999 -9.33297C25.7979 -9.59068 25.7046 -9.90592 25.7404 -10.2021C25.7465 -10.2396 25.7482 -10.2731 25.7582 -10.3062L25.767 -10.3141ZM46.2431 -15.646C46.2431 -15.646 46.2436 -15.6543 46.248 -15.6583C46.2488 -15.6751 46.2254 -15.7098 46.2051 -15.7234C46.1728 -15.7502 46.0552 -15.7477 45.9505 -15.669L45.9153 -15.6372L37.3355 -10.4266C36.9531 -10.2485 36.5511 -10.1008 36.1389 -9.99971C36.1178 -9.99657 35.633 -9.86979 35.0893 -9.8257C34.1744 -9.74147 30.9564 -9.9322 27.2599 -10.2896L27.2141 -10.2961L27.1687 -10.311C26.991 -10.3661 26.8536 -10.3058 26.7885 -10.2629C26.7018 -10.2085 26.6522 -10.1396 26.6541 -10.0934C26.648 -10.0559 26.6654 -9.98366 26.7207 -9.91374C26.7684 -9.86098 26.8598 -9.75987 27.0352 -9.74268L27.0934 -9.73136C31.0086 -8.79637 33.8453 -8.11692 34.6807 -7.95331C34.8469 -7.9198 35.3375 -7.82805 35.8891 -7.52759C36.1181 -7.40698 36.5767 -7.09439 36.9195 -6.73304C37.5897 -6.0363 40.6346 -2.228 44.1586 2.32203L44.1944 2.36159C44.2365 2.44345 44.2842 2.49621 44.3248 2.52342C44.3102 2.48072 44.28 2.41206 44.2217 2.32099C43.5974 1.29499 43.0844 0.392084 42.5361 -0.55876C41.9803 -1.52677 41.3554 -2.62414 40.5076 -4.04748C40.2638 -4.45843 39.7563 -5.30231 40.1533 -6.02109C40.4068 -6.47424 40.961 -6.72766 41.743 -6.7556L41.7933 -6.75308L52.1672 -5.97689C52.3004 -5.95343 52.3998 -6.01141 52.4433 -6.0428C52.5089 -6.09408 52.5541 -6.15896 52.5614 -6.22155C52.5692 -6.29251 52.5439 -6.37352 52.4842 -6.43946C52.4445 -6.48343 52.3561 -6.5634 52.2094 -6.56656L52.1217 -6.57517C49.9964 -6.96293 42.9823 -8.28414 41.7998 -8.89324C41.6401 -8.9726 41.1535 -9.22784 41.0081 -9.75976C40.844 -10.3388 41.1895 -10.8671 41.4583 -11.2061C42.6513 -12.7328 45.6448 -15.0968 45.9812 -15.3611C46.1866 -15.5229 46.2287 -15.6089 46.2344 -15.638L46.2431 -15.646Z" fill="#FFFDF3" fill-opacity="0.9"/>
<path d="M61.1647 22.6785C61.3077 22.4213 61.565 22.2285 61.8719 22.1348C62.2382 22.0272 62.6384 22.0809 62.9685 22.2779C66.7506 23.7728 69.4452 24.6928 70.1642 24.8337C70.6214 24.9238 71.0739 24.9381 71.0779 24.9425C71.434 24.9562 71.7917 24.9363 72.1428 24.8826L81.7381 22.2705C82.2254 22.0935 82.7515 22.2331 83.0348 22.6083C83.0627 22.6391 83.3297 23.005 83.2062 23.4605C83.0665 23.9865 82.522 24.2153 82.338 24.2858C80.9329 24.8533 78.233 26.0484 77.0309 26.9198C76.6522 27.1904 76.5764 27.3629 76.5758 27.4594C76.5766 27.6105 76.7528 27.7789 76.8129 27.8364C77.55 28.5365 82.8113 31.2514 85.829 32.7584C86.1677 32.8677 86.441 33.108 86.5929 33.4262C86.7449 33.7444 86.7559 34.1101 86.6188 34.418C86.4952 34.7056 86.2446 34.9323 85.9365 35.0512C85.6156 35.1736 85.2722 35.1564 84.9604 35.0148L75.2857 31.4239C74.8091 31.3035 74.5418 31.3614 74.4447 31.4573C74.2328 31.6649 74.4173 32.3373 74.4734 32.5583C74.9 34.1788 75.1992 35.411 75.4636 36.4987C75.7312 37.6075 75.9644 38.5635 76.2762 39.7124C76.322 39.8867 76.4674 40.4187 76.145 40.8222C76.087 40.8907 75.8822 41.1238 75.5492 41.1533C75.0813 41.1928 74.6345 40.8136 74.474 40.2474C72.1115 34.295 70.4502 30.3462 70.0819 29.6562C69.8327 29.1863 69.481 28.8329 69.481 28.8329C69.133 28.4922 68.7933 28.3199 68.6706 28.255C67.8892 27.8507 65.4646 26.4868 61.8573 24.434C61.5287 24.2916 61.261 24.0222 61.1262 23.6965C61.003 23.3923 61.0026 23.0649 61.1213 22.7897C61.1354 22.761 61.1498 22.7239 61.1722 22.6957L61.1647 22.6785ZM82.3151 23.2353L82.3239 23.2274C82.3287 23.215 82.314 23.1723 82.3025 23.1508C82.2747 23.12 82.1715 23.0855 82.0474 23.1338L82.0047 23.1484L72.3199 25.7854C71.9011 25.8526 71.4759 25.8774 71.0569 25.8648C71.0317 25.8636 70.5373 25.8472 70.0012 25.7405C69.0993 25.5652 66.0602 24.4853 62.6031 23.12L62.5577 23.1051L62.5171 23.0779C62.3586 22.9734 62.2107 22.9954 62.1424 23.0171C62.0486 23.046 61.9787 23.1013 61.9638 23.1467C61.9494 23.1837 61.946 23.2507 61.9793 23.3405C62.0055 23.4048 62.0749 23.5258 62.2355 23.5884L62.2889 23.6121C65.7902 25.6007 68.3248 27.0331 69.0858 27.4238C69.2371 27.5028 69.6832 27.7308 70.1271 28.1685C70.3153 28.3501 70.6631 28.7788 70.8973 29.2145C71.3497 30.0682 73.2182 34.5729 75.3381 39.9214L75.3524 39.9724C75.3733 40.0574 75.4078 40.1221 75.4352 40.1613C75.4334 40.115 75.4244 40.0432 75.3919 39.9366C75.0766 38.775 74.8292 37.7679 74.5722 36.6974C74.3118 35.6141 74.0122 34.3903 73.5892 32.7826C73.4655 32.3189 73.2151 31.3704 73.7984 30.7869C74.1693 30.4194 74.7697 30.332 75.5281 30.5253L75.5735 30.5402L85.3262 34.1643C85.4493 34.2209 85.5554 34.1968 85.6109 34.1786C85.6879 34.1489 85.7451 34.0972 85.7691 34.0355C85.7976 33.9698 85.7934 33.8856 85.7514 33.8038C85.7248 33.7479 85.6585 33.648 85.5218 33.6118L85.4393 33.5824C83.5065 32.6209 77.1287 29.4052 76.1672 28.4924C76.0391 28.3685 75.6425 27.9918 75.6451 27.4379C75.6542 26.8382 76.1238 26.4295 76.4809 26.1704C78.0529 25.0362 81.5836 23.5932 81.9776 23.4367C82.2219 23.3356 82.2799 23.2672 82.3023 23.2389L82.3151 23.2353Z" fill="#FFFDF3" fill-opacity="0.9"/>
<path d="M79.2993 1.33514C79.3889 1.05424 79.5941 0.812702 79.8788 0.659095C80.2154 0.474515 80.6154 0.44841 80.9828 0.571757C84.9863 1.25096 87.823 1.59465 88.5496 1.58491C89.0202 1.57493 89.4562 1.50027 89.4646 1.50069C89.8161 1.43857 90.1609 1.34254 90.4946 1.21657L99.3347 -3.32629C99.7764 -3.59793 100.317 -3.57503 100.675 -3.26748C100.703 -3.2367 101.04 -2.94276 101.021 -2.46948C100.994 -1.92523 100.507 -1.5887 100.346 -1.48343C99.0906 -0.635617 96.6957 1.091 95.7004 2.19109C95.3893 2.53643 95.3465 2.71896 95.367 2.81232C95.3974 2.96074 95.6092 3.08888 95.6785 3.13012C96.5457 3.66466 102.251 5.22663 105.52 6.07466C105.871 6.10904 106.193 6.2889 106.405 6.57654C106.622 6.86021 106.705 7.20855 106.638 7.54095C106.572 7.84823 106.382 8.1241 106.101 8.29885C105.81 8.48155 105.472 8.54011 105.135 8.46869L94.9283 6.958C94.4379 6.946 94.1848 7.05503 94.1124 7.16052C93.953 7.40855 94.2661 8.02862 94.3693 8.23106C95.1252 9.72953 95.6722 10.8734 96.1545 11.8839C96.6444 12.9115 97.0701 13.7975 97.6129 14.8572C97.697 15.0209 97.9494 15.512 97.7122 15.9744C97.6705 16.052 97.5183 16.3256 97.1947 16.4185C96.7473 16.5513 96.228 16.2777 95.9562 15.7562C92.4126 10.4245 89.9658 6.90643 89.4673 6.30224C89.131 5.89505 88.7082 5.62203 88.7082 5.62203C88.2973 5.3622 87.9331 5.26 87.7964 5.22377C86.9476 4.99234 84.2951 4.15423 80.3373 2.89813C79.9842 2.82586 79.6713 2.62132 79.4678 2.32572C79.2843 2.0521 79.2121 1.73369 79.2731 1.43876C79.2792 1.40129 79.2892 1.36821 79.2993 1.33514ZM100.107 -2.4985C100.107 -2.4985 100.108 -2.50686 100.112 -2.51084C100.113 -2.52758 100.09 -2.56234 100.074 -2.57992C100.046 -2.6107 99.9287 -2.61657 99.82 -2.54227L99.7769 -2.51926L90.8465 2.06523C90.4486 2.21735 90.0399 2.33117 89.625 2.40271C89.6039 2.40584 89.1128 2.49034 88.5709 2.50094C87.6553 2.51379 84.453 2.09301 80.7907 1.47289L80.7449 1.46639L80.6994 1.45152C80.5265 1.3841 80.3857 1.43159 80.3166 1.4701C80.2259 1.52011 80.1763 1.58897 80.1658 1.63042C80.1598 1.66789 80.1688 1.73969 80.2196 1.81359C80.2585 1.8743 80.35 1.97542 80.5206 2.00496L80.5788 2.01628C84.4127 3.23259 87.193 4.11488 88.0171 4.33667C88.1829 4.37856 88.6631 4.51175 89.1918 4.84884C89.4116 4.98577 89.8434 5.33061 90.1598 5.71581C90.7772 6.46027 93.5429 10.4812 96.7234 15.27L96.7504 15.3176C96.7925 15.3994 96.8362 15.4478 96.872 15.4873C96.8618 15.4406 96.8356 15.3764 96.786 15.2774C96.2352 14.2089 95.787 13.2714 95.3161 12.2825C94.8377 11.2764 94.2903 10.1409 93.5419 8.65963C93.3241 8.2332 92.8813 7.35481 93.3312 6.66807C93.6174 6.23334 94.1862 6.02262 94.9737 6.05371L95.0239 6.05623L105.314 7.57948C105.447 7.61132 105.546 7.56173 105.594 7.53473C105.663 7.48785 105.712 7.42736 105.724 7.36079C105.74 7.29025 105.715 7.20924 105.66 7.13931C105.62 7.09535 105.54 7.00743 105.394 6.9959L105.311 6.98332C103.222 6.44212 96.3176 4.61436 95.1856 3.91965C95.0307 3.82794 94.5625 3.54005 94.4554 2.99745C94.3381 2.40818 94.7157 1.90668 95.0089 1.58561C96.3104 0.152525 99.4649 -1.98929 99.8212 -2.23164C100.039 -2.38023 100.085 -2.46187 100.099 -2.49054L100.107 -2.4985Z" fill="#FFFDF3" fill-opacity="0.9"/>
<path d="M101.893 41.0384C102.004 40.7627 102.225 40.5388 102.521 40.4067C102.873 40.2481 103.272 40.2471 103.629 40.4035C107.572 41.3777 110.373 41.9295 111.097 41.97C111.566 41.9935 112.008 41.9527 112.017 41.9531C112.371 41.9205 112.723 41.85 113.064 41.7496L122.219 37.8731C122.676 37.6358 123.218 37.6965 123.55 38.028C123.578 38.0587 123.893 38.3809 123.836 38.8482C123.767 39.3903 123.257 39.6837 123.089 39.7802C121.771 40.5325 119.259 42.077 118.179 43.1015C117.844 43.4205 117.785 43.6022 117.797 43.6951C117.815 43.8471 118.017 43.9916 118.082 44.0368C118.908 44.6322 124.483 46.6158 127.673 47.7033C128.018 47.7667 128.327 47.9669 128.518 48.266C128.713 48.5612 128.766 48.9206 128.675 49.2434C128.588 49.5455 128.374 49.8033 128.085 49.9609C127.783 50.122 127.437 50.1551 127.11 50.0589L117.041 47.7997C116.553 47.7459 116.292 47.8377 116.212 47.9428C116.032 48.1772 116.302 48.8203 116.388 49.0303C117.028 50.5775 117.489 51.759 117.898 52.8036C118.315 53.8654 118.672 54.7815 119.134 55.8748C119.205 56.0421 119.419 56.5523 119.153 56.9922C119.108 57.0655 118.935 57.3254 118.604 57.4012C118.145 57.5041 117.653 57.1898 117.416 56.6449C114.28 51.0651 112.102 47.3758 111.643 46.7358C111.333 46.3048 110.941 46.0039 110.937 45.9995C110.544 45.707 110.19 45.5801 110.053 45.5355C109.224 45.2463 106.641 44.2102 102.79 42.6656C102.446 42.5687 102.143 42.3394 101.965 42.0283C101.803 41.7432 101.757 41.4177 101.838 41.128C101.848 41.0949 101.859 41.0619 101.873 41.0248L101.893 41.0384ZM122.926 38.7521C122.926 38.7521 122.935 38.7442 122.931 38.7398C122.932 38.723 122.913 38.6843 122.897 38.6667C122.869 38.636 122.756 38.6177 122.64 38.6833L122.601 38.7023L113.356 42.6121C112.952 42.7303 112.532 42.8142 112.114 42.8562C112.093 42.8593 111.595 42.9099 111.052 42.8743C110.135 42.8241 106.978 42.1622 103.367 41.2718L103.322 41.2569L103.281 41.2381C103.113 41.1583 102.972 41.1974 102.899 41.2315C102.809 41.2732 102.751 41.3333 102.737 41.3787C102.727 41.4118 102.731 41.4875 102.778 41.5654C102.812 41.6301 102.899 41.7352 103.065 41.7771L103.123 41.7968C106.859 43.2936 109.566 44.3778 110.37 44.6574C110.531 44.7116 111.001 44.8779 111.503 45.2556C111.713 45.4089 112.118 45.7859 112.405 46.1906C112.965 46.9784 115.423 51.1895 118.244 56.2079L118.267 56.2595C118.3 56.3409 118.344 56.3976 118.379 56.4372C118.369 56.3905 118.347 56.3223 118.306 56.2237C117.837 55.1131 117.462 54.1499 117.064 53.1269C116.659 52.0867 116.197 50.9136 115.56 49.3791C115.377 48.9376 114.999 48.0247 115.501 47.3783C115.816 46.966 116.399 46.798 117.184 46.8877L117.229 46.8942L127.381 49.1744C127.509 49.2186 127.616 49.1777 127.664 49.1508C127.733 49.1122 127.79 49.0522 127.806 48.99C127.826 48.9239 127.809 48.8349 127.759 48.761C127.728 48.7091 127.648 48.6212 127.507 48.5973L127.424 48.5763C125.381 47.8821 118.627 45.5499 117.55 44.774C117.404 44.6659 116.958 44.3498 116.894 43.8009C116.818 43.2054 117.232 42.7351 117.55 42.432C118.956 41.0965 122.257 39.1971 122.629 38.9807C122.854 38.8493 122.912 38.7724 122.922 38.7394L122.926 38.7521Z" fill="#FFFDF3" fill-opacity="0.9"/>
<path d="M122.755 23.8105C122.87 23.5393 123.091 23.3153 123.387 23.1833C123.739 23.033 124.138 23.032 124.495 23.1885C128.431 24.2001 131.227 24.7725 131.951 24.8214C132.419 24.8533 132.862 24.8126 132.87 24.813C133.225 24.7804 133.576 24.7182 133.917 24.6178L143.106 20.8227C143.566 20.5898 144.109 20.659 144.436 20.9944C144.464 21.0251 144.775 21.3513 144.718 21.8185C144.649 22.3607 144.13 22.6536 143.966 22.7461C142.64 23.4897 140.113 25.0082 139.03 26.02C138.691 26.3345 138.632 26.5163 138.644 26.6092C138.661 26.7612 138.864 26.9056 138.924 26.9548C139.742 27.5582 145.302 29.5872 148.486 30.7038C148.831 30.7672 149.14 30.9758 149.33 31.2749C149.521 31.5741 149.574 31.9335 149.483 32.2563C149.396 32.5583 149.173 32.8158 148.885 32.965C148.583 33.1261 148.237 33.1508 147.911 33.0546L137.863 30.7042C137.375 30.6503 137.119 30.7382 137.034 30.8388C136.854 31.0733 137.116 31.7159 137.202 31.9259C137.833 33.4811 138.282 34.6662 138.683 35.7104C139.087 36.7757 139.435 37.6913 139.892 38.7971C139.963 38.9643 140.168 39.474 139.899 39.918C139.853 39.9912 139.676 40.2468 139.345 40.3225C138.891 40.4215 138.395 40.1028 138.166 39.5583C135.077 33.9515 132.93 30.2427 132.48 29.5948C132.174 29.1598 131.778 28.8545 131.778 28.8545C131.39 28.5581 131.035 28.4311 130.904 28.3826C130.079 28.081 127.501 27.0242 123.664 25.451C123.316 25.3496 123.021 25.1208 122.844 24.8097C122.682 24.5246 122.64 24.1951 122.725 23.9098C122.735 23.8767 122.745 23.8436 122.76 23.8066L122.755 23.8105ZM143.808 21.7058C143.808 21.7058 143.817 21.6978 143.813 21.6934C143.814 21.6767 143.799 21.6423 143.779 21.6204C143.751 21.5896 143.639 21.5714 143.522 21.6369L143.484 21.6559L134.205 25.4843C133.8 25.6025 133.377 25.682 132.959 25.724C132.938 25.7271 132.441 25.7693 131.897 25.7337C130.981 25.6751 127.83 24.9841 124.233 24.0651L124.187 24.0502L124.146 24.0314C123.978 23.9516 123.834 23.9863 123.765 24.0165C123.675 24.0581 123.617 24.1182 123.602 24.1636C123.592 24.1967 123.597 24.2724 123.643 24.3503C123.678 24.415 123.761 24.5241 123.926 24.566L123.984 24.5856C127.71 26.1155 130.404 27.2201 131.203 27.512C131.364 27.5663 131.834 27.7409 132.331 28.1226C132.542 28.2758 132.942 28.6569 133.228 29.0699C133.784 29.8617 136.203 34.1003 138.977 39.1373L138.999 39.1888C139.033 39.2702 139.072 39.3309 139.112 39.3665C139.102 39.3198 139.088 39.252 139.043 39.149C138.583 38.0389 138.216 37.0678 137.822 36.0408C137.425 35.001 136.981 33.8203 136.353 32.2779C136.174 31.8324 135.804 30.9199 136.311 30.2779C136.629 29.87 137.213 29.702 137.997 29.8001L138.047 29.811L148.177 32.1824C148.305 32.2266 148.412 32.1858 148.459 32.1588C148.528 32.1203 148.586 32.0602 148.602 31.998C148.622 31.9319 148.605 31.8429 148.554 31.769C148.523 31.7171 148.444 31.6292 148.302 31.6053L148.22 31.5844C146.182 30.8694 139.452 28.4838 138.379 27.6956C138.234 27.5875 137.792 27.2674 137.727 26.7185C137.661 26.1234 138.075 25.6531 138.396 25.3544C139.814 24.0321 143.131 22.1587 143.507 21.9467C143.736 21.8197 143.79 21.7384 143.804 21.7098L143.808 21.7058Z" fill="#FFFDF3" fill-opacity="0.9"/>
<path d="M155.98 46.5225C156.094 46.2512 156.316 46.0272 156.612 45.8952C156.963 45.7449 157.362 45.744 157.72 45.9004C161.656 46.912 164.452 47.4845 165.176 47.5333C165.644 47.5652 166.087 47.5245 166.095 47.5249C166.449 47.4923 166.801 47.4302 167.142 47.3297L176.33 43.5346C176.791 43.3017 177.333 43.3709 177.661 43.7063C177.688 43.7371 177.999 44.0632 177.942 44.5304C177.873 45.0726 177.355 45.3656 177.191 45.4581C175.865 46.2016 173.338 47.7202 172.255 48.7319C171.916 49.0465 171.856 49.2281 171.868 49.3211C171.886 49.4731 172.089 49.6175 172.149 49.6667C172.967 50.2701 178.527 52.2991 181.711 53.4157C182.056 53.4791 182.364 53.6877 182.555 53.9868C182.746 54.286 182.799 54.6454 182.707 54.9682C182.621 55.2702 182.398 55.5277 182.109 55.6769C181.808 55.838 181.462 55.8627 181.135 55.7665L171.088 53.4161C170.6 53.3622 170.343 53.4501 170.259 53.5508C170.079 53.7852 170.341 54.4279 170.427 54.6378C171.058 56.193 171.506 57.3781 171.907 58.4222C172.311 59.4876 172.66 60.4032 173.117 61.509C173.188 61.6762 173.393 62.186 173.123 62.6299C173.078 62.7032 172.901 62.9587 172.57 63.0345C172.116 63.1334 171.62 62.8148 171.391 62.2703C168.302 56.6634 166.154 52.9546 165.704 52.3067C165.399 51.8717 165.003 51.5664 165.003 51.5664C164.615 51.27 164.26 51.1431 164.128 51.0945C163.304 50.7929 160.725 49.7361 156.888 48.1629C156.541 48.0615 156.246 47.8327 156.069 47.5216C155.907 47.2365 155.864 46.907 155.95 46.6217C155.96 46.5886 155.97 46.5555 155.985 46.5185L155.98 46.5225ZM177.037 44.4221C177.037 44.4221 177.046 44.4141 177.042 44.4097C177.043 44.393 177.028 44.3587 177.008 44.3367C176.98 44.3059 176.868 44.2877 176.751 44.3532L176.712 44.3722L167.434 48.2006C167.029 48.3188 166.605 48.3983 166.188 48.4403C166.167 48.4434 165.669 48.4856 165.125 48.45C164.209 48.3914 161.058 47.7004 157.461 46.7814L157.416 46.7665L157.375 46.7477C157.207 46.6679 157.062 46.7026 156.994 46.7328C156.903 46.7744 156.846 46.8345 156.831 46.8799C156.821 46.913 156.826 46.9887 156.872 47.0666C156.907 47.1313 156.989 47.2404 157.155 47.2823L157.213 47.302C160.939 48.8318 163.632 49.9364 164.432 50.2283C164.593 50.2826 165.063 50.4572 165.56 50.8389C165.77 50.9921 166.171 51.3732 166.456 51.7862C167.013 52.578 169.432 56.8166 172.205 61.8536L172.228 61.9051C172.262 61.9865 172.301 62.0472 172.341 62.0828C172.33 62.0361 172.317 61.9683 172.272 61.8653C171.811 60.7552 171.444 59.7841 171.051 58.7571C170.654 57.7173 170.21 56.5366 169.582 54.9942C169.403 54.5487 169.033 53.6362 169.54 52.9943C169.858 52.5863 170.441 52.4183 171.226 52.5164L171.275 52.5273L181.406 54.8987C181.534 54.9429 181.64 54.9021 181.688 54.8751C181.757 54.8366 181.815 54.7765 181.83 54.7144C181.85 54.6482 181.834 54.5592 181.783 54.4853C181.752 54.4334 181.673 54.3455 181.531 54.3216L181.448 54.3007C179.411 53.5857 172.681 51.2001 171.608 50.4119C171.462 50.3038 171.021 49.9837 170.956 49.4348C170.889 48.8397 171.303 48.3694 171.625 48.0708C173.042 46.7484 176.36 44.875 176.735 44.663C176.964 44.5359 177.019 44.4547 177.033 44.4261L177.037 44.4221Z" fill="#FFFDF3" fill-opacity="0.9"/>
<path d="M133.782 53.5696C133.981 53.3572 134.277 53.2251 134.597 53.2076C134.98 53.189 135.351 53.3335 135.631 53.6078C138.955 55.9485 141.363 57.4795 142.023 57.7854C142.45 57.9831 142.88 58.1054 142.884 58.1014C143.228 58.1984 143.581 58.2622 143.933 58.2883L153.869 58.0058C154.384 57.9477 154.866 58.2069 155.054 58.6361C155.073 58.6748 155.246 59.0863 155.023 59.5033C154.764 59.9855 154.181 60.0738 153.99 60.102C152.489 60.3248 149.588 60.8466 148.212 61.4114C147.78 61.587 147.663 61.7322 147.642 61.8235C147.605 61.9685 147.738 62.1766 147.784 62.2461C148.337 63.1049 152.811 66.9722 155.392 69.1456C155.693 69.3286 155.905 69.633 155.976 69.9765C156.05 70.3244 155.97 70.6771 155.767 70.9482C155.578 71.1989 155.281 71.3645 154.956 71.4027C154.618 71.4445 154.283 71.348 154.016 71.1416L145.458 65.3738C145.02 65.1462 144.748 65.1367 144.635 65.2066C144.384 65.3619 144.404 66.0554 144.405 66.2863C144.442 67.9628 144.438 69.2301 144.44 70.3466C144.438 71.4839 144.443 72.4705 144.471 73.6597C144.475 73.8403 144.489 74.3951 144.079 74.7103C144.009 74.7655 143.752 74.9415 143.419 74.8912C142.957 74.8219 142.607 74.3469 142.586 73.7582C141.687 67.4176 141.001 63.1861 140.808 62.4252C140.679 61.9108 140.415 61.4863 140.419 61.4823C140.163 61.0666 139.877 60.8214 139.769 60.7278C139.105 60.1531 137.068 58.2546 134.042 55.4126C133.75 55.1965 133.557 54.8762 133.507 54.5212C133.456 54.1997 133.531 53.876 133.715 53.6376C133.738 53.6094 133.76 53.5811 133.786 53.5573L133.782 53.5696ZM154.209 59.0805L154.218 59.0726C154.231 59.0607 154.221 59.014 154.214 58.9968C154.194 58.9581 154.097 58.9028 153.966 58.9172L153.919 58.9191L143.887 59.2009C143.465 59.1672 143.045 59.0915 142.639 58.9789C142.618 58.9736 142.138 58.8404 141.642 58.6099C140.809 58.2282 138.106 56.4684 135.066 54.3265L135.025 54.2993L134.993 54.2641C134.866 54.1234 134.715 54.1159 134.64 54.1205C134.539 54.1238 134.465 54.1663 134.434 54.2025C134.412 54.2308 134.387 54.3009 134.404 54.3899C134.413 54.4617 134.452 54.5937 134.594 54.689L134.643 54.725C137.581 57.4787 139.71 59.4699 140.354 60.0227C140.487 60.1342 140.861 60.4594 141.191 60.9922C141.331 61.2091 141.57 61.7121 141.693 62.1925C141.931 63.1362 142.689 67.9504 143.49 73.6441L143.492 73.6987C143.491 73.7868 143.513 73.8551 143.532 73.9022C143.538 73.8563 143.546 73.7854 143.543 73.6761C143.511 72.4741 143.508 71.4373 143.505 70.3375C143.506 69.2254 143.506 67.9621 143.468 66.3023C143.458 65.8234 143.437 64.836 144.142 64.4138C144.587 64.1466 145.193 64.198 145.884 64.5642L145.925 64.5914L154.548 70.4044C154.657 70.4896 154.762 70.4907 154.821 70.4852C154.901 70.4767 154.97 70.4381 155.011 70.3856C155.056 70.3291 155.068 70.2458 155.052 70.1568C155.038 70.0974 154.997 69.982 154.871 69.9127L154.802 69.8631C153.151 68.4708 147.708 63.8498 146.988 62.735C146.89 62.5832 146.594 62.1235 146.726 61.5887C146.873 61.0085 147.433 60.7176 147.836 60.5531C149.631 59.8163 153.399 59.2456 153.822 59.1828C154.08 59.1412 154.163 59.0908 154.181 59.0665L154.209 59.0805Z" fill="#FFFDF3" fill-opacity="0.9"/>
<path d="M183.304 72.9175C183.545 72.7542 183.863 72.6906 184.179 72.744C184.557 72.8101 184.886 73.0326 185.099 73.3618C187.826 76.3771 189.838 78.4006 190.415 78.8445C190.787 79.1312 191.18 79.3453 191.185 79.3423C191.499 79.5126 191.83 79.6527 192.167 79.7554L201.921 81.6677C202.436 81.7244 202.85 82.0834 202.939 82.5435C202.949 82.5855 203.026 83.0249 202.718 83.3826C202.359 83.796 201.77 83.7536 201.578 83.7392C200.065 83.6259 197.12 83.4962 195.654 83.7443C195.193 83.8202 195.048 83.9363 195.007 84.0206C194.939 84.154 195.022 84.3861 195.053 84.4643C195.403 85.4237 198.915 90.181 200.954 92.8694C201.208 93.1143 201.347 93.4578 201.341 93.8085C201.337 94.1643 201.181 94.4906 200.924 94.7105C200.684 94.9135 200.357 95.0094 200.032 94.9751C199.693 94.9415 199.387 94.7735 199.172 94.5134L192.094 87.0029C191.717 86.6845 191.454 86.6153 191.329 86.6587C191.049 86.7548 190.916 87.4357 190.866 87.6611C190.534 89.3048 190.25 90.5399 190.007 91.6296C189.754 92.7385 189.542 93.702 189.308 94.8683C189.271 95.0453 189.163 95.5895 188.694 95.8066C188.613 95.8451 188.324 95.9603 188.01 95.8379C187.574 95.6684 187.338 95.1281 187.447 94.5493C187.966 88.1662 188.229 83.8876 188.208 83.1029C188.195 82.5727 188.031 82.1004 188.036 82.0975C187.878 81.6355 187.653 81.3335 187.568 81.2183C187.047 80.5115 185.478 78.2112 183.152 74.7725C182.915 74.4976 182.797 74.1425 182.827 73.7853C182.848 73.4604 182.992 73.1613 183.224 72.9692C183.252 72.9466 183.28 72.924 183.311 72.9065L183.304 72.9175ZM202.012 82.7939L202.022 82.7881C202.037 82.7794 202.038 82.7316 202.034 82.7132C202.024 82.6712 201.941 82.5957 201.81 82.581L201.764 82.5726L191.916 80.6385C191.512 80.5127 191.119 80.3464 190.748 80.1471C190.729 80.1375 190.289 79.9018 189.856 79.5677C189.128 79.0119 186.879 76.7002 184.385 73.9415L184.351 73.906L184.328 73.8647C184.235 73.6994 184.089 73.6589 184.014 73.6467C183.915 73.6277 183.834 73.653 183.796 73.6814C183.768 73.7041 183.728 73.7671 183.725 73.8575C183.718 73.9295 183.727 74.067 183.845 74.1913L183.884 74.2371C186.144 77.5702 187.782 79.9813 188.289 80.6622C188.394 80.8003 188.687 81.1998 188.892 81.7922C188.981 82.0346 189.103 82.578 189.117 83.0736C189.142 84.0466 188.821 88.9095 188.349 94.6399L188.338 94.6935C188.319 94.7794 188.325 94.8507 188.333 94.9008C188.349 94.8575 188.372 94.79 188.393 94.6827C188.627 93.5032 188.853 92.4913 189.091 91.4177C189.337 90.3331 189.616 89.1009 189.944 87.4734C190.04 87.0041 190.236 86.0361 191.017 85.7797C191.51 85.6171 192.09 85.8006 192.684 86.31L192.717 86.3455L199.849 93.9145C199.936 94.0216 200.038 94.0457 200.097 94.0534C200.177 94.0627 200.253 94.0404 200.304 93.998C200.36 93.9527 200.391 93.8743 200.394 93.7838C200.394 93.7228 200.38 93.6014 200.272 93.5059L200.216 93.4424C198.912 91.7207 194.62 86.0147 194.163 84.7686C194.101 84.5992 193.914 84.0855 194.16 83.5929C194.431 83.0591 195.041 82.8987 195.47 82.827C197.384 82.5036 201.185 82.7766 201.612 82.8085C201.872 82.8247 201.964 82.7937 201.987 82.7739L202.012 82.7939Z" fill="#FFFDF3" fill-opacity="0.9"/>
<path d="M170.42 116.928C170.708 116.867 171.02 116.929 171.292 117.106C171.613 117.311 171.836 117.646 171.905 118.031C173.265 121.86 174.342 124.499 174.709 125.135C174.945 125.537 175.225 125.891 175.229 125.895C175.454 126.171 175.706 126.423 175.98 126.655L184.257 132.165C184.706 132.414 184.955 132.901 184.86 133.362C184.85 133.403 184.752 133.843 184.335 134.053C183.844 134.297 183.316 134.032 183.144 133.947C181.789 133.263 179.119 132.017 177.671 131.679C177.219 131.577 177.04 131.627 176.966 131.686C176.856 131.785 176.839 132.032 176.839 132.112C176.797 133.126 178.208 138.875 179.06 142.141C179.2 142.463 179.198 142.832 179.055 143.161C178.913 143.489 178.645 143.732 178.325 143.829C178.027 143.923 177.689 143.885 177.403 143.728C177.104 143.566 176.883 143.295 176.786 142.967L173.132 133.315C172.906 132.88 172.688 132.71 172.554 132.703C172.261 132.68 171.875 133.261 171.744 133.451C170.806 134.844 170.074 135.873 169.428 136.785C168.773 137.714 168.204 138.516 167.541 139.507C167.437 139.657 167.133 140.116 166.616 140.136C166.532 140.14 166.217 140.137 165.973 139.903C165.637 139.575 165.628 138.991 165.947 138.495C168.881 132.804 170.761 128.953 171.041 128.22C171.234 127.726 171.263 127.228 171.267 127.224C171.3 126.739 171.205 126.369 171.17 126.233C170.957 125.379 170.397 122.656 169.568 118.586C169.46 118.244 169.487 117.868 169.646 117.549C169.79 117.258 170.04 117.04 170.326 116.949C170.36 116.942 170.394 116.927 170.428 116.92L170.42 116.928ZM183.902 133.23L183.91 133.222C183.923 133.21 183.946 133.182 183.952 133.153C183.962 133.111 183.912 133.012 183.798 132.948L183.762 132.925L175.407 127.356C175.081 127.084 174.782 126.779 174.517 126.451C174.501 126.434 174.189 126.045 173.918 125.578C173.459 124.787 172.27 121.785 171.027 118.281L171.013 118.238L171.003 118.192C170.978 118.006 170.866 117.908 170.8 117.871C170.715 117.82 170.631 117.808 170.589 117.822C170.55 117.833 170.494 117.876 170.452 117.962C170.419 118.024 170.375 118.152 170.43 118.318L170.443 118.378C171.253 122.321 171.836 125.175 172.042 126.004C172.08 126.17 172.207 126.654 172.167 127.282C172.158 127.546 172.063 128.087 171.885 128.552C171.537 129.458 169.371 133.824 166.739 138.938L166.711 138.987C166.661 139.064 166.637 139.126 166.626 139.176C166.662 139.144 166.706 139.087 166.77 138.998C167.437 137.995 168.037 137.148 168.67 136.256C169.311 135.348 170.043 134.319 170.972 132.943C171.24 132.549 171.793 131.729 172.608 131.791C173.122 131.829 173.59 132.222 173.945 132.924L173.963 132.971L177.647 142.7C177.683 142.827 177.776 142.895 177.825 142.923C177.899 142.96 177.974 142.972 178.037 142.954C178.106 142.933 178.168 142.869 178.201 142.79C178.229 142.733 178.26 142.617 178.199 142.488L178.17 142.411C177.624 140.323 175.856 133.402 175.91 132.074C175.914 131.894 175.938 131.345 176.358 130.988C176.814 130.6 177.436 130.686 177.863 130.787C179.751 131.221 183.157 132.937 183.537 133.128C183.771 133.244 183.867 133.245 183.897 133.242L183.902 133.23Z" fill="#2E5629" fill-opacity="0.8"/>
<path d="M199.055 122.148C199.344 122.087 199.655 122.149 199.928 122.326C200.249 122.531 200.471 122.866 200.54 123.251C201.901 127.08 202.978 129.719 203.345 130.355C203.58 130.757 203.861 131.111 203.865 131.115C204.09 131.391 204.342 131.643 204.616 131.875L212.893 137.385C213.342 137.634 213.59 138.121 213.496 138.582C213.485 138.623 213.388 139.063 212.97 139.273C212.48 139.517 211.951 139.252 211.779 139.167C210.425 138.482 207.755 137.236 206.307 136.899C205.854 136.797 205.676 136.847 205.601 136.906C205.491 137.005 205.475 137.252 205.475 137.332C205.433 138.346 206.844 144.095 207.696 147.361C207.835 147.683 207.834 148.052 207.691 148.381C207.549 148.709 207.281 148.952 206.961 149.049C206.662 149.143 206.324 149.105 206.038 148.948C205.74 148.786 205.519 148.515 205.422 148.187L201.768 138.535C201.542 138.1 201.324 137.93 201.19 137.923C200.897 137.9 200.511 138.481 200.38 138.671C199.441 140.064 198.71 141.093 198.064 142.005C197.409 142.933 196.84 143.736 196.177 144.727C196.073 144.877 195.769 145.336 195.252 145.356C195.168 145.36 194.853 145.357 194.609 145.122C194.273 144.795 194.264 144.211 194.583 143.715C197.516 138.024 199.397 134.173 199.677 133.44C199.87 132.946 199.899 132.448 199.903 132.444C199.936 131.959 199.841 131.589 199.806 131.453C199.593 130.599 199.032 127.876 198.204 123.805C198.095 123.464 198.123 123.088 198.281 122.768C198.426 122.478 198.676 122.259 198.962 122.169C198.996 122.162 199.03 122.147 199.064 122.14L199.055 122.148ZM212.541 138.454L212.55 138.446C212.563 138.434 212.586 138.406 212.591 138.377C212.602 138.336 212.552 138.237 212.438 138.172L212.401 138.149L204.047 132.581C203.721 132.308 203.421 132.004 203.157 131.676C203.141 131.658 202.829 131.269 202.558 130.802C202.098 130.011 200.91 127.009 199.667 123.505L199.653 123.463L199.642 123.416C199.618 123.23 199.505 123.132 199.44 123.095C199.354 123.045 199.271 123.032 199.228 123.047C199.19 123.057 199.133 123.101 199.091 123.187C199.059 123.248 199.015 123.376 199.069 123.542L199.083 123.602C199.893 127.546 200.476 130.4 200.682 131.228C200.72 131.394 200.846 131.879 200.807 132.506C200.797 132.77 200.703 133.311 200.525 133.776C200.177 134.682 198.011 139.048 195.379 144.162L195.351 144.211C195.301 144.288 195.277 144.35 195.266 144.4C195.301 144.368 195.346 144.312 195.409 144.222C196.077 143.219 196.677 142.372 197.31 141.481C197.951 140.573 198.683 139.543 199.612 138.167C199.879 137.773 200.432 136.953 201.248 137.015C201.762 137.053 202.229 137.446 202.584 138.148L202.603 138.195L206.287 147.924C206.323 148.052 206.416 148.119 206.465 148.147C206.538 148.184 206.613 148.196 206.677 148.179C206.745 148.157 206.807 148.093 206.841 148.015C206.869 147.957 206.9 147.841 206.839 147.712L206.809 147.635C206.264 145.547 204.495 138.626 204.549 137.298C204.554 137.118 204.577 136.569 204.998 136.213C205.454 135.824 206.075 135.91 206.502 136.011C208.39 136.446 211.796 138.161 212.177 138.352C212.41 138.469 212.507 138.469 212.536 138.467L212.541 138.454Z" fill="#2E5629" fill-opacity="0.8"/>
<path d="M159.855 75.5484C160.136 75.4618 160.453 75.5029 160.74 75.6515C161.083 75.8283 161.328 76.1427 161.427 76.517C163.109 80.215 164.408 82.7564 164.828 83.3524C165.098 83.7395 165.405 84.0613 165.409 84.0657C165.656 84.3215 165.93 84.5535 166.222 84.7612L174.938 89.5464C175.41 89.7589 175.693 90.2222 175.636 90.6894C175.634 90.7313 175.574 91.1774 175.172 91.4216C174.708 91.7047 174.153 91.488 173.976 91.4162C172.569 90.8504 169.803 89.8346 168.328 89.6263C167.87 89.5613 167.69 89.6278 167.628 89.6919C167.522 89.7957 167.535 90.0482 167.535 90.1279C167.576 91.1457 169.478 96.7475 170.607 99.9309C170.776 100.242 170.804 100.608 170.69 100.942C170.577 101.277 170.333 101.546 170.024 101.673C169.733 101.793 169.397 101.784 169.093 101.651C168.781 101.518 168.538 101.267 168.415 100.946L163.95 91.6438C163.686 91.2276 163.458 91.0819 163.323 91.0835C163.03 91.0856 162.693 91.694 162.582 91.8983C161.765 93.3641 161.123 94.4567 160.558 95.4231C159.984 96.4058 159.489 97.254 158.912 98.2953C158.824 98.4546 158.556 98.9364 158.045 99.0073C157.96 99.0199 157.645 99.0418 157.387 98.8274C157.024 98.5322 156.965 97.9459 157.243 97.431C159.68 91.5094 161.219 87.5113 161.442 86.7586C161.589 86.2497 161.58 85.754 161.581 85.7457C161.572 85.2583 161.447 84.8995 161.399 84.767C161.113 83.9384 160.324 81.2631 159.147 77.2841C159.008 76.9539 159.002 76.5759 159.136 76.2468C159.26 75.9425 159.486 75.7062 159.76 75.594C159.795 75.579 159.825 75.5679 159.863 75.5572L159.855 75.5484ZM174.69 90.642L174.699 90.634C174.712 90.6221 174.731 90.5894 174.732 90.5643C174.734 90.5225 174.68 90.4274 174.557 90.3709L174.516 90.352L165.718 85.5208C165.369 85.2766 165.047 85.0003 164.752 84.7001C164.736 84.6825 164.388 84.3251 164.079 83.8773C163.55 83.1247 162.113 80.2364 160.574 76.8562L160.551 76.8131L160.541 76.7664C160.504 76.584 160.378 76.498 160.313 76.4611C160.223 76.4147 160.139 76.4105 160.1 76.4295C160.066 76.4446 160.013 76.4923 159.98 76.5787C159.951 76.6445 159.919 76.7772 159.991 76.9361L160.013 76.9959C161.154 80.8557 161.98 83.6503 162.254 84.4573C162.309 84.6154 162.474 85.0895 162.489 85.7156C162.501 85.9765 162.456 86.5282 162.315 87.008C162.046 87.9388 160.261 92.4787 158.076 97.7959L158.049 97.8449C158.007 97.9226 157.987 97.9887 157.98 98.0429C158.015 98.0111 158.056 97.9502 158.107 97.8562C158.685 96.7982 159.212 95.9054 159.763 94.9594C160.327 94.0013 160.961 92.9083 161.777 91.4593C162.008 91.0427 162.492 90.1814 163.311 90.1679C163.831 90.1605 164.326 90.5126 164.737 91.1796L164.76 91.2227L169.263 100.602C169.312 100.726 169.405 100.786 169.459 100.809C169.537 100.843 169.612 100.846 169.676 100.82C169.741 100.794 169.799 100.726 169.828 100.643C169.848 100.585 169.87 100.469 169.797 100.344L169.759 100.266C169.038 98.2323 166.682 91.4911 166.622 90.1619C166.614 89.9852 166.588 89.4341 166.977 89.0423C167.397 88.6142 168.025 88.6457 168.458 88.7094C170.379 88.9862 173.918 90.3976 174.312 90.5601C174.555 90.6604 174.652 90.6526 174.682 90.6416L174.69 90.642Z" fill="#FFFDF3" fill-opacity="0.9"/>
<path d="M194.173 170.329C194.465 170.289 194.771 170.372 195.034 170.565C195.342 170.791 195.543 171.137 195.582 171.525C196.691 175.437 197.597 178.135 197.92 178.794C198.13 179.211 198.385 179.581 198.389 179.585C198.592 179.872 198.831 180.145 199.087 180.393L206.985 186.429C207.42 186.707 207.63 187.213 207.511 187.665C207.5 187.706 207.378 188.136 206.937 188.32C206.431 188.53 205.921 188.231 205.754 188.135C204.445 187.36 201.864 185.946 200.437 185.518C199.995 185.382 199.808 185.423 199.734 185.482C199.616 185.573 199.583 185.819 199.579 185.903C199.469 186.913 200.507 192.744 201.143 196.054C201.261 196.387 201.234 196.755 201.071 197.07C200.908 197.385 200.628 197.615 200.297 197.69C199.991 197.767 199.658 197.709 199.381 197.535C199.092 197.357 198.889 197.07 198.813 196.739L195.795 186.871C195.599 186.425 195.39 186.238 195.256 186.223C194.965 186.183 194.542 186.733 194.399 186.919C193.375 188.244 192.575 189.232 191.872 190.1C191.156 190.987 190.535 191.749 189.816 192.695C189.708 192.841 189.367 193.277 188.851 193.264C188.763 193.263 188.454 193.24 188.227 192.989C187.913 192.642 187.942 192.056 188.293 191.586C191.586 186.098 193.712 182.377 194.041 181.663C194.263 181.183 194.325 180.687 194.33 180.683C194.387 180.199 194.322 179.826 194.3 179.687C194.142 178.822 193.759 176.067 193.198 171.955C193.11 171.602 193.158 171.231 193.341 170.93C193.507 170.644 193.768 170.447 194.057 170.378C194.091 170.371 194.125 170.365 194.159 170.358L194.173 170.329ZM206.572 187.475C206.572 187.475 206.581 187.467 206.585 187.471C206.598 187.459 206.624 187.435 206.63 187.406C206.64 187.365 206.599 187.258 206.485 187.193L206.445 187.166L198.469 181.071C198.165 180.779 197.883 180.458 197.636 180.114C197.62 180.097 197.334 179.692 197.09 179.201C196.682 178.379 195.69 175.312 194.678 171.735L194.667 171.689L194.665 171.642C194.654 171.453 194.546 171.351 194.481 171.306C194.4 171.243 194.317 171.23 194.27 171.241C194.232 171.251 194.175 171.286 194.125 171.372C194.092 171.433 194.036 171.556 194.082 171.722L194.096 171.782C194.643 175.771 195.044 178.654 195.199 179.497C195.229 179.662 195.317 180.157 195.24 180.779C195.214 181.042 195.086 181.581 194.875 182.028C194.47 182.906 192.03 187.127 189.067 192.062L189.035 192.106C188.981 192.179 188.949 192.24 188.938 192.29C188.973 192.258 189.026 192.211 189.089 192.121C189.821 191.163 190.474 190.357 191.164 189.502C191.866 188.634 192.658 187.654 193.677 186.341C193.968 185.966 194.574 185.186 195.387 185.298C195.899 185.37 196.336 185.79 196.648 186.515L196.666 186.563L199.71 196.511C199.741 196.643 199.821 196.714 199.874 196.746C199.944 196.787 200.023 196.804 200.082 196.79C200.154 196.773 200.216 196.717 200.253 196.635C200.281 196.577 200.32 196.47 200.269 196.333L200.243 196.252C199.837 194.134 198.515 187.113 198.657 185.794C198.678 185.614 198.735 185.067 199.175 184.741C199.655 184.379 200.27 184.51 200.692 184.632C202.548 185.191 205.834 187.119 206.205 187.335C206.429 187.468 206.526 187.477 206.559 187.47L206.572 187.475Z" fill="#2E5629" fill-opacity="0.8"/>
<path d="M173.685 157.218C173.972 157.279 174.235 157.464 174.415 157.733C174.63 158.05 174.694 158.448 174.603 158.826C174.295 162.877 174.219 165.727 174.301 166.453C174.353 166.917 174.465 167.351 174.469 167.356C174.561 167.696 174.691 168.034 174.847 168.357L180.189 176.746C180.5 177.16 180.527 177.703 180.256 178.084C180.234 178.12 179.968 178.481 179.493 178.503C178.946 178.526 178.57 178.075 178.447 177.922C177.486 176.745 175.545 174.528 174.36 173.633C173.988 173.354 173.805 173.328 173.711 173.357C173.566 173.4 173.454 173.621 173.417 173.695C172.964 174.608 171.937 180.437 171.393 183.767C171.392 184.12 171.241 184.456 170.977 184.695C170.713 184.933 170.371 185.051 170.042 185.013C169.729 184.976 169.435 184.811 169.238 184.549C169.029 184.282 168.937 183.942 168.983 183.604L169.542 173.299C169.512 172.807 169.377 172.569 169.263 172.505C169.001 172.366 168.412 172.739 168.221 172.864C166.804 173.754 165.713 174.404 164.753 174.977C163.779 175.562 162.932 176.065 161.93 176.707C161.778 176.805 161.31 177.1 160.828 176.912C160.746 176.883 160.467 176.752 160.336 176.439C160.16 176.006 160.389 175.463 160.883 175.144C165.865 171.125 169.143 168.36 169.696 167.805C170.067 167.429 170.299 166.987 170.304 166.983C170.527 166.549 170.592 166.179 170.615 166.038C170.768 165.172 171.353 162.453 172.241 158.397C172.276 158.037 172.456 157.706 172.732 157.481C172.985 157.275 173.301 157.174 173.593 157.205C173.631 157.211 173.664 157.213 173.697 157.223L173.685 157.218ZM179.434 177.581C179.434 177.581 179.442 177.581 179.446 177.586C179.463 177.587 179.494 177.559 179.511 177.543C179.534 177.506 179.531 177.397 179.453 177.292L179.421 177.257L174.037 168.786C173.846 168.407 173.698 168.005 173.588 167.601C173.585 167.58 173.454 167.099 173.393 166.555C173.296 165.643 173.416 162.417 173.698 158.717L173.701 158.667L173.715 158.622C173.766 158.439 173.702 158.306 173.659 158.241C173.6 158.158 173.531 158.109 173.485 158.111C173.448 158.104 173.375 158.122 173.305 158.185C173.252 158.233 173.155 158.329 173.142 158.5L173.135 158.563C172.279 162.495 171.662 165.347 171.515 166.183C171.485 166.354 171.402 166.845 171.114 167.401C171.001 167.639 170.692 168.102 170.343 168.45C169.659 169.133 165.913 172.257 161.439 175.873L161.399 175.909C161.317 175.951 161.268 176.003 161.241 176.043C161.284 176.029 161.349 175.994 161.44 175.936C162.454 175.29 163.346 174.755 164.284 174.194C165.241 173.625 166.322 172.974 167.731 172.092C168.138 171.835 168.97 171.315 169.694 171.699C170.152 171.941 170.418 172.491 170.458 173.278L170.456 173.328L169.893 183.717C169.873 183.855 169.932 183.946 169.967 183.994C170.018 184.059 170.087 184.1 170.15 184.108C170.221 184.115 170.302 184.082 170.368 184.022C170.412 183.982 170.488 183.89 170.487 183.747L170.491 183.663C170.837 181.536 172.017 174.489 172.602 173.297C172.681 173.138 172.924 172.646 173.452 172.488C174.027 172.32 174.561 172.644 174.913 172.91C176.462 174.074 178.887 177.012 179.156 177.345C179.322 177.546 179.408 177.588 179.437 177.594L179.434 177.581Z" fill="#2E5629" fill-opacity="0.8"/>
</g>
<defs>
<clipPath id="clip0_1247_5154">
<rect width="225.386" height="192.66" fill="white" transform="translate(142.882) rotate(47.8705)"/>
</clipPath>
</defs>
</svg>
