<svg width="533" height="538" viewBox="0 0 533 538" fill="none" xmlns="http://www.w3.org/2000/svg">
<g clip-path="url(#clip0_1286_1318)">
<path d="M170.344 483.257L165.143 477.205C178.41 465.528 214.919 438.531 267.455 438.531C267.721 438.531 267.986 438.531 268.251 438.531C319.885 438.799 355.864 465.153 368.972 476.455L363.771 482.561C351.353 471.795 317.179 446.78 268.198 446.566C267.933 446.566 267.721 446.566 267.455 446.566C217.573 446.566 182.973 472.17 170.344 483.257Z" fill="#2E5629"/>
<path d="M170.662 484.704L163.71 476.615C177.189 464.778 214.495 437.353 267.667 437.62C319.725 437.888 356.023 464.456 369.237 475.919L362.338 484.061C350.026 473.401 316.17 448.601 267.614 448.387C267.349 448.387 267.137 448.387 266.871 448.387C217.466 448.387 183.132 473.776 170.662 484.757V484.704Z" fill="#2E5629"/>
<path d="M243.734 448.333C242.036 448.333 240.338 447.53 239.33 445.977L203.192 392.091C201.546 389.627 202.183 386.306 204.624 384.645C207.065 382.985 210.356 383.628 212.001 386.092L248.086 439.977C249.731 442.441 249.094 445.762 246.653 447.423C245.751 448.066 244.69 448.333 243.681 448.333H243.734Z" fill="#2E5629"/>
<path d="M272.815 447.53C271.117 447.53 269.419 446.726 268.41 445.173L230.892 389.252C229.247 386.788 229.884 383.467 232.325 381.806C234.766 380.146 238.056 380.789 239.701 383.253L277.219 439.174C278.864 441.638 278.228 444.959 275.787 446.619C274.884 447.262 273.823 447.53 272.815 447.53Z" fill="#2E5629"/>
<path d="M266.5 10.7129C407.816 10.7129 522.387 126.358 522.387 269C522.387 411.642 407.816 527.287 266.5 527.287C125.184 527.287 10.6133 411.642 10.6133 269C10.6133 126.358 125.184 10.7129 266.5 10.7129ZM266.5 0C119.559 0 0 120.68 0 269C0 417.32 119.559 538 266.5 538C413.441 538 533 417.32 533 269C533 120.68 413.441 0 266.5 0Z" fill="#2E5629"/>
<path d="M266.5 505.701C136.275 505.701 30.354 398.786 30.354 267.339C30.354 135.893 136.275 28.9783 266.5 28.9783C396.725 28.9783 502.646 135.893 502.646 267.339C502.646 398.786 396.725 505.701 266.5 505.701ZM266.5 34.3347C139.246 34.3347 35.6607 138.839 35.6607 267.339C35.6607 395.84 139.193 500.344 266.5 500.344C393.807 500.344 497.339 395.84 497.339 267.339C497.339 138.839 393.807 34.3347 266.5 34.3347Z" fill="#2E5629"/>
<path d="M380.062 157.961C376.454 153.301 363.24 137.607 341.43 134.607C326.518 132.572 314.95 137.5 308.157 140.499C272.444 156.301 258.328 194.974 254.826 205.473C176.022 292.461 97.1649 379.396 18.3612 466.384C12.5769 479.508 13.9567 494.184 22.0228 503.076C33.3259 515.556 57.3651 516.199 73.1789 499.594C101.941 463.92 130.65 428.3 159.412 392.626C159.412 392.626 425.063 426.533 369.768 224.113C368.706 220.631 366.69 211.954 369.768 201.83C370.511 199.473 373.907 189.028 383.193 182.601C384.202 181.904 384.998 181.422 386.112 180.78C389.084 179.065 394.019 176.655 403.04 174.03C424.479 167.817 429.467 167.228 429.52 165.353C429.627 162.139 415.139 158.657 404.314 157.479C394.178 156.408 385.741 157.158 380.062 158.015V157.961Z" fill="#F5F1D7"/>
<path d="M44.576 517.592C44.576 517.592 44.2045 517.592 44.0453 517.592C33.7504 517.485 24.3046 513.468 18.1488 506.665C8.75607 496.273 6.89874 479.24 13.5851 464.188L13.9566 463.385L250.262 202.687C255.675 186.832 271.382 150.998 306.088 135.625C312.403 132.84 325.51 127.055 342.226 129.304C361.914 131.982 375.286 143.981 382.344 152.283C389.88 151.373 397.468 151.319 404.951 152.123C425.063 154.265 435.145 158.765 434.933 165.514C434.774 170.763 430.953 171.834 419.703 174.941C415.935 175.959 411 177.351 404.632 179.173C397.893 181.155 392.745 183.19 388.871 185.44C387.916 185.975 387.173 186.404 386.324 187.047C378.842 192.296 375.764 200.92 374.968 203.437C372.474 211.686 373.907 218.971 374.968 222.613C389.455 275.696 383.671 317.851 357.774 348.007C333.417 376.343 292.45 393.376 235.987 398.572C200.857 401.786 171.14 399.268 161.853 398.304L77.4241 503.023C68.4559 512.45 56.6221 517.646 44.629 517.646L44.576 517.592ZM22.9248 469.331C18.3611 480.311 19.5286 492.31 26.0027 499.434C30.1949 504.094 36.8283 506.772 44.2045 506.879C53.4381 506.986 62.6716 502.969 69.4111 495.845L157.236 386.895L160.155 387.27C161.481 387.431 295.793 403.714 349.708 340.883C373.111 313.566 378.152 274.785 364.726 225.452C363.028 219.721 361.595 210.561 364.726 200.17C366.053 195.885 370.139 185.118 380.169 178.101C381.283 177.298 382.238 176.762 383.459 176.066C388.076 173.388 394.019 171.031 401.554 168.835C407.498 167.121 412.221 165.782 415.882 164.817C412.38 164.014 408.188 163.264 403.73 162.782C396.142 161.978 388.447 162.139 380.805 163.264L377.781 163.693L375.87 161.229C371.519 155.658 359.366 142.428 340.687 139.856C326.943 137.982 316.064 142.749 310.227 145.374C278.546 159.354 264.431 193.206 259.814 207.133L259.442 208.204L22.9248 469.331Z" fill="#2E5629"/>
<path d="M157.024 373.986C142.112 373.986 127.147 372.379 112.554 369.219C109.688 368.576 107.884 365.737 108.468 362.845C109.105 359.952 111.917 358.131 114.783 358.72C129.217 361.827 144.023 363.38 158.775 363.22C244.637 362.47 311.713 316.083 320.469 273.232C322.273 264.447 323.865 247.628 314.366 233.273C297.332 207.455 257.001 210.615 255.303 210.776C252.331 210.99 249.837 208.847 249.572 205.901C249.306 202.955 251.482 200.384 254.401 200.116C259.336 199.688 303.063 196.849 323.175 227.381C334.797 245.003 332.992 265.09 330.87 275.481C318.93 333.652 232.325 373.397 158.828 374.04C158.191 374.04 157.608 374.04 156.971 374.04L157.024 373.986Z" fill="#2E5629"/>
<path d="M161.216 345.222C151.558 345.222 141.847 344.365 132.401 342.704C130.968 342.437 130.013 341.044 130.225 339.598C130.491 338.152 131.87 337.187 133.303 337.402C144.394 339.33 155.803 340.133 167.107 339.705C219.802 337.777 282.791 309.12 289 271.089C289.637 267.179 291.123 253.627 283.11 243.825C273.664 232.255 253.446 229.255 231.529 236.272C230.15 236.701 228.664 235.951 228.186 234.505C227.762 233.112 228.504 231.612 229.937 231.13C254.295 223.363 276.264 226.898 287.196 240.397C296.589 251.913 294.944 267.447 294.201 271.946C287.514 313.137 223.145 343.026 167.266 345.061C165.249 345.115 163.233 345.168 161.216 345.168V345.222Z" fill="#2E5629"/>
<path d="M341.271 181.155C347.953 181.155 353.37 175.687 353.37 168.942C353.37 162.197 347.953 156.729 341.271 156.729C334.588 156.729 329.171 162.197 329.171 168.942C329.171 175.687 334.588 181.155 341.271 181.155Z" fill="#2E5629"/>
<path d="M33.8034 483.686C33.1666 483.686 32.5829 483.472 32.0522 483.043C30.9378 482.079 30.8317 480.365 31.7869 479.24L110.06 388.93C111.015 387.806 112.713 387.699 113.828 388.663C114.942 389.627 115.048 391.341 114.093 392.466L35.8199 482.775C35.2893 483.364 34.5463 483.686 33.8034 483.686Z" fill="#2E5629"/>
<path d="M50.307 496.059C49.7233 496.059 49.1396 495.845 48.662 495.47C47.4945 494.559 47.3353 492.845 48.2375 491.72L122.69 398.144C123.592 397.019 125.29 396.804 126.404 397.715C127.572 398.626 127.731 400.34 126.829 401.465L52.3766 495.041C51.846 495.684 51.103 496.059 50.307 496.059Z" fill="#2E5629"/>
<path d="M381.442 186.993C380.965 186.993 380.434 186.832 380.009 186.565C371.041 180.672 367.486 176.227 368.547 172.209C369.025 170.335 370.351 169.317 371.572 168.353C372.633 167.549 373.801 166.639 374.968 164.925C375.923 163.532 376.613 161.925 377.091 160.157C377.462 158.711 378.895 157.854 380.328 158.229C381.761 158.604 382.61 160.05 382.238 161.496C381.654 163.853 380.646 166.049 379.373 167.978C377.728 170.388 376.082 171.674 374.862 172.638C374.384 173.013 373.801 173.495 373.694 173.655C373.694 173.655 373.641 176.012 382.928 182.065C384.149 182.869 384.52 184.529 383.724 185.761C383.193 186.565 382.344 186.993 381.495 186.993H381.442Z" fill="#2E5629"/>
</g>
<defs>
<clipPath id="clip0_1286_1318">
<rect width="533" height="538" fill="white"/>
</clipPath>
</defs>
</svg>
