<svg width="151" height="225" viewBox="0 0 151 225" fill="none" xmlns="http://www.w3.org/2000/svg">
<g clip-path="url(#clip0_930_5452)">
<path d="M26.5417 19.4178C26.5417 19.1341 26.6668 18.8504 26.8829 18.6348C27.1444 18.3738 27.4969 18.2263 27.8721 18.2376C31.7381 17.7156 34.4329 17.2163 35.1038 16.9893C35.5359 16.8532 35.9111 16.6489 35.9225 16.6489C36.2295 16.49 36.5138 16.3085 36.7867 16.0928L43.5749 9.40887C43.8933 9.03438 44.405 8.89821 44.8257 9.07977C44.8598 9.09112 45.2577 9.27269 45.3715 9.71526C45.5079 10.2259 45.1554 10.6685 45.0303 10.816C44.1207 11.9508 42.4265 14.2204 41.8238 15.5141C41.6419 15.9226 41.6533 16.0928 41.6988 16.1723C41.767 16.2971 41.9944 16.3538 42.074 16.3765C43.0177 16.6149 48.703 16.4106 51.9437 16.2517C52.2734 16.1836 52.6259 16.2517 52.8988 16.456C53.1717 16.6489 53.3536 16.9553 53.3877 17.273C53.4218 17.5681 53.3195 17.8858 53.1148 18.1241C52.8988 18.3738 52.6031 18.5213 52.2848 18.5554L42.4947 20.0987C42.0399 20.2235 41.8466 20.3937 41.8011 20.5186C41.7215 20.7909 42.1877 21.2675 42.3469 21.4264C43.4726 22.5839 44.3026 23.469 45.0303 24.2521C45.7808 25.0464 46.4175 25.7386 47.2249 26.5557C47.3499 26.6805 47.7138 27.055 47.6342 27.543C47.6228 27.6224 47.5546 27.9175 47.2931 28.099C46.9179 28.3487 46.3721 28.2466 45.9627 27.8494C41.1871 23.9797 37.9351 21.4604 37.2983 21.0519C36.8662 20.7796 36.4114 20.6434 36.4001 20.6434C35.9452 20.5186 35.5814 20.5299 35.4449 20.5413C34.6035 20.5753 31.9314 20.564 27.9403 20.5413C27.5992 20.5753 27.2467 20.4732 26.9852 20.2689C26.735 20.076 26.5872 19.8036 26.5531 19.5086C26.5531 19.4745 26.5531 19.4405 26.5531 19.4065L26.5417 19.4178ZM44.5187 9.94222C44.5187 9.94222 44.5187 9.94222 44.5187 9.93088C44.5187 9.91953 44.4845 9.88548 44.4618 9.87414C44.4277 9.86279 44.314 9.87414 44.2344 9.97627L44.2003 10.0103L37.3324 16.7624C37.0141 17.012 36.6729 17.239 36.3091 17.4206C36.2863 17.4206 35.8656 17.6475 35.3653 17.8177C34.5239 18.0901 31.4766 18.6234 27.9403 19.1001H27.8948H27.8494C27.6674 19.0887 27.5537 19.1795 27.5082 19.2249C27.44 19.293 27.4173 19.3724 27.4173 19.4178C27.4173 19.4519 27.4514 19.5199 27.5196 19.5767C27.5765 19.6221 27.6902 19.6902 27.8494 19.6675H27.9062C31.7722 19.6788 34.5694 19.6902 35.3881 19.6675C35.5473 19.6675 36.0362 19.6448 36.6161 19.8036C36.8549 19.8604 37.3552 20.0646 37.7532 20.3143C38.5377 20.8136 42.2218 23.7074 46.5085 27.1798L46.5426 27.2139C46.5995 27.2706 46.6563 27.316 46.7018 27.3274C46.6791 27.2933 46.6336 27.2366 46.5654 27.1571C45.7581 26.3401 45.0758 25.6025 44.3595 24.8308C43.6318 24.0478 42.8017 23.1627 41.6874 22.0165C41.369 21.6874 40.7095 21.0065 40.9256 20.2576C41.062 19.7809 41.5168 19.4178 42.2559 19.2249H42.3014L52.1711 17.6589C52.2961 17.6589 52.3757 17.5794 52.4212 17.534C52.4667 17.4773 52.5008 17.3979 52.4894 17.3411C52.4894 17.273 52.4326 17.2049 52.3644 17.1596C52.3189 17.1255 52.2166 17.0688 52.0801 17.1028H52.0005C49.9311 17.2163 43.0746 17.5227 41.8352 17.2163C41.6646 17.1709 41.153 17.0461 40.9028 16.5808C40.6299 16.0701 40.8232 15.5141 41.0051 15.1283C41.7897 13.4374 44.0638 10.5777 44.3254 10.26C44.4845 10.0671 44.5073 9.97627 44.5073 9.94222H44.5187Z" fill="#F5F1D7"/>
<path d="M14 39.9237C14 39.64 14.1251 39.3563 14.3411 39.1407C14.6026 38.8797 14.9551 38.7321 15.3304 38.7435C19.1964 38.2215 21.8912 37.7222 22.5621 37.4952C22.9941 37.359 23.3694 37.1548 23.3807 37.1548C23.6877 36.9959 23.972 36.8143 24.2449 36.5987L31.0445 29.9147C31.3629 29.5402 31.8746 29.4041 32.2953 29.5856C32.3294 29.597 32.7274 29.7786 32.8411 30.2211C32.9775 30.7318 32.625 31.1744 32.5 31.3219C31.5903 32.4567 29.8961 34.7263 29.2934 36.02C29.1115 36.4285 29.1229 36.5987 29.1684 36.6781C29.2366 36.803 29.464 36.8597 29.5436 36.8824C30.4874 37.1207 36.1727 36.9164 39.4133 36.7576C39.743 36.6895 40.0955 36.7576 40.3684 36.9618C40.6413 37.1548 40.8232 37.4612 40.8573 37.7789C40.8915 38.0739 40.7891 38.3917 40.5844 38.63C40.3684 38.8797 40.0728 39.0272 39.7544 39.0612L29.9643 40.6045C29.5095 40.7294 29.3162 40.8996 29.2707 41.0244C29.1911 41.2968 29.6573 41.7734 29.8165 41.9323C30.9422 43.0898 31.7722 43.9749 32.5 44.7579C33.2504 45.5523 33.8872 46.2445 34.6945 47.0616C34.8196 47.1864 35.1834 47.5609 35.1038 48.0488C35.0924 48.1283 35.0242 48.4233 34.7627 48.6049C34.3875 48.8545 33.8417 48.7524 33.4323 48.3552C28.6567 44.4856 25.4047 41.9663 24.768 41.5578C24.3359 41.2854 23.881 41.1493 23.8697 41.1493C23.4149 41.0244 23.051 41.0358 22.9145 41.0471C22.0731 41.0812 19.401 41.0698 15.41 41.0471C15.0688 41.0812 14.7163 40.979 14.4548 40.7748C14.2047 40.5819 14.0569 40.3095 14.0227 40.0145C14.0227 39.9804 14.0227 39.9464 14.0227 39.9123L14 39.9237ZM31.9769 30.4481C31.9769 30.4481 31.9769 30.4481 31.9769 30.4367C31.9769 30.4254 31.9428 30.3913 31.9201 30.38C31.8859 30.3686 31.7722 30.38 31.6926 30.4821L31.6585 30.5162L24.7907 37.2682C24.4723 37.5179 24.1312 37.7449 23.7673 37.9264C23.7446 37.9264 23.3239 38.1534 22.8236 38.3236C21.9822 38.596 18.9348 39.1293 15.3986 39.6059H15.3531H15.3076C15.1257 39.5946 15.012 39.6854 14.9665 39.7308C14.8983 39.7988 14.8755 39.8783 14.8755 39.9237C14.8755 39.9577 14.9096 40.0258 14.9779 40.0825C15.0347 40.1279 15.1484 40.196 15.3076 40.1733H15.3645C19.2305 40.1847 22.0276 40.196 22.8463 40.1733C23.0055 40.1733 23.4944 40.1506 24.0743 40.3095C24.3131 40.3662 24.8134 40.5705 25.2114 40.8202C25.996 41.3195 29.68 44.2132 33.9668 47.6857L34.0009 47.7197C34.0577 47.7765 34.1146 47.8219 34.1601 47.8332C34.1373 47.7992 34.0918 47.7424 34.0236 47.663C33.2163 46.8459 32.5341 46.1083 31.8177 45.3367C31.09 44.5537 30.2599 43.6685 29.1456 42.5224C28.8273 42.1933 28.1678 41.5124 28.3838 40.7634C28.5202 40.2868 28.9751 39.9237 29.7142 39.7308H29.7596L39.6293 38.1647C39.7544 38.1647 39.834 38.0853 39.8795 38.0399C39.925 37.9832 39.9591 37.9037 39.9477 37.847C39.9477 37.7789 39.8908 37.7108 39.8226 37.6654C39.7771 37.6314 39.6748 37.5746 39.5384 37.6087H39.4588C37.3893 37.7222 30.5328 38.0286 29.2934 37.7222C29.1229 37.6768 28.6112 37.5519 28.3611 37.0867C28.0882 36.576 28.2815 36.02 28.4634 35.6341C29.248 33.9433 31.5221 31.0836 31.7836 30.7658C31.9428 30.5729 31.9655 30.4821 31.9655 30.4481H31.9769Z" fill="#F5F1D7"/>
<path d="M67.4915 24.4178C67.4915 24.1341 67.6165 23.8504 67.8326 23.6348C68.0941 23.3738 68.4466 23.2263 68.8218 23.2376C72.6878 22.7156 75.3826 22.2163 76.0535 21.9893C76.4856 21.8532 76.8608 21.6489 76.8722 21.6489C77.1792 21.49 77.4635 21.3085 77.7364 21.0928L84.536 14.4089C84.8543 14.0344 85.366 13.8982 85.7867 14.0798C85.8209 14.0911 86.2188 14.2727 86.3325 14.7153C86.469 15.2259 86.1165 15.6685 85.9914 15.816C85.0818 16.9508 83.3875 19.2204 82.7849 20.5141C82.603 20.9226 82.6143 21.0928 82.6598 21.1723C82.7281 21.2971 82.9555 21.3538 83.0351 21.3765C83.9788 21.6149 89.6641 21.4106 92.9047 21.2517C93.2345 21.1836 93.587 21.2517 93.8599 21.456C94.1328 21.6489 94.3147 21.9553 94.3488 22.273C94.3829 22.5681 94.2806 22.8858 94.0759 23.1241C93.8599 23.3738 93.5642 23.5213 93.2458 23.5554L83.4558 25.0987C83.0009 25.2235 82.8076 25.3937 82.7622 25.5186C82.6826 25.7909 83.1488 26.2675 83.308 26.4264C84.4336 27.5839 85.2637 28.469 85.9914 29.2521C86.7419 30.0464 87.3786 30.7386 88.1859 31.5557C88.311 31.6805 88.6749 32.055 88.5953 32.543C88.5839 32.6224 88.5157 32.9175 88.2542 33.099C87.8789 33.3487 87.3331 33.2466 86.9238 32.8494C82.1482 28.9797 78.8962 26.4604 78.2594 26.0519C77.8273 25.7796 77.3725 25.6434 77.3611 25.6434C76.9063 25.5186 76.5424 25.5299 76.406 25.5413C75.5646 25.5753 72.8925 25.564 68.9014 25.5413C68.5603 25.5753 68.2078 25.4732 67.9463 25.2689C67.6961 25.076 67.5483 24.8036 67.5142 24.5086C67.5142 24.4745 67.5142 24.4405 67.5142 24.4065L67.4915 24.4178ZM85.4684 14.9536C85.4684 14.9536 85.4684 14.9536 85.4684 14.9422C85.4684 14.9309 85.4342 14.8968 85.4115 14.8855C85.3774 14.8741 85.2637 14.8855 85.1841 14.9876L85.15 15.0217L78.2821 21.7737C77.9638 22.0234 77.6227 22.2503 77.2588 22.4319C77.2361 22.4319 76.8153 22.6589 76.315 22.8291C75.4736 23.1014 72.4263 23.6348 68.89 24.1114H68.8446H68.7991C68.6171 24.1001 68.5034 24.1908 68.458 24.2362C68.3897 24.3043 68.367 24.3838 68.367 24.4292C68.367 24.4632 68.4011 24.5313 68.4693 24.588C68.5262 24.6334 68.6399 24.7015 68.7991 24.6788H68.8559C72.7219 24.6902 75.5191 24.7015 76.3378 24.6788C76.497 24.6788 76.9859 24.6561 77.5658 24.815C77.8046 24.8717 78.3049 25.076 78.7029 25.3256C79.4874 25.825 83.1715 28.7187 87.4582 32.1912L87.4923 32.2252C87.5492 32.282 87.606 32.3274 87.6515 32.3387C87.6288 32.3047 87.5833 32.2479 87.5151 32.1685C86.7078 31.3514 86.0255 30.6138 85.3092 29.8422C84.5815 29.0591 83.7514 28.174 82.6371 27.0278C82.3187 26.6988 81.6592 26.0179 81.8753 25.2689C82.0117 24.7923 82.4665 24.4292 83.2056 24.2362H83.2511L93.1208 22.6702C93.2458 22.6702 93.3254 22.5908 93.3709 22.5454C93.4164 22.4886 93.4505 22.4092 93.4391 22.3525C93.4391 22.2844 93.3823 22.2163 93.3141 22.1709C93.2686 22.1369 93.1663 22.0801 93.0298 22.1142H92.9502C90.8808 22.2276 84.0243 22.534 82.7849 22.2276C82.6143 22.1823 82.1027 22.0574 81.8525 21.5922C81.5796 21.0815 81.7729 20.5254 81.9548 20.1396C82.7394 18.4488 85.0135 15.5891 85.2751 15.2713C85.4342 15.0784 85.457 14.9876 85.457 14.9536H85.4684Z" fill="#F5F1D7"/>
<path d="M104.31 30.7222C104.446 30.4726 104.685 30.291 104.981 30.1889C105.333 30.0754 105.72 30.1321 106.038 30.3137C109.688 31.6981 112.292 32.5492 112.974 32.6741C113.418 32.7535 113.85 32.7649 113.85 32.7649C114.191 32.7649 114.532 32.7422 114.873 32.6968L124.06 30.0754C124.527 29.9052 125.038 30.03 125.311 30.3818C125.334 30.4158 125.595 30.7563 125.493 31.1988C125.368 31.7095 124.845 31.9251 124.674 32.0045C123.333 32.5719 120.752 33.7408 119.603 34.5919C119.251 34.8529 119.171 35.0231 119.171 35.1139C119.171 35.2614 119.342 35.4203 119.398 35.477C120.115 36.1352 125.197 38.6772 128.12 40.0843C128.438 40.1864 128.711 40.4134 128.859 40.7198C129.007 41.0262 129.018 41.3666 128.893 41.673C128.779 41.9454 128.54 42.1723 128.245 42.2858C127.938 42.3993 127.608 42.3993 127.301 42.2631L117.966 38.9382C117.511 38.836 117.249 38.8928 117.158 38.9836C116.965 39.1878 117.147 39.8233 117.204 40.0389C117.636 41.5823 117.932 42.7624 118.205 43.8065C118.477 44.8618 118.705 45.781 119.023 46.8704C119.069 47.0406 119.217 47.5513 118.91 47.9371C118.853 48.0052 118.659 48.2322 118.341 48.2549C117.898 48.3003 117.454 47.9371 117.295 47.4038C114.953 41.7298 113.315 37.9622 112.951 37.3041C112.713 36.8615 112.36 36.521 112.36 36.521C112.019 36.1919 111.701 36.0331 111.575 35.9763C110.825 35.6019 108.471 34.3195 104.981 32.3904C104.662 32.2542 104.401 32.0045 104.276 31.6868C104.151 31.4031 104.15 31.0853 104.264 30.813C104.276 30.779 104.287 30.7563 104.31 30.7222ZM124.64 31.0059C124.64 31.0059 124.64 31.0059 124.64 30.9946C124.64 30.9832 124.64 30.9378 124.618 30.9265C124.595 30.8924 124.492 30.8697 124.367 30.9151H124.322L115.055 33.5706C114.657 33.6386 114.248 33.6727 113.838 33.6613C113.816 33.6613 113.338 33.65 112.826 33.5592C111.962 33.4003 109.028 32.4017 105.686 31.1307H105.64L105.606 31.0853C105.458 30.9832 105.31 31.0059 105.242 31.0286C105.151 31.0626 105.083 31.108 105.072 31.1534C105.06 31.1875 105.049 31.2556 105.083 31.335C105.106 31.3917 105.174 31.5052 105.333 31.5733L105.39 31.596C108.778 33.4571 111.234 34.8075 111.962 35.1706C112.11 35.2387 112.542 35.4543 112.974 35.8742C113.156 36.0444 113.497 36.453 113.725 36.8728C114.168 37.6899 116.021 41.9794 118.114 47.086V47.1314C118.159 47.2109 118.182 47.2676 118.216 47.313C118.216 47.2676 118.205 47.1995 118.17 47.0974C117.852 45.9853 117.602 45.0207 117.34 43.9994C117.079 42.9667 116.772 41.7865 116.351 40.2545C116.226 39.812 115.976 38.9041 116.533 38.3367C116.886 37.9849 117.454 37.8828 118.193 38.0644H118.239L127.654 41.4347C127.767 41.4915 127.881 41.4688 127.926 41.4347C127.995 41.412 128.051 41.3553 128.086 41.2986C128.108 41.2305 128.108 41.151 128.063 41.0716C128.04 41.0149 127.972 40.9241 127.835 40.89L127.756 40.856C125.891 39.9595 119.728 36.9523 118.784 36.0785C118.659 35.965 118.273 35.6019 118.273 35.0798C118.273 34.5011 118.716 34.1039 119.057 33.8543C120.558 32.7422 123.924 31.3237 124.311 31.1648C124.538 31.0627 124.606 30.9946 124.618 30.9719L124.64 31.0059Z" fill="#F5F1D7"/>
<path d="M116.058 95.3838C116.331 95.4518 116.581 95.6334 116.74 95.9058C116.934 96.2235 116.991 96.598 116.888 96.9611C116.456 100.831 116.297 103.566 116.342 104.258C116.377 104.712 116.479 105.12 116.479 105.132C116.558 105.461 116.672 105.79 116.809 106.096L121.664 114.301C121.948 114.709 121.96 115.231 121.687 115.583C121.664 115.617 121.391 115.958 120.936 115.958C120.413 115.958 120.061 115.515 119.947 115.368C119.06 114.21 117.275 112.02 116.161 111.123C115.819 110.84 115.637 110.817 115.547 110.84C115.41 110.874 115.296 111.089 115.262 111.157C114.796 112.02 113.614 117.569 112.988 120.735C112.977 121.076 112.818 121.393 112.556 121.609C112.295 121.836 111.965 121.927 111.646 121.881C111.351 121.836 111.078 121.666 110.885 121.416C110.691 121.155 110.612 120.826 110.669 120.508L111.544 110.658C111.533 110.193 111.408 109.955 111.305 109.887C111.055 109.75 110.487 110.079 110.293 110.193C108.906 110.999 107.837 111.589 106.893 112.111C105.938 112.644 105.108 113.098 104.119 113.677C103.971 113.768 103.516 114.029 103.05 113.836C102.971 113.802 102.709 113.665 102.595 113.37C102.436 112.95 102.675 112.44 103.164 112.145C108.076 108.457 111.317 105.915 111.862 105.404C112.238 105.052 112.476 104.644 112.476 104.632C112.704 104.224 112.783 103.872 112.806 103.736C112.977 102.907 113.636 100.32 114.614 96.4732C114.66 96.1327 114.842 95.815 115.114 95.6107C115.365 95.4178 115.672 95.3384 115.956 95.3724C115.99 95.3724 116.024 95.3838 116.058 95.3951V95.3838ZM120.902 115.084C120.902 115.084 120.902 115.084 120.913 115.084C120.925 115.084 120.959 115.061 120.982 115.039C121.004 115.004 121.004 114.902 120.936 114.8L120.913 114.766L116.013 106.471C115.842 106.096 115.717 105.71 115.615 105.325C115.615 105.302 115.501 104.837 115.456 104.315C115.387 103.441 115.615 100.354 116.001 96.8136V96.7682L116.024 96.7228C116.081 96.5526 116.024 96.4164 115.979 96.3597C115.922 96.2802 115.865 96.2349 115.819 96.2235C115.785 96.2235 115.717 96.2235 115.649 96.2916C115.592 96.337 115.501 96.4278 115.478 96.5866V96.6434C114.512 100.388 113.83 103.089 113.659 103.895C113.625 104.054 113.523 104.519 113.238 105.052C113.125 105.268 112.818 105.71 112.465 106.028C111.783 106.664 108.087 109.535 103.664 112.848L103.619 112.882C103.539 112.928 103.494 112.973 103.46 113.007C103.505 112.996 103.562 112.962 103.653 112.916C104.653 112.326 105.518 111.85 106.439 111.339C107.371 110.817 108.44 110.238 109.816 109.433C110.214 109.206 111.032 108.729 111.715 109.126C112.147 109.376 112.385 109.909 112.397 110.658V110.704L111.51 120.633C111.487 120.758 111.533 120.86 111.567 120.894C111.612 120.962 111.681 120.996 111.737 121.008C111.806 121.008 111.885 120.985 111.953 120.939C111.999 120.905 112.078 120.815 112.078 120.678V120.599C112.488 118.568 113.852 111.861 114.455 110.738C114.535 110.59 114.785 110.125 115.296 109.989C115.854 109.841 116.354 110.182 116.684 110.443C118.139 111.611 120.368 114.505 120.618 114.834C120.766 115.039 120.857 115.073 120.879 115.084H120.902Z" fill="#2E5629"/>
<path d="M135.911 103.815C136.184 103.759 136.491 103.815 136.753 103.974C137.071 104.167 137.287 104.485 137.355 104.848C138.708 108.502 139.777 111.021 140.141 111.623C140.368 112.009 140.641 112.338 140.653 112.338C140.869 112.599 141.119 112.837 141.38 113.053L149.397 118.239C149.829 118.477 150.079 118.942 149.988 119.385C149.988 119.43 149.897 119.85 149.488 120.054C149.021 120.293 148.51 120.054 148.339 119.964C147.032 119.328 144.45 118.159 143.052 117.853C142.62 117.762 142.449 117.807 142.381 117.876C142.267 117.966 142.267 118.205 142.267 118.284C142.233 119.26 143.666 124.752 144.53 127.873C144.666 128.18 144.666 128.531 144.53 128.849C144.394 129.167 144.143 129.405 143.836 129.496C143.552 129.587 143.222 129.564 142.95 129.416C142.654 129.269 142.449 129.008 142.347 128.702L138.72 119.498C138.504 119.078 138.288 118.931 138.163 118.92C137.878 118.908 137.514 119.464 137.389 119.646C136.502 120.985 135.809 121.995 135.206 122.869C134.581 123.765 134.046 124.548 133.432 125.501C133.341 125.649 133.046 126.091 132.557 126.114C132.477 126.114 132.17 126.114 131.943 125.899C131.613 125.592 131.602 125.025 131.897 124.548C134.638 119.056 136.4 115.345 136.662 114.63C136.844 114.153 136.866 113.677 136.866 113.677C136.889 113.211 136.798 112.86 136.764 112.724C136.548 111.906 135.979 109.296 135.127 105.415C135.013 105.086 135.036 104.723 135.183 104.417C135.32 104.133 135.559 103.917 135.832 103.838C135.866 103.838 135.9 103.815 135.934 103.815H135.911ZM149.067 119.271C149.067 119.271 149.067 119.271 149.078 119.271C149.09 119.271 149.112 119.226 149.112 119.203C149.112 119.158 149.078 119.067 148.965 119.01L148.93 118.988L140.835 113.756C140.516 113.495 140.232 113.211 139.97 112.905C139.959 112.894 139.652 112.519 139.379 112.077C138.924 111.328 137.753 108.457 136.514 105.12V105.075L136.491 105.03C136.468 104.848 136.355 104.757 136.298 104.723C136.218 104.678 136.139 104.666 136.093 104.678C136.059 104.678 136.002 104.735 135.968 104.814C135.934 104.871 135.9 104.996 135.957 105.154V105.211C136.798 108.979 137.389 111.714 137.605 112.508C137.651 112.667 137.765 113.132 137.742 113.733C137.742 113.983 137.651 114.505 137.492 114.959C137.173 115.833 135.138 120.043 132.682 124.979L132.659 125.025C132.614 125.093 132.591 125.161 132.58 125.206C132.614 125.172 132.659 125.127 132.716 125.036C133.341 124.072 133.91 123.243 134.513 122.381C135.115 121.496 135.809 120.508 136.684 119.169C136.934 118.783 137.458 118 138.242 118.046C138.742 118.08 139.186 118.443 139.538 119.112L139.561 119.158L143.222 128.441C143.257 128.565 143.348 128.622 143.393 128.656C143.461 128.69 143.541 128.702 143.598 128.679C143.666 128.656 143.723 128.599 143.757 128.52C143.78 128.463 143.814 128.35 143.757 128.236L143.723 128.157C143.177 126.16 141.392 119.555 141.426 118.273C141.426 118.102 141.449 117.58 141.847 117.229C142.279 116.854 142.881 116.922 143.291 117.013C145.11 117.41 148.407 119.01 148.771 119.192C148.999 119.305 149.09 119.305 149.124 119.294L149.067 119.271Z" fill="#2E5629"/>
<path d="M117.081 132.71C117.354 132.778 117.605 132.96 117.764 133.232C117.957 133.55 118.014 133.924 117.912 134.287C117.479 138.157 117.32 140.892 117.366 141.584C117.4 142.038 117.502 142.447 117.502 142.458C117.582 142.787 117.696 143.116 117.832 143.423L122.687 151.627C122.971 152.036 122.983 152.558 122.71 152.91C122.687 152.944 122.414 153.284 121.959 153.284C121.436 153.284 121.084 152.841 120.97 152.694C120.083 151.536 118.298 149.346 117.184 148.45C116.843 148.166 116.661 148.143 116.57 148.166C116.433 148.2 116.32 148.416 116.286 148.484C115.819 149.346 114.637 154.895 114.011 158.062C114 158.402 113.841 158.72 113.579 158.935C113.318 159.162 112.988 159.253 112.67 159.208C112.374 159.162 112.101 158.992 111.908 158.742C111.715 158.481 111.635 158.152 111.692 157.835L112.567 147.985C112.556 147.519 112.431 147.281 112.329 147.213C112.078 147.077 111.51 147.406 111.317 147.519C109.929 148.325 108.861 148.915 107.917 149.437C106.962 149.97 106.132 150.424 105.142 151.003C104.995 151.094 104.54 151.355 104.074 151.162C103.994 151.128 103.732 150.992 103.619 150.697C103.46 150.277 103.698 149.766 104.187 149.471C109.099 145.783 112.34 143.241 112.886 142.73C113.261 142.379 113.5 141.97 113.5 141.959C113.727 141.55 113.807 141.198 113.83 141.062C114 140.234 114.66 137.646 115.637 133.8C115.683 133.459 115.865 133.141 116.138 132.937C116.388 132.744 116.695 132.665 116.979 132.699C117.013 132.699 117.047 132.71 117.081 132.721V132.71ZM121.925 152.41C121.925 152.41 121.925 152.41 121.937 152.41C121.948 152.41 121.982 152.388 122.005 152.365C122.028 152.331 122.028 152.229 121.959 152.127L121.937 152.093L117.036 143.797C116.865 143.423 116.74 143.037 116.638 142.651C116.638 142.628 116.524 142.163 116.479 141.641C116.411 140.767 116.638 137.681 117.025 134.14V134.095L117.047 134.049C117.104 133.879 117.047 133.743 117.002 133.686C116.945 133.607 116.888 133.561 116.843 133.55C116.809 133.55 116.74 133.55 116.672 133.618C116.615 133.663 116.524 133.754 116.502 133.913V133.97C115.535 137.715 114.853 140.415 114.682 141.221C114.648 141.38 114.546 141.845 114.262 142.379C114.148 142.594 113.841 143.037 113.488 143.355C112.806 143.99 109.111 146.861 104.688 150.175L104.642 150.209C104.562 150.254 104.517 150.3 104.483 150.334C104.528 150.322 104.585 150.288 104.676 150.243C105.677 149.653 106.541 149.176 107.462 148.665C108.394 148.143 109.463 147.565 110.839 146.759C111.237 146.532 112.056 146.055 112.738 146.453C113.17 146.702 113.409 147.236 113.42 147.985V148.03L112.533 157.959C112.511 158.084 112.556 158.186 112.59 158.22C112.636 158.289 112.704 158.323 112.761 158.334C112.829 158.334 112.908 158.311 112.977 158.266C113.022 158.232 113.102 158.141 113.102 158.005V157.925C113.511 155.894 114.876 149.187 115.478 148.064C115.558 147.916 115.808 147.451 116.32 147.315C116.877 147.167 117.377 147.508 117.707 147.769C119.162 148.938 121.391 151.831 121.641 152.161C121.789 152.365 121.88 152.399 121.903 152.41H121.925Z" fill="#2E5629"/>
<path d="M136.912 145.499C137.185 145.443 137.492 145.499 137.753 145.658C138.072 145.851 138.288 146.169 138.356 146.532C139.709 150.186 140.778 152.705 141.142 153.307C141.369 153.693 141.642 154.022 141.653 154.022C141.869 154.283 142.12 154.521 142.381 154.737L150.397 159.923C150.829 160.161 151.08 160.626 150.989 161.069C150.989 161.114 150.898 161.534 150.488 161.738C150.022 161.977 149.51 161.738 149.34 161.648C148.032 161.012 145.451 159.843 144.053 159.537C143.621 159.446 143.45 159.491 143.382 159.559C143.268 159.65 143.268 159.889 143.268 159.968C143.234 160.944 144.667 166.436 145.531 169.557C145.667 169.863 145.667 170.215 145.531 170.533C145.394 170.851 145.144 171.089 144.837 171.18C144.553 171.271 144.223 171.248 143.95 171.1C143.655 170.953 143.45 170.692 143.348 170.385L139.72 161.182C139.504 160.762 139.288 160.615 139.163 160.604C138.879 160.592 138.515 161.148 138.39 161.33C137.503 162.669 136.81 163.679 136.207 164.553C135.582 165.449 135.047 166.232 134.433 167.185C134.342 167.333 134.046 167.775 133.558 167.798C133.478 167.798 133.171 167.798 132.944 167.583C132.614 167.276 132.602 166.709 132.898 166.232C135.638 160.74 137.401 157.029 137.662 156.314C137.844 155.837 137.867 155.361 137.867 155.361C137.89 154.895 137.799 154.544 137.765 154.407C137.549 153.59 136.98 150.98 136.127 147.099C136.014 146.77 136.036 146.407 136.184 146.101C136.321 145.817 136.559 145.601 136.832 145.522C136.866 145.522 136.901 145.499 136.935 145.499H136.912ZM150.068 160.955C150.068 160.955 150.068 160.955 150.079 160.955C150.09 160.955 150.113 160.91 150.113 160.887C150.113 160.842 150.079 160.751 149.965 160.694L149.931 160.672L141.835 155.44C141.517 155.179 141.233 154.895 140.971 154.589C140.96 154.578 140.653 154.203 140.38 153.761C139.925 153.012 138.754 150.141 137.515 146.804V146.759L137.492 146.714C137.469 146.532 137.355 146.441 137.298 146.407C137.219 146.362 137.139 146.35 137.094 146.362C137.06 146.362 137.003 146.418 136.969 146.498C136.935 146.555 136.901 146.679 136.957 146.838V146.895C137.799 150.663 138.39 153.398 138.606 154.192C138.652 154.351 138.765 154.816 138.743 155.417C138.743 155.667 138.652 156.189 138.492 156.643C138.174 157.517 136.139 161.727 133.683 166.663L133.66 166.709C133.614 166.777 133.592 166.845 133.58 166.89C133.614 166.856 133.66 166.811 133.717 166.72C134.342 165.755 134.911 164.927 135.513 164.065C136.116 163.179 136.81 162.192 137.685 160.853C137.935 160.467 138.458 159.684 139.243 159.73C139.743 159.764 140.187 160.127 140.539 160.796L140.562 160.842L144.223 170.124C144.257 170.249 144.348 170.306 144.394 170.34C144.462 170.374 144.542 170.385 144.598 170.363C144.667 170.34 144.723 170.283 144.758 170.204C144.78 170.147 144.814 170.034 144.758 169.92L144.723 169.841C144.178 167.844 142.392 161.239 142.427 159.957C142.427 159.786 142.449 159.264 142.847 158.913C143.279 158.538 143.882 158.606 144.291 158.697C146.111 159.094 149.408 160.694 149.772 160.876C149.999 160.989 150.09 160.989 150.124 160.978L150.068 160.955Z" fill="#2E5629"/>
<path d="M116.9 174.474C117.173 174.542 117.423 174.723 117.582 174.996C117.775 175.313 117.832 175.688 117.73 176.051C117.298 179.921 117.138 182.655 117.184 183.348C117.218 183.802 117.32 184.21 117.32 184.221C117.4 184.551 117.514 184.88 117.65 185.186L122.505 193.391C122.79 193.799 122.801 194.321 122.528 194.673C122.505 194.707 122.232 195.047 121.778 195.047C121.255 195.047 120.902 194.605 120.788 194.457C119.901 193.3 118.116 191.11 117.002 190.213C116.661 189.93 116.479 189.907 116.388 189.93C116.251 189.964 116.138 190.179 116.104 190.247C115.637 191.11 114.455 196.659 113.83 199.825C113.818 200.165 113.659 200.483 113.397 200.699C113.136 200.926 112.806 201.017 112.488 200.971C112.192 200.926 111.919 200.756 111.726 200.506C111.533 200.245 111.453 199.916 111.51 199.598L112.385 189.748C112.374 189.283 112.249 189.044 112.147 188.976C111.897 188.84 111.328 189.169 111.135 189.283C109.748 190.088 108.679 190.678 107.735 191.2C106.78 191.734 105.95 192.188 104.96 192.767C104.813 192.857 104.358 193.118 103.892 192.925C103.812 192.891 103.551 192.755 103.437 192.46C103.278 192.04 103.516 191.53 104.005 191.235C108.917 187.546 112.158 185.004 112.704 184.494C113.079 184.142 113.318 183.733 113.318 183.722C113.545 183.314 113.625 182.962 113.648 182.826C113.818 181.997 114.478 179.41 115.456 175.563C115.501 175.223 115.683 174.905 115.956 174.7C116.206 174.508 116.513 174.428 116.797 174.462C116.831 174.462 116.865 174.474 116.9 174.485V174.474ZM121.743 194.174C121.743 194.174 121.743 194.174 121.755 194.174C121.766 194.174 121.8 194.151 121.823 194.128C121.846 194.094 121.846 193.992 121.778 193.89L121.755 193.856L116.854 185.561C116.684 185.186 116.558 184.8 116.456 184.414C116.456 184.392 116.342 183.926 116.297 183.404C116.229 182.531 116.456 179.444 116.843 175.903V175.858L116.865 175.813C116.922 175.642 116.865 175.506 116.82 175.449C116.763 175.37 116.706 175.325 116.661 175.313C116.627 175.313 116.558 175.313 116.49 175.381C116.433 175.427 116.342 175.518 116.32 175.676V175.733C115.353 179.478 114.671 182.179 114.5 182.985C114.466 183.143 114.364 183.609 114.08 184.142C113.966 184.358 113.659 184.8 113.307 185.118C112.624 185.753 108.929 188.624 104.506 191.938L104.46 191.972C104.381 192.018 104.335 192.063 104.301 192.097C104.346 192.086 104.403 192.052 104.494 192.006C105.495 191.416 106.359 190.939 107.28 190.429C108.212 189.907 109.281 189.328 110.657 188.522C111.055 188.295 111.874 187.819 112.556 188.216C112.988 188.466 113.227 188.999 113.238 189.748V189.793L112.351 199.723C112.329 199.848 112.374 199.95 112.408 199.984C112.454 200.052 112.522 200.086 112.579 200.097C112.647 200.097 112.727 200.075 112.795 200.029C112.84 199.995 112.92 199.904 112.92 199.768V199.689C113.329 197.658 114.694 190.951 115.296 189.827C115.376 189.68 115.626 189.215 116.138 189.078C116.695 188.931 117.195 189.271 117.525 189.532C118.98 190.701 121.209 193.595 121.459 193.924C121.607 194.128 121.698 194.162 121.721 194.174H121.743Z" fill="#2E5629"/>
<path d="M136.73 187.263C137.003 187.206 137.31 187.263 137.571 187.422C137.89 187.615 138.106 187.932 138.174 188.295C139.527 191.949 140.596 194.469 140.96 195.07C141.187 195.456 141.46 195.785 141.471 195.785C141.687 196.046 141.938 196.284 142.199 196.5L150.215 201.686C150.647 201.924 150.898 202.39 150.807 202.832C150.807 202.878 150.716 203.297 150.306 203.502C149.84 203.74 149.328 203.502 149.158 203.411C147.85 202.775 145.269 201.607 143.871 201.3C143.439 201.209 143.268 201.255 143.2 201.323C143.086 201.414 143.086 201.652 143.086 201.731C143.052 202.707 144.485 208.2 145.349 211.32C145.485 211.627 145.485 211.979 145.349 212.296C145.212 212.614 144.962 212.852 144.655 212.943C144.371 213.034 144.041 213.011 143.768 212.864C143.473 212.716 143.268 212.455 143.166 212.149L139.538 202.946C139.322 202.526 139.106 202.378 138.981 202.367C138.697 202.356 138.333 202.912 138.208 203.093C137.321 204.432 136.628 205.442 136.025 206.316C135.4 207.213 134.865 207.996 134.251 208.949C134.16 209.096 133.864 209.539 133.376 209.562C133.296 209.562 132.989 209.562 132.762 209.346C132.432 209.04 132.42 208.472 132.716 207.996C135.456 202.503 137.219 198.792 137.48 198.077C137.662 197.601 137.685 197.124 137.685 197.124C137.708 196.659 137.617 196.307 137.583 196.171C137.367 195.354 136.798 192.744 135.945 188.863C135.832 188.534 135.854 188.171 136.002 187.864C136.139 187.58 136.377 187.365 136.65 187.285C136.684 187.285 136.718 187.263 136.753 187.263H136.73ZM149.886 202.719C149.886 202.719 149.886 202.719 149.897 202.719C149.908 202.719 149.931 202.673 149.931 202.651C149.931 202.605 149.897 202.514 149.783 202.458L149.749 202.435L141.653 197.204C141.335 196.943 141.051 196.659 140.789 196.352C140.778 196.341 140.471 195.967 140.198 195.524C139.743 194.775 138.572 191.904 137.333 188.568V188.522L137.31 188.477C137.287 188.295 137.173 188.205 137.116 188.171C137.037 188.125 136.957 188.114 136.912 188.125C136.878 188.125 136.821 188.182 136.787 188.261C136.753 188.318 136.718 188.443 136.775 188.602V188.659C137.617 192.426 138.208 195.161 138.424 195.955C138.47 196.114 138.583 196.579 138.561 197.181C138.561 197.431 138.47 197.953 138.31 198.406C137.992 199.28 135.957 203.49 133.501 208.427L133.478 208.472C133.432 208.54 133.41 208.608 133.398 208.654C133.432 208.62 133.478 208.574 133.535 208.483C134.16 207.519 134.729 206.691 135.331 205.828C135.934 204.943 136.628 203.956 137.503 202.617C137.753 202.231 138.276 201.448 139.061 201.493C139.561 201.527 140.005 201.89 140.357 202.56L140.38 202.605L144.041 211.888C144.075 212.013 144.166 212.069 144.212 212.104C144.28 212.138 144.36 212.149 144.416 212.126C144.485 212.104 144.541 212.047 144.576 211.967C144.598 211.911 144.632 211.797 144.576 211.684L144.541 211.604C143.996 209.607 142.21 203.002 142.245 201.72C142.245 201.55 142.267 201.028 142.665 200.676C143.097 200.302 143.7 200.37 144.109 200.46C145.929 200.858 149.226 202.458 149.59 202.639C149.817 202.753 149.908 202.753 149.942 202.741L149.886 202.719Z" fill="#2E5629"/>
<path d="M95.7048 50.2533C95.9547 50.111 96.2491 50.0756 96.5545 50.1537C96.9089 50.2452 97.2118 50.4858 97.3808 50.8108C99.7578 53.9016 101.53 55.9905 102.051 56.4538C102.389 56.7567 102.748 56.9862 102.748 56.9862C103.029 57.1733 103.338 57.3316 103.653 57.4542L112.847 60.022C113.331 60.1225 113.705 60.4878 113.749 60.9418C113.758 60.9863 113.795 61.407 113.476 61.7251C113.096 62.0899 112.534 62.0049 112.356 61.9825C110.92 61.759 108.104 61.4166 106.679 61.5381C106.236 61.5801 106.082 61.6802 106.039 61.758C105.959 61.8782 106.027 62.1075 106.043 62.1854C106.3 63.1292 109.299 67.9476 111.046 70.6663C111.271 70.9225 111.373 71.2608 111.345 71.5902C111.309 71.9329 111.137 72.2333 110.874 72.4245C110.63 72.6002 110.307 72.6645 109.993 72.5998C109.667 72.5372 109.389 72.3612 109.206 72.0851L103.012 64.3735C102.68 64.0461 102.43 63.9569 102.308 63.9813C102.031 64.0479 101.847 64.6977 101.785 64.9068C101.339 66.4534 100.978 67.6127 100.66 68.6364C100.335 69.6844 100.049 70.5745 99.7459 71.6761C99.6989 71.8474 99.5554 72.3503 99.0914 72.5236C99.0156 72.5503 98.7322 72.6413 98.4381 72.5032C98.0393 72.3048 97.8527 71.775 97.9984 71.2253C98.9948 65.1609 99.567 61.1017 99.6127 60.3405C99.6401 59.8375 99.5248 59.3745 99.5226 59.3634C99.4096 58.9115 99.2093 58.6042 99.1404 58.4906C98.6976 57.7803 97.3765 55.4514 95.4125 51.9891C95.2055 51.7063 95.1235 51.3524 95.173 51.0186C95.2158 50.7092 95.3812 50.4334 95.6156 50.271C95.6468 50.2533 95.6781 50.2355 95.6982 50.2199L95.7048 50.2533ZM112.859 61.1304C112.859 61.1304 112.859 61.1304 112.87 61.1282C112.881 61.126 112.883 61.0792 112.89 61.0548C112.881 61.0103 112.808 60.9323 112.687 60.91L112.638 60.8966L103.357 58.2998C102.978 58.1437 102.617 57.961 102.272 57.7404C102.259 57.7315 101.847 57.4664 101.466 57.1256C100.815 56.5376 98.8344 54.1548 96.6621 51.3356L96.6309 51.2955L96.6221 51.251C96.5331 51.0951 96.4061 51.0394 96.3325 51.0193C96.2345 50.9926 96.1564 51.0081 96.1274 51.037C96.0961 51.0548 96.0604 51.1082 96.0446 51.2039C96.0356 51.2751 96.0376 51.402 96.1333 51.5333L96.1667 51.5846C98.0751 54.9422 99.4519 57.3758 99.8902 58.0638C99.9747 58.1974 100.231 58.6093 100.381 59.1925C100.452 59.433 100.534 59.9605 100.5 60.4301C100.452 61.3537 99.7607 65.9805 98.8744 71.4329L98.861 71.4818C98.843 71.5664 98.8318 71.6265 98.8429 71.6821C98.8585 71.6443 98.8921 71.5798 98.919 71.4819C99.2305 70.367 99.5284 69.4168 99.8398 68.4177C100.158 67.3941 100.521 66.2459 100.958 64.7126C101.09 64.2698 101.35 63.3619 102.113 63.1754C102.599 63.0556 103.129 63.274 103.666 63.8152L103.697 63.8553L109.941 71.6382C110.01 71.7518 110.119 71.7764 110.168 71.7897C110.241 71.8098 110.319 71.7943 110.369 71.7498C110.42 71.7165 110.462 71.6386 110.469 71.5562C110.48 71.4962 110.469 71.3826 110.38 71.2847L110.334 71.2245C109.221 69.4789 105.555 63.6941 105.206 62.4675C105.162 62.3028 105.016 61.7997 105.297 61.3502C105.594 60.863 106.188 60.7566 106.609 60.719C108.467 60.5578 112.078 61.1121 112.484 61.1702C112.736 61.2127 112.823 61.1838 112.843 61.1683L112.859 61.1304Z" fill="#F5F1D7"/>
<path d="M133.988 56.0545C134.261 55.9637 134.556 55.9864 134.84 56.1226C135.17 56.2814 135.42 56.5765 135.523 56.9283C137.251 60.4235 138.581 62.8179 139.002 63.3739C139.275 63.7371 139.582 64.0321 139.582 64.0321C139.821 64.2704 140.094 64.486 140.378 64.6676L148.894 68.9798C149.349 69.1728 149.645 69.604 149.599 70.0579C149.599 70.1033 149.554 70.5232 149.179 70.7728C148.735 71.0565 148.201 70.8636 148.03 70.8069C146.666 70.3076 143.971 69.4224 142.55 69.2635C142.106 69.2182 141.936 69.2862 141.879 69.3543C141.776 69.4565 141.799 69.6948 141.799 69.7742C141.867 70.7501 143.869 76.061 145.051 79.0682C145.222 79.3633 145.256 79.7151 145.165 80.0328C145.063 80.3619 144.835 80.6229 144.54 80.7591C144.267 80.8839 143.937 80.8839 143.641 80.7591C143.334 80.6343 143.095 80.4073 142.97 80.1009L138.399 71.3289C138.138 70.9431 137.91 70.8069 137.785 70.8069C137.501 70.8182 137.194 71.4197 137.092 71.6126C136.353 73.0424 135.773 74.1091 135.261 75.051C134.738 76.0156 134.283 76.8327 133.772 77.854C133.692 78.0129 133.453 78.4781 132.964 78.5576C132.885 78.5689 132.589 78.603 132.328 78.41C131.975 78.1377 131.895 77.5816 132.146 77.071C134.306 71.3175 135.659 67.4479 135.852 66.7102C135.977 66.2223 135.955 65.7457 135.955 65.7343C135.932 65.269 135.796 64.9286 135.75 64.8038C135.454 64.0208 134.613 61.4788 133.362 57.6999C133.214 57.3822 133.203 57.0191 133.317 56.7013C133.419 56.4063 133.635 56.1679 133.897 56.0545C133.931 56.0431 133.965 56.0318 133.988 56.0204V56.0545ZM148.69 70.0579C148.69 70.0579 148.69 70.0579 148.701 70.0579C148.713 70.0579 148.724 70.0125 148.735 69.9898C148.735 69.9444 148.678 69.8536 148.565 69.8083L148.519 69.7856L139.923 65.4279C139.582 65.201 139.264 64.9513 138.968 64.6676C138.957 64.6563 138.604 64.3158 138.297 63.9073C137.774 63.2037 136.296 60.4802 134.715 57.2914L134.693 57.246V57.2006C134.636 57.0304 134.522 56.951 134.454 56.9169C134.363 56.8715 134.283 56.8715 134.249 56.8942C134.215 56.9056 134.17 56.951 134.135 57.0417C134.113 57.1098 134.09 57.2347 134.158 57.3822L134.181 57.4389C135.398 61.1043 136.273 63.7598 136.569 64.5201C136.626 64.6676 136.796 65.1215 136.83 65.723C136.853 65.9726 136.83 66.506 136.705 66.9599C136.478 67.8564 134.897 72.2594 132.964 77.4341L132.942 77.4795C132.907 77.5589 132.885 77.6157 132.885 77.6724C132.907 77.6384 132.953 77.5816 132.998 77.4909C133.521 76.4582 133.999 75.5844 134.499 74.6652C135.011 73.7233 135.591 72.6679 136.319 71.2494C136.535 70.8409 136.967 70.0012 137.751 69.9671C138.252 69.9444 138.729 70.2622 139.15 70.8977L139.173 70.9431L143.778 79.7945C143.823 79.9193 143.926 79.9647 143.971 79.9874C144.039 80.0215 144.119 80.0215 144.176 79.9874C144.233 79.9647 144.289 79.8966 144.312 79.8172C144.335 79.7605 144.346 79.647 144.278 79.5335L144.244 79.4654C143.493 77.5362 141.026 71.1473 140.924 69.8763C140.912 69.7061 140.867 69.1841 141.231 68.7983C141.617 68.3784 142.22 68.3898 142.641 68.4351C144.494 68.6394 147.928 69.8877 148.315 70.0239C148.553 70.1146 148.644 70.1033 148.667 70.092L148.69 70.0579Z" fill="#F5F1D7"/>
<path d="M56.0527 40.2256C56.155 39.9646 56.3711 39.7489 56.6667 39.6241C57.0078 39.4766 57.3944 39.4766 57.7242 39.6241C61.5106 40.5773 64.194 41.122 64.8876 41.1674C65.3425 41.1901 65.7632 41.1674 65.7745 41.1674C66.1157 41.1334 66.4568 41.0653 66.7865 40.9745L75.5987 37.3091C76.0422 37.0822 76.5652 37.1502 76.8722 37.468C76.9064 37.502 77.202 37.8084 77.1451 38.251C77.0769 38.773 76.588 39.0567 76.4174 39.1475C75.1439 39.8624 72.722 41.3263 71.6872 42.3022C71.3575 42.6086 71.312 42.7789 71.3234 42.8696C71.3348 43.0172 71.5281 43.1533 71.5963 43.1987C72.3808 43.7775 77.7364 45.7066 80.7951 46.7734C81.1248 46.8301 81.4205 47.0344 81.6024 47.3181C81.7843 47.6018 81.8412 47.9422 81.7502 48.2599C81.6593 48.555 81.4546 48.7933 81.1817 48.9408C80.8861 49.0884 80.5563 49.1224 80.2493 49.0316L70.5957 46.8074C70.1295 46.7507 69.8793 46.8414 69.7997 46.9436C69.6292 47.1705 69.8793 47.7833 69.9703 47.9876C70.5843 49.4742 71.0164 50.609 71.403 51.6076C71.7896 52.6289 72.1307 53.5027 72.5742 54.5581C72.6424 54.717 72.847 55.2049 72.5855 55.6361C72.54 55.7042 72.3695 55.9539 72.0511 56.022C71.6077 56.1128 71.1415 55.8064 70.914 55.2957C67.9349 49.9281 65.8541 46.3762 65.4221 45.7634C65.1264 45.3435 64.7512 45.0598 64.7398 45.0485C64.3646 44.7648 64.0235 44.6399 63.8984 44.5945C63.1025 44.3108 60.6237 43.3009 56.9396 41.8029C56.6098 41.7121 56.3256 41.4852 56.155 41.1901C55.9958 40.9178 55.9617 40.6 56.0413 40.3277C56.0413 40.2936 56.0641 40.2596 56.0754 40.2369L56.0527 40.2256ZM76.2696 38.1489C76.2696 38.1489 76.2696 38.1489 76.2696 38.1375C76.2696 38.1262 76.2582 38.0921 76.2355 38.0694C76.2014 38.0354 76.099 38.024 75.9853 38.0808L75.9399 38.1035L67.0367 41.8029C66.6501 41.9164 66.2407 41.9958 65.8428 42.0299C65.82 42.0299 65.3425 42.0753 64.8194 42.0412C63.9439 41.9845 60.9079 41.3377 57.4513 40.4639H57.4058L57.3603 40.4298C57.2011 40.3504 57.0647 40.3844 56.9964 40.4298C56.9055 40.4639 56.8486 40.532 56.8373 40.5773C56.8373 40.6114 56.8373 40.6795 56.8714 40.7589C56.9055 40.8157 56.9851 40.9178 57.1443 40.9632L57.2011 40.9859C60.7828 42.4384 63.3753 43.4938 64.1485 43.7775C64.3077 43.8342 64.7512 43.9931 65.2401 44.3562C65.4448 44.5038 65.8314 44.8669 66.1043 45.2641C66.6387 46.0244 68.981 50.0756 71.6531 54.8985L71.6759 54.9439C71.71 55.0234 71.7441 55.0801 71.7782 55.1141C71.7782 55.0687 71.7555 55.0007 71.71 54.9099C71.2665 53.8432 70.914 52.9126 70.5274 51.9367C70.1408 50.9381 69.7088 49.8146 69.1061 48.3394C68.9356 47.9195 68.5717 47.0457 69.0606 46.4216C69.3676 46.0244 69.9248 45.8655 70.6753 45.9563H70.7207L80.454 48.2032C80.5791 48.2486 80.6814 48.2032 80.7269 48.1805C80.7951 48.1465 80.8519 48.0897 80.8633 48.0216C80.8861 47.9535 80.8633 47.8741 80.8178 47.806C80.7837 47.7606 80.7155 47.6698 80.5791 47.6472L80.4995 47.6245C78.5437 46.9436 72.0625 44.674 71.0391 43.925C70.9027 43.8229 70.4706 43.5165 70.4137 42.9945C70.3455 42.4271 70.7435 41.9732 71.0505 41.6895C72.4036 40.4185 75.5874 38.6141 75.9512 38.4099C76.1673 38.285 76.2241 38.217 76.2355 38.1829L76.2696 38.1489Z" fill="#F5F1D7"/>
</g>
<defs>
<clipPath id="clip0_930_5452">
<rect width="151" height="225" fill="white"/>
</clipPath>
</defs>
</svg>
