<svg width="116" height="190" viewBox="0 0 116 190" fill="none" xmlns="http://www.w3.org/2000/svg">
<path d="M0.550735 29.3601C0.661089 29.0844 0.882164 28.8605 1.17838 28.7284C1.53049 28.5698 1.92926 28.5688 2.28656 28.7253C6.22911 29.6994 9.03027 30.2512 9.75433 30.2917C10.2232 30.3152 10.666 30.2744 10.6743 30.2749C11.0285 30.2422 11.3804 30.1717 11.7212 30.0713L20.8763 26.1948C21.3331 25.9575 21.8756 26.0183 22.2074 26.3497C22.2352 26.3804 22.5506 26.7027 22.4936 27.1699C22.4245 27.712 21.9145 28.0054 21.746 28.1019C20.4282 28.8543 17.9164 30.3987 16.8368 31.4232C16.5018 31.7422 16.4423 31.9239 16.4545 32.0168C16.472 32.1688 16.6746 32.3133 16.7395 32.3585C17.5659 32.9539 23.1408 34.9375 26.3306 36.025C26.6758 36.0884 26.9847 36.2886 27.1754 36.5877C27.3704 36.8829 27.4238 37.2424 27.332 37.5651C27.2455 37.8672 27.0311 38.125 26.742 38.2826C26.4402 38.4438 26.0943 38.4768 25.7676 38.3807L15.6988 36.1215C15.2105 36.0676 14.9499 36.1594 14.869 36.2645C14.6894 36.4989 14.9594 37.142 15.0454 37.352C15.6855 38.8992 16.1467 40.0807 16.556 41.1253C16.9728 42.1871 17.3298 43.1032 17.7912 44.1966C17.8625 44.3638 18.0762 44.874 17.8107 45.3139C17.7651 45.3872 17.5925 45.6472 17.2614 45.7229C16.8029 45.8258 16.3109 45.5116 16.0738 44.9666C12.9371 39.3868 10.7592 35.6975 10.3002 35.0575C9.99027 34.6265 9.59823 34.3256 9.59425 34.3212C9.2018 34.0287 8.84722 33.9018 8.71095 33.8572C7.88184 33.568 5.29805 32.5319 1.44705 30.9873C1.10356 30.8904 0.800283 30.6611 0.622817 30.35C0.460838 30.0649 0.414195 29.7394 0.495874 29.4497C0.505926 29.4166 0.515991 29.3836 0.530439 29.3465L0.550735 29.3601ZM21.5835 27.0739C21.5835 27.0739 21.5923 27.0659 21.5883 27.0615C21.5891 27.0448 21.5701 27.006 21.5542 26.9884C21.5263 26.9577 21.4139 26.9395 21.2973 27.005L21.2586 27.024L12.0137 30.9338C11.6091 31.052 11.1894 31.1359 10.7718 31.1779C10.7506 31.181 10.2528 31.2316 9.709 31.196C8.79236 31.1458 5.63579 30.4839 2.0248 29.5935L1.97937 29.5787L1.93834 29.5598C1.77026 29.48 1.6298 29.5191 1.55674 29.5533C1.46651 29.5949 1.40894 29.655 1.39407 29.7004C1.38402 29.7335 1.38863 29.8093 1.43509 29.8871C1.46962 29.9518 1.55666 30.0569 1.72245 30.0988L1.78023 30.1185C5.5161 31.6153 8.22338 32.6995 9.02779 32.9791C9.18875 33.0334 9.65889 33.1996 10.1604 33.5773C10.371 33.7306 10.7759 34.1077 11.062 34.5123C11.6227 35.3001 14.0809 39.5113 16.9015 44.5297L16.9241 44.5812C16.9578 44.6626 17.0011 44.7193 17.0369 44.7589C17.0266 44.7122 17.0049 44.644 16.9637 44.5454C16.4947 43.4348 16.1191 42.4717 15.7213 41.4486C15.316 40.4084 14.8544 39.2353 14.2178 37.7008C14.0343 37.2593 13.6562 36.3464 14.1587 35.7001C14.4731 35.2877 15.0565 35.1197 15.8411 35.2094L15.8869 35.2159L26.0386 37.4961C26.1665 37.5403 26.2735 37.4995 26.321 37.4725C26.3901 37.434 26.4476 37.3739 26.4634 37.3117C26.4835 37.2456 26.4669 37.1566 26.4161 37.0827C26.3851 37.0308 26.3056 36.9429 26.1641 36.919L26.0812 36.898C24.0384 36.2038 17.2848 33.8716 16.2073 33.0957C16.0616 32.9876 15.6158 32.6715 15.551 32.1226C15.4759 31.5271 15.8898 31.0568 16.2072 30.7537C17.613 29.4182 20.9148 27.5188 21.2866 27.3024C21.5115 27.171 21.5699 27.0942 21.5799 27.0611L21.5835 27.0739Z" fill="#FFFDF3" fill-opacity="0.9"/>
<path d="M21.4129 12.1323C21.5272 11.861 21.7483 11.637 22.0445 11.505C22.3962 11.3547 22.795 11.3538 23.1523 11.5102C27.0888 12.5218 29.8847 13.0943 30.6083 13.1431C31.0768 13.175 31.5195 13.1343 31.5279 13.1347C31.8821 13.1021 32.2336 13.04 32.5744 12.9395L41.7631 9.14447C42.2239 8.91155 42.766 8.98069 43.0934 9.31608C43.1212 9.34685 43.4322 9.67302 43.3752 10.1402C43.3061 10.6824 42.7877 10.9754 42.6236 11.0679C41.2978 11.8114 38.7706 13.33 37.6874 14.3417C37.3485 14.6563 37.289 14.838 37.3011 14.9309C37.3187 15.0829 37.5213 15.2274 37.5818 15.2766C38.3993 15.88 43.9594 17.9089 47.1436 19.0255C47.4887 19.0889 47.7973 19.2975 47.9879 19.5967C48.1786 19.8958 48.2319 20.2552 48.1402 20.578C48.0537 20.88 47.8309 21.1375 47.5422 21.2867C47.2403 21.4478 46.895 21.4725 46.5682 21.3764L36.5208 19.0259C36.0325 18.972 35.7762 19.0599 35.6914 19.1606C35.5118 19.395 35.7734 20.0377 35.8594 20.2476C36.4907 21.8028 36.9391 22.9879 37.34 24.0321C37.7441 25.0974 38.0927 26.013 38.5493 27.1188C38.6207 27.286 38.8259 27.7958 38.556 28.2397C38.5104 28.313 38.3339 28.5685 38.0027 28.6443C37.5487 28.7432 37.0526 28.4246 36.8239 27.8801C33.7348 22.2732 31.5872 18.5644 31.137 17.9165C30.8315 17.4815 30.4355 17.1762 30.4355 17.1762C30.0474 16.8798 29.6928 16.7529 29.561 16.7043C28.7367 16.4027 26.1581 15.3459 22.3212 13.7727C21.9737 13.6713 21.6788 13.4425 21.5013 13.1314C21.3394 12.8463 21.2971 12.5168 21.3828 12.2315C21.3928 12.1984 21.4029 12.1653 21.4173 12.1283L21.4129 12.1323ZM42.4659 10.0275C42.4659 10.0275 42.4747 10.0195 42.4707 10.0151C42.4716 9.99839 42.4565 9.96406 42.4366 9.94208C42.4088 9.9113 42.2964 9.89309 42.1798 9.9586L42.1411 9.97763L32.8625 13.806C32.4578 13.9242 32.0341 14.0037 31.6165 14.0457C31.5954 14.0488 31.098 14.091 30.5542 14.0554C29.638 13.9968 26.4871 13.3058 22.8901 12.3868L22.8447 12.3719L22.8037 12.3531C22.6356 12.2733 22.4911 12.308 22.4225 12.3382C22.3323 12.3798 22.2747 12.4399 22.2598 12.4853C22.2498 12.5184 22.2543 12.5941 22.3008 12.672C22.3353 12.7367 22.418 12.8458 22.5838 12.8877L22.6415 12.9074C26.3674 14.4372 29.0611 15.5418 29.8606 15.8337C30.0216 15.888 30.4913 16.0626 30.9884 16.4443C31.199 16.5976 31.5996 16.9786 31.8853 17.3916C32.4415 18.1834 34.8606 22.422 37.6341 27.459L37.6567 27.5105C37.6904 27.5919 37.7293 27.6527 37.7695 27.6882C37.7592 27.6416 37.7458 27.5737 37.7006 27.4707C37.2401 26.3606 36.8733 25.3895 36.4799 24.3625C36.0829 23.3227 35.6385 22.142 35.0107 20.5996C34.8316 20.1541 34.4618 19.2416 34.9683 18.5997C35.2867 18.1917 35.8701 18.0237 36.6543 18.1218L36.7041 18.1327L46.8344 20.5041C46.9623 20.5483 47.0693 20.5075 47.1168 20.4805C47.1859 20.442 47.2434 20.3819 47.2591 20.3198C47.2792 20.2536 47.2627 20.1647 47.2119 20.0908C47.1809 20.0388 47.1014 19.9509 46.9599 19.927L46.877 19.9061C44.8395 19.1912 38.1095 16.8056 37.0368 16.0173C36.8911 15.9093 36.4497 15.5891 36.3849 15.0403C36.3182 14.4451 36.7321 13.9748 37.0535 13.6762C38.4712 12.3538 41.7885 10.4804 42.1643 10.2684C42.3931 10.1414 42.4475 10.0601 42.4615 10.0315L42.4659 10.0275Z" fill="#FFFDF3" fill-opacity="0.9"/>
<path d="M54.6376 34.8442C54.752 34.5729 54.973 34.3489 55.2693 34.2169C55.621 34.0667 56.0197 34.0657 56.377 34.2221C60.3135 35.2337 63.1094 35.8062 63.8331 35.855C64.3015 35.8869 64.7443 35.8462 64.7526 35.8466C65.1068 35.814 65.4583 35.7519 65.7991 35.6514L74.9878 31.8564C75.4486 31.6234 75.9908 31.6926 76.3181 32.028C76.346 32.0588 76.657 32.3849 76.6 32.8521C76.5308 33.3943 76.0125 33.6873 75.8483 33.7798C74.5226 34.5233 71.9953 36.0419 70.9121 37.0536C70.5732 37.3682 70.5137 37.5499 70.5258 37.6428C70.5434 37.7948 70.746 37.9392 70.8065 37.9884C71.6241 38.5918 77.1841 40.6208 80.3683 41.7374C80.7135 41.8009 81.022 42.0094 81.2126 42.3085C81.4033 42.6077 81.4566 42.9671 81.3649 43.2899C81.2784 43.5919 81.0556 43.8494 80.767 43.9986C80.4651 44.1598 80.1197 44.1844 79.7929 44.0883L69.7455 41.7378C69.2572 41.6839 69.001 41.7718 68.9162 41.8725C68.7365 42.1069 68.9981 42.7496 69.0841 42.9595C69.7154 44.5147 70.1638 45.6998 70.5648 46.744C70.9688 47.8093 71.3174 48.725 71.774 49.8307C71.8454 49.9979 72.0507 50.5077 71.7808 50.9516C71.7351 51.0249 71.5586 51.2804 71.2275 51.3562C70.7734 51.4551 70.2774 51.1365 70.0487 50.592C66.9596 44.9851 64.8119 41.2764 64.3618 40.6284C64.0562 40.1934 63.6602 39.8882 63.6602 39.8882C63.2722 39.5917 62.9176 39.4648 62.7857 39.4162C61.9614 39.1147 59.3829 38.0578 55.5459 36.4846C55.1984 36.3832 54.9035 36.1544 54.726 35.8433C54.5641 35.5582 54.5218 35.2287 54.6075 34.9434C54.6175 34.9103 54.6276 34.8772 54.642 34.8402L54.6376 34.8442ZM75.6946 32.7438C75.6946 32.7438 75.7034 32.7359 75.6994 32.7315C75.7003 32.7147 75.6852 32.6804 75.6653 32.6584C75.6375 32.6276 75.5251 32.6094 75.4085 32.6749L75.3698 32.6939L66.0912 36.5223C65.6865 36.6405 65.2629 36.72 64.8452 36.762C64.8241 36.7651 64.3267 36.8074 63.7829 36.7717C62.8667 36.7132 59.7158 36.0221 56.1188 35.1031L56.0734 35.0882L56.0324 35.0694C55.8643 34.9896 55.7198 35.0243 55.6512 35.0545C55.5609 35.0961 55.5034 35.1562 55.4885 35.2016C55.4784 35.2347 55.483 35.3105 55.5295 35.3883C55.564 35.453 55.6467 35.5621 55.8125 35.604L55.8703 35.6237C59.5961 37.1535 62.2898 38.2581 63.0894 38.55C63.2503 38.6043 63.72 38.7789 64.2171 39.1606C64.4277 39.3139 64.8283 39.6949 65.114 40.1079C65.6702 40.8997 68.0893 45.1383 70.8628 50.1753L70.8854 50.2268C70.9191 50.3082 70.958 50.3689 70.9982 50.4045C70.9879 50.3579 70.9745 50.29 70.9293 50.187C70.4688 49.0769 70.102 48.1058 69.7086 47.0788C69.3116 46.039 68.8672 44.8583 68.2394 43.3159C68.0603 42.8704 67.6905 41.9579 68.197 41.316C68.5154 40.908 69.0988 40.74 69.883 40.8381L69.9328 40.849L80.0631 43.2204C80.191 43.2646 80.2979 43.2238 80.3455 43.1968C80.4145 43.1583 80.4721 43.0982 80.4878 43.0361C80.5079 42.9699 80.4914 42.881 80.4406 42.8071C80.4096 42.7551 80.33 42.6672 80.1885 42.6433L80.1057 42.6224C78.0682 41.9075 71.3382 39.5218 70.2655 38.7336C70.1198 38.6255 69.6784 38.3054 69.6136 37.7565C69.5469 37.1614 69.9608 36.6911 70.2822 36.3925C71.6999 35.0701 75.0172 33.1967 75.3929 32.9847C75.6218 32.8577 75.6762 32.7765 75.6902 32.7478L75.6946 32.7438Z" fill="#FFFDF3" fill-opacity="0.9"/>
<path d="M32.4391 41.8913C32.6386 41.6789 32.9348 41.5469 33.2547 41.5293C33.6375 41.5107 34.008 41.6552 34.288 41.9295C37.6123 44.2702 40.0202 45.8012 40.6805 46.1071C41.1071 46.3048 41.5375 46.4271 41.5419 46.4231C41.8854 46.5201 42.2389 46.584 42.5902 46.61L52.5262 46.3275C53.0411 46.2694 53.5234 46.5286 53.7117 46.9578C53.7308 46.9965 53.9032 47.4081 53.6808 47.825C53.4216 48.3073 52.838 48.3955 52.6477 48.4238C51.1466 48.6465 48.2454 49.1683 46.8699 49.7331C46.4371 49.9087 46.3207 50.0539 46.2994 50.1452C46.2627 50.2903 46.395 50.4983 46.4419 50.5678C46.9948 51.4266 51.468 55.2939 54.0493 57.4673C54.3507 57.6503 54.5621 57.9547 54.633 58.2982C54.7079 58.6461 54.6273 58.9988 54.4248 59.2699C54.236 59.5206 53.9381 59.6862 53.613 59.7244C53.2751 59.7663 52.94 59.6697 52.6733 59.4633L44.1152 53.6955C43.6775 53.4679 43.4052 53.4585 43.2925 53.5284C43.0413 53.6836 43.0611 54.3771 43.0621 54.608C43.0998 56.2845 43.095 57.5518 43.0978 58.6684C43.0953 59.8056 43.1004 60.7922 43.1289 61.9814C43.1325 62.1621 43.1466 62.7168 42.7363 63.032C42.6664 63.0872 42.4099 63.2632 42.0767 63.2129C41.6143 63.1436 41.2645 62.6686 41.2437 62.0799C40.3445 55.7393 39.6585 51.5078 39.4658 50.7469C39.3363 50.2326 39.0722 49.808 39.0766 49.804C38.8204 49.3883 38.5347 49.1431 38.4261 49.0495C37.7624 48.4748 35.7255 46.5764 32.6992 43.7343C32.4079 43.5182 32.2141 43.1979 32.1647 42.8429C32.1137 42.5214 32.1887 42.1978 32.3727 41.9594C32.3951 41.9311 32.4175 41.9028 32.4439 41.879L32.4391 41.8913ZM52.8668 47.4023L52.8756 47.3943C52.8888 47.3824 52.8785 47.3357 52.871 47.3185C52.852 47.2798 52.754 47.2245 52.6232 47.2389L52.5769 47.2408L42.5444 47.5226C42.1222 47.4889 41.7021 47.4133 41.2964 47.3006C41.2757 47.2953 40.7955 47.1621 40.2992 46.9316C39.4664 46.5499 36.7636 44.7901 33.7232 42.6482L33.6826 42.621L33.6508 42.5858C33.5235 42.4452 33.3728 42.4376 33.297 42.4422C33.1961 42.4455 33.1226 42.488 33.0915 42.5242C33.069 42.5525 33.0446 42.6226 33.0611 42.7116C33.0701 42.7834 33.1096 42.9155 33.2517 43.0107L33.3003 43.0468C36.2387 45.8005 38.3674 47.7917 39.0113 48.3444C39.1442 48.456 39.5182 48.7811 39.8482 49.3139C39.9885 49.5308 40.2276 50.0338 40.3504 50.5142C40.5885 51.4579 41.346 56.2722 42.1476 61.9658L42.1491 62.0204C42.1488 62.1085 42.1706 62.1768 42.1892 62.2239C42.1957 62.178 42.2035 62.1071 42.2005 61.9978C42.1685 60.7958 42.1659 59.759 42.1623 58.6592C42.1635 57.5471 42.1639 56.2838 42.1254 54.624C42.1158 54.1451 42.094 53.1577 42.7993 52.7356C43.245 52.4683 43.851 52.5197 44.5419 52.8859L44.5825 52.9131L53.2056 58.7261C53.3146 58.8113 53.4195 58.8124 53.4785 58.8069C53.5587 58.7984 53.6278 58.7598 53.6682 58.7073C53.713 58.6508 53.7256 58.5675 53.709 58.4785C53.6952 58.4191 53.6548 58.3037 53.5282 58.2344L53.4594 58.1848C51.8084 56.7926 46.3657 52.1715 45.6451 51.0567C45.5478 50.905 45.2518 50.4452 45.3836 49.9104C45.5302 49.3302 46.0904 49.0393 46.4932 48.8748C48.2887 48.138 52.0569 47.5673 52.4797 47.5046C52.7378 47.4629 52.8201 47.4125 52.8381 47.3882L52.8668 47.4023Z" fill="#FFFDF3" fill-opacity="0.9"/>
<path d="M81.9613 61.2392C82.2027 61.0759 82.5207 61.0123 82.8366 61.0657C83.2141 61.1318 83.5437 61.3544 83.7565 61.6835C86.4837 64.6988 88.4955 66.7224 89.0723 67.1662C89.4449 67.4529 89.8377 67.667 89.8429 67.6641C90.1566 67.8343 90.4874 67.9744 90.8243 68.0772L100.579 69.9894C101.094 70.0461 101.507 70.4051 101.596 70.8652C101.606 70.9072 101.684 71.3466 101.375 71.7044C101.016 72.1177 100.427 72.0753 100.236 72.0609C98.7223 71.9477 95.7775 71.8179 94.3113 72.066C93.8506 72.1419 93.705 72.258 93.6641 72.3423C93.5964 72.4758 93.6796 72.7079 93.71 72.786C94.0603 73.7454 97.5722 78.5027 99.6116 81.1912C99.8653 81.436 100.005 81.7795 99.9981 82.1302C99.9945 82.4861 99.8382 82.8123 99.581 83.0322C99.3416 83.2352 99.0146 83.3311 98.689 83.2968C98.3502 83.2632 98.0446 83.0952 97.8299 82.8352L90.7518 75.3246C90.375 75.0062 90.1114 74.937 89.9861 74.9804C89.7069 75.0766 89.5735 75.7574 89.5236 75.9828C89.1912 77.6265 88.9075 78.8616 88.6644 79.9514C88.4116 81.0602 88.1993 82.0237 87.9653 83.19C87.929 83.367 87.8206 83.9112 87.351 84.1283C87.2706 84.1668 86.9817 84.282 86.6677 84.1596C86.2319 83.9901 85.9954 83.4498 86.1046 82.871C86.6236 76.488 86.8861 72.2093 86.8657 71.4246C86.8527 70.8944 86.6885 70.4221 86.6937 70.4192C86.5353 69.9572 86.3106 69.6552 86.2253 69.54C85.7044 68.8333 84.1355 66.5329 81.8093 63.0942C81.5726 62.8193 81.4541 62.4642 81.4842 62.107C81.5052 61.7821 81.6496 61.483 81.8816 61.291C81.9097 61.2683 81.9377 61.2457 81.9687 61.2282L81.9613 61.2392ZM100.669 71.1157L100.679 71.1098C100.695 71.1011 100.695 71.0533 100.692 71.0349C100.682 70.9929 100.598 70.9174 100.467 70.9027L100.422 70.8944L90.5736 68.9603C90.1691 68.8344 89.776 68.6681 89.4051 68.4689C89.386 68.4592 88.947 68.2235 88.5136 67.8894C87.7853 67.3336 85.5363 65.0219 83.0421 62.2632L83.0085 62.2277L82.9852 62.1864C82.892 62.0211 82.7467 61.9806 82.6718 61.9684C82.5726 61.9494 82.4916 61.9747 82.4532 62.0031C82.4251 62.0258 82.3858 62.0888 82.3823 62.1792C82.3752 62.2512 82.3847 62.3888 82.5024 62.513L82.5418 62.5588C84.8018 65.8919 86.4399 68.303 86.9462 68.9839C87.0513 69.122 87.3445 69.5215 87.5491 70.1139C87.6382 70.3563 87.7607 70.8997 87.7747 71.3954C87.7992 72.3683 87.4781 77.2312 87.0063 82.9616L86.9957 83.0152C86.9761 83.1011 86.9823 83.1725 86.9901 83.2225C87.0065 83.1792 87.0297 83.1117 87.0509 83.0045C87.2843 81.8249 87.5101 80.813 87.7487 79.7394C87.9948 78.6548 88.2733 77.4226 88.6012 75.7951C88.6973 75.3258 88.8934 74.3578 89.6744 74.1014C90.168 73.9388 90.7478 74.1223 91.3411 74.6317L91.3747 74.6672L98.5062 82.2362C98.5939 82.3433 98.6959 82.3674 98.7547 82.3751C98.8348 82.3844 98.9107 82.3621 98.9616 82.3197C99.0178 82.2745 99.0484 82.196 99.0519 82.1055C99.0515 82.0445 99.0375 81.9231 98.9292 81.8276L98.873 81.7641C97.5691 80.0425 93.2774 74.3364 92.82 73.0904C92.7585 72.9209 92.571 72.4072 92.8173 71.9146C93.0881 71.3809 93.6986 71.2205 94.1277 71.1487C96.0414 70.8253 99.8427 71.0983 100.269 71.1302C100.53 71.1465 100.621 71.1154 100.644 71.0957L100.669 71.1157Z" fill="#FFFDF3" fill-opacity="0.9"/>
<path d="M69.077 105.25C69.3655 105.189 69.6772 105.251 69.9495 105.428C70.2708 105.633 70.4932 105.967 70.562 106.353C71.923 110.182 72.9994 112.821 73.3662 113.456C73.6021 113.859 73.8823 114.213 73.8863 114.217C74.1117 114.493 74.3635 114.745 74.6373 114.976L82.9146 120.487C83.3638 120.736 83.6122 121.223 83.5177 121.684C83.5072 121.725 83.4096 122.165 82.992 122.375C82.5013 122.619 81.9732 122.353 81.8011 122.269C80.4462 121.584 77.7764 120.338 76.3286 120.001C75.8762 119.899 75.6974 119.949 75.6231 120.008C75.5132 120.107 75.4966 120.354 75.4968 120.434C75.4544 121.447 76.8659 127.197 77.7179 130.463C77.857 130.785 77.8553 131.154 77.7129 131.482C77.5705 131.811 77.3023 132.054 76.9827 132.151C76.6842 132.245 76.3461 132.207 76.0602 132.05C75.7619 131.888 75.5405 131.617 75.4436 131.289L71.7893 121.637C71.5635 121.202 71.3454 121.031 71.2114 121.025C70.9188 121.002 70.5329 121.583 70.4016 121.773C69.463 123.166 68.7315 124.195 68.0856 125.107C67.4305 126.035 66.8614 126.838 66.1989 127.829C66.0949 127.979 65.7907 128.438 65.2734 128.458C65.1893 128.462 64.8746 128.459 64.6304 128.224C64.2943 127.897 64.2858 127.313 64.6044 126.817C67.5381 121.126 69.4184 117.275 69.6986 116.542C69.8912 116.048 69.9204 115.55 69.9248 115.546C69.9575 115.061 69.8627 114.691 69.8276 114.555C69.6144 113.701 69.0542 110.978 68.2258 106.907C68.117 106.566 68.1443 106.19 68.303 105.87C68.4477 105.58 68.6979 105.361 68.9837 105.271C69.0176 105.264 69.0519 105.249 69.0858 105.242L69.077 105.25ZM82.559 121.552L82.5678 121.544C82.581 121.532 82.6034 121.504 82.609 121.474C82.6195 121.433 82.5699 121.334 82.4556 121.27L82.419 121.247L74.0649 115.678C73.7386 115.406 73.439 115.101 73.1743 114.773C73.1584 114.755 72.8464 114.366 72.576 113.899C72.1162 113.108 70.9278 110.107 69.6849 106.603L69.6703 106.56L69.66 106.513C69.6358 106.327 69.5231 106.229 69.4578 106.193C69.3722 106.142 69.2889 106.13 69.2462 106.144C69.2079 106.155 69.1512 106.198 69.1091 106.284C69.0766 106.346 69.0325 106.473 69.0871 106.64L69.1009 106.699C69.9104 110.643 70.4934 113.497 70.6995 114.326C70.7373 114.491 70.8641 114.976 70.8243 115.604C70.8152 115.868 70.721 116.409 70.5423 116.874C70.1947 117.78 68.0284 122.145 65.3964 127.26L65.3688 127.309C65.3188 127.386 65.2947 127.448 65.2838 127.497C65.319 127.466 65.3638 127.409 65.427 127.32C66.0943 126.317 66.6949 125.47 67.3272 124.578C67.9687 123.67 68.7003 122.641 69.6297 121.264C69.8971 120.871 70.4502 120.051 71.2655 120.112C71.7798 120.151 72.247 120.544 72.6021 121.246L72.6208 121.293L76.3048 131.021C76.3404 131.149 76.4335 131.217 76.4825 131.244C76.5562 131.282 76.6311 131.294 76.695 131.276C76.7632 131.254 76.8252 131.19 76.8585 131.112C76.8865 131.055 76.9175 130.939 76.8569 130.81L76.8271 130.733C76.2813 128.645 74.513 121.723 74.567 120.396C74.5719 120.215 74.5952 119.667 75.016 119.31C75.4719 118.922 76.093 119.007 76.5202 119.108C78.4081 119.543 81.814 121.258 82.1948 121.45C82.4281 121.566 82.5247 121.567 82.5542 121.564L82.559 121.552Z" fill="#2E5629" fill-opacity="0.8"/>
<path d="M97.7128 110.47C98.0012 110.409 98.3129 110.471 98.5852 110.648C98.9065 110.853 99.129 111.187 99.1978 111.573C100.559 115.402 101.635 118.041 102.002 118.676C102.238 119.078 102.518 119.432 102.522 119.437C102.747 119.713 102.999 119.964 103.273 120.196L111.55 125.707C111.999 125.956 112.248 126.443 112.153 126.904C112.143 126.945 112.045 127.385 111.628 127.595C111.137 127.839 110.609 127.573 110.437 127.489C109.082 126.804 106.412 125.558 104.964 125.221C104.512 125.119 104.333 125.168 104.259 125.228C104.149 125.327 104.132 125.574 104.133 125.654C104.09 126.667 105.502 132.417 106.354 135.683C106.493 136.004 106.491 136.374 106.349 136.702C106.206 137.031 105.938 137.273 105.618 137.371C105.32 137.465 104.982 137.427 104.696 137.27C104.398 137.108 104.176 136.837 104.079 136.509L100.425 126.857C100.199 126.422 99.9811 126.251 99.8472 126.245C99.5545 126.222 99.1686 126.802 99.0374 126.993C98.0987 128.386 97.3672 129.415 96.7213 130.327C96.0662 131.255 95.4971 132.058 94.8347 133.049C94.7306 133.199 94.4264 133.658 93.9091 133.678C93.825 133.682 93.5104 133.679 93.2661 133.444C92.93 133.117 92.9215 132.533 93.2402 132.037C96.1738 126.346 98.0542 122.495 98.3343 121.762C98.527 121.268 98.5562 120.77 98.5606 120.766C98.5933 120.281 98.4985 119.911 98.4634 119.775C98.2502 118.92 97.69 116.198 96.8616 112.127C96.7528 111.786 96.7801 111.41 96.9388 111.09C97.0835 110.799 97.3336 110.581 97.6194 110.491C97.6533 110.484 97.6876 110.469 97.7216 110.462L97.7128 110.47ZM111.199 126.776L111.207 126.768C111.221 126.756 111.243 126.728 111.249 126.699C111.259 126.657 111.21 126.558 111.095 126.494L111.059 126.471L102.705 120.902C102.378 120.63 102.079 120.325 101.814 119.997C101.798 119.98 101.486 119.591 101.216 119.124C100.756 118.333 99.5676 115.331 98.3246 111.827L98.31 111.784L98.2997 111.738C98.2755 111.552 98.1629 111.454 98.0976 111.417C98.012 111.366 97.9287 111.354 97.886 111.368C97.8476 111.379 97.7909 111.422 97.7488 111.509C97.7164 111.57 97.6722 111.698 97.7268 111.864L97.7406 111.924C98.5501 115.867 99.1331 118.721 99.3392 119.55C99.3771 119.716 99.5039 120.2 99.464 120.828C99.455 121.092 99.3607 121.633 99.1821 122.098C98.8345 123.004 96.6681 127.37 94.0362 132.484L94.0085 132.533C93.9585 132.61 93.9344 132.672 93.9235 132.722C93.9587 132.69 94.0035 132.633 94.0667 132.544C94.734 131.541 95.3347 130.694 95.967 129.802C96.6085 128.894 97.34 127.865 98.2694 126.489C98.5368 126.095 99.0899 125.275 99.9053 125.337C100.42 125.375 100.887 125.768 101.242 126.47L101.261 126.517L104.945 136.246C104.98 136.373 105.073 136.441 105.122 136.469C105.196 136.506 105.271 136.518 105.335 136.5C105.403 136.479 105.465 136.415 105.498 136.336C105.526 136.279 105.557 136.163 105.497 136.034L105.467 135.957C104.921 133.869 103.153 126.948 103.207 125.62C103.212 125.44 103.235 124.891 103.656 124.534C104.112 124.146 104.733 124.232 105.16 124.333C107.048 124.767 110.454 126.483 110.834 126.674C111.068 126.79 111.164 126.791 111.194 126.788L111.199 126.776Z" fill="#2E5629" fill-opacity="0.8"/>
<path d="M58.5125 63.8701C58.7938 63.7835 59.1108 63.8246 59.3971 63.9732C59.7408 64.15 59.9852 64.4644 60.084 64.8387C61.7662 68.5367 63.0658 71.0781 63.485 71.6742C63.7552 72.0612 64.0622 72.383 64.0662 72.3874C64.3136 72.6432 64.5874 72.8752 64.8791 73.0829L73.5957 77.8681C74.0677 78.0807 74.3509 78.5439 74.2939 79.0111C74.2918 79.053 74.2316 79.4991 73.8291 79.7433C73.3658 80.0265 72.8101 79.8097 72.6332 79.7379C71.2262 79.1721 68.4609 78.1563 66.9856 77.948C66.5271 77.883 66.3475 77.9496 66.2856 78.0136C66.1796 78.1174 66.1921 78.3699 66.1923 78.4496C66.2336 79.4674 68.1352 85.0693 69.2641 88.2527C69.4332 88.5633 69.461 88.9299 69.3477 89.2641C69.2344 89.5984 68.9901 89.8674 68.6815 89.9946C68.3901 90.1143 68.0548 90.1059 67.7508 89.9731C67.4385 89.84 67.1951 89.5885 67.0727 89.2676L62.6076 79.9655C62.3431 79.5493 62.1153 79.4036 61.9809 79.4052C61.6871 79.4073 61.3502 80.0158 61.2392 80.2201C60.4228 81.6859 59.7804 82.7785 59.2157 83.7448C58.6418 84.7276 58.1461 85.5757 57.5692 86.617C57.4815 86.7763 57.2139 87.2581 56.7025 87.329C56.6179 87.3416 56.302 87.3635 56.0442 87.1491C55.6812 86.8539 55.6225 86.2676 55.9001 85.7527C58.3375 79.8311 59.8769 75.833 60.0993 75.0803C60.2465 74.5714 60.2378 74.0757 60.2382 74.0674C60.2291 73.5801 60.1044 73.2212 60.0564 73.0887C59.7706 72.2602 58.9814 69.5848 57.8043 65.6058C57.6656 65.2756 57.6593 64.8976 57.7933 64.5686C57.9177 64.2642 58.1436 64.0279 58.4179 63.9158C58.4522 63.9007 58.4821 63.8896 58.5204 63.8789L58.5125 63.8701ZM73.3477 78.9637L73.3565 78.9557C73.3697 78.9438 73.3881 78.9112 73.3894 78.886C73.3915 78.8442 73.3375 78.7491 73.2144 78.6926L73.1734 78.6738L64.3752 73.8425C64.0265 73.5984 63.7046 73.322 63.409 73.0218C63.3931 73.0042 63.0459 72.6468 62.7368 72.199C62.2079 71.4464 60.7705 68.5581 59.2318 65.1779L59.2087 65.1348L59.1985 65.0881C59.1615 64.9058 59.0357 64.8197 58.9704 64.7829C58.8804 64.7364 58.7966 64.7322 58.7579 64.7512C58.7236 64.7663 58.6708 64.814 58.6371 64.9005C58.6086 64.9662 58.5768 65.0989 58.6486 65.2578L58.6707 65.3177C59.8119 69.1774 60.6371 71.972 60.9114 72.779C60.9664 72.9371 61.1315 73.4112 61.1463 74.0373C61.1584 74.2982 61.1139 74.8499 60.9724 75.3297C60.7032 76.2605 58.9185 80.8004 56.7338 86.1177L56.7062 86.1666C56.6645 86.2443 56.6444 86.3104 56.6375 86.3647C56.6727 86.3328 56.7135 86.2719 56.7644 86.1779C57.3421 85.1199 57.8695 84.2272 58.4206 83.2811C58.9849 82.3231 59.6189 81.2301 60.4344 79.781C60.6651 79.3645 61.149 78.5031 61.9681 78.4897C62.4889 78.4822 62.9833 78.8344 63.3947 79.5013L63.4178 79.5444L67.921 88.924C67.9693 89.0481 68.0629 89.1074 68.1162 89.131C68.1943 89.1643 68.2697 89.1681 68.3339 89.142C68.3982 89.1158 68.4562 89.0474 68.4855 88.9649C68.5052 88.9071 68.5278 88.7908 68.4544 88.6654L68.4163 88.5879C67.6956 86.554 65.3391 79.8129 65.2799 78.4836C65.272 78.307 65.245 77.7558 65.634 77.364C66.0542 76.936 66.6822 76.9675 67.1155 77.0312C69.0364 77.3079 72.5751 78.7193 72.9699 78.8818C73.2125 78.9821 73.3094 78.9744 73.3393 78.9633L73.3477 78.9637Z" fill="#FFFDF3" fill-opacity="0.9"/>
<path d="M92.8305 158.651C93.1221 158.611 93.4285 158.694 93.6916 158.887C93.9993 159.112 94.2002 159.458 94.2395 159.846C95.3486 163.759 96.2542 166.457 96.578 167.115C96.7879 167.533 97.0421 167.903 97.0461 167.907C97.2499 168.194 97.4881 168.466 97.7443 168.714L105.643 174.751C106.078 175.029 106.287 175.535 106.168 175.986C106.158 176.028 106.036 176.458 105.594 176.642C105.088 176.851 104.579 176.553 104.411 176.456C103.103 175.681 100.521 174.268 99.0948 173.839C98.6525 173.704 98.4658 173.745 98.3915 173.804C98.2736 173.895 98.2403 174.141 98.2361 174.224C98.1267 175.235 99.1647 181.066 99.8004 184.376C99.918 184.709 99.8912 185.077 99.7285 185.392C99.5658 185.707 99.2857 185.936 98.9545 186.012C98.6485 186.089 98.3156 186.031 98.0389 185.857C97.7499 185.679 97.546 185.392 97.4703 185.061L94.4521 175.193C94.2563 174.747 94.0474 174.56 93.9138 174.545C93.622 174.505 93.2 175.055 93.0563 175.241C92.033 176.566 91.2321 177.554 90.5297 178.421C89.8137 179.309 89.1921 180.071 88.4731 181.017C88.3651 181.162 88.0242 181.599 87.5087 181.585C87.4205 181.585 87.1112 181.561 86.8845 181.311C86.5703 180.963 86.5997 180.377 86.9506 179.908C90.2435 174.42 92.3691 170.699 92.6987 169.985C92.92 169.505 92.9827 169.009 92.9871 169.005C93.0449 168.521 92.9797 168.148 92.9573 168.008C92.7991 167.144 92.4169 164.389 91.855 160.277C91.7678 159.924 91.8158 159.553 91.9988 159.251C92.1642 158.966 92.4258 158.769 92.7147 158.7C92.7486 158.693 92.7826 158.686 92.8165 158.68L92.8305 158.651ZM105.229 175.796C105.229 175.796 105.238 175.788 105.242 175.793C105.255 175.781 105.282 175.757 105.287 175.728C105.298 175.687 105.257 175.58 105.143 175.515L105.102 175.488L97.1269 169.393C96.8226 169.1 96.5407 168.78 96.2935 168.436C96.2776 168.418 95.9915 168.014 95.7475 167.523C95.3396 166.701 94.3476 163.633 93.335 160.057L93.3247 160.01L93.3229 159.964C93.3114 159.775 93.2032 159.673 93.1383 159.628C93.0575 159.565 92.9742 159.552 92.9275 159.562C92.8892 159.573 92.8329 159.608 92.7824 159.694C92.75 159.755 92.6934 159.878 92.7397 160.044L92.7535 160.103C93.3005 164.093 93.7016 166.975 93.8566 167.818C93.8861 167.984 93.9746 168.479 93.8972 169.101C93.8715 169.364 93.7437 169.903 93.5324 170.35C93.1274 171.228 90.6871 175.449 87.7242 180.383L87.6926 180.428C87.6386 180.501 87.6061 180.562 87.5953 180.612C87.6304 180.58 87.6832 180.532 87.7464 180.443C88.4786 179.485 89.1318 178.679 89.821 177.823C90.5234 176.956 91.3155 175.976 92.334 174.663C92.6257 174.287 93.2314 173.508 94.0442 173.62C94.5568 173.692 94.9932 174.112 95.3052 174.837L95.3238 174.884L98.3673 184.833C98.3985 184.964 98.4788 185.036 98.5318 185.068C98.6011 185.109 98.68 185.125 98.7394 185.112C98.8117 185.094 98.8732 185.039 98.9109 184.957C98.939 184.899 98.9779 184.792 98.926 184.655L98.9007 184.574C98.4949 182.455 97.1723 175.434 97.314 174.115C97.3356 173.936 97.3924 173.389 97.8327 173.063C98.3125 172.701 98.9271 172.832 99.3491 172.954C101.206 173.513 104.492 175.44 104.863 175.656C105.087 175.789 105.183 175.798 105.217 175.792L105.229 175.796Z" fill="#2E5629" fill-opacity="0.8"/>
<path d="M72.3425 145.54C72.629 145.6 72.8926 145.786 73.0721 146.055C73.2871 146.372 73.3511 146.77 73.2608 147.147C72.9527 151.199 72.8769 154.049 72.9581 154.775C73.0103 155.239 73.1229 155.673 73.1269 155.677C73.2189 156.018 73.3489 156.356 73.5048 156.678L78.8467 165.068C79.1575 165.482 79.1848 166.025 78.9139 166.406C78.8911 166.442 78.6254 166.802 78.15 166.825C77.6032 166.848 77.2272 166.397 77.1047 166.244C76.1439 165.066 74.2026 162.849 73.0178 161.955C72.6456 161.676 72.4623 161.65 72.3685 161.679C72.2236 161.722 72.1118 161.943 72.0745 162.017C71.6216 162.93 70.5949 168.758 70.0502 172.089C70.0493 172.441 69.8981 172.778 69.6343 173.017C69.3705 173.255 69.0289 173.372 68.6992 173.335C68.3863 173.298 68.0924 173.132 67.8957 172.871C67.6866 172.604 67.5945 172.264 67.6408 171.926L68.1995 161.621C68.1696 161.128 68.0347 160.891 67.9204 160.826C67.6587 160.687 67.0692 161.061 66.8783 161.185C65.4612 162.075 64.3709 162.726 63.4105 163.299C62.4368 163.884 61.589 164.387 60.5873 165.029C60.4355 165.126 59.9674 165.422 59.4857 165.234C59.4033 165.205 59.1245 165.073 58.9933 164.76C58.8177 164.328 59.0463 163.785 59.5408 163.466C64.5228 159.447 67.8008 156.682 68.3533 156.126C68.7247 155.75 68.9567 155.309 68.9611 155.305C69.1843 154.871 69.249 154.501 69.2729 154.359C69.4254 153.494 70.0109 150.774 70.8984 146.718C70.9332 146.359 71.1134 146.028 71.3892 145.803C71.6429 145.597 71.9586 145.495 72.2508 145.527C72.2883 145.533 72.3218 145.535 72.3548 145.545L72.3425 145.54ZM78.0913 165.903C78.0913 165.903 78.0997 165.903 78.1037 165.907C78.1204 165.908 78.1512 165.88 78.1688 165.865C78.1916 165.828 78.1887 165.719 78.11 165.614L78.0782 165.579L72.6942 157.108C72.5033 156.729 72.3556 156.327 72.2458 155.923C72.2426 155.902 72.1115 155.421 72.0506 154.876C71.9536 153.965 72.0734 150.739 72.3555 147.039L72.358 146.989L72.3729 146.943C72.424 146.761 72.3593 146.628 72.3164 146.563C72.2576 146.48 72.1887 146.43 72.1425 146.432C72.105 146.426 72.0328 146.444 71.9624 146.507C71.9097 146.555 71.8125 146.651 71.7997 146.822L71.7924 146.885C70.9363 150.816 70.319 153.669 70.1722 154.505C70.1426 154.676 70.0592 155.167 69.7711 155.723C69.6585 155.961 69.3499 156.424 69.0009 156.772C68.3161 157.455 64.5709 160.579 60.0961 164.195L60.0565 164.23C59.9746 164.272 59.9259 164.324 59.8987 164.365C59.9414 164.35 60.006 164.316 60.0971 164.258C61.1116 163.612 62.003 163.077 62.9419 162.516C63.898 161.947 64.9799 161.296 66.3882 160.414C66.7955 160.157 67.6275 159.636 68.3511 160.021C68.8091 160.262 69.0752 160.813 69.1155 161.6L69.113 161.65L68.5501 172.039C68.5306 172.176 68.5891 172.267 68.6244 172.315C68.6757 172.381 68.745 172.422 68.8076 172.429C68.8785 172.437 68.96 172.404 69.0259 172.344C69.0699 172.304 69.1459 172.211 69.1446 172.069L69.1488 171.985C69.4947 169.858 70.6749 162.811 71.2593 161.619C71.3386 161.459 71.5815 160.968 72.1099 160.81C72.6849 160.641 73.2184 160.966 73.5703 161.231C75.1194 162.396 77.5448 165.334 77.8136 165.666C77.9797 165.868 78.0658 165.91 78.0949 165.915L78.0913 165.903Z" fill="#2E5629" fill-opacity="0.8"/>
</svg>
