<svg width="482" height="436" viewBox="0 0 482 436" fill="none" xmlns="http://www.w3.org/2000/svg">
<g clip-path="url(#clip0_579_19444)">
<path d="M266.863 360.56C264.938 360.56 263.013 359.659 261.871 357.917L219.469 295.271C217.604 292.508 218.326 288.784 221.093 286.922C223.859 285.06 227.588 285.781 229.453 288.544L271.855 351.19C273.719 353.953 272.997 357.677 270.231 359.539C269.208 360.26 268.005 360.56 266.863 360.56Z" fill="#2E5629"/>
<path d="M298.378 357.497C296.453 357.497 294.528 356.596 293.385 354.854L250.863 292.148C248.999 289.385 249.72 285.661 252.487 283.799C255.254 281.937 258.983 282.658 260.847 285.421L303.37 348.127C305.234 350.89 304.512 354.614 301.746 356.476C300.723 357.197 299.52 357.497 298.378 357.497Z" fill="#2E5629"/>
<path d="M182.66 400.983L174.781 391.914C190.118 378.64 232.28 347.707 293.086 347.707H293.146C352.81 347.707 394.61 377.679 409.767 390.532L402.008 399.722C387.814 387.709 348.84 359.78 293.146 359.72H293.086C236.369 359.72 196.975 388.55 182.66 400.983Z" fill="#2E5629"/>
<path d="M419.931 32.7363C415.842 27.5107 400.865 9.91217 376.146 6.54863C359.245 4.26622 346.134 9.79205 338.435 13.1556C297.958 30.8743 281.959 74.24 277.99 86.0125C188.675 183.495 99.2997 281.038 9.98476 378.581C3.42898 393.297 4.99274 409.754 14.1347 419.725C26.9456 433.719 54.1911 434.44 72.1143 415.82C104.713 375.818 137.251 335.876 169.849 295.874C169.849 295.874 470.934 333.894 408.263 106.915C407.06 103.01 404.775 93.2801 408.263 81.9282C409.105 79.2854 412.955 67.573 423.48 60.3654C424.623 59.5846 425.525 59.044 426.788 58.3232C430.156 56.4012 435.749 53.6984 445.974 50.7553C470.273 43.7879 475.926 43.1272 475.986 41.025C476.107 37.4212 459.687 33.5171 447.418 32.1957C435.93 30.9944 426.367 31.8353 419.931 32.7963V32.7363Z" fill="#FFFDF3"/>
<path d="M39.6358 436C39.6358 436 39.2148 436 39.0343 436C27.3662 435.88 16.6605 431.376 9.68369 423.748C-0.961932 412.095 -3.067 392.995 4.51124 376.117L4.93225 375.216L272.697 82.8879C278.831 65.1091 296.634 24.9267 335.969 7.68856C343.126 4.56526 357.982 -1.92158 376.927 0.60108C399.241 3.60425 414.398 17.0584 422.397 26.3683C430.938 25.3472 439.538 25.2871 448.019 26.1881C470.813 28.5906 482.241 33.6359 482 41.2039C481.82 47.0901 477.49 48.2914 464.679 51.7751C460.408 52.9163 454.815 54.4779 447.598 56.5201C439.959 58.6824 434.125 61.0248 429.735 63.5475C428.652 64.1481 427.81 64.6286 426.848 65.2893C418.367 71.1755 414.879 80.8457 413.977 83.6687C411.15 92.9185 412.774 101.087 413.977 105.171C430.396 164.694 423.84 211.964 394.49 245.78C366.883 277.553 320.452 296.653 256.458 302.48C216.642 306.083 182.961 303.26 172.435 302.179L76.7451 419.603C66.5806 430.174 53.1683 436 39.5756 436H39.6358ZM15.0967 381.883C9.92427 394.196 11.2475 407.651 18.5851 415.639C23.3365 420.864 30.8546 423.868 39.2148 423.988C49.5597 424.108 60.1451 419.603 67.7835 411.615L167.323 289.446L170.631 289.866C172.135 290.046 324.361 308.306 385.468 237.851C411.992 207.219 417.706 163.733 402.489 108.415C400.564 101.988 398.94 91.7172 402.489 80.0649C403.993 75.2598 408.624 63.1871 419.991 55.3188C421.254 54.4179 422.337 53.8172 423.72 52.9763C428.953 49.9732 435.689 47.3304 444.229 44.8678C450.966 42.9458 456.319 41.4442 460.469 40.363C456.499 39.4621 451.748 38.6212 446.695 38.0806C438.095 37.1797 429.374 37.3599 420.713 38.6212L417.285 39.1618L415.119 36.3988C410.188 30.1523 396.414 15.3166 375.243 12.4336C359.666 10.3313 347.336 15.7371 340.78 18.6201C304.874 34.2966 288.876 72.2567 283.643 87.8732L283.222 89.0744L15.0967 381.883Z" fill="#2E5629"/>
<path d="M167.082 274.971C150.122 274.971 133.221 273.169 116.681 269.625C113.433 268.904 111.388 265.721 112.05 262.477C112.772 259.234 115.959 257.192 119.207 257.852C135.567 261.336 152.467 263.078 169.067 262.898C266.381 262.057 342.404 210.042 352.328 161.991C354.373 152.141 356.178 133.281 345.412 117.184C326.105 88.2335 280.395 91.7772 278.47 91.9574C275.102 92.2578 272.215 89.7952 271.975 86.4917C271.674 83.1882 274.14 80.3051 277.448 80.0048C283.042 79.5243 332.601 76.341 355.396 110.577C368.567 130.338 366.522 152.862 364.117 164.514C350.584 229.743 252.428 274.31 169.127 275.031C168.406 275.031 167.744 275.031 167.022 275.031L167.082 274.971Z" fill="#2E5629"/>
<path d="M171.894 242.717C160.948 242.717 150.002 241.756 139.236 239.894C137.612 239.594 136.529 238.032 136.77 236.41C137.07 234.789 138.574 233.708 140.258 233.948C152.889 236.11 165.76 237.011 178.57 236.531C238.294 234.368 309.686 202.234 316.723 159.589C317.445 155.205 319.129 140.009 310.047 129.017C299.341 116.043 276.426 112.74 251.586 120.548C250.022 121.029 248.338 120.188 247.797 118.566C247.316 117.004 248.158 115.323 249.782 114.782C277.388 106.073 302.288 110.037 314.678 125.173C325.324 138.087 323.459 155.505 322.617 160.55C315.039 206.739 242.083 240.254 178.751 242.537C176.465 242.597 174.18 242.657 171.834 242.657L171.894 242.717Z" fill="#2E5629"/>
<path d="M375.904 58.7424C383.478 58.7424 389.617 52.6112 389.617 45.048C389.617 37.4847 383.478 31.3535 375.904 31.3535C368.331 31.3535 362.191 37.4847 362.191 45.048C362.191 52.6112 368.331 58.7424 375.904 58.7424Z" fill="#2E5629"/>
<path d="M27.4261 397.979C26.7044 397.979 26.0428 397.739 25.4414 397.258C24.1783 396.177 24.058 394.255 25.1406 392.994L113.854 291.727C114.937 290.466 116.861 290.346 118.124 291.427C119.387 292.508 119.508 294.43 118.425 295.691L29.7116 396.958C29.1102 397.619 28.2682 397.979 27.4261 397.979Z" fill="#2E5629"/>
<path d="M46.131 411.855C45.4694 411.855 44.8078 411.614 44.2665 411.194C42.9433 410.173 42.7629 408.251 43.7854 406.989L128.168 302.059C129.191 300.797 131.116 300.557 132.379 301.578C133.702 302.599 133.882 304.521 132.86 305.783L48.4767 410.713C47.8752 411.434 47.0332 411.855 46.131 411.855Z" fill="#2E5629"/>
<path d="M421.435 65.2902C420.893 65.2902 420.292 65.11 419.811 64.8097C409.646 58.2027 405.616 53.2175 406.819 48.7127C407.361 46.6105 408.864 45.4693 410.248 44.3882C411.45 43.4872 412.774 42.4661 414.097 40.5441C415.179 38.9824 415.961 37.1805 416.503 35.1985C416.924 33.5767 418.548 32.6157 420.171 33.0362C421.795 33.4566 422.758 35.0783 422.337 36.7C421.675 39.3428 420.532 41.8054 419.089 43.9677C417.224 46.6706 415.36 48.1121 413.977 49.1932C413.435 49.6137 412.774 50.1542 412.653 50.3344C412.653 50.3344 412.593 52.9772 423.119 59.7644C424.502 60.6653 424.923 62.5273 424.021 63.9087C423.419 64.8097 422.457 65.2902 421.495 65.2902H421.435Z" fill="#2E5629"/>
</g>
<defs>
<clipPath id="clip0_579_19444">
<rect width="482" height="436" fill="white"/>
</clipPath>
</defs>
</svg>
